/* XPM */
static char *animation_fast_xpm[]={
"19 19 83 2",
"      c #000000",
" 0    c #86C0F1",
" 1    c #6FB3EE",
" 2    c #4BA1EA",
" 3    c #1E89E4",
" 4    c #69B0ED",
" 5    c #248CE5",
" 6    c #56A6EB",
" 7    c #A0CDF4",
" 8    c #E6F2FC",
" 9    c #FCFEFF",
" a    c #E7F2FC",
" b    c #A5D0F4",
" c    c #1F89E4",
" d    c #8AC2F1",
" e    c #419CE8",
" f    c #51A4EA",
" g    c #D5E9FA",
" h    c #FFFFFF",
" i    c #FDFEFF",
" j    c #CDE5F9",
" k    c #429CE9",
" l    c #8EC4F2",
" m    c #76B7EF",
" n    c #62ADEC",
" o    c #5DAAEC",
" p    c #F0F7FD",
" q    c #A7BEE6",
" r    c #1552BC",
" s    c #6D93D5",
" t    c #49A0E9",
" u    c #208AE4",
" v    c #DCEDFB",
" w    c #245DC0",
" x    c #C6D5EF",
" y    c #4173C9",
" z    c #8AA9DE",
" A    c #D0E6F9",
" B    c #FEFFFF",
" C    c #D3DEF2",
" D    c #D4DFF3",
" E    c #F1F5FB",
" F    c #52A4EA",
" G    c #B0D5F6",
" H    c #A8BFE6",
" I    c #95C7F2",
" J    c #1D88E4",
" K    c #99B4E2",
" L    c #B7C9EA",
" M    c #F0F4FB",
" N    c #E2E9F7",
" O    c #8AA8DD",
" P    c #EEF6FD",
" Q    c #EBF4FD",
" R    c #CBE4F9",
" S    c #91C5F2",
" T    c #5AA9EB",
" U    c #50A3EA",
" V    c #288EE5",
" W    c #D6EAFA",
" X    c #507DCD",
" Y    c #5E88D1",
" Z    c #3268C4",
" &    c #BEDDF7",
"0     c #218BE5",
"00    c #469EE9",
"01    c #F3F9FE",
"02    c #E5F1FC",
"03    c #61ACEC",
"04    c #EDF6FD",
"05    c #F6FAFE",
"06    c #57A7EB",
"07    c #459DE9",
"08    c #D2E8FA",
"09    c #C7E2F8",
"0a    c #3A98E8",
"0b    c #268DE5",
"0c    c #4FA3EA",
"0d    c #93C7F2",
"0e    c #D2E7FA",
"0f    c #92C6F2",
"0g    c #4DA2EA",
"0h    c #228BE5",
"           0 1 2 3 3 3 2 1 0          ",
"         4 5 6 7 8 9 a b 6 c 4        ",
"     d e f g h h h h h h i j 2 k d    ",
"   l k m h h h h h h h h h h a 4 e d  ",
"   n o p h h h h q r s h h h h h t n  ",
" 0 u v h h h h q w x y z h h h h A 5 0",
" 1 o B h h h C w D h E w q h h h h F 1",
" 2 G h h h C w H h h h D w q h h h I 2",
" J a h h h K L h h h h h D z M h h g c",
" J h h h h h h h N O C h h h h h h P 3",
" c Q h h h h h M y s w C h h h h h R 3",
" 2 G h h h h M y s h H w C h h h h S 2",
" 1 T h h h M y s h h h H w C h h h U 1",
" 0 V W h h X Y h h h h h z Z M h &0  0",
"   n0001 h h h h h h h h h h h020003  ",
"   d k 404 h h h h h h h h h0506 k l  ",
"     l k0708 h h h h h h h090a e d    ",
"         40b0c0d0e p W0f0g0h 4        ",
"           0 1 2 c c c 2 1 0          "};
