/* XPM */
static char * pause_xpm[] = {
"16 16 3 1",
" 	c None",
".	c #FFFF00",
"*      c #D1A716",
"                ",
"                ",
"                ",
"    ***  ***    ",
"    *.*  *.*    ",
"    *.*  *.*    ",
"    *.*  *.*    ",
"    *.*  *.*    ",
"    *.*  *.*    ",
"    *.*  *.*    ",
"    *.*  *.*    ",
"    *.*  *.*    ",
"    ***  ***    ",
"                ",
"                ",
"                "};
