/* XPM */
static char *string_xpm[] = {
"16 16 4 1 0 0",
"  c #000000",
"! c #4B4A87",
"# c #FFFFFF",
"$ c None",
"$$$$$$$$$$$$$$$$",
"$$$$$$$$$$$$$$$$",
"$$$$$$$$$$$$$$$$",
"$$$$$$$$$$$$$$$$",
"$$$$!!!!!!!!$$$$",
"$$$$!!!!!!!!$$$$",
"$$$$$$$!!$$$$$$$",
"$$$$$$$!!$$$$$$$",
"$$$$$$$!!$$$$$$$",
"$$$$$$$!!$$$$$$$",
"$$$$$$$!!$$$$$$$",
"$$$$$$$!!$$$$$$$",
"$$$$$$$!!$$$$$$$",
"$$$$$$$$$$$$$$$$",
"$$$$$$$$$$$$$$$$",
"$$$$$$$$$$$$$$$$"
};
