/* XPM */
static char * tabclose_xpm[] = {
"16 16 60 1",
" 	c None",
".	c #FF0000",
"+	c #72A2F6",
"@	c #5589E3",
"#	c #698EE1",
"$	c #D13F5C",
"%	c #F80102",
"&	c #1C50AA",
"*	c #002971",
"=	c #0E276C",
"-	c #931F45",
";	c #F40103",
">	c #7C0F2B",
",	c #A1A1A1",
"'	c #B7B7B7",
")	c #BABABA",
"!	c #BBA6A6",
"~	c #E23131",
"{	c #FE0D0D",
"]	c #D77B7B",
"^	c #717171",
"/	c #ADADAD",
"(	c #E3E3E3",
"_	c #EBEBEB",
":	c #EDD8D8",
"<	c #F75C5C",
"[	c #FE1010",
"}	c #F48686",
"|	c #DCDCDC",
"1	c #787878",
"2	c #EDD1D1",
"3	c #FA3B3B",
"4	c #FD1414",
"5	c #F1AAAA",
"6	c #F84F4F",
"7	c #FD1717",
"8	c #F39393",
"9	c #EECACA",
"0	c #FB2E2E",
"a	c #FD1A1A",
"b	c #EFB7B7",
"c	c #EEC7C7",
"d	c #FA3E3E",
"e	c #FD1E1E",
"f	c #F1A0A0",
"g	c #E7BCBC",
"h	c #FC2121",
"i	c #FC2424",
"j	c #EFC4C4",
"k	c #B48686",
"l	c #F62D2D",
"m	c #F51D1D",
"n	c #D69696",
"o	c #CECECE",
"p	c #C9C9C9",
"q	c #FA0808",
"r	c #DB0000",
"s	c #592F2F",
"t	c #383838",
"u	c #4B4B4B",
"                ",
"              . ",
"  +@@@@@@@@#$%  ",
"  &*******=-;>  ",
"  ,')))))!~{]^  ",
"  /(____:<[}|1  ",
"  /(___2345_|1  ",
"  /(__2678__|1  ",
"  /(_90ab___|1  ",
"  /(cdef____|1  ",
"  /ghij_____|1  ",
"  klmnoooooop1  ",
"  qrsttttttttu  ",
" ..             ",
" .              ",
"                "};
