/* XPM */
static char * tool_stop_xpm[] = {
"16 16 4 1",
" 	c None",
".	c #FF0000",
"@	c #F7071B",
"*      c #C60000",
"                ",
"                ",
"                ",
"    *********   ",
"    *@@@@@@@*   ",
"    *@.....@*   ",
"    *@.....@*   ",
"    *@.....@*   ",
"    *@.....@*   ",
"    *@.....@*   ",
"    *@.....@*   ",
"    *@@@@@@@*   ",
"    *********   ",
"                ",
"                ",
"                "};
