/* XPM */
static const char * achieveevent_xpm[] = {
"16 16 112 2",
"  	c #FFFFFF",
". 	c #ECF4FC",
"+ 	c #92C0EE",
"@ 	c #4B98E4",
"# 	c #2E87DF",
"$ 	c #93C0EE",
"% 	c #BBD7F4",
"& 	c #2E86DF",
"* 	c #1578DB",
"= 	c #1579DC",
"- 	c #BCD6F3",
"; 	c #1A7BDC",
"> 	c #2570CC",
", 	c #5059A4",
"' 	c #54579F",
") 	c #3369C0",
"! 	c #1678DA",
"~ 	c #BDD6F2",
"{ 	c #ECF4FD",
"] 	c #1877D8",
"^ 	c #7B437C",
"/ 	c #ED0911",
"( 	c #FE0202",
"_ 	c #FF0101",
": 	c #F90306",
"< 	c #A72E53",
"[ 	c #EDF4FC",
"} 	c #90BFEF",
"| 	c #7B447C",
"1 	c #FD0203",
"2 	c #BA2442",
"3 	c #1976D7",
"4 	c #92BEED",
"5 	c #4C98E5",
"6 	c #2670CC",
"7 	c #FF1505",
"8 	c #FE9511",
"9 	c #FFAB13",
"0 	c #FF3508",
"a 	c #58559D",
"b 	c #4C98E4",
"c 	c #2F87E0",
"d 	c #FF9710",
"e 	c #FEFE02",
"f 	c #FFFF01",
"g 	c #FFD80E",
"h 	c #FE0703",
"i 	c #953764",
"j 	c #56569D",
"k 	c #D1850F",
"l 	c #141402",
"m 	c #AAAA02",
"n 	c #FEEB10",
"o 	c #FE0B04",
"p 	c #993560",
"q 	c #3369BF",
"r 	c #CF0202",
"s 	c #130101",
"t 	c #483C0A",
"u 	c #F6E110",
"v 	c #FF680B",
"w 	c #714885",
"x 	c #8FBDEB",
"y 	c #1677DA",
"z 	c #802A4B",
"A 	c #430202",
"B 	c #F50804",
"C 	c #FE0A04",
"D 	c #DE121F",
"E 	c #2271CE",
"F 	c #91BEEC",
"G 	c #EBF1F6",
"H 	c #2D85DF",
"I 	c #1162B4",
"J 	c #020911",
"K 	c #310B13",
"L 	c #F50101",
"M 	c #455FAE",
"N 	c #DEE2E3",
"O 	c #272A2D",
"P 	c #161718",
"Q 	c #010101",
"R 	c #07203A",
"S 	c #1871CF",
"T 	c #953763",
"U 	c #BCD5F2",
"V 	c #F2F4F5",
"W 	c #D7DADB",
"X 	c #A2A6AA",
"Y 	c #141414",
"Z 	c #0A0A0B",
"` 	c #155799",
" .	c #2A84DE",
"..	c #BAD4F2",
"+.	c #5D5D5D",
"@.	c #1C1C1C",
"#.	c #DFE2E2",
"$.	c #212223",
"%.	c #97ABC0",
"&.	c #87B7E7",
"*.	c #4192E3",
"=.	c #1E7DDD",
"-.	c #1F7EDE",
";.	c #87B9ED",
">.	c #E9F2FC",
",.	c #565656",
"'.	c #1F1F1F",
").	c #BBBDBF",
"!.	c #E5E8E9",
"~.	c #E6EBEE",
"{.	c #737373",
"].	c #EEF3F3",
"          . + @ # # @ $ .       ",
"        % & * = * = = * & -     ",
"      % ; * * > , ' ) ! * ; ~   ",
"    { & * ] ^ / ( _ : < > * & [ ",
"    } * * | 1 ( ( ( ( ( 2 3 * 4 ",
"    5 = 6 / ( 7 8 9 0 ( _ a = b ",
"    c = , _ ( d e f g h _ i = # ",
"    # * j ( ( k l m n o ( p * # ",
"    5 = q : r s t u v ( _ w = b ",
"    x * y z s A B C ( ( D E * F ",
"    G H I J K L ( _ _ D M * H [ ",
"  N O P Q R S a T p w E * ; U   ",
"V W X Y Z ` * = * = = *  ...    ",
"+.@.Q #.$.%.&.*.=.-.*.;.>.      ",
"  ,.'.).!.~.                    ",
"    {.].                        "};
