/* XPM */
static char * achieveevent_xpm[] = {
"16 16 131 2",
"  	c None",
". 	c #FFFFFF",
"+ 	c #FBFBFC",
"@ 	c #C9C9F3",
"# 	c #605FDD",
"$ 	c #0504CA",
"% 	c #2625D0",
"& 	c #EDEDF9",
"* 	c #DEDEF6",
"= 	c #3838D4",
"- 	c #0E0DCC",
"; 	c #0302CA",
"> 	c #0B0ACC",
", 	c #5454DA",
"' 	c #E5E5F8",
") 	c #0403CA",
"! 	c #5A1F90",
"~ 	c #2E10AD",
"{ 	c #D2D2F4",
"] 	c #1211CD",
"^ 	c #3D15A3",
"/ 	c #B13C55",
"( 	c #CF4943",
"_ 	c #CF4745",
": 	c #C7444A",
"< 	c #7C2A7B",
"[ 	c #0B04C5",
"} 	c #0605CA",
"| 	c #A9A9EC",
"1 	c #AA3A5D",
"2 	c #D3563E",
"3 	c #D35A3A",
"4 	c #E6AA1E",
"5 	c #D3593B",
"6 	c #47199D",
"7 	c #CD4647",
"8 	c #D56039",
"9 	c #E6A81C",
"0 	c #F7F400",
"a 	c #E5A81D",
"b 	c #E39B23",
"c 	c #A03764",
"d 	c #F2F2FB",
"e 	c #4847D7",
"f 	c #682487",
"g 	c #CF4746",
"h 	c #DD852C",
"i 	c #F8F700",
"j 	c #EDC713",
"k 	c #D24E40",
"l 	c #8F316E",
"m 	c #0F05C0",
"n 	c #F6F6FC",
"o 	c #4645D7",
"p 	c #5A1F8F",
"q 	c #BF6431",
"r 	c #E8E303",
"s 	c #F7F401",
"t 	c #D04945",
"u 	c #AD3B5B",
"v 	c #0B03C2",
"w 	c #0B0ACB",
"x 	c #FDFDFE",
"y 	c #FCFCFE",
"z 	c #752E35",
"A 	c #2B2120",
"B 	c #E29B1F",
"C 	c #E8B518",
"D 	c #E7B318",
"E 	c #DA792F",
"F 	c #7D2B7A",
"G 	c #FEFEFE",
"H 	c #0B099F",
"I 	c #251E20",
"J 	c #572D27",
"K 	c #D56437",
"L 	c #D04C42",
"M 	c #D66437",
"N 	c #D0533E",
"O 	c #270EB3",
"P 	c #F7F7F7",
"Q 	c #C7C7CB",
"R 	c #403E80",
"S 	c #201B23",
"T 	c #1D173F",
"U 	c #551F7F",
"V 	c #B23F56",
"W 	c #BE4150",
"X 	c #BE414E",
"Y 	c #8E316C",
"Z 	c #2B10B0",
"` 	c #5151DA",
" .	c #EAEAF9",
"..	c #6D6A6B",
"+.	c #332E30",
"@.	c #292426",
"#.	c #231E20",
"$.	c #231E22",
"%.	c #0D0CA8",
"&.	c #0504CB",
"*.	c #1006C2",
"=.	c #250DB3",
"-.	c #1B0ABA",
";.	c #0706CB",
">.	c #D8D8F6",
",.	c #CBCACB",
"'.	c #B1AEB0",
").	c #858384",
"!.	c #565254",
"~.	c #ADADEB",
"{.	c #1F1ECF",
"].	c #6E6DE0",
"^.	c #8C8CE5",
"/.	c #343032",
"(.	c #272224",
"_.	c #474345",
":.	c #E0DFDF",
"<.	c #FBFBFD",
"[.	c #C3C2F1",
"}.	c #ECECFB",
"|.	c #E3E3F7",
"1.	c #252022",
"2.	c #565354",
"3.	c #292526",
"4.	c #E6E6E6",
"5.	c #FAFAFA",
"6.	c #F9F9FB",
"7.	c #312C2E",
"8.	c #827F81",
"9.	c #B0AFAF",
"0.	c #FDFDFD",
". . + . . @ # $ $ $ $ % $ & . . ",
". . . + * = - ; ; ; ; ; > , ' + ",
". + +   ) ) ) $ $ ! $ ~ $ ) $ . ",
". . + { ] ) ^ / ( _ _ : < [ } | ",
". + .   ) ) 1 2 3 4 5 2 2 6 $ $ ",
". . +   ) $ 7 8 9 0 a b 2 c $ $ ",
"+ . d e ; f g h 0 i 0 j k l m ; ",
". + n o ; p g q r i s 4 t u v w ",
". x y $ $ ) z A B C D E 2 F ) ) ",
". G G   ) H I J K L M N 2 O ) ) ",
"P G G Q R S T U V W X Y Z ) `  .",
"..+.@.#.#.$.%.&.*.=.-.;.;.e >.. ",
",.'.).#.#.!.~.) ) } ) {.].^.. . ",
"/.(.#._.#.:.<.. . [..  .}.|.. . ",
"G G 1.2.3.4.5.6.+ . + + + . . . ",
"x G 7.8.9.0.P . . + . . . + . + "};
