/* XPM */
static char * achieveevent_xpm[] = {
"16 16 75 1",
" 	c None",
".	c #1377DB",
"+	c #1477DB",
"@	c #1478DC",
"#	c #236FCC",
"$	c #4F58A3",
"%	c #53569E",
"&	c #3168BF",
"*	c #1477DA",
"=	c #1776D8",
"-	c #7A427B",
";	c #ED0810",
">	c #FE0000",
",	c #FF0000",
"'	c #F90205",
")	c #A62C52",
"!	c #246FCC",
"~	c #7A437B",
"{	c #FD0001",
"]	c #B92240",
"^	c #1775D7",
"/	c #FF1000",
"(	c #FE8D00",
"_	c #FFA400",
":	c #FF2E00",
"<	c #57549C",
"[	c #FF9000",
"}	c #FEFE00",
"|	c #FFFF00",
"1	c #FFD600",
"2	c #FE0400",
"3	c #943563",
"4	c #55559C",
"5	c #CE7D00",
"6	c #121200",
"7	c #A9A900",
"8	c #FEEA00",
"9	c #FE0700",
"0	c #98335F",
"a	c #3168BE",
"b	c #CF0000",
"c	c #120000",
"d	c #403400",
"e	c #F5DF00",
"f	c #FF6100",
"g	c #704784",
"h	c #1476DA",
"i	c #7F284A",
"j	c #420000",
"k	c #F50400",
"l	c #FE0600",
"m	c #DE101D",
"n	c #2070CE",
"o	c #0F61B3",
"p	c #010810",
"q	c #2F0911",
"r	c #F50000",
"s	c #445EAE",
"t	c #D6DBDC",
"u	c #000407",
"v	c #000102",
"w	c #000000",
"x	c #051E38",
"y	c #1670CF",
"z	c #943562",
"A	c #EFF2F3",
"B	c #C5C9CB",
"C	c #000001",
"D	c #0D5296",
"E	c #DEE1E1",
"F	c #1371D0",
"G	c #AFB2B4",
"H	c #DEE1E3",
"I	c #DDE4E8",
"J	c #EEF3F3",
"       ....     ",
"     +.@.@@.+   ",
"    ...#$%&*..  ",
"   +.=-;>,')!.+ ",
"   ..~{>>>>>]^. ",
"  @@!;>/(_:>,<@+",
"  @@$,>[}|12,3@.",
"  ..4>>56789>0..",
"  @@a'bcdef>,g@+",
"   .hicjkl>>mn. ",
"   +opqr>,,ms.+ ",
" tuvwxy<z0gn..  ",
"AB wCD.@.@@.+   ",
"wwwEv F@.@@h    ",
" wwGHI          ",
"  wJ            "};
