/* XPM */
static char * achieveevent_xpm[] = {
"16 16 107 2",
"  	c None",
". 	c #FFFFFF",
"+ 	c #EEEEEE",
"@ 	c #CAC9CA",
"# 	c #BFBFBF",
"$ 	c #CACACA",
"% 	c #F1F1F1",
"& 	c #9E9D9E",
"* 	c #706F70",
"= 	c #716F71",
"- 	c #6D6C6D",
"; 	c #706E70",
"> 	c #9F9E9F",
", 	c #EDEDED",
"' 	c #807E80",
") 	c #747274",
"! 	c #B1B0B1",
"~ 	c #E4E4E4",
"{ 	c #F9F9F9",
"] 	c #EAEAEA",
"^ 	c #BEBDBE",
"/ 	c #7B797B",
"( 	c #817F81",
"_ 	c #FEFEFE",
": 	c #8D8B8D",
"< 	c #767476",
"[ 	c #DFDEDF",
"} 	c #CDCDCD",
"| 	c #B2B1B2",
"1 	c #FCFCFC",
"2 	c #818081",
"3 	c #8E8D8E",
"4 	c #D3D3D3",
"5 	c #BDBCBD",
"6 	c #999899",
"7 	c #6E6C6E",
"8 	c #6E6D6E",
"9 	c #6D6B6D",
"0 	c #919091",
"a 	c #FBFBFB",
"b 	c #D8D8D8",
"c 	c #D4D4D4",
"d 	c #A9A8A9",
"e 	c #F5F5F5",
"f 	c #CBCBCB",
"g 	c #B5B5B5",
"h 	c #DBDBDB",
"i 	c #C1C1C1",
"j 	c #ABAAAB",
"k 	c #9A999A",
"l 	c #ACACAC",
"m 	c #6B6A6B",
"n 	c #F8F8F8",
"o 	c #E9E9E9",
"p 	c #908F90",
"q 	c #A3A2A3",
"r 	c #959495",
"s 	c #9C9B9C",
"t 	c #737173",
"u 	c #FDFDFD",
"v 	c #BDBDBD",
"w 	c #514F51",
"x 	c #2F2F2F",
"y 	c #C6C6C6",
"z 	c #797779",
"A 	c #B4B3B4",
"B 	c #8B8A8B",
"C 	c #A4A3A4",
"D 	c #C5C4C5",
"E 	c #5F5F5F",
"F 	c #000000",
"G 	c #2E2D2E",
"H 	c #7A797A",
"I 	c #7C7B7C",
"J 	c #4E4E4E",
"K 	c #2D2D2D",
"L 	c #8B898B",
"M 	c #A2A1A2",
"N 	c #ECECEC",
"O 	c #9A989A",
"P 	c #7D7B7D",
"Q 	c #222222",
"R 	c #C9C9C9",
"S 	c #EBEBEB",
"T 	c #989798",
"U 	c #D7D7D7",
"V 	c #D9D9D9",
"W 	c #353535",
"X 	c #4A4A4A",
"Y 	c #3F3F3F",
"Z 	c #A5A5A5",
"` 	c #838183",
" .	c #949394",
"..	c #888788",
"+.	c #7E7C7E",
"@.	c #C2C2C2",
"#.	c #121212",
"$.	c #101010",
"%.	c #C7C6C7",
"&.	c #FAFAFA",
"*.	c #C0C0C0",
"=.	c #575757",
"-.	c #060606",
";.	c #CCCCCC",
">.	c #020202",
",.	c #A7A7A7",
"'.	c #9C9C9C",
". . . . . . . + @ # $ + . . . . ",
". . . . . % & * = - ; = > % . . ",
". . . . , ' ) ! ~ { ] ^ / ( , . ",
". . . _ : < [ _ } | @ 1 + 2 3 _ ",
". . . 4 = 5 _ 6 7 8 9 0 a b ; c ",
". . . d ; e f 7 g _ h = i . 2 j ",
". . . k / . l m n * o p q . r s ",
". . . q t u v w x y e z A . B C ",
". . . D = } E F G r / H % , = y ",
". . . n I 2 J K k L M N _ O P { ",
". . . . f Q m R . . . S T t U . ",
". V W X Y Z P ; `  ...= +.b . . ",
"@.#.F F $.u { y q T q %.{ . . . ",
"&.*.=.F -.] . . . . . . . . . . ",
". . ;.>.,.. . . . . . . . . . . ",
". . { '.. . . . . . . . . . . . "};
