/* XPM */
static const char *animation_options_xpm[]={
"16 16 5 1",
"      c #000000",
"0     c #FFFFFF",
"1     c #0000FF",
"2     c #C0C0C0",
"3     c #808080",
"                ",
" 0000000000000  ",
" 0111111111111  ",
" 0111111111111  ",
" 0111111111111  ",
" 0222222222222  ",
" 0200000233332  ",
" 0200000233332  ",
" 0200000222222  ",
" 0200000233332  ",
" 0222222233332  ",
" 0222222222222  ",
" 0222222222222  ",
" 0222222222222  ",
"                ",
"                "};
