/* XPM */
static char *animation_play_xpm[]={
"33 33 280 2",
"      c #D6D6D6",
" 0    c #DEDFE4",
" 1    c #FFFFFF",
" 2    c #F6F6FE",
" 3    c #D0D4DC",
" 4    c #D7DAE0",
" 5    c #CBDBCB",
" 6    c #83BD83",
" 7    c #3FA03F",
" 8    c #349833",
" 9    c #339833",
" a    c #269826",
" b    c #268726",
" c    c #198B19",
" d    c #108410",
" e    c #AAD9AA",
" f    c #D7DDE8",
" g    c #4BA54B",
" h    c #67B467",
" i    c #78BC78",
" j    c #66B467",
" k    c #57AB57",
" l    c #197B19",
" m    c #0E620E",
" n    c #C6DEC6",
" o    c #DEE1E6",
" p    c #88D188",
" q    c #A3D8A3",
" r    c #87D087",
" s    c #87D086",
" t    c #76BC77",
" u    c #77BC77",
" v    c #76BC78",
" w    c #026202",
" x    c #FEFEFE",
" y    c #88D187",
" z    c #A3D9A3",
" A    c #A4D9A4",
" B    c #7DC17C",
" C    c #58AC58",
" D    c #87D187",
" E    c #A2D8A1",
" F    c #8ED38E",
" G    c #90D38F",
" H    c #7CC17C",
" I    c #69B467",
" J    c #68B467",
" K    c #51A851",
" L    c #88D088",
" M    c #8FD38F",
" N    c #7CC27D",
" O    c #6AB56B",
" P    c #69B469",
" Q    c #7CC07B",
" R    c #6AB569",
" S    c #65B165",
" T    c #63B163",
" U    c #60AF5F",
" V    c #369D36",
" W    c #2F982F",
" X    c #79BE7A",
" Y    c #65B264",
" Z    c #5AAC5A",
" &    c #57AB59",
"0     c #3BB13C",
"00    c #44A244",
"01    c #68B468",
"02    c #60AF60",
"03    c #58AC57",
"04    c #D2E8D2",
"05    c #5FAF5F",
"06    c #D3E9D3",
"07    c #3B9D3B",
"08    c #2E982F",
"09    c #D1E8D1",
"0a    c #56AB57",
"0b    c #50A750",
"0c    c #269825",
"0d    c #1A981A",
"0e    c #57AB56",
"0f    c #50A751",
"0g    c #CFE7CF",
"0h    c #229923",
"0i    c #1FA41F",
"0j    c #239823",
"0k    c #239822",
"0l    c #57AB58",
"0m    c #56AA54",
"0n    c #50A74F",
"0o    c #1B991B",
"0p    c #1A981B",
"0q    c #1B981B",
"0r    c #56AB55",
"0s    c #1B9B1A",
"0t    c #1A9A1C",
"0u    c #1B981A",
"0v    c #56AB56",
"0w    c #56AA56",
"0x    c #53A852",
"0y    c #1D9D1C",
"0z    c #1C9F1B",
"0A    c #1B9A1B",
"0B    c #50A851",
"0C    c #53A752",
"0D    c #54A853",
"0E    c #53A953",
"0F    c #52AA53",
"0G    c #51A752",
"0H    c #3BB23A",
"0I    c #1CA41A",
"0J    c #1AA01B",
"0K    c #4EA54B",
"0L    c #4EA74D",
"0M    c #4EA64D",
"0N    c #4EA74E",
"0O    c #4DA74E",
"0P    c #21AC21",
"0Q    c #1CAA1A",
"0R    c #1BA91B",
"0S    c #189B1A",
"0T    c #4AA54A",
"0U    c #4BA44B",
"0V    c #4BA64B",
"0W    c #4CA54C",
"0X    c #4CA54B",
"0Y    c #4BA54C",
"0Z    c #37B037",
"0&    c #22B022",
"1     c #1CAD19",
"10    c #16AF18",
"11    c #10B210",
"12    c #0E930E",
"13    c #3EA03F",
"14    c #47A447",
"15    c #D2E9D2",
"16    c #3DB23D",
"17    c #3CB03B",
"18    c #39AF38",
"19    c #28B32A",
"1a    c #17B114",
"1b    c #1EAE1D",
"1c    c #0FB30F",
"1d    c #339A33",
"1e    c #3E9F3D",
"1f    c #45A345",
"1g    c #48A448",
"1h    c #4BA54A",
"1i    c #D1E9D1",
"1j    c #3BB13B",
"1k    c #3CB13C",
"1l    c #37B238",
"1m    c #25B623",
"1n    c #10B310",
"1o    c #259826",
"1p    c #309831",
"1q    c #3B9D3A",
"1r    c #41A03F",
"1s    c #45A346",
"1t    c #48A54A",
"1u    c #38B238",
"1v    c #38B538",
"1w    c #3AB03C",
"1x    c #26B527",
"1y    c #0FB310",
"1z    c #029D02",
"1A    c #108510",
"1B    c #1B971A",
"1C    c #2F972F",
"1D    c #349934",
"1E    c #42A244",
"1F    c #47A348",
"1G    c #4BA44A",
"1H    c #49A549",
"1I    c #D1E9D0",
"1J    c #41B442",
"1K    c #39AF39",
"1L    c #2FB731",
"1M    c #31B233",
"1N    c #31B033",
"1O    c #38B13A",
"1P    c #3AB13C",
"1Q    c #26B627",
"1R    c #118411",
"1S    c #188B18",
"1T    c #269626",
"1U    c #31972F",
"1V    c #359B36",
"1W    c #40A041",
"1X    c #48A447",
"1Y    c #4AA44A",
"1Z    c #D0E9D0",
"1&    c #43B243",
"2     c #2DB72E",
"20    c #27AF27",
"21    c #27AD28",
"22    c #2EAE2E",
"23    c #2FB030",
"24    c #24B623",
"25    c #25B723",
"26    c #028E02",
"27    c #088608",
"28    c #258825",
"29    c #279629",
"2a    c #319A32",
"2b    c #3D9E3D",
"2c    c #46A246",
"2d    c #47A347",
"2e    c #47A246",
"2f    c #198419",
"2g    c #3DAF3D",
"2h    c #40B040",
"2i    c #26AD27",
"2j    c #22AB22",
"2k    c #23AB23",
"2l    c #21AC22",
"2m    c #0FB20F",
"2n    c #027C02",
"2o    c #269726",
"2p    c #269827",
"2q    c #329933",
"2r    c #3CAB3D",
"2s    c #3AA93B",
"2t    c #3AA739",
"2u    c #37A939",
"2v    c #22A622",
"2w    c #1EA71E",
"2x    c #12AC12",
"2y    c #0FB10F",
"2z    c #2D9A2D",
"2A    c #2B972B",
"2B    c #299529",
"2C    c #2C9B2C",
"2D    c #1A9819",
"2E    c #199619",
"2F    c #12A911",
"2G    c #179717",
"2H    c #0EAA0F",
"2I    c #039C02",
"2J    c #029D03",
"2K    c #028402",
"2L    c #027202",
"2M    c #DBDCDF",
"2N    c #0D740D",
"2O    c #268626",
"2P    c #198719",
"2Q    c #188318",
"2R    c #188219",
"2S    c #168E16",
"2T    c #179218",
"2U    c #179418",
"2V    c #0E8E0D",
"2W    c #0D8D0E",
"2X    c #0E8E0E",
"2Y    c #0E8F0E",
"2Z    c #0D930D",
"2&    c #CEDACE",
"3     c #177A18",
"30    c #177816",
"31    c #167717",
"32    c #177818",
"33    c #0C7A0B",
"34    c #0C7D0C",
"35    c #0C7C0C",
"36    c #0C7A0A",
"37    c #0B7A0B",
"38    c #0A7A0B",
"39    c #027B02",
"3a    c #AFD8AF",
"3b    c #D6D8DB",
"3c    c #3E733E",
"3d    c #0F630F",
"3e    c #056405",
"3f    c #116512",
"3g    c #10650F",
"3h    c #026303",
"3i    c #0F630E",
"3j    c #076507",
"3k    c #056506",
"3l    c #026203",
"3m    c #D7DCE7",
"       0 1 1 1 1 1 1 1 1 1 1 1 1 1 1 1 1 1 1 1 1 1 1 1 1 1 2 3    ",
"   4 5 6 7 7 7 8 9 9 9 9 9 9 9 9 9 9 a a a a b a a c c c d 7 e f  ",
"   5 g h i i j h k k k k g k g g g g g g g 7 7 7 7 9 9 a b l m n 3",
" o 6 i p q r s t u v h h h h h h k k k k k k k g g 7 7 9 a b l w 2",
" x g i y z A p B i i i h h h C C C C C h k k k k g g 7 9 9 b l w x",
" x g i D E F G H i i I J 1 h C g g g K k k k k g g g 7 7 9 b l m 1",
" 1 7 i L p M B N i O P h 1 1 K g g g K g g g g 7 7 7 7 9 9 b l m x",
" 1 7 h i p Q B R S T U k 1 1 1 g g g g 7 7 7 V V W W 9 9 9 b l m x",
" 1 9 h i i X i Y Z & k k 1 1 1 10  g00 7 9 W W a a W 9 9 9 b l m 1",
" x 7 k h i i010203 k k k 104 1 1 1 g00 9 W W a a a a 9 a 9 b l m 1",
" 1 9 k h i h h05 k k k k 106 1 1 1 107 W W a a a a W a 9 a b l m 1",
" 1 9 k h h h h h k k k k 106 1 1 1 1 108 a a a a a a a a 9 b l m 1",
" 1 9 g h h h h k k k k k 109 1 1 1 1 1 1 a a a a a a a a a b l m 1",
" x 9 g k k h k k k0a0b0b 106 1 1 1 1 1 1 1 a a0c0c0d a a a a l m 1",
" 1 a g k k k k05 k0e0f0f 10g 1 1 1 1 1 1 1 10h0i0d0d0j0k0j b l m 1",
" 1 a 7 k k k k C0l k0m0n 104 1 1 1 1 1 1 1 1 10o0d0p0q0d0j a l m 1",
" x a 7 g k k k k k0l0r K 104 1 1 1 1 1 1 1 1 1 10s0t0o0u0j0d l m 1",
" x a 7 g0b k k0v0w k0w0x 104 1 1 1 1 1 1 1 1 1 10y0z0A0s0j0d l m 1",
" x a 7 g0b0b0B0C0D0E0F0G 109 1 1 1 1 1 1 1 1 10H0k0I0J0i0d0d l m 1",
" 10d 9 g g g g0K0L0M0N0O 104 1 1 1 1 1 1 1 10H0k0P0Q0R0S0d0d l m x",
" 1 c 9 70T0U g g0V0W0X0Y 104 1 1 1 1 1 1 10H0Z0k0&1 10110d12 l m x",
" 1 c 913 7140T0V g g g g 115 1 1 1 1 1 10H161718191a1b1c1c12 l w 1",
" x c0c1d1e1f1g0T g g g1h 11i 1 1 1 1 10H0H1j1k0 1l1m1n1c1212 l w 1",
" 1 d1o1p1q1r1s1t0U g g1h 11i 1 1 1 10H0H1u1v0H0 1w1x1y1c1z12 l w 1",
" 11A1B1C1D1q1E1F1G g0U1H 11I 1 1 10H1J1K1L1M1N1O1P1Q1c1c1z1z l w 1",
" 11R1S1T1U1V1W1X1Y0U1h1s 11Z 1 10H161&2 2021222324251c1c1z26 l w 1",
" 127 c28292a2b2c2c2d2d2e 1 1 12f0H2g2h2i2j2k2l1n2m1c1c1z1z262n w 1",
" 127 c c2o2p2q 8 9 9 9 9 1 12f2r2s2t2u2v0i2w1c2x1c2y1z1z1z262n w x",
" 12n d c c b a a 9 9 a a 12f2f2z2A2B2C2D2E2F2G2H122I2J1z262K2L w 1",
"2M 92N d l l b b b b b b2f2O2P2f2Q2R2S2T2U2V2W2X2Y2Z26262K2L w b 2",
"  2& w m2N2N2N l l l l l l l3 303132333435363738392n2n2L2L w w3a 3",
"  3b2&3c w m m m m m m m m m3d3e3f3g3h3i3h3e3j3k3l w w w w b3a3m  ",
"      2M x x x x x x x x x x x x x x x x x x x x x 1 x x x 2 3    "};
