/* XPM */
static char *animation_stop_xpm[]={
"33 33 295 2",
"      c #D6D6D6",
" 0    c #DEDFE4",
" 1    c #FFFFFF",
" 2    c #F6F6FE",
" 3    c #D0D4DC",
" 4    c #D7DAE0",
" 5    c #CBDBCB",
" 6    c #83BD83",
" 7    c #3FA03F",
" 8    c #349833",
" 9    c #339833",
" a    c #269826",
" b    c #268726",
" c    c #198B19",
" d    c #108410",
" e    c #AAD9AA",
" f    c #D7DDE8",
" g    c #4BA54B",
" h    c #67B467",
" i    c #78BC78",
" j    c #66B467",
" k    c #57AB57",
" l    c #197B19",
" m    c #0E620E",
" n    c #C6DEC6",
" o    c #DEE1E6",
" p    c #88D188",
" q    c #A3D8A3",
" r    c #87D087",
" s    c #87D086",
" t    c #76BC77",
" u    c #77BC77",
" v    c #76BC78",
" w    c #026202",
" x    c #FEFEFE",
" y    c #88D187",
" z    c #A3D9A3",
" A    c #A4D9A4",
" B    c #7DC17C",
" C    c #58AC58",
" D    c #87D187",
" E    c #A2D8A1",
" F    c #8ED38E",
" G    c #90D38F",
" H    c #7CC17C",
" I    c #69B467",
" J    c #68B467",
" K    c #51A851",
" L    c #88D088",
" M    c #8FD38F",
" N    c #7CC27D",
" O    c #6AB56B",
" P    c #69B469",
" Q    c #7CC07B",
" R    c #6AB569",
" S    c #65B165",
" T    c #63B163",
" U    c #60AF5F",
" V    c #369D36",
" W    c #2F982F",
" X    c #79BE7A",
" Y    c #65B264",
" Z    c #5AAC5A",
" &    c #57AB59",
"0     c #44A244",
"00    c #68B468",
"01    c #60AF60",
"02    c #58AC57",
"03    c #50A750",
"04    c #5FAF5F",
"05    c #81C081",
"06    c #80C081",
"07    c #269825",
"08    c #1A981A",
"09    c #81C080",
"0a    c #1FA41F",
"0b    c #239823",
"0c    c #239822",
"0d    c #57AB58",
"0e    c #1B991B",
"0f    c #1A981B",
"0g    c #1B981B",
"0h    c #81C082",
"0i    c #1B9B1A",
"0j    c #1A9A1C",
"0k    c #1B981A",
"0l    c #56AB56",
"0m    c #56AA56",
"0n    c #1F9E1D",
"0o    c #1D9D1C",
"0p    c #1C9F1B",
"0q    c #1B9A1B",
"0r    c #50A851",
"0s    c #53A752",
"0t    c #54A853",
"0u    c #7EBF7E",
"0v    c #23A524",
"0w    c #20A520",
"0x    c #1CA41A",
"0y    c #1AA01B",
"0z    c #4EA54B",
"0A    c #4EA74D",
"0B    c #7ABC7A",
"0C    c #2BAC2A",
"0D    c #21AC21",
"0E    c #1CAA1A",
"0F    c #1BA91B",
"0G    c #189B1A",
"0H    c #4AA54A",
"0I    c #4BA44B",
"0J    c #4BA64B",
"0K    c #79BC79",
"0L    c #32AE31",
"0M    c #22B022",
"0N    c #1CAD19",
"0O    c #16AF18",
"0P    c #10B210",
"0Q    c #0E930E",
"0R    c #3EA03F",
"0S    c #47A447",
"0T    c #39AF38",
"0U    c #28B32A",
"0V    c #17B114",
"0W    c #1EAE1D",
"0X    c #0FB30F",
"0Y    c #339A33",
"0Z    c #3E9F3D",
"0&    c #45A345",
"1     c #48A448",
"10    c #6DB66D",
"11    c #D2E8D2",
"12    c #D1E9D1",
"13    c #D1EAD1",
"14    c #CFEBCF",
"15    c #CFECCF",
"16    c #CEECCE",
"17    c #D1EDD1",
"18    c #CEECCD",
"19    c #CEEBCE",
"1a    c #3BB13C",
"1b    c #37B238",
"1c    c #25B623",
"1d    c #10B310",
"1e    c #259826",
"1f    c #309831",
"1g    c #3B9D3A",
"1h    c #41A03F",
"1i    c #45A346",
"1j    c #48A54A",
"1k    c #4BA54A",
"1l    c #49A448",
"1m    c #47A847",
"1n    c #45AC45",
"1o    c #3FB140",
"1p    c #3EB23E",
"1q    c #44B344",
"1r    c #37B536",
"1s    c #38B238",
"1t    c #38B538",
"1u    c #3BB23A",
"1v    c #3AB03C",
"1w    c #26B527",
"1x    c #0FB310",
"1y    c #029D02",
"1z    c #108510",
"1A    c #1B971A",
"1B    c #2F972F",
"1C    c #349934",
"1D    c #42A244",
"1E    c #47A348",
"1F    c #4BA44A",
"1G    c #49A549",
"1H    c #45A445",
"1I    c #46A845",
"1J    c #43AE44",
"1K    c #3FB13E",
"1L    c #3DB23D",
"1M    c #41B442",
"1N    c #39AF39",
"1O    c #2FB731",
"1P    c #31B233",
"1Q    c #31B033",
"1R    c #38B13A",
"1S    c #3AB13C",
"1T    c #26B627",
"1U    c #118411",
"1V    c #188B18",
"1W    c #269626",
"1X    c #31972F",
"1Y    c #359B36",
"1Z    c #40A041",
"1&    c #48A447",
"2     c #4AA44A",
"20    c #43A442",
"21    c #43A943",
"22    c #42B043",
"23    c #3DB23E",
"24    c #43B243",
"25    c #2DB72E",
"26    c #27AF27",
"27    c #27AD28",
"28    c #2EAE2E",
"29    c #2FB030",
"2a    c #24B623",
"2b    c #25B723",
"2c    c #028E02",
"2d    c #088608",
"2e    c #258825",
"2f    c #279629",
"2g    c #319A32",
"2h    c #3D9E3D",
"2i    c #46A246",
"2j    c #47A347",
"2k    c #47A246",
"2l    c #3F9F3E",
"2m    c #3BA63C",
"2n    c #40AB40",
"2o    c #40B041",
"2p    c #3DB13D",
"2q    c #3DAF3D",
"2r    c #40B040",
"2s    c #26AD27",
"2t    c #22AB22",
"2u    c #23AB23",
"2v    c #21AC22",
"2w    c #0FB20F",
"2x    c #027C02",
"2y    c #269726",
"2z    c #269827",
"2A    c #329933",
"2B    c #329834",
"2C    c #339B34",
"2D    c #3BA73C",
"2E    c #3CAB3D",
"2F    c #3AA93B",
"2G    c #3AA739",
"2H    c #37A939",
"2I    c #22A622",
"2J    c #1EA71E",
"2K    c #12AC12",
"2L    c #0FB10F",
"2M    c #359D33",
"2N    c #2D9A2D",
"2O    c #2B972B",
"2P    c #299529",
"2Q    c #2C9B2C",
"2R    c #1A9819",
"2S    c #199619",
"2T    c #12A911",
"2U    c #179717",
"2V    c #0EAA0F",
"2W    c #039C02",
"2X    c #029D03",
"2Y    c #028402",
"2Z    c #027202",
"2&    c #DBDCDF",
"3     c #0D740D",
"30    c #268626",
"31    c #198719",
"32    c #198419",
"33    c #188318",
"34    c #188219",
"35    c #168E16",
"36    c #179218",
"37    c #179418",
"38    c #0E8E0D",
"39    c #0D8D0E",
"3a    c #0E8E0E",
"3b    c #0E8F0E",
"3c    c #0D930D",
"3d    c #CEDACE",
"3e    c #177A18",
"3f    c #177816",
"3g    c #167717",
"3h    c #177818",
"3i    c #0C7A0B",
"3j    c #0C7D0C",
"3k    c #0C7C0C",
"3l    c #0C7A0A",
"3m    c #0B7A0B",
"3n    c #0A7A0B",
"3o    c #027B02",
"3p    c #AFD8AF",
"3q    c #D6D8DB",
"3r    c #3E733E",
"3s    c #0F630F",
"3t    c #056405",
"3u    c #116512",
"3v    c #10650F",
"3w    c #026303",
"3x    c #0F630E",
"3y    c #076507",
"3z    c #056506",
"3A    c #026203",
"3B    c #D7DCE7",
"       0 1 1 1 1 1 1 1 1 1 1 1 1 1 1 1 1 1 1 1 1 1 1 1 1 1 2 3    ",
"   4 5 6 7 7 7 8 9 9 9 9 9 9 9 9 9 9 a a a a b a a c c c d 7 e f  ",
"   5 g h i i j h k k k k g k g g g g g g g 7 7 7 7 9 9 a b l m n 3",
" o 6 i p q r s t u v h h h h h h k k k k k k k g g 7 7 9 a b l w 2",
" x g i y z A p B i i i h h h C C C C C h k k k k g g 7 9 9 b l w x",
" x g i D E F G H i i I J h h C g g g K k k k k g g g 7 7 9 b l m 1",
" 1 7 i L p M B N i O P h h k K g g g K g g g g 7 7 7 7 9 9 b l m x",
" 1 7 h i p Q B R S T U k k k K g g g g 7 7 7 V V W W 9 9 9 b l m x",
" 1 9 h i i X i Y Z & k k k g g g g g0  7 9 W W a a W 9 9 9 b l m 1",
" x 7 k h i i000102 k k k03 g g g g g0  9 W W a a a a 9 a 9 b l m 1",
" 1 9 k h i h h04 k05 1 1 1 1 1 1 1 1 1 1 1 1 1 a a W a 9 a b l m 1",
" 1 9 k h h h h h k05 1 1 1 1 1 1 1 1 1 1 1 1 1 a a a a a 9 b l m 1",
" 1 9 g h h h h k k05 1 1 1 1 1 1 1 1 1 1 1 1 1 a a a a a a b l m 1",
" x 9 g k k h k k k06 1 1 1 1 1 1 1 1 1 1 1 1 1070708 a a a a l m 1",
" 1 a g k k k k04 k09 1 1 1 1 1 1 1 1 1 1 1 1 10a08080b0c0b b l m 1",
" 1 a 7 k k k k C0d05 1 1 1 1 1 1 1 1 1 1 1 1 10e080f0g080b a l m 1",
" x a 7 g k k k k k0h 1 1 1 1 1 1 1 1 1 1 1 1 10i0i0j0e0k0b08 l m 1",
" x a 7 g03 k k0l0m05 1 1 1 1 1 1 1 1 1 1 1 1 10n0o0p0q0i0b08 l m 1",
" x a 7 g03030r0s0t0u 1 1 1 1 1 1 1 1 1 1 1 1 10v0w0x0y0a0808 l m 1",
" 108 9 g g g g0z0A0B 1 1 1 1 1 1 1 1 1 1 1 1 10C0D0E0F0G0808 l m x",
" 1 c 9 70H0I g g0J0K 1 1 1 1 1 1 1 1 1 1 1 1 10L0M0N0O0P080Q l m x",
" 1 c 90R 70S0H0J g i 1 1 1 1 1 1 1 1 1 1 1 1 10T0U0V0W0X0X0Q l w 1",
" x c070Y0Z0&1 0H g10111111121314151617151819191a1b1c1d0X0Q0Q l w 1",
" 1 d1e1f1g1h1i1j0I g g1k1l1m1n1o1p1p1q1r1s1t1u1a1v1w1x0X1y0Q l w 1",
" 11z1A1B1C1g1D1E1F g0I1G1H1I1J1K1L1p1M1N1O1P1Q1R1S1T0X0X1y1y l w 1",
" 11U1V1W1X1Y1Z1&2 0I1k1i2021221o231L2425262728292a2b0X0X1y2c l w 1",
" 12d c2e2f2g2h2i2i2j2j2k2l2m2n2o2p2q2r2s2t2u2v1d2w0X0X1y1y2c2x w 1",
" 12d c c2y2z2A 8 9 9 9 92B2C2D2E2F2G2H2I0a2J0X2K0X2L1y1y1y2c2x w x",
" 12x d c c b a a 9 9 a a a1W2M2N2O2P2Q2R2S2T2U2V0Q2W2X1y2c2Y2Z w 1",
"2& 93  d l l b b b b b b30303132333435363738393a3b3c2c2c2Y2Z w b 2",
"  3d w m3 3 3  l l l l l l l3e3f3g3h3i3j3k3l3m3n3o2x2x2Z2Z w w3p 3",
"  3q3d3r w m m m m m m m m m3s3t3u3v3w3x3w3t3y3z3A w w w w b3p3B  ",
"      2& x x x x x x x x x x x x x x x x x x x x x 1 x x x 2 3    "};
