/* XPM */
static char *animation_slow_xpm[]={
"19 19 84 2",
"      c #000000",
" 0    c #86C0F1",
" 1    c #6FB3EE",
" 2    c #4BA1EA",
" 3    c #1F89E4",
" 4    c #69B0ED",
" 5    c #288FE5",
" 6    c #5AA9EB",
" 7    c #A5D0F4",
" 8    c #E5F1FC",
" 9    c #FFFFFF",
" a    c #E7F2FC",
" b    c #58A7EB",
" c    c #268DE5",
" d    c #8AC2F1",
" e    c #429CE9",
" f    c #51A4EA",
" g    c #DEEEFB",
" h    c #D1E7F9",
" i    c #449DE9",
" j    c #419CE8",
" k    c #71B4EE",
" l    c #F0F7FD",
" m    c #F7FBFE",
" n    c #61ACEC",
" o    c #8EC4F2",
" p    c #62ADEC",
" q    c #F9FCFE",
" r    c #EBF4FD",
" s    c #49A0E9",
" t    c #298FE6",
" u    c #DAEBFB",
" v    c #507DCD",
" w    c #5E88D1",
" x    c #8AA9DE",
" y    c #3268C4",
" z    c #F1F5FB",
" A    c #C9E3F9",
" B    c #258DE5",
" C    c #5FABEC",
" D    c #4173C9",
" E    c #6D93D5",
" F    c #A7BEE6",
" G    c #245DC0",
" H    c #D4DFF3",
" I    c #55A6EB",
" J    c #B3D7F6",
" K    c #94C7F2",
" L    c #EDF6FD",
" M    c #CEE5F9",
" N    c #1D88E4",
" O    c #E3EAF7",
" P    c #98B3E2",
" Q    c #B6C9EA",
" R    c #D3DEF2",
" S    c #8AA8DD",
" T    c #F0F4FB",
" U    c #D2E7FA",
" V    c #ACD4F5",
" W    c #A8BFE6",
" X    c #91C5F2",
" Y    c #54A5EB",
" Z    c #FDFEFF",
" &    c #50A3EA",
"0     c #208AE4",
"00    c #D5E9FA",
"01    c #C4D4EE",
"02    c #CAE3F9",
"03    c #238CE5",
"04    c #56A6EB",
"05    c #1552BC",
"06    c #67AFED",
"07    c #F6FAFE",
"08    c #E2F0FC",
"09    c #5CAAEC",
"0a    c #409BE8",
"0b    c #4CA1EA",
"0c    c #D0E6F9",
"0d    c #FCFEFF",
"0e    c #C0DEF7",
"0f    c #8CC3F1",
"0g    c #D7EAFA",
"0h    c #EFF7FD",
"0i    c #1E89E4",
"           0 1 2 3 3 3 2 1 0          ",
"         4 5 6 7 8 9 a 7 b c 4        ",
"     d e f g 9 9 9 9 9 9 9 h i j d    ",
"   d e k l 9 9 9 9 9 9 9 9 9 m n e o  ",
"   p f q 9 9 9 9 9 9 9 9 9 9 9 r s n  ",
" 0 t u 9 9 v w 9 9 9 9 9 x y z 9 A B 0",
" 1 C 9 9 9 z D E 9 9 9 F G H 9 9 9 I 1",
" 2 J 9 9 9 9 z D E 9 F G H 9 9 9 9 K 2",
" 3 L 9 9 9 9 9 z D E G H 9 9 9 9 9 M 3",
" N 9 9 9 9 9 9 9 O x H 9 9 9 9 9 9 L 3",
" N 8 9 9 9 P Q 9 9 9 9 9 R S T 9 9 U 3",
" 2 V 9 9 9 H G F 9 9 9 R G W 9 9 9 X 2",
" 1 Y Z 9 9 9 H G R 9 T G W 9 9 9 9 & 1",
" 00 00 9 9 9 9 W G01 D x 9 9 9 90203 0",
"   p04 L 9 9 9 9 W05 E 9 9 9 9 9 j p  ",
"   o e0607 9 9 9 9 9 9 9 9 908090a d  ",
"     d j0b0c 9 9 9 9 9 90d0e j e d    ",
"         40  s0f0g0h0c X s 3 4        ",
"           0 1 20i0i0i 2 1 0          "};
