/* XPM */
static char * array_xpm[] = {
"20 20 323 2",
"  	c None",
". 	c #8B882B",
"+ 	c #ADAD4D",
"@ 	c #AAAD46",
"# 	c #AAAD44",
"$ 	c #ADAE46",
"% 	c #AEAD43",
"& 	c #B0AD44",
"* 	c #ADAC42",
"= 	c #ACAF46",
"- 	c #A9AE47",
"; 	c #AAAC49",
"> 	c #AEAE4C",
", 	c #ACA94A",
"' 	c #ACA948",
") 	c #AEAE4A",
"! 	c #AAAC47",
"~ 	c #AFAC4F",
"{ 	c #A9A84B",
"] 	c #AEAE4E",
"^ 	c #7D7F34",
"/ 	c #C8C568",
"( 	c #FAF99C",
"_ 	c #FCFD9F",
": 	c #FBFC9E",
"< 	c #FBFB9B",
"[ 	c #FFFC9B",
"} 	c #FFFE9A",
"| 	c #FEFC98",
"1 	c #FCFE9B",
"2 	c #F6FA99",
"3 	c #FAF99D",
"4 	c #FFFCA1",
"5 	c #FFFDA2",
"6 	c #F6F799",
"7 	c #FFFFA0",
"8 	c #FEFDA0",
"9 	c #FDFD9B",
"0 	c #BABC71",
"a 	c #C8C566",
"b 	c #B2B155",
"c 	c #454400",
"d 	c #484900",
"e 	c #454300",
"f 	c #484500",
"g 	c #444200",
"h 	c #464400",
"i 	c #494800",
"j 	c #4B4900",
"k 	c #423F00",
"l 	c #4A4900",
"m 	c #434300",
"n 	c #474600",
"o 	c #9E9E3C",
"p 	c #FAFA98",
"q 	c #BBBD72",
"r 	c #CBC964",
"s 	c #F8F898",
"t 	c #FBFAA8",
"u 	c #F5F5AB",
"v 	c #FAFAB2",
"w 	c #FAFAB0",
"x 	c #FCFBAB",
"y 	c #FDFCA9",
"z 	c #FAFAA4",
"A 	c #FBFAA0",
"B 	c #F8F79B",
"C 	c #FEFDA3",
"D 	c #FAF7A8",
"E 	c #FEFCB1",
"F 	c #F7F7AD",
"G 	c #FDFEAE",
"H 	c #FBFA9D",
"I 	c #FFFF9B",
"J 	c #FCFD97",
"K 	c #BEC174",
"L 	c #C6C656",
"M 	c #FFFF95",
"N 	c #FCFC9C",
"O 	c #FEFEA8",
"P 	c #F5F7AC",
"Q 	c #F9FCAF",
"R 	c #FAFFA3",
"S 	c #F6FB97",
"T 	c #FCFD95",
"U 	c #FDFD8F",
"V 	c #FFFF8A",
"W 	c #FDFF91",
"X 	c #FBFBA3",
"Y 	c #FBFBB1",
"Z 	c #F9FBB2",
"` 	c #F5F6A8",
" .	c #FDFD9D",
"..	c #FDFB94",
"+.	c #F9FA92",
"@.	c #BCBD6F",
"#.	c #CACB56",
"$.	c #FEFE8E",
"%.	c #BCBD57",
"&.	c #555500",
"*.	c #252600",
"=.	c #1D2200",
"-.	c #686D1B",
";.	c #FAFFA0",
">.	c #FDFE87",
",.	c #FFFF84",
"'.	c #FCFE90",
").	c #5E5F0F",
"!.	c #212100",
"~.	c #1E2000",
"{.	c #4B4D04",
"].	c #C1C161",
"^.	c #FCFB8F",
"/.	c #FDFF92",
"(.	c #C2C373",
"_.	c #C6C658",
":.	c #FDFC92",
"<.	c #9F9E4E",
"[.	c #1A1900",
"}.	c #030500",
"|.	c #0A0D00",
"1.	c #E3E79B",
"2.	c #FFFF90",
"3.	c #FDFA8F",
"4.	c #E1E086",
"5.	c #333000",
"6.	c #080600",
"7.	c #060500",
"8.	c #818143",
"9.	c #FCFC8C",
"0.	c #BABC68",
"a.	c #C9C85C",
"b.	c #FDFB97",
"c.	c #A09F4D",
"d.	c #787846",
"e.	c #040500",
"f.	c #7C7C46",
"g.	c #FCFB9E",
"h.	c #FFFD90",
"i.	c #FFFA9C",
"j.	c #7D792F",
"k.	c #8C8A5A",
"l.	c #040400",
"m.	c #7F7E48",
"n.	c #FAFA9A",
"o.	c #FBFB89",
"p.	c #BEC06C",
"q.	c #CBC95C",
"r.	c #FFFE92",
"s.	c #FEFC95",
"t.	c #A1A245",
"u.	c #A6AA60",
"v.	c #3A3E0C",
"w.	c #030300",
"x.	c #191600",
"y.	c #F3F19E",
"z.	c #F9F59E",
"A.	c #403C00",
"B.	c #C4C38D",
"C.	c #040300",
"D.	c #7F7F4D",
"E.	c #FBFA84",
"F.	c #FFFF8D",
"G.	c #C2C26C",
"H.	c #C8C659",
"I.	c #FBF88D",
"J.	c #A0A241",
"K.	c #A8AE56",
"L.	c #A8AE6E",
"M.	c #040200",
"N.	c #060200",
"O.	c #AAA561",
"P.	c #FBF7A0",
"Q.	c #999345",
"R.	c #A5A25D",
"S.	c #C4C38A",
"T.	c #050600",
"U.	c #7C7B4B",
"V.	c #FDFE89",
"W.	c #BCBC66",
"X.	c #FEFB92",
"Y.	c #FFFE9D",
"Z.	c #A0A143",
"`.	c #A9AF4F",
" +	c #F6FDAF",
".+	c #2B2A00",
"++	c #070300",
"@+	c #433D0B",
"#+	c #FAF5B5",
"$+	c #454100",
"%+	c #F2EFA8",
"&+	c #C3C289",
"*+	c #7F7E4E",
"=+	c #FCFB85",
"-+	c #FEFF8A",
";+	c #C1C16B",
">+	c #FEFD93",
",+	c #F9F999",
"'+	c #9E9F41",
")+	c #A7AC48",
"!+	c #FBFFA8",
"~+	c #929256",
"{+	c #090600",
"]+	c #0B0300",
"^+	c #878151",
"/+	c #858338",
"(+	c #F6F7A7",
"_+	c #C3C387",
":+	c #080700",
"<+	c #7E7E4C",
"[+	c #FEFE9E",
"}+	c #FEFD87",
"|+	c #BEBD6A",
"1+	c #C7C556",
"2+	c #FFFF96",
"3+	c #F9F997",
"4+	c #A3A446",
"5+	c #ADAF4C",
"6+	c #F7FB9D",
"7+	c #F0F1A3",
"8+	c #1D1B00",
"9+	c #090300",
"0+	c #100B00",
"a+	c #E4E790",
"b+	c #FBFFA2",
"c+	c #C2C282",
"d+	c #070600",
"e+	c #7F7F4B",
"f+	c #FFFF8B",
"g+	c #BBBA68",
"h+	c #C9C75A",
"i+	c #FCFB91",
"j+	c #FFFEA1",
"k+	c #A0A144",
"l+	c #A9AA4C",
"m+	c #FDFEA0",
"n+	c #FEFDA1",
"o+	c #7B792F",
"p+	c #070400",
"q+	c #64622F",
"r+	c #F6FC9A",
"s+	c #F6FD96",
"t+	c #060400",
"u+	c #050500",
"v+	c #7C7C48",
"w+	c #FDFC88",
"x+	c #C2C16F",
"y+	c #C8C55A",
"z+	c #FFFD98",
"A+	c #FAF8A1",
"B+	c #959441",
"C+	c #A5A44A",
"D+	c #FEFC97",
"E+	c #E2E385",
"F+	c #0E1000",
"G+	c #C6CA7D",
"H+	c #F9FF95",
"I+	c #FAFF9A",
"J+	c #BDBD81",
"K+	c #080400",
"L+	c #7D7B4B",
"M+	c #F9F89B",
"N+	c #FFFF8E",
"O+	c #FAFA8C",
"P+	c #C1C070",
"Q+	c #CBC861",
"R+	c #FCFA96",
"S+	c #B4B25D",
"T+	c #3E3C00",
"U+	c #535200",
"V+	c #C1BE5F",
"W+	c #FFFD96",
"X+	c #969940",
"Y+	c #F7FCA0",
"Z+	c #F7FF90",
"`+	c #CCD36C",
" @	c #6E6D2A",
".@	c #262200",
"+@	c #232000",
"@@	c #424206",
"#@	c #B9BB5A",
"$@	c #FDFE96",
"%@	c #BCBD71",
"&@	c #C7C463",
"*@	c #FBFB99",
"=@	c #FCFB9F",
"-@	c #FDFCA0",
";@	c #FFFF9D",
">@	c #FBFB97",
",@	c #FDFD99",
"'@	c #FBFD9C",
")@	c #FBFE97",
"!@	c #FBFD9A",
"~@	c #FBFAAA",
"{@	c #F9FCA5",
"]@	c #F9FE97",
"^@	c #F9FF96",
"/@	c #F8FDA1",
"(@	c #B7B978",
"_@	c #80803A",
":@	c #A0A058",
"<@	c #9E9E56",
"[@	c #9F9F57",
"}@	c #9C9C54",
"|@	c #A0A056",
"1@	c #9E9E54",
"2@	c #9DA053",
"3@	c #9BA050",
"4@	c #9AA154",
"5@	c #9A9F5F",
"6@	c #787B4E",
"7@	c #FDFCE8",
"8@	c #FFFFEC",
"9@	c #FFFFEB",
"0@	c #FFFFEA",
"a@	c #FFFFE8",
"b@	c #FDFBEE",
"c@	c #FFFEFF",
"d@	c #FFFFFF",
"e@	c #FEFEFE",
"f@	c #FFFBFF",
"g@	c #FFFDFF",
"h@	c #FFFDFE",
". + @ # $ % & * = - ; > , ' ) ! ~ { ] ^ ",
"/ ( _ : < [ } | 1 2 _ 3 4 5 6 7 ( 8 9 0 ",
"a b c d e f g h c i j e f k l m n o p q ",
"r s t u v w x y z A B C D E F G H I J K ",
"L M N O P Q R S T U V W X Y Z `  ...+.@.",
"#.$.%.&.*.=.-.;.W >.,.'.).!.~.{.].^./.(.",
"_.:.I <.[.}.|.1.J 2.3.4.5.6.7.8. .9.'.0.",
"a.:.b.c.d.e.e.f.g.h.i.j.k.l.l.m.n.2.o.p.",
"q.r.s.t.u.v.w.x.y.I z.A.B.e.C.D.N E.F.G.",
"H.I.s.J.K.L.M.N.O.P.Q.R.S.e.T.U.7 V V.W.",
"q.X.Y.Z.`. +.+++@+#+$+%+&+e.e.*+n.=+-+;+",
"H.>+,+'+)+!+~+{+]+^+/+(+_+:+C.<+[+}+F.|+",
"1+2+3+4+5+6+7+8+9+0+a+b+c+d+l.e+,+f+2.g+",
"h+i+j+k+l+m+n+o+p+q+r+s+c+t+u+v+7 w+$.x+",
"y+z+A+B+C+[+D+E+F+G+H+I+J+K+K+L+M+N+O+P+",
"Q+R+S+T+U+V+W+J X+Y+Z+`+ @.@+@@@#@W $@%@",
"&@*@=@-@H ;@>@,@: '@)@!@X t ~@{@]@^@/@(@",
"_@:@<@[@}@|@1@1@1@1@1@1@1@1@1@2@3@4@5@6@",
"7@8@9@8@0@0@0@a@0@0@0@0@0@0@0@0@a@0@0@b@",
"c@d@d@d@d@d@d@e@d@d@d@d@d@d@d@d@f@g@h@c@"};
