/* XPM */
static const char *asteroid_xpm[] = {
/* width height ncolors chars_per_pixel */
"32 32 17 1",
/* colors */
"A s bg c None",
"B c #222222222222",
"C c #111111111111",
"D c #555555555555",
"E c #333333333333",
"F c #444444444444",
"G c #CCCCCCCCCCCC",
"H c #AAAAAAAAAAAA",
"I c #666666666666",
"J c #777777777777",
"K c #999999999999",
"L c #EEEEEEEEEEEE",
"M c #BBBBBBBBBBBB",
"N c #888888888888",
"O c #DDDDDDDDDDDD",
"P c #000000000000",
"Q c #000000000000",
/* pixels */
"AAAAAAAAAAAAAAAAAAAAAAAAAAAAAAAA",
"AAAAAAAAAAAAAAAAAAAAAAAAAAAAAAAA",
"AAAAAAAAAAAAAAAAAAAAAAAAAAAAAAAA",
"AAAAAAAAAAAAAAAAAAAAAAAAAAAAAAAA",
"AAAAAAAAAAAAAAAAAAAAAAAAAAAAAAAA",
"AAAAAAAAAAAAAAAAAAAAAAAAAAAAAAAA",
"AAAAAAAAAAAAAAAAAAAAAAAAAAAAAAAA",
"AAAAAAAAAFDQAAAAAAAAAAAAAAAAAAAA",
"AAAAAAAAEEIJAAAAAAAAAAAAAAAAAAAA",
"AAAAAAABBFDIJKAAAALAAAAAAAAAAAAA",
"AAAAAAAAEBFFIKQAAAOLQKAAAAAAAAAA",
"AAAAAABACBQQQQQQMMLQQOGAAAAAAAAA",
"AAAAAABBBBQQQQQQQOOGHNKHAAAAAAAA",
"AAAAAAACCBEEFQQQMOGMHJKJQAAAAAAA",
"AAAAAAACCBBBDQNHGMMHKKJQQAAAAAAA",
"AAAAAAACCCCEDINHMHGKNNNQFAAAAAAA",
"AAAAAABCCCCCEDJKHQQDIJQQFAAAAAAA",
"AAAAAACBCCCBQEDNHQQFDQQQQIAAAAAA",
"AAAAPBBCBCCBQBEJHQQDQQQQQIAAAAAA",
"AAAAAPBBCBBCQBBFNJQQQQQQQIAAAAAA",
"AAAAAPAAAABCQCEEIINHKDFEEAAAAAAA",
"AAAAAAAAABCQQQQQQDJNJDEDDAAAAAAA",
"AAAAAAAAAAAAQQBBEFFAFINOFAAAAAAA",
"AAAAAAAAAAAAQQQQEEEAFDNDEAAAAAAA",
"AAAAAAAAAABBQBCBQEFAAAAFAAAAAAAA",
"AAAAAAAAAAAAQBBEQAAAAAAAAAAAAAAA",
"AAAAAAAAAAAAAQQAAAAAAAAAAAAAAAAA",
"AAAAAAAAAAAAAAAAAAAAAAAAAAAAAAAA",
"AAAAAAAAAAAAAAAAAAAAAAAAAAAAAAAA",
"AAAAAAAAAAAAAAAAAAAAAAAAAAAAAAAA",
"AAAAAAAAAAAAAAAAAAAAAAAAAAAAAAAA",
"AAAAAAAAAAAAAAAAAAAAAAAAAAAAAAAA"};
