/* XPM */
static const char * backall_xpm[] = {
"16 15 3 1",
" 	c None",
".	c Black",
"X	c Gray100",
"                ",
"                ",
"      .         ",
"     ..         ",
"    ...         ",
"   ...........  ",
"  ............  ",
" .............  ",
" .............  ",
"  ............  ",
"   ...........  ",
"    ...         ",
"     ..         ",
"      .         ",
"                "};
