/* XPM */
static char * beginfb_xpm[] = {
"16 16 35 1",
" 	c None",
".	c #000000",
"+	c #191919",
"@	c #060606",
"#	c #FF3F3F",
"$	c #FE0707",
"%	c #1478DC",
"&	c #6088FE",
"*	c #CDD9FE",
"=	c #2E2E2E",
"-	c #E95700",
";	c #FE8303",
">	c #FE3206",
",	c #578CF6",
"'	c #94AFFE",
")	c #1D1D1D",
"!	c #FE4505",
"~	c #FEC101",
"{	c #60A494",
"]	c #0745FE",
"^	c #1E1E1E",
"/	c #FE6407",
"(	c #FE1107",
"_	c #F4C44E",
":	c #F0E96A",
"<	c #FFFF00",
"[	c #5A9DE9",
"}	c #212634",
"|	c #303030",
"1	c #FE0B07",
"2	c #FE6A04",
"3	c #FECC01",
"4	c #277BE5",
"5	c #30302F",
"6	c #010509",
"................",
"..............+@",
".....#$$%&*...+=",
"....-$;>%%,''.+)",
"...-$!;~{%%]%'+^",
"..-/(_:<%%%%[%}|",
".-$123<<%%%%%%45",
"-$$/<<<<%%%%%%4|",
"-$$/<<<<%%%%%%4|",
".-$123<<%%%%%%45",
"..-/(_:<%%%%[%}|",
"...-$!;~%%%]%'+^",
"....-$;>%%,''.+)",
".....#$$%&*...+=",
"..............+6",
"................"};
