/* XPM */
static const char * beginfb_xpm[] = {
"16 16 57 1",
" 	c #FFFFFF",
".	c #252525",
"+	c #282828",
"@	c #FFC7C7",
"#	c #FF6363",
"$	c #2F87E0",
"%	c #97B1FF",
"&	c #F1F4FF",
"*	c #303030",
"=	c #2F2F2F",
"-	c #F2965F",
";	c #FE1F1F",
">	c #FFB161",
",	c #FE6342",
"'	c #75B0EB",
")	c #8CB1F9",
"!	c #F0F4FF",
"~	c #F6F8FF",
"{	c #393939",
"]	c #1E1E1E",
"^	c #FE1616",
"/	c #FE6D3B",
"(	c #FFE287",
"_	c #64A797",
":	c #368CE1",
"<	c #4E99E5",
"[	c #88A6FF",
"}	c #ABCFF3",
"|	c #3C3C3C",
"1	c #1F1F1F",
"2	c #FE6D16",
"3	c #FE170D",
"4	c #F4C550",
"5	c #F0E96C",
"6	c #FFFFAF",
"7	c #1D7DDD",
"8	c #66A7E9",
"9	c #7CB1EE",
"0	c #97C3F0",
"a	c #757881",
"b	c #313131",
"c	c #FE120E",
"d	c #FE6C07",
"e	c #FED322",
"f	c #FFFF50",
"g	c #FFFFAB",
"h	c #7EB5EC",
"i	c #A6C9F5",
"j	c #313130",
"k	c #FE1515",
"l	c #FE2A2A",
"m	c #FF9E63",
"n	c #FFFF12",
"o	c #FFFF45",
"p	c #FFFF78",
"q	c #1A1A1A",
"r	c #05090D",
"                ",
"              .+",
"     @##$%&   *=",
"    -;>,$')!~ {]",
"   -^/>(_:<[}!|1",
"  -234567:<890ab",
" -#cdefg7:<8h0ij",
"-klmnopg7:<8h0ib",
"-klmnopg7:<8h0ib",
" -#cdefg7:<8h0ij",
"  -234567:<890ab",
"   -^/>(7:<[}!|1",
"    -;>,$')!~ {]",
"     @##$%&   *=",
"              qr",
"                "};
