/* XPM */
static const char * build_xpm[] = {
"32 32 10 1",
" 	c None",
".	c #D6D3CE",
"+	c #000000",
"@	c #FFFFFF",
"#	c #000084",
"$	c #848284",
"%	c #C6C3C6",
"&	c #840000",
"*	c #848200",
"=	c #0000FF",
"................................",
"...+++++++++++++++++++++++......",
"...+@@@@@@@@@@@@@@@@@@@@@+......",
"...+@###################@+$$$...",
"...+@#####@%@###########@+$$$...",
"...+@###@%%$$%@#########@+$$$...",
"...+@##@%$$$$$$@########@+$$$...",
"...+@@%%$$+++++$%@@@@@@@@+$$$...",
"...+@%%$$$++%%%%%@%%%%%%@+$$$...",
"...+@%$$$+&&@@@@@@@@@@@@@+$$$...",
"...+%+$$+**&&@@@@@@@@@@@@+$$$...",
"...$$$++++**&&==========@+$$$...",
"...$$$$+==++*&&=========@+$$$...",
"...$$+++@@@@+*&&@@@@@@@@@+$$$...",
"...+$$+@@@@@@+*&&@@@@@@@@+$$$...",
"...+@%%%%%%@%@+*&&%%%%%%@+$$$...",
"...+@@@@@@@@@@@+*&&@@@@@@+$$$...",
"...+@%%%%%%%%%%%+*&&++%%@+$$$...",
"...+@@@@@@@@%@@@@+++$++@@+$$$...",
"...+@@@@@@@@%@@@@@+++$++@+$$$...",
"...+@@@@@@@@%@@@@@++++$%+$$$$...",
"...+@%%%@%@@%@%%@%%++++$%+$$$...",
"...+@@@@@@@@%@@@@@@@++++$%+$$...",
"...+@%@%@%@@%@%%%%%%%++++$%+$...",
"...+@@@@@@@@%@@@@@@@@@++++$%+...",
"...+@%%%%%%%%%%%%%%%%%%++++$%+..",
"...+@%%%%%%%%%%%%%%%%%%%++++$%+.",
"...+@@@@@@@@@@@@@@@@@@@@@++++$++",
"...++++++++++++++++++++++$+++++$",
"....$$$$$$$$$$$$$$$$$$$$$$$++++$",
"....$$$$$$$$$$$$$$$$$$$$$$$$++$.",
"................................"};
