/* XPM */
static char * burn_xpm[] = {
"32 31 5 1",
" 	c None",
".	c #FFFFFF",
"+	c #FF6600",
"@	c #FFFF00",
"#	c #DD0000",
"                    @@          ",
"         @       @  @@          ",
"        @@      @@  @#@@        ",
"        @@@    @@#@ @##@        ",
"        @#@    @+#@ @##@        ",
"      @@##@   @@+#@ @##+@       ",
"      @##+@  @@++#@ @##++@      ",
"      @##+#@ @++##@ @###+@      ",
"      @####@ @++##@ @###+#@  @  ",
"     @##+##@ #+##@@ @###+##@@@  ",
"    @###+###@#+###@ @####+#@@#@ ",
"   @+####+##@#+###@@@####+#@@+@ ",
"  @#++#+++#+##+###+@@####+#@@+# ",
" @@##+#+++#+##++##+#@###++#@#+#@",
" @###+#+++#+##++##+#@##+++#@++#@",
" @###+++++#++#+++######+++##+##@",
" @####+++++++#+++#+###++++##+##@",
"  ####+++++++++++#+###++++##+##@",
"  @+###+++++++++++++##++++#++##@",
"  @+###+++++++++++++#+++++++##@@",
"  @+###+++++++++@+++++++++++##+ ",
" @@+#++++++@++++@+++++++++++##+@",
" @#++++++++@+++@@+++++++++++#++@",
" @##++++++@@@++@@@++++++@+++#+#@",
" @##++++++@@@++@@@+++@+@@+++#+#@",
"@###++++++@@@@@@@@@+@@+@@+++++@@",
"@###+++++@@@@@@@@@@@@@+@@@+++##@",
"@#+#++++@@@@@@@@@@@@@@@@@@+++##@",
"@#++++++@@@@@@@@@@@@@@@@@@+++##@",
"@#++++++@@@@@@@@@@@@@@@@@@+++##@",
"@##++++@@@@@@@@@@@@@@@@@@@++###@"};
