/* XPM */
static char * callfunction_xpm[] = {
"16 16 84 1",
" 	c None",
".	c #FFFFFF",
"+	c #FDFDFD",
"@	c #FEFEFE",
"#	c #FCFCFC",
"$	c #9C9C9C",
"%	c #818181",
"&	c #A6A6A6",
"*	c #EEEEEE",
"=	c #B6B6B6",
"-	c #F5F5F5",
";	c #A3A3A3",
">	c #8D8D8D",
",	c #545454",
"'	c #222222",
")	c #898989",
"!	c #D1D1D1",
"~	c #B3B3B3",
"{	c #666566",
"]	c #7C7C7C",
"^	c #F2F2F2",
"/	c #CFCFCF",
"(	c #A7A7A7",
"_	c #747474",
":	c #C2C2C2",
"<	c #2E2E2E",
"[	c #363636",
"}	c #868686",
"|	c #EDEDED",
"1	c #B4B4B4",
"2	c #AAAAAA",
"3	c #C1C1C1",
"4	c #F8F8F8",
"5	c #A8A8A8",
"6	c #F6F6F6",
"7	c #848484",
"8	c #E2E2E2",
"9	c #656565",
"0	c #6A6A6A",
"a	c #606060",
"b	c #D5D5D5",
"c	c #636363",
"d	c #F3F3F3",
"e	c #454545",
"f	c #C6C6C6",
"g	c #FAFAFA",
"h	c #5B5B5B",
"i	c #E3E3E3",
"j	c #1A1A1A",
"k	c #4B4B4B",
"l	c #DDDDDD",
"m	c #B9B9B9",
"n	c #A2A3A2",
"o	c #5C5C5C",
"p	c #707070",
"q	c #131313",
"r	c #B2B2B2",
"s	c #ABABAB",
"t	c #F9F9F9",
"u	c #5F5F5F",
"v	c #646464",
"w	c #F7F7F7",
"x	c #626262",
"y	c #A9A9A9",
"z	c #999999",
"A	c #232323",
"B	c #ECECEC",
"C	c #989898",
"D	c #CBCBCB",
"E	c #D2D2D2",
"F	c #888888",
"G	c #8C8C8C",
"H	c #BDBDBD",
"I	c #8A8A8A",
"J	c #E0E0E0",
"K	c #7E7E7E",
"L	c #494949",
"M	c #DFDFDF",
"N	c #424242",
"O	c #D4D4D4",
"P	c #959595",
"Q	c #F0F0F0",
"R	c #9E9E9E",
"S	c #EDEEED",
"................",
"............+@..",
".#$%&.*=....-;..",
".>,;'.)#.....!~.",
".{]@^/(......._.",
":<[}.]|123455678",
".90..a.b[cdefg5=",
".90..h..ijkl..mn",
".90..o...pq!..rs",
"tuvw.x@.;yzAB.CD",
"EFGH.IJKLlMNaO_t",
".....8P......-}.",
"......zQ.....RS.",
"......#3....dl..",
"................",
"................"};
