/* XPM */
static const char * CloseAll_xpm[] = {
"16 16 80 1",
" 	c None",
".	c #BDBFC1",
"+	c #D3D4D6",
"@	c #D4D5D6",
"#	c #D2D3D4",
"$	c #ABADB0",
"%	c #D6D7D9",
"&	c #FFFFFF",
"*	c #FEFEFE",
"=	c #F8F8F8",
"-	c #BDBEC0",
";	c #A7A9AC",
">	c #D5D6D7",
",	c #D0D1D3",
"'	c #CDCED0",
")	c #C6C7C9",
"!	c #A9ABAE",
"~	c #FDFDFD",
"{	c #BBBCBF",
"]	c #D4D5D7",
"^	c #D3D4D5",
"/	c #D2D3D5",
"(	c #C9CACC",
"_	c #C2C4C6",
":	c #BCBDC0",
"<	c #FBFBFC",
"[	c #FDFCFD",
"}	c #BEC0C2",
"|	c #F7F7F8",
"1	c #F9F9FA",
"2	c #C4C6C8",
"3	c #D1D2D4",
"4	c #B3B5B8",
"5	c #F5F7FF",
"6	c #F1F3FA",
"7	c #E3E5E6",
"8	c #D6D6D8",
"9	c #D5D6D8",
"0	c #FEFAEF",
"a	c #FEEEC2",
"b	c #FFF4D2",
"c	c #EDEDEC",
"d	c #C1C2C5",
"e	c #DBDCDD",
"f	c #D8D9DA",
"g	c #CBCCCE",
"h	c #FBE9B4",
"i	c #F6C94B",
"j	c #F5C130",
"k	c #F6C435",
"l	c #EFC960",
"m	c #BEBFC1",
"n	c #D6D7D8",
"o	c #FDF2D5",
"p	c #F5C12F",
"q	c #F4C02B",
"r	c #F4C231",
"s	c #F4C230",
"t	c #F5C12B",
"u	c #F9C633",
"v	c #B4B5B8",
"w	c #D8D9DB",
"x	c #CDCECF",
"y	c #F9E098",
"z	c #F7D470",
"A	c #FCECC1",
"B	c #FCECC0",
"C	c #F6CD57",
"D	c #C3C4C6",
"E	c #FEE6A2",
"F	c #F9D571",
"G	c #BABBBE",
"H	c #E3E4E5",
"I	c #E2E3E5",
"J	c #E2DBC9",
"K	c #F1C23D",
"L	c #F5C22F",
"M	c #F5C439",
"N	c #F9C635",
"O	c #F5C53B",
".++@@#$         ",
"%&&&*=-;        ",
"+&&#@>,')!      ",
"+&*+&&&&~{      ",
"+&*]&*]^/(_:    ",
"+&*]&<^**&&[}   ",
"+&*]&<>&&&&|/^  ",
"+&*]&<>&&&&1234 ",
"+&*]&<>&&&&&567 ",
"8&&9&<>&&&&0abc ",
"defg&<>&&&hijkl ",
"   m&&n&&opqrstu",
"   vw]x&&yzABBBC",
"      D&&EFABBBC",
"      GHIJKLrrrM",
"           NOOO "};
