/* XPM */
static const char * CloseOne_xpm[] = {
"16 16 77 1",
" 	c None",
".	c #BDBFC1",
"+	c #D6D7D9",
"@	c #D3D4D6",
"#	c #D5D6D8",
"$	c #CBCCCE",
"%	c #A5A7AA",
"&	c #FFFFFF",
"*	c #F0F0F1",
"=	c #BDBEC1",
"-	c #AAACAE",
";	c #F8F9F9",
">	c #FEFEFE",
",	c #EDEEEE",
"'	c #D4D5D7",
")	c #D3D5D6",
"!	c #FBFBFB",
"~	c #EDEDEE",
"{	c #D2D3D5",
"]	c #F0F1F2",
"^	c #D1D3D4",
"/	c #FDFDFE",
"(	c #F5F5F6",
"_	c #F4F4F5",
":	c #FCFCFC",
"<	c #EFF0F0",
"[	c #C3C4C6",
"}	c #BABCBE",
"|	c #FDFDFD",
"1	c #EEEFF0",
"2	c #EBEDEE",
"3	c #B6B8BA",
"4	c #F9FAFA",
"5	c #FCFCFD",
"6	c #BABBBE",
"7	c #FBFBFC",
"8	c #B9BBBD",
"9	c #F6F7F7",
"0	c #F6F8FD",
"a	c #F6F9FF",
"b	c #FDFEFF",
"c	c #B8BBC1",
"d	c #F9F9F9",
"e	c #F9F9FA",
"f	c #F9FBFF",
"g	c #FBF2DB",
"h	c #FDEAB7",
"i	c #FCEDC2",
"j	c #C2BCA8",
"k	c #FBFDFF",
"l	c #F6E2A8",
"m	c #F3C339",
"n	c #F4C22F",
"o	c #F5C333",
"p	c #F3C43E",
"q	c #F6F9FD",
"r	c #F7EFD8",
"s	c #F6C334",
"t	c #F4C028",
"u	c #F4C12E",
"v	c #F5C12C",
"w	c #F5C438",
"x	c #FAE19D",
"y	c #F7D265",
"z	c #FBE8B1",
"A	c #FBE6AA",
"B	c #FBE6AB",
"C	c #F6CC52",
"D	c #CBCDCE",
"E	c #F5F6F6",
"F	c #F1F1F2",
"G	c #F1F4FC",
"H	c #F0DBA1",
"I	c #F8D369",
"J	c #F5C435",
"K	c #F4C12C",
"L	c #F5C53B",
".+@@@@@@#$%     ",
"@&&&&&&&&*=-    ",
"@&;;;;;;>,')    ",
"@&!!!!!!&~{]^   ",
"@/(((((_:<[{'}  ",
"@&||||||>/12~*3 ",
"@&44444444::5&6 ",
"@&!!!!!!!!!!7>8 ",
"@&9999999990abc ",
"@&dddddddefghij ",
"@&!!!!!!!klmnop ",
"@&999999qrstuuvw",
"@&>>>>>>&xyzABBC",
"DEFFFFFFGHIzABBC",
"          JKuuuw",
"           LLLL "};
