/* XPM */
static char * close_xpm[] = {
"16 15 2 1",
" 	c None",
".	c #F7071B",
"                ",
"                ",
"                ",
"   ..      ..   ",
"    ..    ..    ",
"     ..  ..     ",
"      ....      ",
"       ..       ",
"      ....      ",
"     ..  ..     ",
"    ..    ..    ",
"   ..      ..   ",
"                ",
"                ",
"                "};
