/* XPM */
static const char * ClosedFolder_xpm[] = {
"16 16 51 1",
" 	c None",
".	c #CC9934",
"+	c #CB9833",
"@	c #C99631",
"#	c #C7942F",
"$	c #DFDFDF",
"%	c #FFFFFF",
"&	c #C28F2A",
"*	c #C8C8C8",
"=	c #FFFF99",
"-	c #BD8A25",
";	c #BA8722",
">	c #B7841F",
",	c #B5821D",
"'	c #B3811B",
")	c #B07E18",
"!	c #FFF791",
"~	c #FFF48E",
"{	c #AE7C16",
"]	c #8C8C8C",
"^	c #DEDEDE",
"/	c #FFEB85",
"(	c #FFE681",
"_	c #C5922D",
":	c #C08D28",
"<	c #BC8924",
"[	c #B88520",
"}	c #B4811C",
"|	c #FFE07B",
"1	c #A3710B",
"2	c #FFD46F",
"3	c #F8C560",
"4	c #A06E08",
"5	c #6E6E6E",
"6	c #FFCC67",
"7	c #EFBC57",
"8	c #9E6C06",
"9	c #6D6D6D",
"0	c #E6B34E",
"a	c #9C6A04",
"b	c #BF8C27",
"c	c #DCA944",
"d	c #9A6802",
"e	c #D3A03B",
"f	c #996701",
"g	c #AB7913",
"h	c #A87610",
"i	c #A5730D",
"j	c #4C4C4C",
"k	c #838383",
"l	c #D6D6D6",
"                ",
"  .+@#$         ",
" .%%%%&*        ",
".%====%-;>,')$  ",
"+!~~~~~%%%%%{]^ ",
"@/(______:<[}''$",
"#|_%%%%%%%%%(%1]",
"_2.=========3=45",
"&6+=!!!!!!!!7=89",
":6_=////////0=a9",
"-6b=||||||||c=d9",
";6[=22222222e=f5",
"$,'){ghi148adfjk",
" *k99999999999k*",
"  $lllllllllll$ ",
"                "};
