/* XPM */
static const char *comet_xpm[] = {
/* width height ncolors chars_per_pixel */
"32 32 10 1",
/* colors */
"A s bg c None",
"B c #9C9C9C9C9C9C",
"C c #6B6B6B6B6B6B",
"D c #6363CECEFFFF",
"E c #525252525252",
"F c #4A4A4A4A4A4A",
"G c #393939393939",
"H c #292929292929",
"I c #181818181818",
"J c #00008484FFFF",
/* pixels */
"AAAAAAAAAAAAAAAAAAAAAAAAAAAAAAAA",
"AAAAAAAAAAAAAAAAAAAAAAAAAAAAAAAA",
"AAAAAAAAAAAAAAAAAAAAAAAAAAAAAAAA",
"AAAAAAAAAAAAAAAAAAAAAAAAAAAAAAAA",
"AAAAAAAAAAAAAAAAAFFFFFAAAAAAAAAA",
"AAAAAAAAAAAAAAAAFFJBBFFFAAAAAAAA",
"AAAAAAAAAAAAAAFFFBCECCBFFAAAAAAA",
"AAAAAAAAAAAAAFFBBCECJBBBFAAAAAAA",
"AAAAAAAAAAAAFFBFEEJCFCBFJFAAAAAA",
"AAAAAAAAAAAAAFJBBCBEGEGJCFAAAAAA",
"AAAAAAAAAAAAAFBFEFCJBBBJFFFAAAAA",
"AAAAAAAAAAAAJFIFBFJCBEBBCBFAAAAA",
"AAAAAAAAAAAJAJJGBEEFBGGJFEEAAAAA",
"AAAAAAAAAAJDJAAJBBBFFJFHGBFAAAAA",
"AAAAAAAAAJAJADJFFBFFGFJHFFAAAAAA",
"AAAAAAAAJAJAAJAAJFBJHGJBFAAAAAAA",
"AAAAAAAJADAADADJAJJFBFFAAAAAAAAA",
"AAAAAAJADJAJDAJDJADFFAAAAAAAAAAA",
"AAAAAJDAJADJAJADJADJAAAAAAAAAAAA",
"AAAAJDAJAAJAJAADJAJAAAAAAAAAAAAA",
"AAAJDAJAAJAJAAAAJDJAAAAAAAAAAAAA",
"AAJAAJAAJDJAAADJDJAAAAAAAAAAAAAA",
"AJAAJAAJDAJAADJAAJAAAAAAAAAAAAAA",
"AJADAAJDAAJAAJAAAJAAAAAAAAAAAAAA",
"AAAAADAAAAJAAJAAJDAAAAAAAAAAAAAA",
"AAAAJDAAAJAADAAJAAAAAAAAAAAAAAAA",
"AAADJAAAJAAJDAJDAAAAAAAAAAAAAAAA",
"AAJAAAJJAAJDAJDAAAAAAAAAAAAAAAAA",
"AAAAAAJAAJDAJAAAAAAAAAAAAAAAAAAA",
"AAAAAAAAAJAJDAAAAAAAAAAAAAAAAAAA",
"AAAAAAAAAAAADAAAAAAAAAAAAAAAAAAA",
"AAAAAAAAAAAAAAAAAAAAAAAAAAAAAAAA"};
