/* XPM */
static const char *constellation_xpm[] = {
/* columns rows colors chars-per-pixel */
"16 15 4 1",
"  c None",
". c Gray",
"X c Black",
"o c White",
/* pixels */
"                ",
"  XXXXXXXXXXXX  ",
"  XXXoXXXXXXXX  ",
"  XXX.XXXXoXXX  ",
"  XXXX.XXXX.XX  ",
"  XXXX.XXXX.XX  ",
"  XXXXX.XXXX.X  ",
"  XXXXXo....oX  ",
"  XXXX.X.XXXXX  ",
"  XXX.XXX.XXXX  ",
"  XX.XXXXX.XXX  ",
"  XoXXXXXXX.XX  ",
"  XXXXXXXXXXoX  ",
"  XXXXXXXXXXXX  ",
"                "
};
