/* XPM */
static const char * coordinatesystem_xpm[] = {
"16 16 35 1",
" 	c None",
".	c #535AC3",
"+	c #7476C9",
"@	c #3F46BF",
"#	c #6D70DC",
"$	c #6D70D5",
"%	c #6D6CC7",
"&	c #FFFFFF",
"*	c #454CC1",
"=	c #5C63C9",
"-	c #4548B9",
";	c #5A60CD",
">	c #2F3A97",
",	c #272A77",
"'	c #10184A",
")	c #080C21",
"!	c #2D315B",
"~	c #B8BBE5",
"{	c #444AD9",
"]	c #4548D1",
"^	c #292CCE",
"/	c #080821",
"(	c #2F329F",
"_	c #2F328F",
":	c #5B60A7",
"<	c #444AD2",
"[	c #9596E3",
"}	c #C7CCEC",
"|	c #3D3FBB",
"1	c #9A9BDF",
"2	c #BFC0E3",
"3	c #3639AA",
"4	c #A4A8E1",
"5	c #4B4EC3",
"6	c #A4A7DD",
"                ",
"                ",
"      .+        ",
"      @#        ",
"      @$        ",
"      @%&       ",
"      @*        ",
"     &@*&       ",
"      =-;>,')!  ",
"    &~{]^^/(_:  ",
"    ~<[&  &     ",
"  &}|1&         ",
" &234&          ",
" ~56&           ",
"  ~&            ",
"                "};
