/* XPM */
static char * coordinatesystem_xpm[] = {
"20 20 59 1",
" 	c None",
".	c #FFFFFF",
"+	c #7F7F27",
"@	c #DEDD93",
"#	c #181500",
"$	c #555201",
"%	c #CAC87B",
"&	c #322F00",
"*	c #5E5B0A",
"=	c #FFFEB8",
"-	c #63610E",
";	c #C2C262",
">	c #68670D",
",	c #BFBF5B",
"'	c #646309",
")	c #BFBF5D",
"!	c #65640A",
"~	c #C1C063",
"{	c #64620D",
"]	c #BEBD63",
"^	c #807D2E",
"/	c #8E8C35",
"(	c #AAA94C",
"_	c #AAAA4A",
":	c #ADAD4D",
"<	c #B0AD50",
"[	c #ADAA4B",
"}	c #AEAB4E",
"|	c #302B00",
"1	c #858231",
"2	c #DBD889",
"3	c #B1B189",
"4	c #A19D54",
"5	c #69651E",
"6	c #9A963D",
"7	c #949130",
"8	c #928F30",
"9	c #918E31",
"0	c #918E2F",
"a	c #928F2E",
"b	c #938F36",
"c	c #1F1900",
"d	c #423E00",
"e	c #908F5B",
"f	c #89882C",
"g	c #524F02",
"h	c #CEC975",
"i	c #FCFAB9",
"j	c #FDFAAB",
"k	c #656310",
"l	c #66640F",
"m	c #7F7D28",
"n	c #2C2900",
"o	c #898635",
"p	c #1A1800",
"q	c #191700",
"r	c #CBCB69",
"s	c #D5D678",
"t	c #B4B265",
"....................",
".......+@...........",
".......#$...........",
"......%&*...........",
"......=-;...........",
".......>,...........",
".......')...........",
".......!~...........",
".......{]...........",
".......^/(_:<<[}|123",
"......4567890a0bcd.e",
".....fg.........hij.",
"....kl..............",
"..mno...............",
"..pqr...............",
".st.................",
"....................",
"....................",
"....................",
"...................."};
