/* XPM */
static char * coordinatesystem_xpm[] = {
"17 16 39 1",
" 	c None",
".	c #FFFFFF",
"+	c #FCFCFC",
"@	c #EDEDED",
"#	c #E7E7E7",
"$	c #6E6E6E",
"%	c #E6E6E6",
"&	c #DEDEDE",
"*	c #383838",
"=	c #DDDDDD",
"-	c #D5D5D5",
";	c #2E2E2E",
">	c #ABABAB",
",	c #C6C6C6",
"'	c #DADADA",
")	c #676767",
"!	c #181818",
"~	c #232323",
"{	c #252525",
"]	c #717171",
"^	c #F6F6F6",
"/	c #BCBCBC",
"(	c #3B3B3B",
"_	c #646464",
":	c #D6D6D6",
"<	c #E3E3E3",
"[	c #EAEAEA",
"}	c #7F7F7F",
"|	c #343434",
"1	c #9D9D9D",
"2	c #F2F2F2",
"3	c #D3D3D3",
"4	c #535353",
"5	c #4E4E4E",
"6	c #C2C2C2",
"7	c #DCDCDC",
"8	c #505050",
"9	c #EFEFEF",
"0	c #F5F5F5",
"......+@+........",
"......#$%........",
"......&*=........",
"......&*=........",
"......&*=........",
"......&*=........",
"......&*=........",
"......&*=........",
"......&*=........",
"......-;>,,,,,,,'",
".....&)!~{{{{{{{]",
"...^/(_:<<<<<<<<@",
"..[}|12..........",
"+3456+...........",
"78}9.............",
"0-^.............."};
