/* XPM */
static const char * copy_xpm[] = {
"16 16 143 2",
"  	c None",
". 	c #4A97CD",
"+ 	c #7DB5DC",
"@ 	c #74B0DA",
"# 	c #73B0DA",
"$ 	c #7CB5DC",
"% 	c #61A2D2",
"& 	c #0C71BA",
"* 	c #85B9DD",
"= 	c #EBF6FE",
"- 	c #D6EBF9",
"; 	c #D6EAF9",
"> 	c #E7F4FD",
", 	c #BCD3EA",
"' 	c #84ACD2",
") 	c #237EC0",
"! 	c #82B7DD",
"~ 	c #E5F1FB",
"{ 	c #D2E7F6",
"] 	c #D2E6F6",
"^ 	c #E1F0FA",
"/ 	c #B0CCE8",
"( 	c #C9D4E1",
"_ 	c #BFD2E0",
": 	c #DDEDFA",
"< 	c #C9E1F5",
"[ 	c #DAECF9",
"} 	c #ADCBE7",
"| 	c #91B4D4",
"1 	c #CED8E3",
"2 	c #85AED3",
"3 	c #1174BC",
"4 	c #82B8DD",
"5 	c #E4F1FC",
"6 	c #D1E6F7",
"7 	c #D1E5F7",
"8 	c #DAEBF9",
"9 	c #EDF3FA",
"0 	c #7CACD8",
"a 	c #689DD1",
"b 	c #7BA7D6",
"c 	c #4B8FC9",
"d 	c #DEEEFA",
"e 	c #CBE3F5",
"f 	c #CCE3F5",
"g 	c #C7E1F5",
"h 	c #74AFD9",
"i 	c #ABCCE9",
"j 	c #A2C7E8",
"k 	c #A4C8E8",
"l 	c #AACBEA",
"m 	c #A5C6E4",
"n 	c #287EC0",
"o 	c #82B7DC",
"p 	c #C5E0F4",
"q 	c #C6E1F4",
"r 	c #C2DFF3",
"s 	c #DBEDF9",
"t 	c #CDE6F7",
"u 	c #CFE7F7",
"v 	c #D7EBF9",
"w 	c #CEDFF1",
"x 	c #BBCADE",
"y 	c #5E9DCC",
"z 	c #84B8DD",
"A 	c #E8F5FC",
"B 	c #D4EAF7",
"C 	c #D5EAF7",
"D 	c #D6EAF7",
"E 	c #D1E8F6",
"F 	c #81B7DD",
"G 	c #D9EBF8",
"H 	c #CBE5F6",
"I 	c #CDE6F6",
"J 	c #D3EAF8",
"K 	c #C7DBEF",
"L 	c #D4DAE4",
"M 	c #FEF3ED",
"N 	c #78A8D0",
"O 	c #D9ECF9",
"P 	c #C4E0F4",
"Q 	c #C5E1F4",
"R 	c #C1DFF3",
"S 	c #DCECF8",
"T 	c #D0E5F6",
"U 	c #D1E6F6",
"V 	c #D8EBF8",
"W 	c #CEE0F1",
"X 	c #82B0D4",
"Y 	c #96BED9",
"Z 	c #96BDD9",
"` 	c #3487C4",
" .	c #83B8DD",
"..	c #E8F4FD",
"+.	c #D5E9F8",
"@.	c #D6E9F8",
"#.	c #D7E9F8",
"$.	c #D2E7F7",
"%.	c #D3E7F6",
"&.	c #C4DFF4",
"*.	c #C6E0F4",
"=.	c #C7E1F4",
"-.	c #D8EAF7",
";.	c #C5DFF2",
">.	c #C0DCF1",
",.	c #C9E2F4",
"'.	c #ADCEE9",
").	c #7CB4DB",
"!.	c #E6F1FA",
"~.	c #D6E8F6",
"{.	c #D7E8F6",
"].	c #D2E6F5",
"^.	c #81B7DC",
"/.	c #D0E6F6",
"(.	c #D3E7F7",
"_.	c #B8D4EC",
":.	c #2581C1",
"<.	c #2481C1",
"[.	c #539CCF",
"}.	c #DDEDF9",
"|.	c #CAE2F5",
"1.	c #D0E6F7",
"2.	c #B4D2EB",
"3.	c #4C98CD",
"4.	c #E7F2FB",
"5.	c #D4E8F7",
"6.	c #B9D4EC",
"7.	c #4D99CD",
"8.	c #F1F7FD",
"9.	c #E1EFF9",
"0.	c #E2EFF9",
"a.	c #EAF4FB",
"b.	c #BFD7ED",
"c.	c #4E99CE",
"d.	c #E0F1FB",
"e.	c #C8E4F6",
"f.	c #CAE5F6",
"g.	c #D0E9F8",
"h.	c #B6D4EC",
"i.	c #398DC8",
"j.	c #B7D3EB",
"k.	c #B1CFE9",
"l.	c #8FBADF",
". + @ # $ % &                   ",
"* = - ; > , ' )                 ",
"! ~ { ] ^ / ( _                 ",
"! : < < [ } | 1 2 3             ",
"4 5 6 7 8 9 0 a b c             ",
"! d e f e g h i j k l m n       ",
"o [ p q q r + s t u v w x y     ",
"z A B C D E F G H I J K L M N   ",
"! O P Q Q R + S T U V W X Y Z ` ",
" ...+.@.#.$.F %.&.*.=.-.;.>.,.'.",
").!.~.~.{.].^.S 6 $.$./.(.(.8 _.",
"  :.<.<.<.  [.}.< |.|.|.|.|.1.2.",
"            3.4.(.5.5.5.5.5.s 6.",
"            7.8.9.0.0.0.0.0.a.b.",
"            c.d.e.f.f.f.f.f.g.h.",
"            i.j.k.k.k.k.k.k.j.l."};
