/* XPM */
static char * deltav_xpm[] = {
"16 16 77 1",
" 	c None",
".	c #FFFFFF",
"+	c #C3C3C3",
"@	c #F1F1F1",
"#	c #EBEBEB",
"$	c #7F7F7F",
"%	c #6C6C6C",
"&	c #7A7A7A",
"*	c #DFDFDF",
"=	c #939393",
"-	c #6A6A6A",
";	c #8A8A8A",
">	c #FEFEFE",
",	c #2B2B2B",
"'	c #8F8F8F",
")	c #FCFCFC",
"!	c #202020",
"~	c #ABABAB",
"{	c #656565",
"]	c #FDFDFD",
"^	c #BBBBBB",
"/	c #6E6E6E",
"(	c #232323",
"_	c #737373",
":	c #5D5D5D",
"<	c #DCDCDC",
"[	c #B6B6B6",
"}	c #8D8E8D",
"|	c #F6F6F6",
"1	c #151515",
"2	c #B0B0B0",
"3	c #C6C6C6",
"4	c #101110",
"5	c #F8F8F8",
"6	c #9A9A9A",
"7	c #D9D9D9",
"8	c #B3B3B3",
"9	c #414141",
"0	c #1D1D1D",
"a	c #B5B5B5",
"b	c #909090",
"c	c #E3E3E3",
"d	c #060606",
"e	c #D1D1D1",
"f	c #6F6F6F",
"g	c #616161",
"h	c #B4B4B4",
"i	c #9E9E9E",
"j	c #575657",
"k	c #626262",
"l	c #131313",
"m	c #F9F9F9",
"n	c #9B9B9B",
"o	c #F7F7F7",
"p	c #F0F0F0",
"q	c #C6C5C6",
"r	c #0A0A0A",
"s	c #1A1A1A",
"t	c #B8B8B8",
"u	c #929292",
"v	c #363536",
"w	c #868686",
"x	c #6B6B6B",
"y	c #474747",
"z	c #B1B1B1",
"A	c #B2B2B2",
"B	c #CACACA",
"C	c #EEEEEE",
"D	c #969696",
"E	c #1C1C1C",
"F	c #FAFAFA",
"G	c #BFBFBF",
"H	c #0D0D0D",
"I	c #030303",
"J	c #A9A9A9",
"K	c #8C8C8C",
"L	c #F5F5F5",
"................",
"................",
"....+@#$%&*..=-;",
"...>,'.)!~...){]",
"...^/()._:...<[.",
"...}|12.345..65.",
"..78.&9.]0a..=..",
"..b).cde.fg.*h..",
".@i...jk.+lmno..",
".ip...qr#)st=...",
"]u.....vw.xyz...",
"ABCCCCCDEFGH|...",
"yIIIIIIIIJ)K....",
"|LLLLLLLLF......",
"................",
"................"};
