/* XPM */
static const char * deltav_xpm[] = {
"16 16 53 1",
" 	c #FFFFFF",
".	c #F5FAFE",
"+	c #C7DFF7",
"@	c #358BE1",
"#	c #348BE1",
"$	c #8EBEEF",
"%	c #ECF4FD",
"&	c #4B98E4",
"*	c #519BE5",
"=	c #4A97E4",
"-	c #338AE1",
";	c #5DA2E7",
">	c #1A7BDD",
",	c #4996E4",
"'	c #3A8EE2",
")	c #EEF5FD",
"!	c #FDFEFF",
"~	c #569EE6",
"{	c #177ADC",
"]	c #CFE4F9",
"^	c #4C98E5",
"/	c #E6F1FC",
"(	c #B2D3F4",
"_	c #2683DF",
":	c #BEDAF6",
"<	c #DCEBFB",
"[	c #1B7CDD",
"}	c #1679DC",
"|	c #59A0E7",
"1	c #3B8EE2",
"2	c #B3D3F4",
"3	c #6DABEA",
"4	c #E3F0FC",
"5	c #78B2EB",
"6	c #CCE2F8",
"7	c #1579DC",
"8	c #DFEDFB",
"9	c #187ADD",
"0	c #72AEEA",
"a	c #2280DE",
"b	c #2682DF",
"c	c #5FA3E7",
"d	c #197BDD",
"e	c #7BB4EC",
"f	c #91C0EF",
"g	c #1E7EDE",
"h	c #F8FBFF",
"i	c #4795E4",
"j	c #207FDE",
"k	c #85B9ED",
"l	c #1F7EDE",
"m	c #7EB5EC",
"n	c #D9EAFA",
"                ",
"                ",
"                ",
"   .+  @#$%  &*=",
"   -;   >,    ')",
"  !~{]  ^{/  (_ ",
"  :<[,   }-  |1 ",
"  2 3{4  5}6 78 ",
" ]4 /90   9a(b  ",
" 2   cd.  $7be  ",
"4]   /}f   g}h  ",
"2     ij!  kl   ",
"m_77777}n   /   ",
"                ",
"                ",
"                "};
