/* XPM */
static const char * earth_xpm[] = {
"32 32 21 1",
" 	c None",
".	c #000000",
"+	c #0033CC",
"@	c #003298",
"#	c #0066CC",
"$	c #000098",
"%	c #CCCB00",
"&	c #CBFFCB",
"*	c #33CC00",
"=	c #009800",
"-	c #0065FD",
";	c #00FD00",
">	c #98FF65",
",	c #986500",
"'	c #0098FD",
")	c #FFCB65",
"!	c #000066",
"~	c #FF9833",
"{	c #CC6500",
"]	c #CB9832",
"^	c #0000CC",
"                                ",
"                                ",
"                                ",
"            .......             ",
"          ..++++++@..           ",
"        ..+#####++++$..         ",
"       .####%&#+#++@&*=.        ",
"      .+#-#%;-&-##&>=>*,.       ",
"     .+#+#%-**=*#&>=>&;=,.      ",
"     .#+#-''*;;=;;**&;)*=.      ",
"    .++#-*-**&%;%;;=*)*),,.     ",
"    .+##%;**&%;%%%%;=*),)!.     ",
"   .+#+#%%'%';%%))#%;)%),$,.    ",
"   .++--#'''''')))~+%)){{,!.    ",
"   .+++--]]]']]=~~~#+%){!,!.    ",
"   .++--]])])])]###++@{%$!,.    ",
"   .+++#])]]])]){~++++%^!$=.    ",
"   .@+-+***%*%]%)~~@+@^@$!!.    ",
"   .@+++#**=***]]{++@^@$!$=.    ",
"    .+@#+++-*=*%){@+$@$!$!.     ",
"    .$+++++++*=*{@+@^$@$!!.     ",
"     .$+@+@$@%*%{{@$@$!$!.      ",
"     .$$+$+@+*%]{{$~$!^!!.      ",
"      .^$$+$@^){{^)^@$!!.       ",
"       .$$$@$@]{@$$$$!!.        ",
"        ..^$^$@^$@$!!..         ",
"          ..@$$$$!!..           ",
"            .......             ",
"                                ",
"                                ",
"                                ",
"                                "};
