/* XPM */
static char * earth_xpm[] = {
"32 32 791 2",
"  	c None",
". 	c #002E32",
"+ 	c #20413C",
"@ 	c #29493C",
"# 	c #224D48",
"$ 	c #1A4D4E",
"% 	c #17494D",
"& 	c #1A4B4E",
"* 	c #0D2725",
"= 	c #1D3630",
"- 	c #32483C",
"; 	c #465941",
"> 	c #556544",
", 	c #586A49",
"' 	c #3D6258",
") 	c #628275",
"! 	c #567856",
"~ 	c #5C824D",
"{ 	c #598253",
"] 	c #4E7A5C",
"^ 	c #3C6D59",
"/ 	c #255F60",
"( 	c #0D1A11",
"_ 	c #273422",
": 	c #364129",
"< 	c #3C462C",
"[ 	c #414E30",
"} 	c #3D5943",
"| 	c #778F7A",
"1 	c #9AB19C",
"2 	c #AEC9B4",
"3 	c #B9D5BE",
"4 	c #96B8A5",
"5 	c #508075",
"6 	c #568656",
"7 	c #628F50",
"8 	c #71955C",
"9 	c #518367",
"0 	c #2C6D6B",
"a 	c #3D7266",
"b 	c #171D0D",
"c 	c #2E3A20",
"d 	c #3C492C",
"e 	c #485541",
"f 	c #566653",
"g 	c #637C6E",
"h 	c #A3BAA3",
"i 	c #B5CFB6",
"j 	c #BCD8C1",
"k 	c #B2CDBB",
"l 	c #BCD8C6",
"m 	c #BCDBC6",
"n 	c #638C87",
"o 	c #557B5D",
"p 	c #668B56",
"q 	c #7D9E62",
"r 	c #6D9D60",
"s 	c #7B9E6A",
"t 	c #699967",
"u 	c #14170D",
"v 	c #29321D",
"w 	c #3A4627",
"x 	c #4D5638",
"y 	c #535D48",
"z 	c #6D7662",
"A 	c #899982",
"B 	c #94A793",
"C 	c #B0C9B1",
"D 	c #BAD6BB",
"E 	c #BFDBC3",
"F 	c #B2CDBD",
"G 	c #C0DDCA",
"H 	c #B8D6C7",
"I 	c #A0C1B6",
"J 	c #347372",
"K 	c #568155",
"L 	c #6A9056",
"M 	c #6B9A58",
"N 	c #77A15D",
"O 	c #7FA963",
"P 	c #8CBC73",
"Q 	c #141408",
"R 	c #202917",
"S 	c #46503A",
"T 	c #51583D",
"U 	c #6A7762",
"V 	c #76836E",
"W 	c #869780",
"X 	c #8DA086",
"Y 	c #AFC7A9",
"Z 	c #BDD9BD",
"` 	c #B6D1BD",
" .	c #B0C9BC",
"..	c #AFC9BD",
"+.	c #BFDCCA",
"@.	c #A8CCBB",
"#.	c #417772",
"$.	c #5D8165",
"%.	c #55824B",
"&.	c #638D50",
"*.	c #699151",
"=.	c #80A162",
"-.	c #73A156",
";.	c #9FBE7C",
">.	c #1D2011",
",.	c #202714",
"'.	c #343F27",
").	c #173834",
"!.	c #324943",
"~.	c #626A56",
"{.	c #6A755D",
"].	c #516A5B",
"^.	c #698373",
"/.	c #9CAE90",
"(.	c #A8BFA1",
"_.	c #ADC7B4",
":.	c #B6D0BF",
"<.	c #BFDAC8",
"[.	c #BFDBC8",
"}.	c #9FC1B2",
"|.	c #44786F",
"1.	c #557C6A",
"2.	c #567B55",
"3.	c #568350",
"4.	c #5D8B58",
"5.	c #638B50",
"6.	c #75955B",
"7.	c #85A169",
"8.	c #89A96B",
"9.	c #9CBC93",
"0.	c #222914",
"a.	c #272E1D",
"b.	c #323A25",
"c.	c #273C36",
"d.	c #1D3F3F",
"e.	c #344D48",
"f.	c #6B7663",
"g.	c #788573",
"h.	c #2E5656",
"i.	c #7D998C",
"j.	c #BED7BE",
"k.	c #BAD3B8",
"l.	c #85A59C",
"m.	c #A8C3B6",
"n.	c #BDD7C6",
"o.	c #97B9AB",
"p.	c #78A095",
"q.	c #2E7271",
"r.	c #3A7773",
"s.	c #638C5D",
"t.	c #699153",
"u.	c #769D5F",
"v.	c #6A9556",
"w.	c #699155",
"x.	c #75965F",
"y.	c #729562",
"z.	c #C9D39D",
"A.	c #C7D69A",
"B.	c #2E3820",
"C.	c #2C3622",
"D.	c #3C4432",
"E.	c #46513F",
"F.	c #595F49",
"G.	c #596555",
"H.	c #77806E",
"I.	c #72897D",
"J.	c #597873",
"K.	c #B2C8B9",
"L.	c #C2D9C5",
"M.	c #C5DBC6",
"N.	c #487B7C",
"O.	c #628986",
"P.	c #5F8983",
"Q.	c #3D7773",
"R.	c #387672",
"S.	c #437A72",
"T.	c #307675",
"U.	c #51806D",
"V.	c #5D894D",
"W.	c #638D4D",
"X.	c #729A56",
"Y.	c #6BA059",
"Z.	c #6F9E59",
"`.	c #8CA672",
" +	c #B8C28E",
".+	c #D0D79E",
"++	c #273A25",
"@+	c #3D4630",
"#+	c #444E32",
"$+	c #595C41",
"%+	c #666A49",
"&+	c #435951",
"*+	c #325658",
"=+	c #4E6E6A",
"-+	c #5F7872",
";+	c #B2C6BA",
">+	c #C2D7C8",
",+	c #CCE3CF",
"'+	c #A7C4B7",
")+	c #2C6A6D",
"!+	c #256266",
"~+	c #587F76",
"{+	c #2E7373",
"]+	c #2E7575",
"^+	c #447D73",
"/+	c #327877",
"(+	c #558271",
"_+	c #558358",
":+	c #5B8D49",
"<+	c #699350",
"[+	c #739E58",
"}+	c #85B167",
"|+	c #A0B07B",
"1+	c #D1D79D",
"2+	c #C9C89D",
"3+	c #CDDB9E",
"4+	c #34462C",
"5+	c #445132",
"6+	c #4E593A",
"7+	c #636949",
"8+	c #6F7358",
"9+	c #2C5053",
"0+	c #174851",
"a+	c #778D87",
"b+	c #B8CAC0",
"c+	c #C3D7CB",
"d+	c #CCE2D1",
"e+	c #A4BFB4",
"f+	c #417576",
"g+	c #225C63",
"h+	c #256269",
"i+	c #2C7176",
"j+	c #307376",
"k+	c #307677",
"l+	c #327878",
"m+	c #488176",
"n+	c #518B66",
"o+	c #67935B",
"p+	c #5C914D",
"q+	c #67914E",
"r+	c #6F9955",
"s+	c #8CB76A",
"t+	c #9AB877",
"u+	c #E4E2A9",
"v+	c #D3CFA4",
"w+	c #C8D099",
"x+	c #223F41",
"y+	c #34493D",
"z+	c #41553A",
"A+	c #556748",
"B+	c #56695B",
"C+	c #174651",
"D+	c #2E535B",
"E+	c #AFC0B6",
"F+	c #8BA6A2",
"G+	c #7FA09D",
"H+	c #779A96",
"I+	c #3D7275",
"J+	c #2C676D",
"K+	c #27656D",
"L+	c #27666E",
"M+	c #297278",
"N+	c #3D7C7C",
"O+	c #417D7B",
"P+	c #347B7C",
"Q+	c #4E887C",
"R+	c #6F9D5D",
"S+	c #789A5D",
"T+	c #699651",
"U+	c #6D9F55",
"V+	c #73A158",
"W+	c #77A65F",
"X+	c #82AD67",
"Y+	c #CDD49A",
"Z+	c #D7D5AE",
"`+	c #D7E1A7",
" @	c #1A3D4B",
".@	c #0D3646",
"+@	c #143C44",
"@@	c #324D49",
"#@	c #56675C",
"$@	c #365659",
"%@	c #29555C",
"&@	c #36636B",
"*@	c #1D5965",
"=@	c #25626B",
"-@	c #43767B",
";@	c #2E6E75",
">@	c #29666E",
",@	c #22656F",
"'@	c #296A73",
")@	c #568986",
"!@	c #95AB82",
"~@	c #728E6E",
"{@	c #668773",
"]@	c #69986B",
"^@	c #6E9653",
"/@	c #729658",
"(@	c #7BA15F",
"_@	c #7AAC5D",
":@	c #7FB360",
"<@	c #6FA05F",
"[@	c #7CA16B",
"}@	c #A8B482",
"|@	c #D1D4A9",
"1@	c #D7DFA9",
"2@	c #B2C88D",
"3@	c #173D4D",
"4@	c #113A4B",
"5@	c #0D3848",
"6@	c #1A414E",
"7@	c #556965",
"8@	c #1A4B58",
"9@	c #174853",
"0@	c #1D4E5B",
"a@	c #205863",
"b@	c #20606A",
"c@	c #276771",
"d@	c #6E9390",
"e@	c #588789",
"f@	c #276B76",
"g@	c #347B83",
"h@	c #8DAE98",
"i@	c #768E6A",
"j@	c #759069",
"k@	c #628975",
"l@	c #71A260",
"m@	c #759C58",
"n@	c #80A462",
"o@	c #81AF63",
"p@	c #80B162",
"q@	c #6FA05D",
"r@	c #739A69",
"s@	c #97AB76",
"t@	c #E0E0AE",
"u@	c #DADCAB",
"v@	c #9EB778",
"w@	c #174153",
"x@	c #143F50",
"y@	c #0D3C4B",
"z@	c #143F4E",
"A@	c #1D505C",
"B@	c #174B59",
"C@	c #1A4958",
"D@	c #20535F",
"E@	c #205C69",
"F@	c #225F6A",
"G@	c #20626E",
"H@	c #256773",
"I@	c #2E727C",
"J@	c #36767F",
"K@	c #307780",
"L@	c #568D89",
"M@	c #86A077",
"N@	c #5F8D76",
"O@	c #759772",
"P@	c #7B997A",
"Q@	c #7AA663",
"R@	c #7FAE5D",
"S@	c #7DA75C",
"T@	c #7BA259",
"U@	c #86AF63",
"V@	c #8FB071",
"W@	c #88A06F",
"X@	c #90A278",
"Y@	c #8DA26F",
"Z@	c #DADAA9",
"`@	c #E1E5B3",
" #	c #B4C88F",
".#	c #1A4456",
"+#	c #144153",
"@#	c #113F50",
"##	c #144151",
"$#	c #1A4656",
"%#	c #1A4B5B",
"&#	c #205362",
"*#	c #255B6A",
"=#	c #225F6D",
"-#	c #296A76",
";#	c #30717C",
">#	c #30757F",
",#	c #3A7C85",
"'#	c #3C8187",
")#	c #CBE1C7",
"!#	c #7F9876",
"~#	c #508B85",
"{#	c #6A977F",
"]#	c #809D77",
"^#	c #729F5D",
"/#	c #81B060",
"(#	c #80AB5D",
"_#	c #7A9F5B",
":#	c #8CA76D",
"<#	c #C8C296",
"[#	c #CAC797",
"}#	c #839F65",
"|#	c #C0CB9E",
"1#	c #D0D7A8",
"2#	c #A9C89A",
"3#	c #1A485C",
"4#	c #114356",
"5#	c #114355",
"6#	c #144656",
"7#	c #1A4B5C",
"8#	c #1D4E60",
"9#	c #225667",
"0#	c #25606F",
"a#	c #2C6D78",
"b#	c #2C717B",
"c#	c #4B8081",
"d#	c #4E867C",
"e#	c #3A858D",
"f#	c #6D9C8D",
"g#	c #77A271",
"h#	c #4D8E8B",
"i#	c #81A083",
"j#	c #A5B180",
"k#	c #83A66B",
"l#	c #7AA75D",
"m#	c #85B160",
"n#	c #6F9856",
"o#	c #658D51",
"p#	c #99A277",
"q#	c #C6C1A1",
"r#	c #E1D8AD",
"s#	c #ACC183",
"t#	c #C8D9A7",
"u#	c #A5BF87",
"v#	c #AEC89A",
"w#	c #255063",
"x#	c #14485C",
"y#	c #174659",
"z#	c #144859",
"A#	c #17495B",
"B#	c #1A5060",
"C#	c #205666",
"D#	c #225C6B",
"E#	c #225D6D",
"F#	c #225F6F",
"G#	c #2C6D7A",
"H#	c #518786",
"I#	c #7DA285",
"J#	c #589077",
"K#	c #3D878F",
"L#	c #5F9585",
"M#	c #699C85",
"N#	c #5C958F",
"O#	c #ADB987",
"P#	c #C5C793",
"Q#	c #A4B580",
"R#	c #7AA062",
"S#	c #88A96A",
"T#	c #759960",
"U#	c #899976",
"V#	c #D7CCAE",
"W#	c #D3CDA9",
"X#	c #E9E1B2",
"Y#	c #E1E9AC",
"Z#	c #B7CC8B",
"`#	c #B8CE89",
" $	c #97B688",
".$	c #275569",
"+$	c #1D4E65",
"@$	c #1A4E62",
"#$	c #1A4D60",
"$$	c #1D5365",
"%$	c #255D6D",
"&$	c #256271",
"*$	c #20606F",
"=$	c #256777",
"-$	c #508888",
";$	c #5D9687",
">$	c #7FAF71",
",$	c #5C9188",
"'$	c #86A972",
")$	c #9CBA7C",
"!$	c #ABBC81",
"~$	c #BDC38E",
"{$	c #CFCC9C",
"]$	c #9CAB7C",
"^$	c #729462",
"/$	c #93AB72",
"($	c #B4B588",
"_$	c #78988D",
":$	c #BFC2B1",
"<$	c #E1D2B2",
"[$	c #DCD4A6",
"}$	c #BDC78E",
"|$	c #CAD49C",
"1$	c #D1E3A6",
"2$	c #779E77",
"3$	c #25586E",
"4$	c #20536B",
"5$	c #22566A",
"6$	c #225669",
"7$	c #25586A",
"8$	c #2C5F71",
"9$	c #2E6575",
"0$	c #276273",
"a$	c #256273",
"b$	c #226373",
"c$	c #226575",
"d$	c #307381",
"e$	c #588F8C",
"f$	c #7FAB83",
"g$	c #A6BE80",
"h$	c #9CA87A",
"i$	c #A5B67F",
"j$	c #BAC58C",
"k$	c #CCD399",
"l$	c #BCC48F",
"m$	c #789E66",
"n$	c #7C9E76",
"o$	c #7CA189",
"p$	c #BEC88E",
"q$	c #CBD0A1",
"r$	c #7B9E9C",
"s$	c #B7BCA9",
"t$	c #B6B589",
"u$	c #D0CF9E",
"v$	c #DBE1A9",
"w$	c #B3C896",
"x$	c #86A072",
"y$	c #255971",
"z$	c #25596E",
"A$	c #20566A",
"B$	c #22586B",
"C$	c #275C6E",
"D$	c #326776",
"E$	c #256073",
"F$	c #226073",
"G$	c #226275",
"H$	c #296A7C",
"I$	c #2E6E7F",
"J$	c #3D7D88",
"K$	c #A6C082",
"L$	c #A5C67D",
"M$	c #97AF77",
"N$	c #94AE71",
"O$	c #B1C186",
"P$	c #CFD49D",
"Q$	c #E2E5AC",
"R$	c #4E8B91",
"S$	c #418596",
"T$	c #90B397",
"U$	c #F3E9B7",
"V$	c #C8CDAC",
"W$	c #AEB596",
"X$	c #CFC69D",
"Y$	c #B2B28B",
"Z$	c #87AD9F",
"`$	c #46979D",
" %	c #2C5F76",
".%	c #225B6F",
"+%	c #1D556A",
"@%	c #255D72",
"#%	c #225C6F",
"$%	c #225F72",
"%%	c #226377",
"&%	c #306F7F",
"*%	c #859F76",
"=%	c #8FA78F",
"-%	c #A9B886",
";%	c #86A380",
">%	c #82A687",
",%	c #91AF90",
"'%	c #8FB38F",
")%	c #B2C089",
"!%	c #A3B27F",
"~%	c #769989",
"{%	c #7F9E89",
"]%	c #D0CEA2",
"^%	c #F7EABA",
"/%	c #FFF5C7",
"(%	c #FEF3C3",
"_%	c #F4E9C0",
":%	c #EAE8C4",
"<%	c #A0BBAE",
"[%	c #3D94A1",
"}%	c #348791",
"|%	c #366778",
"1%	c #225B73",
"2%	c #1D566D",
"3%	c #1A536A",
"4%	c #20596E",
"5%	c #1D596E",
"6%	c #225D73",
"7%	c #27667A",
"8%	c #29697C",
"9%	c #4E7C7D",
"0%	c #9CA376",
"a%	c #AFB885",
"b%	c #71978E",
"c%	c #3D8595",
"d%	c #518E91",
"e%	c #639691",
"f%	c #89A9A2",
"g%	c #85A18D",
"h%	c #7CA093",
"i%	c #879F83",
"j%	c #CEC99F",
"k%	c #C3C8A8",
"l%	c #FFF9D0",
"m%	c #FFEFCD",
"n%	c #E9D8B9",
"o%	c #ADC1B7",
"p%	c #B5D4C8",
"q%	c #BBD8C8",
"r%	c #388B98",
"s%	c #307F8B",
"t%	c #27607A",
"u%	c #225B72",
"v%	c #205971",
"w%	c #1D586E",
"x%	c #22596F",
"y%	c #226076",
"z%	c #2C6A7D",
"A%	c #347282",
"B%	c #739080",
"C%	c #7C968D",
"D%	c #599191",
"E%	c #5D9395",
"F%	c #62959A",
"G%	c #5D97A2",
"H%	c #719CA3",
"I%	c #3C8396",
"J%	c #588D95",
"K%	c #4E8C98",
"L%	c #498796",
"M%	c #63969E",
"N%	c #EBDBB8",
"O%	c #FFEECE",
"P%	c #FFF0D1",
"Q%	c #FBF6D7",
"R%	c #F3F7D7",
"S%	c #A7C8B8",
"T%	c #328190",
"U%	c #2C6680",
"V%	c #255F78",
"W%	c #225C75",
"X%	c #205B75",
"Y%	c #27657A",
"Z%	c #326D81",
"`%	c #3C7586",
" &	c #839A7B",
".&	c #A6A986",
"+&	c #DCD6B3",
"@&	c #EDE8C0",
"#&	c #F6F3D2",
"$&	c #E1DBC3",
"%&	c #5C97A2",
"&&	c #438C9E",
"*&	c #43889C",
"=&	c #729FA7",
"-&	c #6A9AA5",
";&	c #82A6A8",
">&	c #C3C7B6",
",&	c #E1CEB4",
"'&	c #F0E1C2",
")&	c #F4E3C3",
"!&	c #FFFFD7",
"~&	c #E5EFCC",
"{&	c #468E99",
"]&	c #327F8E",
"^&	c #326A83",
"/&	c #225F77",
"(&	c #276278",
"_&	c #27637A",
":&	c #346B80",
"<&	c #98A2A2",
"[&	c #C2B6A5",
"}&	c #D5C8B1",
"|&	c #E9DEC5",
"1&	c #F7F0D7",
"2&	c #FFFEE1",
"3&	c #FFFFEC",
"4&	c #FFFBDE",
"5&	c #ECDFC2",
"6&	c #C8CFC0",
"7&	c #C6D7C9",
"8&	c #FFF9DE",
"9&	c #FFF4D7",
"0&	c #FCE9CF",
"a&	c #D9CEB9",
"b&	c #8CA9AC",
"c&	c #C6BFA9",
"d&	c #E9DEBC",
"e&	c #F5F6CD",
"f&	c #71A4A4",
"g&	c #307B8B",
"h&	c #2E6A86",
"i&	c #29637B",
"j&	c #2E667C",
"k&	c #4E7888",
"l&	c #DACFBE",
"m&	c #E1D6C6",
"n&	c #E4D5C4",
"o&	c #E3D5C3",
"p&	c #F9F1D9",
"q&	c #EEDFC6",
"r&	c #F4EBD1",
"s&	c #F7ECD1",
"t&	c #F5E7C7",
"u&	c #F3E8CA",
"v&	c #F6EDD2",
"w&	c #FFFDE1",
"x&	c #FFF4D4",
"y&	c #FFF5D7",
"z&	c #F1E3C7",
"A&	c #C9C4B1",
"B&	c #76A9B0",
"C&	c #9EB4A6",
"D&	c #AEC3B2",
"E&	c #5C8D93",
"F&	c #2E6B88",
"G&	c #2C6983",
"H&	c #587B87",
"I&	c #CBBDA4",
"J&	c #E1D6C4",
"K&	c #EDE4D5",
"L&	c #F0E6D6",
"M&	c #F8F1DA",
"N&	c #F0E2CB",
"O&	c #EBDEC8",
"P&	c #F5E9D3",
"Q&	c #E1DCBB",
"R&	c #FFFDDA",
"S&	c #FFFCD8",
"T&	c #FFFCD7",
"U&	c #F2E5C7",
"V&	c #DBCEB0",
"W&	c #C2BF98",
"X&	c #C0BB9F",
"Y&	c #8FA499",
"Z&	c #326E89",
"`&	c #638078",
" *	c #9C957A",
".*	c #D0BCA8",
"+*	c #E4D7C4",
"@*	c #F0E4CE",
"#*	c #F1E4CC",
"$*	c #FAEFD5",
"%*	c #F6EDD5",
"&*	c #FFFDE4",
"**	c #EFEBCC",
"=*	c #FFFDDB",
"-*	c #FFFFDD",
";*	c #FAEFCA",
">*	c #D7CAA8",
",*	c #BBB68E",
"'*	c #C0BF95",
")*	c #8F9D93",
"!*	c #306D89",
"~*	c #5F7D7F",
"{*	c #ACA089",
"]*	c #AFA288",
"^*	c #C8B79E",
"/*	c #D7C7AC",
"(*	c #E3D4B6",
"_*	c #F0E4C8",
":*	c #EEE3CA",
"<*	c #E8DEC4",
"[*	c #E2D7B8",
"}*	c #DED0AF",
"|*	c #D4C8A4",
"1*	c #BCB28F",
"2*	c #B7B08D",
"3*	c #B2B08B",
"4*	c #8CA18D",
"5*	c #326F8C",
"6*	c #346E89",
"7*	c #517A88",
"8*	c #658083",
"9*	c #728888",
"0*	c #9E9C8F",
"a*	c #9A9880",
"b*	c #9D9A77",
"c*	c #A09A78",
"d*	c #9A9773",
"e*	c #9CA071",
"f*	c #9FA773",
"g*	c #97A66F",
"h*	c #94A173",
"i*	c #2C6783",
"j*	c #296682",
"k*	c #2E6A83",
"l*	c #447381",
"m*	c #678266",
"n*	c #7A8D5F",
"o*	c #8F916B",
"p*	c #95966F",
"                        . + @ # $ % % &                         ",
"                  * = - ; > , ' ) ! ~ { ] ^ /                   ",
"              ( _ : < [ } | 1 2 3 4 5 6 7 8 9 0 a               ",
"            b c d < e f g h i j k l m n o p q r s t             ",
"          u v w x y z A B C D E F G H I J K L M N O P           ",
"        Q R : S T U V W X Y Z `  ...+.@.#.$.%.&.*.=.-.;.        ",
"      >.,.'.).!.~.{.].^./.(._.:.<.[.}.|.1.2.3.4.5.6.7.8.9.      ",
"    0.a.b.c.d.e.f.g.h.i.j.k.l.m.n.o.p.q.r.s.t.u.v.w.x.y.z.A.    ",
"    B.C.D.E.F.G.H.I.J.K.L.M.N.O.P.Q.R.S.T.U.V.W.X.Y.Z.`. +.+    ",
"  ++@+#+$+%+&+*+=+-+;+>+,+'+)+!+~+{+]+^+/+(+_+:+<+[+}+|+1+2+3+  ",
"  4+5+6+7+8+9+0+a+b+c+d+e+f+g+h+i+j+k+l+m+n+o+p+q+r+s+t+u+v+w+  ",
"  x+y+z+A+B+C+D+E+F+G+H+I+J+K+L+M+N+O+P+Q+R+S+T+U+V+W+X+Y+Z+`+  ",
" @.@+@@@#@$@C+%@&@*@=@-@;@>@,@'@)@!@~@{@]@^@/@(@_@:@<@[@}@|@1@2@",
"3@4@5@6@7@8@9@0@a@b@c@d@e@c@f@g@h@i@j@k@l@V+m@n@o@p@q@r@s@t@u@v@",
"w@x@y@z@A@B@C@D@E@F@G@H@I@J@K@L@M@N@O@P@Q@R@S@T@U@V@W@X@Y@Z@`@ #",
".#+#@###$#%#%#&#*#=#-#;#>#,#'#)#!#~#{#]#^#/#(#_#T@:#<#[#}#|#1#2#",
"3#4#5#5#6#7#8#9#*#0#a#b#c#d#e#f#g#h#i#j#k#l#m#n#o#p#q#r#s#t#u#v#",
"w#x#y#z#A#B#C#D#E#F#G#H#I#J#K#L#M#N#O#P#Q#R#S#T#U#V#W#X#Y#Z#`# $",
".$+$@$#$8#$$%$&$*$*$=$-$;$>$,$'$)$!$~${$]$^$/$($_$:$<$[$}$|$1$2$",
"3$4$5$6$7$8$9$0$a$b$c$d$e$f$g$h$i$j$k$l$m$n$o$p$q$r$s$t$u$v$w$x$",
"  y$z$A$B$C$D$E$F$G$H$I$J$K$L$M$N$O$P$Q$o$R$S$T$U$V$W$X$Y$Z$`$  ",
"   %.%+%+%@%#%$%F$%%&%*%=%-%;%>%,%'%)%!%~%{%]%^%/%(%_%:%<%[%}%  ",
"  |%1%2%3%4%5%6%7%8%9%0%a%b%c%d%e%f%g%h%i%j%k%l%m%n%o%p%q%r%s%  ",
"    t%u%v%w%x%y%8%z%A%B%C%D%E%F%G%H%I%J%K%L%M%N%O%P%Q%R%S%T%    ",
"    U%V%W%X%W%Y%Z%`% &.&+&@&#&$&%&&&*&=&-&;&>&,&'&)&!&~&{&]&    ",
"      ^&/&(&_&:&<&[&}&|&1&2&3&4&5&6&7&8&9&0&a&b&c&d&e&f&g&      ",
"        h&i&j&k&l&m&n&o&p&q&r&s&t&u&v&w&x&y&z&A&B&C&D&E&        ",
"          F&G&H&I&J&K&L&M&N&O&P&4&Q%Q&R&S&T&U&V&W&X&Y&          ",
"            F&Z&`& *.*+*@*#*$*%*3&&***=*-*;*>*,*'*)*            ",
"              F&!*~*{*]*^*/*(*_*:*<*[*}*|*1*2*3*4*              ",
"                  5*6*7*8*9*0*a*b*c*d*e*f*g*h*                  ",
"                        i*j*k*l*m*n*o*p*                        "};
