/* XPM */
static char * endfb_xpm[] = {
"16 16 23 1",
" 	c None",
".	c #191919",
"+	c #CCCACC",
"@	c #D4CCC2",
"#	c #060606",
"$	c #CDBDB6",
"%	c #6D6965",
"&	c #978588",
"*	c #1478DC",
"=	c #6088FE",
"-	c #2E2E2E",
";	c #578CF6",
">	c #1D1D1D",
",	c #EFEEEC",
"'	c #0745FE",
")	c #1E1E1E",
"!	c #7F7E7B",
"~	c #5A9DE9",
"{	c #212634",
"]	c #303030",
"^	c #277BE5",
"/	c #30302F",
"(	c #010509",
".++             ",
"+@@           .#",
".$%@&   *=    .-",
"+$@$@$  **;   .>",
" @&,+%@@***'  .)",
" @@@@@@!****~*{]",
"  @,++&@******^/",
"   @&,@@******^]",
"    @%@+******^]",
"    @@@@******^/",
"     ,@@****~*{]",
"        ***'  .)",
"        **;   .>",
"        *=    .-",
"              .(",
"                "};
