/* XPM */
static const char * endfb_xpm[] = {
"16 16 39 1",
" 	c #818181",
".	c #CCCACC",
"+	c #FFFFFF",
"@	c #D4CCC2",
"#	c #252525",
"$	c #282828",
"%	c #CDBDB6",
"&	c #6E6A66",
"*	c #978588",
"=	c #2F87E0",
"-	c #97B1FF",
";	c #F1F4FF",
">	c #303030",
",	c #2F2F2F",
"'	c #75B0EB",
")	c #8CB1F9",
"!	c #F0F4FF",
"~	c #F6F8FF",
"{	c #393939",
"]	c #1E1E1E",
"^	c #EFEEEC",
"/	c #1D7DDD",
"(	c #368CE1",
"_	c #4E99E5",
":	c #88A6FF",
"<	c #ABCFF3",
"[	c #3C3C3C",
"}	c #1F1F1F",
"|	c #807F7C",
"1	c #66A7E9",
"2	c #7CB1EE",
"3	c #97C3F0",
"4	c #757881",
"5	c #313131",
"6	c #7EB5EC",
"7	c #A6C9F5",
"8	c #313130",
"9	c #1A1A1A",
"0	c #05090D",
" ..+++++++++++++",
".@@+++++++++++#$",
" %&@*+++=-;+++>,",
".%@%@%++=')!~+{]",
"+@*^.&@@/(_:<![}",
"+@@@@@@|/(_12345",
"++@^..*@/(_16378",
"+++@*^@@/(_16375",
"++++@&@./(_16375",
"++++@@@@/(_16378",
"+++++^@@/(_12345",
"++++++++/(_:<![}",
"++++++++=')!~+{]",
"++++++++=-;+++>,",
"++++++++++++++90",
"++++++++++++++++"};
