/* XPM */
static char * equalsign_xpm[] = {
"16 15 3 1",
" 	c None",
".	c Black",
"X	c Gray",
"                ",
"                ",
"                ",
"                ",
"  .XXXXXXXXXX.  ",
"  .XXXXXXXXXX.  ",
"                ",
"                ",
"  .XXXXXXXXXX.  ",
"  .XXXXXXXXXX.  ",
"                ",
"                ",
"                ",
"                ",
"                "};
