/* XPM */
static const char * equalsign_xpm[] = {
"16 16 82 1",
" 	c #FFFFFF",
".	c #1581F7",
"+	c #1584FF",
"@	c #1583FD",
"#	c #1883FB",
"$	c #658BC1",
"%	c #6A90C6",
"&	c #6D94CA",
"*	c #2482ED",
"=	c #698FC5",
"-	c #DCDCDC",
";	c #D7D7D7",
">	c #CECECE",
",	c #C1C2C2",
"'	c #BDBDBD",
")	c #F4E5BC",
"!	c #D8A559",
"~	c #DBB185",
"{	c #D09D47",
"]	c #EED8B1",
"^	c #ACACAC",
"/	c #1580EF",
"(	c #A2A2A2",
"_	c #E87574",
":	c #DE7B42",
"<	c #E7BE78",
"[	c #F0D2B4",
"}	c #FFF3E5",
"|	c #EFD2AC",
"1	c #CC965A",
"2	c #E2E2E2",
"3	c #D8C998",
"4	c #EDD581",
"5	c #F9E3B2",
"6	c #E7C08B",
"7	c #F6D3AE",
"8	c #FCE0C4",
"9	c #D4A26B",
"0	c #B4B4B4",
"a	c #DED2A8",
"b	c #EDD179",
"c	c #FDF6C2",
"d	c #F6DD6D",
"e	c #EDCA6E",
"f	c #D7A364",
"g	c #F5EDE3",
"h	c #EAEAEA",
"i	c #E0D3AB",
"j	c #F7DF64",
"k	c #F7E15B",
"l	c #F0D37A",
"m	c #E2A252",
"n	c #F6EADC",
"o	c #B4A27F",
"p	c #E7CB78",
"q	c #D89547",
"r	c #F7E8D6",
"s	c #D8C8A5",
"t	c #D6B977",
"u	c #F8E25E",
"v	c #DC994B",
"w	c #B09C7F",
"x	c #D5B67B",
"y	c #D1B790",
"z	c #E4C956",
"A	c #F5DF5C",
"B	c #D7974D",
"C	c #C4BBB0",
"D	c #AA8944",
"E	c #D89A55",
"F	c #BE7B1B",
"G	c #C5984A",
"H	c #BB833E",
"I	c #93867A",
"J	c #89632C",
"K	c #F9C794",
"L	c #C98542",
"M	c #AE6C28",
"N	c #F2E6D8",
"O	c #010101",
"P	c #BE8A4D",
"Q	c #CCA971",
" ..+++++++++@   ",
" +          +   ",
" + #++++++# +   ",
" + +$$%%&&+ +   ",
" + *$$=%&&* .   ",
" + --;>>,,')!~{]",
" + ^/-(/>_:<[}|1",
" + 22--;;3456789",
" + 0/2^/abcdef9g",
" + hh22ibcjklmn ",
" + 0/hopcjklqr  ",
" + hhstcjulv.   ",
" +,'wxyzAbBC+   ",
" @+.D}EFGHI.@   ",
"    JKKLMN      ",
"    OJPQg       "};
