/* XPM */
static const char * Erase_xpm[] = {
"16 16 81 1",
" 	c None",
".	c #F6BF41",
"+	c #F6C142",
"@	c #F2BD43",
"#	c #F8C54E",
"$	c #F8CB62",
"%	c #F7C141",
"&	c #8D8F90",
"*	c #E1D7BE",
"=	c #F6C656",
"-	c #F7C142",
";	c #F7BE3C",
">	c #D5D7D7",
",	c #CBCACC",
"'	c #ACA79A",
")	c #F2C043",
"!	c #F7BF3C",
"~	c #F7B634",
"{	c #F6B02A",
"]	c #8E9190",
"^	c #D6D8D7",
"/	c #CACBCC",
"(	c #A3A4A6",
"_	c #7C7D7F",
":	c #676155",
"<	c #F1B534",
"[	c #F5B02A",
"}	c #F6A822",
"|	c #F6A51B",
"1	c #CBCCCC",
"2	c #7B7E7F",
"3	c #545658",
"4	c #717477",
"5	c #959084",
"6	c #F0A825",
"7	c #F6A61D",
"8	c #C0575E",
"9	c #D79599",
"0	c #C9CCCC",
"a	c #7B7D80",
"b	c #555659",
"c	c #727478",
"d	c #8A8D90",
"e	c #6A6A6A",
"f	c #5F5242",
"g	c #BA5158",
"h	c #EB8D92",
"i	c #F79FA3",
"j	c #DBA3A7",
"k	c #7C7E7F",
"l	c #545659",
"m	c #69696C",
"n	c #464647",
"o	c #B95158",
"p	c #F39A9D",
"q	c #F39B9F",
"r	c #FAA2A7",
"s	c #ED9095",
"t	c #AC7176",
"u	c #898D91",
"v	c #67686C",
"w	c #464547",
"x	c #D26E75",
"y	c #F1959A",
"z	c #FBA3A8",
"A	c #DE7F85",
"B	c #CF6E73",
"C	c #AD6C73",
"D	c #69686C",
"E	c #5A4649",
"F	c #EC9095",
"G	c #DD7F84",
"H	c #CF6D73",
"I	c #C25B62",
"J	c #B54A52",
"K	c #8E484E",
"L	c #DE7F84",
"M	c #D06D72",
"N	c #B54B52",
"O	c #B54A53",
"P	c #C15962",
"                ",
"                ",
"         .+     ",
"        @#$%    ",
"       &*=%-;   ",
"      &>,')!~{  ",
"     ]^/(_:<[}| ",
"    ]^1(234567  ",
"   890(abcdef   ",
"  ghijklcdmn    ",
" opqrstcuvw     ",
" xyzsABCDE      ",
"  rFGHIJK       ",
"   LMINO        ",
"    PNN         ",
"                "};
