/* XPM */
static const char * FasterAnimation_xpm[] = {
"17 16 102 2",
"  	c None",
". 	c #337EC1",
"+ 	c #2A7CBF",
"@ 	c #4D87C6",
"# 	c #4884C4",
"$ 	c #287BBF",
"% 	c #3E83C4",
"& 	c #5C8CC9",
"* 	c #5487C6",
"= 	c #2D7CBF",
"- 	c #1777BD",
"; 	c #5C8FCA",
"> 	c #648FCA",
", 	c #5286C6",
"' 	c #327DC0",
") 	c #1B77BD",
"! 	c #4A8AC7",
"~ 	c #6D95CE",
"{ 	c #6590CB",
"] 	c #5186C5",
"^ 	c #337DC0",
"/ 	c #1977BD",
"( 	c #227BC0",
"_ 	c #6D97CF",
": 	c #7398CF",
"< 	c #628FCA",
"[ 	c #357DC1",
"} 	c #1475BC",
"| 	c #0E75BB",
"1 	c #2D7DC0",
"2 	c #347EC1",
"3 	c #548FCA",
"4 	c #7C9ED3",
"5 	c #618ECA",
"6 	c #357DC0",
"7 	c #1175BB",
"8 	c #1D79BE",
"9 	c #4D86C5",
"0 	c #1575BC",
"a 	c #2D7FC2",
"b 	c #7FA1D4",
"c 	c #80A0D4",
"d 	c #7298CF",
"e 	c #317CC0",
"f 	c #3C83C4",
"g 	c #648ECA",
"h 	c #4984C4",
"i 	c #277ABF",
"j 	c #6296CE",
"k 	c #8AA7D7",
"l 	c #7E9FD3",
"m 	c #7097CF",
"n 	c #628ECA",
"o 	c #2E7BBF",
"p 	c #317FC1",
"q 	c #668FCB",
"r 	c #4A83C4",
"s 	c #0D74BC",
"t 	c #1877BD",
"u 	c #6A9BD0",
"v 	c #6B9AD0",
"w 	c #6194CD",
"x 	c #578ECA",
"y 	c #4D88C7",
"z 	c #3E81C2",
"A 	c #4B8AC7",
"B 	c #7096CE",
"C 	c #5F8DC9",
"D 	c #4B84C4",
"E 	c #1175BC",
"F 	c #2B7FC1",
"G 	c #5F92CC",
"H 	c #7498CF",
"I 	c #5D8CC8",
"J 	c #2F7BBF",
"K 	c #1075BC",
"L 	c #0D74BB",
"M 	c #5C92CD",
"N 	c #789CD2",
"O 	c #6F95CE",
"P 	c #5D8CC9",
"Q 	c #3F87C6",
"R 	c #719BD1",
"S 	c #84A1D5",
"T 	c #6C95CD",
"U 	c #5E8CC9",
"V 	c #4C84C4",
"W 	c #0F75BB",
"X 	c #6B9ACF",
"Y 	c #8DA7D8",
"Z 	c #608DC9",
"` 	c #4D84C4",
" .	c #307BBF",
"..	c #2F80C2",
"+.	c #5A93CC",
"@.	c #6797CF",
"#.	c #598FCA",
"$.	c #4F8AC7",
"%.	c #4584C4",
"&.	c #397EC1",
"*.	c #2379BE",
"=.	c #0F75BC",
"                                  ",
"          . +                     ",
"          @ # $                   ",
"        % & * =                   ",
"      - ; > , ' )                 ",
"      ! ~ { ] ^ /                 ",
"    ( _ : < ] [ } | 1 2           ",
"    3 4 : 5 ] 6 7 8 9 # 0         ",
"  a b c d < , e / f g h i         ",
"  j k l m n ] o p ; q r o s       ",
"t u v w x y z $ A B C D o E       ",
"              F G H I D J K L     ",
"              M N O P D J K L     ",
"            Q R S T U V J K L W   ",
"            X Y c O Z `  .K L W   ",
"          ..+.@.#.$.%.&.*.=.L =.W "};
