/* XPM */
static const char * folder_xpm[] = {
"32 32 5 1",
" 	c None",
".	c #808080",
"+	c #FFFF00",
"@	c #C0C0C0",
"#	c #000000",
"                                ",
"                                ",
"      ..........                ",
"      ..........                ",
"    ..++@@++@@++..              ",
"    ..++@@++@@++..              ",
"  ..++@@++@@++@@++............  ",
"  ..++@@++@@++@@++............  ",
"  ..                        ..##",
"  ..                        ..##",
"  ..  ++@@++@@++@@++@@++@@++..##",
"  ..  ++@@++@@++@@++@@++@@++..##",
"  ..  @@++@@++@@++@@++@@++@@..##",
"  ..  @@++@@++@@++@@++@@++@@..##",
"  ..  ++@@++@@++@@++@@++@@++..##",
"  ..  ++@@++@@++@@++@@++@@++..##",
"  ..  @@++@@++@@++@@++@@++@@..##",
"  ..  @@++@@++@@++@@++@@++@@..##",
"  ..  ++@@++@@++@@++@@++@@++..##",
"  ..  ++@@++@@++@@++@@++@@++..##",
"  ..  @@++@@++@@++@@++@@++@@..##",
"  ..  @@++@@++@@++@@++@@++@@..##",
"  ..  ++@@++@@++@@++@@++@@++..##",
"  ..  ++@@++@@++@@++@@++@@++..##",
"  ............................##",
"  ............................##",
"    ############################",
"    ############################",
"                                ",
"                                ",
"                                ",
"                                "};
