/* XPM */
static char * forloop_xpm[] = {
"16 16 18 1",
" 	c None",
".	c #140204",
"+	c #140B15",
"@	c #140000",
"#	c #140102",
"$	c #14070D",
"%	c #1475D7",
"&	c #1478DC",
"*	c #140911",
"=	c #1473D4",
"-	c #14060C",
";	c #140A13",
">	c #140203",
",	c #1473D3",
"'	c #14060B",
")	c #140001",
"!	c #14080F",
"~	c #140101",
"           .    ",
"           +@.  ",
" #         $    ",
" @   %&&&&      ",
"#*$ &&&&&&&     ",
"   =&&&&&&&     ",
"   &&&&&&&&     ",
"   &&&&&&&&     ",
"   &&&&&&&&     ",
"   &&&&&&&&     ",
"   %&&&&&&&     ",
"    &&&&&&&  -;>",
"     ,&&&&    @ ",
"    '         # ",
"  )@!           ",
"    ~           "};
