/* XPM */
static const char * forloop_xpm[] = {
"16 16 91 1",
" 	c #F7F7F7",
".	c #463839",
"+	c #B7B1B1",
"@	c #B0AAAA",
"#	c #ADA8AB",
"$	c #ADADB2",
"%	c #ADB3BE",
"&	c #ADB9C8",
"*	c #ADBBCC",
"=	c #ADBBCD",
"-	c #ADB8C7",
";	c #ADB4BF",
">	c #474148",
",	c #362525",
"'	c #857C7D",
")	c #B0AAAB",
"!	c #857C7C",
"~	c #E8EEF5",
"{	c #CEDEEF",
"]	c #D1E0F0",
"^	c #ECF0F4",
"/	c #463B40",
"(	c #A9AAB1",
"_	c #ADAAAD",
":	c #B3ADAD",
"<	c #1E0B0B",
"[	c #AFB0B5",
"}	c #E8EDF3",
"|	c #7DB1E6",
"1	c #529BE4",
"2	c #60A3E5",
"3	c #71ACE8",
"4	c #80B5E9",
"5	c #B1CFEE",
"6	c #F0F2F5",
"7	c #ADAEB5",
"8	c #403132",
"9	c #473F45",
"0	c #40363A",
"a	c #E7ECF2",
"b	c #4B97E3",
"c	c #4191E1",
"d	c #90BEEC",
"e	c #ABCDEF",
"f	c #F2F4F6",
"g	c #ADB5C2",
"h	c #ADB1BB",
"i	c #69A4E1",
"j	c #3189E0",
"k	c #A0C6ED",
"l	c #C6DCF1",
"m	c #ADBACA",
"n	c #ADB6C3",
"o	c #E3EAF1",
"p	c #2280DE",
"q	c #B0D0F0",
"r	c #F2F5F7",
"s	c #ADBACB",
"t	c #B9D1EA",
"u	c #E7EEF5",
"v	c #ADB9C9",
"w	c #E3EBF3",
"x	c #ADB6C4",
"y	c #ADB7C5",
"z	c #69A6E3",
"A	c #C6DBF0",
"B	c #ADB2BD",
"C	c #F2F3F5",
"D	c #463B3F",
"E	c #474047",
"F	c #443636",
"G	c #ADABAF",
"H	c #E8EDF2",
"I	c #7DB0E4",
"J	c #B1D0EF",
"K	c #B0B1B7",
"L	c #231010",
"M	c #A9A2A2",
"N	c #ADA7A8",
"O	c #B3B2B7",
"P	c #CEDDEE",
"Q	c #D1E0EF",
"R	c #ECF0F5",
"S	c #857B7C",
"T	c #1B0808",
"U	c #473E44",
"V	c #ADB0B9",
"W	c #ADB4C0",
"X	c #ADB9CA",
"Y	c #ADA8AA",
"Z	c #403131",
"           .+   ",
" @#$%&*==-;>,') ",
" !    ~{]^ /( _ ",
":<[ }|123456  7 ",
"890abc1234def g ",
" h ijc1234dkl m ",
" nopjc1234dkqr= ",
" stpjc1234dkqu= ",
" stpjc1234dkqu* ",
" vwpjc1234dkqfx ",
" y zjc1234dkA B ",
" h abc1234deCDEF",
" G  HI1234J6 KLM",
" N OD }PQR    ! ",
" @STUVWXsX-;$Y@ ",
"   MZ           "};
