/* XPM */
static char * forloop_xpm[] = {
"16 16 166 2",
"  	c None",
". 	c #FEFEFE",
"+ 	c #FDFDFD",
"@ 	c #B1AFAE",
"# 	c #7E7C7A",
"$ 	c #F0F0F0",
"% 	c #FBFBFB",
"& 	c #E3E3E2",
"* 	c #C5C4C3",
"= 	c #514D4B",
"- 	c #868382",
"; 	c #DCDBDB",
"> 	c #DFDEDE",
", 	c #DFDFDE",
"' 	c #E0DFDF",
") 	c #DFDEDD",
"! 	c #E2E1E1",
"~ 	c #F9F9F9",
"{ 	c #FCFCFC",
"] 	c #EFEFEF",
"^ 	c #9E9C9B",
"/ 	c #BEBDBC",
"( 	c #7B7876",
"_ 	c #403C3A",
": 	c #ABA9A8",
"< 	c #BEBCBD",
"[ 	c #BEBDBD",
"} 	c #BFBDBD",
"| 	c #BFBEBE",
"1 	c #BCBAB9",
"2 	c #B7B5B4",
"3 	c #9F9D9B",
"4 	c #E1E1E0",
"5 	c #EAEAE9",
"6 	c #EEEDED",
"7 	c #B6B4B3",
"8 	c #CFCECE",
"9 	c #55514F",
"0 	c #B6B4B4",
"a 	c #FAFAFB",
"b 	c #FBFBFD",
"c 	c #FCFCFD",
"d 	c #C4C3C2",
"e 	c #7A7775",
"f 	c #A6A4A3",
"g 	c #8B8887",
"h 	c #6B6866",
"i 	c #B6B5B4",
"j 	c #C3C2C2",
"k 	c #F2F1F8",
"l 	c #BDBDEF",
"m 	c #8E8EE6",
"n 	c #8988E5",
"o 	c #AAAAEB",
"p 	c #E8E8F8",
"q 	c #EBEBEC",
"r 	c #3D3936",
"s 	c #504C4A",
"t 	c #C8C7C6",
"u 	c #EEEEED",
"v 	c #F5F5FB",
"w 	c #9898E8",
"x 	c #6D6DE0",
"y 	c #8586E6",
"z 	c #8989E6",
"A 	c #7474E2",
"B 	c #7C7CE3",
"C 	c #E5E5F8",
"D 	c #EDEDED",
"E 	c #7D7A79",
"F 	c #C6C4C4",
"G 	c #C5C5F1",
"H 	c #6B6BE0",
"I 	c #9B9BEA",
"J 	c #B3B3EE",
"K 	c #B6B7EF",
"L 	c #A4A4EC",
"M 	c #7879E3",
"N 	c #9999E8",
"O 	c #FBFBFC",
"P 	c #BBBABA",
"Q 	c #E3E2E2",
"R 	c #B5B3B3",
"S 	c #9B9BE9",
"T 	c #7E7EE4",
"U 	c #B0B0EE",
"V 	c #D2D2F5",
"W 	c #DADAF6",
"X 	c #BBBBF0",
"Y 	c #9393E8",
"Z 	c #7575E1",
"` 	c #F4F4FC",
" .	c #BCBBBB",
"..	c #E4E3E3",
"+.	c #EDECEC",
"@.	c #8080E5",
"#.	c #B2B2EE",
"$.	c #D5D6F5",
"%.	c #DDDDF7",
"&.	c #BDBDF0",
"*.	c #9494E9",
"=.	c #7474E1",
"-.	c #F3F3FC",
";.	c #BDBBBB",
">.	c #DCDBDA",
",.	c #92908F",
"'.	c #F6F6F6",
").	c #BEBDEF",
"!.	c #9F9FEB",
"~.	c #B8B8EF",
"{.	c #BCBCF0",
"].	c #A9A9EC",
"^.	c #9191E6",
"/.	c #656260",
"(.	c #35312E",
"_.	c #979594",
":.	c #EBEBF3",
"<.	c #8A8AE5",
"[.	c #7272E2",
"}.	c #8E8FE7",
"|.	c #9292E8",
"1.	c #7D7DE4",
"2.	c #7272E1",
"3.	c #DBDBF5",
"4.	c #FDFCFD",
"5.	c #BDBCBB",
"6.	c #767371",
"7.	c #615E5C",
"8.	c #C1BFBF",
"9.	c #EDEDF9",
"0.	c #A9A9EB",
"a.	c #7F7FE3",
"b.	c #7B7BE2",
"c.	c #9797E8",
"d.	c #DEDEF6",
"e.	c #EAEAEB",
"f.	c #B7B6B5",
"g.	c #D3D2D2",
"h.	c #E7E6E6",
"i.	c #F1F1F1",
"j.	c #F8F8FC",
"k.	c #F6F6FC",
"l.	c #EDEDEE",
"m.	c #7A7776",
"n.	c #B4B2B1",
"o.	c #FDFCFC",
"p.	c #9E9D9B",
"q.	c #B5B3B2",
"r.	c #B5B4B3",
"s.	c #B4B3B3",
"t.	c #B4B2B3",
"u.	c #7F7C7B",
"v.	c #383431",
"w.	c #9E9B9A",
"x.	c #E8E7E7",
"y.	c #EDEDEC",
"z.	c #ECECEC",
"A.	c #D1CFCF",
"B.	c #565350",
"C.	c #8C8A88",
"D.	c #E9E9E8",
"E.	c #FEFEFD",
"F.	c #FEFDFD",
"G.	c #CFCECD",
"H.	c #6C6967",
"I.	c #E8E8E7",
". + + @ # $ + + . + . . + + . + ",
"+ % & * = - ; > , , , ' ) ! ~ { ",
"+ ] ^ / ( _ : < [ } | 1 2 3 4 5 ",
". 6 7 8 9 0 a b b c c d e f g h ",
"+ 6 i ' j k l m n o p q ( r s t ",
". u i + v w x y z A B C D E F { ",
". 6 0 + G H I J K L M N O P Q + ",
"+ 6 R + S T U V W X Y Z `  ...+ ",
"+ +.R { w @.#.$.%.&.*.=.-.;.... ",
"{ >.,.'.).x !.~.{.].T ^.O  .... ",
", /.(._.:.<.[.}.|.1.2.3.4.5.... ",
"h 6.g 7.8.9.0.a.b.c.d.e.1 f...+ ",
"g.! i h.i.+ c j.k.O l.m.e n...+ ",
"o.] p.q.7 r.s.R t.t.u.v.w.w.x.+ ",
"+ { ] +.+.y.y.+.+.z.A.B.C.D.% + ",
". + + E.F.E.F.F.+ + { G.H.I.+ + "};
