/* XPM */
static const char * Help_xpm[] = {
"16 16 72 1",
" 	c None",
".	c #0F75BC",
"+	c #0D74BB",
"@	c #0C74BB",
"#	c #0E75BC",
"$	c #1075BC",
"%	c #0A72BB",
"&	c #036EB8",
"*	c #1174BC",
"=	c #1475BC",
"-	c #066FB9",
";	c #046FB9",
">	c #0972BB",
",	c #217EC0",
"'	c #8FBBDF",
")	c #DCE7F4",
"!	c #E3EBF6",
"~	c #B0CEE7",
"{	c #4B94CB",
"]	c #0972BA",
"^	c #0C73BB",
"/	c #1778BE",
"(	c #D4E3F2",
"_	c #FFFFFF",
":	c #DDE9F4",
"<	c #C4DAED",
"[	c #FFFEFF",
"}	c #5499CE",
"|	c #026EB9",
"1	c #5D9ED1",
"2	c #F9FAFC",
"3	c #267FC1",
"4	c #016BB7",
"5	c #D3E3F2",
"6	c #9DC2E2",
"7	c #016CB8",
"8	c #0871BA",
"9	c #4290C9",
"0	c #87BADE",
"a	c #6FAAD6",
"b	c #026DB8",
"c	c #1B79BE",
"d	c #E0EBF6",
"e	c #8DB9DE",
"f	c #006CB8",
"g	c #006BB7",
"h	c #207DC0",
"i	c #C9DCEF",
"j	c #DBE8F4",
"k	c #3086C5",
"l	c #046EB9",
"m	c #A8CAE6",
"n	c #A6C7E5",
"o	c #1577BD",
"p	c #0771BA",
"q	c #1275BC",
"r	c #DDE7F4",
"s	c #F0F4FA",
"t	c #1B7ABF",
"u	c #0570B9",
"v	c #1376BD",
"w	c #4D96CC",
"x	c #4D96CD",
"y	c #1276BD",
"z	c #2D82C3",
"A	c #E4EEF7",
"B	c #2D82C2",
"C	c #0872BA",
"D	c #2F83C3",
"E	c #F6F6FB",
"F	c #1377BD",
"G	c #2E83C3",
"     ......     ",
"    ...+@#...   ",
"  ..$%&*=-;...  ",
"  ..>,')!~{]... ",
" ..^/(_:<_[};.. ",
"...|1_2345_67...",
"...890abcd_e7...",
"...$]fghi_jk8...",
"......lm_nop$...",
".....+qrstu.....",
".....#vwxy#.....",
" ....]zAAB].... ",
" ....CDEEDC.... ",
"  ...#FGGF#...  ",
"   ...#CC#...   ",
"     ......     "};
