/* XPM */
static char * if_xpm[] = {
"16 16 4 1",
" 	c None",
".	c #1478DC",
"+	c #1377DB",
"@	c #1276DB",
"                ",
"                ",
"                ",
"       ..       ",
"     +....      ",
"    .+....+.    ",
"  +..+....+..   ",
" @...+....+...  ",
" @...+....+...  ",
"  +..+....+..   ",
"    .+....+.    ",
"     +....      ",
"       ..       ",
"                ",
"                ",
"                "};
