/* XPM */
static const char * if_xpm[] = {
"16 16 41 1",
" 	c #FFFFFF",
".	c #E7F2FC",
"+	c #E4F0FC",
"@	c #A8CDF2",
"#	c #65A7E8",
"$	c #7EB5EC",
"%	c #C8E0F7",
"&	c #F7FBFF",
"*	c #76B0EA",
"=	c #61A4E8",
"-	c #6DACEA",
";	c #77B1EB",
">	c #AED0F3",
",	c #F3F9FE",
"'	c #B4D4F4",
")	c #4F9AE5",
"!	c #539CE5",
"~	c #5CA1E7",
"{	c #66A7E9",
"]	c #76B0EB",
"^	c #7DB5EC",
"/	c #87BAEE",
"(	c #D9EAFA",
"_	c #FEFFFF",
":	c #8EBEEE",
"<	c #358BE1",
"[	c #4494E3",
"}	c #4B97E4",
"|	c #549DE6",
"1	c #75B0EA",
"2	c #7FB6EC",
"3	c #B2D3F4",
"4	c #2A85DF",
"5	c #338AE1",
"6	c #3C8FE2",
"7	c #4292E2",
"8	c #4B98E4",
"9	c #5DA2E7",
"0	c #6DABE9",
"a	c #A3CAF1",
"b	c #F3F8FE",
"                ",
"                ",
"       .+       ",
"      @#$%      ",
"    &*=-;$>,    ",
"   ')!~{-]^/(   ",
" _:<[}|~{-12/3  ",
"+)45678|9#0]$/ab",
"+)45678|9#0]$/ab",
" _:<[}|~{-12/3  ",
"   ')!~{-]^/(   ",
"    &*=-;$>,    ",
"      @#$%      ",
"       .+       ",
"                ",
"                "};
