/* XPM */
static char * if_xpm[] = {
"16 16 91 1",
" 	c None",
".	c #FFFFFF",
"+	c #FDFDFD",
"@	c #FBFBFD",
"#	c #EBEBFA",
"$	c #7272E1",
"%	c #5C5CDC",
"&	c #E0E0F7",
"*	c #FCFCFD",
"=	c #FEFEFE",
"-	c #FDFDFE",
";	c #E1E1F7",
">	c #7373E1",
",	c #3030D5",
"'	c #2D2DD4",
")	c #6060DE",
"!	c #D4D4F5",
"~	c #FAFAFD",
"{	c #D0D0F4",
"]	c #6A6AE0",
"^	c #4C4CDA",
"/	c #5453DC",
"(	c #5353DC",
"_	c #4B4BDA",
":	c #5C5CDD",
"<	c #BFBFF1",
"[	c #F8F8FD",
"}	c #F7F7FC",
"|	c #B6B6EF",
"1	c #5C5CDE",
"2	c #7070E1",
"3	c #7B7BE4",
"4	c #5352DB",
"5	c #A3A3EB",
"6	c #F2F2FB",
"7	c #EEEEFA",
"8	c #9191E7",
"9	c #4444D9",
"0	c #5958DD",
"a	c #7878E3",
"b	c #9393E8",
"c	c #A4A4EC",
"d	c #A3A4EC",
"e	c #9293E8",
"f	c #7778E3",
"g	c #5858DD",
"h	c #3E3ED7",
"i	c #7A7AE3",
"j	c #E6E6F9",
"k	c #DEDEF7",
"l	c #6464DE",
"m	c #2222D2",
"n	c #4242D8",
"o	c #6767E0",
"p	c #8C8DE7",
"q	c #B0B0EE",
"r	c #C9CAF3",
"s	c #C9C9F3",
"t	c #AFAFEE",
"u	c #8D8DE7",
"v	c #1F1FD1",
"w	c #4E4EDA",
"x	c #CFCFF4",
"y	c #5B5BDC",
"z	c #0808CD",
"A	c #2020D2",
"B	c #4545D9",
"C	c #6D6DE1",
"D	c #9595E9",
"E	c #BCBCF0",
"F	c #DFDFF7",
"G	c #201FD2",
"H	c #5959DB",
"I	c #D1D1F4",
"J	c #5151DA",
"K	c #E7E7F9",
"L	c #7D7DE3",
"M	c #3F3FD8",
"N	c #EFEFFA",
"O	c #F3F3FB",
"P	c #A5A5EB",
"Q	c #5453DB",
"R	c #B7B7EF",
"S	c #F9F9FD",
"T	c #C2C1F1",
"U	c #5D5DDD",
"V	c #4C4BDA",
"W	c #D5D5F5",
"X	c #6262DE",
"Y	c #E1E1F8",
"Z	c #5F5FDD",
"................",
".++++@#$%&@*+===",
"=-+*@;>,')!@*===",
"=+*~{]^/(_:<[*==",
"=*}|:12332:456@-",
"*7890abcdefghij*",
"klmnopqrstuonvwx",
"yzABCDEFkEDCBGzH",
"IJvnopqrstponmlk",
"*KLMgfecdea098N*",
"-@OPQ12332::R}*=",
"=+*STUV((^]{~*==",
"=-+*@WX',>;@*===",
"=--+*@YZ$#@++===",
"................",
"................"};
