/* XPM */
static const char * jupiter_xpm[] = {
"32 32 54 1",
" 	c None",
".	c #000000",
"+	c #111111",
"@	c #100000",
"#	c #222222",
"$	c #220000",
"%	c #001000",
"&	c #653232",
"*	c #323100",
"=	c #983200",
"-	c #663200",
";	c #540000",
">	c #440000",
",	c #320000",
"'	c #CB6532",
")	c #333333",
"!	c #996533",
"~	c #656532",
"{	c #986500",
"]	c #666500",
"^	c #986565",
"/	c #989865",
"(	c #CC9866",
"_	c #993333",
":	c #555555",
"<	c #993365",
"[	c #FF9865",
"}	c #CC9900",
"|	c #CC6666",
"1	c #CB9832",
"2	c #999833",
"3	c #FFCC33",
"4	c #989700",
"5	c #CCCB66",
"6	c #FFCB99",
"7	c #FFCB65",
"8	c #CBCB98",
"9	c #FFFE99",
"0	c #326532",
"a	c #FF9999",
"b	c #CB9898",
"c	c #FF9833",
"d	c #CB3232",
"e	c #CC3200",
"f	c #CC6500",
"g	c #888888",
"h	c #880000",
"i	c #660032",
"j	c #444444",
"k	c #669933",
"l	c #336600",
"m	c #000010",
"n	c #FF6565",
"o	c #CB3265",
"            .......             ",
"         ...+@@@.@....          ",
"       ..#$++@+%+@......        ",
"      .&*++$+@+@@.@.@....       ",
"     .&*#*#+$#@+@+@.......      ",
"    .=-;*>,*$$$$@@.@.@.....     ",
"   .'&&&&&&)*)*#$#$@+@.@....    ",
"  .'!!!~~&&&&*#**+,$+@@....@.   ",
"  .!~&~&-~-~*&-##*#$+@@.@....   ",
" .!~~~!{!{!&!-&-&>*$$@@.......  ",
" .!~!!{!!!!!~!]~--*,*+@@@.....  ",
" .^!^!!^~^//(^^^~~&&*@$+@.....  ",
".'!~!^!!_:_:_!&~&&*&+**@@+@.... ",
".'((/(((((/((^(!/<!&&#+$+@.@@.. ",
".[}|1111(1((/(2(!!~]_--*@@@..@. ",
".341111(1((2(1/'22!!-~-**#@.@.. ",
".4'41(1(11(51('2!{!{!]&-*@@%.@. ",
"@67876669696696(((2/]_0*$++@+.. ",
".9(76669696696668((^~~#+#+@@@+. ",
" .67(786868a6865((/!~&**+@@@%.  ",
" .766b7b[([5a(65a5|!&*#+,+@%@.  ",
" .c'('de=efd'(|''^!!!-;,@@@@..  ",
"  .g_-=======e=&{_!--#),@+@.$   ",
"  .c!_!&hi=_=d=d!!&&j;*@+@%@.   ",
"   .[([!|!|1(2|!!!_--@,$@@@.    ",
"    .9767776765((/!~&&#*#$.     ",
"     .97(7[7b5(((^!~&**+$.      ",
"      %^k]~]~~]~]]lll#*>%       ",
"       %@^!!~!~&~)&&-*m.        ",
"         ...n|o!<__%m.          ",
"            .......             ",
"                                "};
