/* XPM */
static const char * mars_xpm[] = {
"32 32 39 1",
" 	c None",
".	c #000000",
"+	c #CB9898",
"@	c #CBCB98",
"#	c #CC9866",
"$	c #989865",
"%	c #986565",
"&	c #996533",
"*	c #CC6666",
"=	c #656532",
"-	c #653232",
";	c #540000",
">	c #983200",
",	c #993333",
"'	c #663200",
")	c #760000",
"!	c #440000",
"~	c #320000",
"{	c #220000",
"]	c #100000",
"^	c #CB6532",
"/	c #CB9832",
"(	c #CC6500",
"_	c #CB3232",
":	c #986500",
"<	c #880000",
"[	c #111111",
"}	c #666500",
"|	c #333333",
"1	c #CC3200",
"2	c #660000",
"3	c #980000",
"4	c #FF6533",
"5	c #FD9800",
"6	c #323100",
"7	c #001000",
"8	c #222222",
"9	c #444444",
"0	c #555555",
"                                ",
"                                ",
"                                ",
"                                ",
"                                ",
"            .......             ",
"          ..+@+#+$%..           ",
"         .&&#*&&%&=-;.          ",
"        .>>>,&>'>-)!!~.         ",
"       .>>>>>>'')';;!~{.        ",
"      ]^&>>>>,','!)!~~{{.       ",
"      {/(_>^^(:':'<[;{{{.       ",
"     .^&^^/(^},>;|!!~~{{].      ",
"     .&^-:_:>1:,>;2!~{;'~.      ",
"     .^&/^(^^:3}3'''~~'~~.      ",
"     .4/454(((11>2)'~'!6!.      ",
"     .&^(^(^((>>>''2'26~~.      ",
"     .^,1(11(>('<'>'''~~]7      ",
"     .,>>>1(31>2'';'!~{{].      ",
"      .<>>3>>>>;!;6]{]{]7       ",
"      .2)):)<';!6]]]]]]{.       ",
"       .;;2;'!~~]{]]]]]7        ",
"        .;)!~~{{{]]]]].         ",
"         .!!!898[{]]].          ",
"          ..8-0-||{..           ",
"            .......             ",
"                                ",
"                                ",
"                                ",
"                                ",
"                                ",
"                                "};
