/* XPM */
static char * matlabfunction_xpm[] = {
"20 20 65 1",
" 	c None",
".	c #FFFFFF",
"+	c #FEFEF2",
"@	c #AAA93F",
"#	c #000000",
"$	c #C6C658",
"%	c #FFFFD2",
"&	c #8D8D29",
"*	c #D3CF6B",
"=	c #9D9D3B",
"-	c #DEDC78",
";	c #FEFEF0",
">	c #A8A848",
",	c #FFFEE1",
"'	c #BFBD68",
")	c #FEFEF9",
"!	c #D3D783",
"~	c #FCFCA3",
"{	c #514F04",
"]	c #B6B467",
"^	c #C9C86C",
"/	c #3D3C00",
"(	c #A4A44E",
"_	c #6A6C23",
":	c #F0EF9C",
"<	c #FEFEE1",
"[	c #FDFCB7",
"}	c #121000",
"|	c #DFE094",
"1	c #FDFEE1",
"2	c #C0C164",
"3	c #F9FA9D",
"4	c #FFFFD3",
"5	c #FCFDAA",
"6	c #0C0C00",
"7	c #D6D68C",
"8	c #4E5100",
"9	c #D8DA77",
"0	c #C6C769",
"a	c #ABAC46",
"b	c #FDFFB7",
"c	c #262600",
"d	c #CECE86",
"e	c #D6D67C",
"f	c #989643",
"g	c #F3F2C2",
"h	c #B9B760",
"i	c #424003",
"j	c #E4E57D",
"k	c #A6A45A",
"l	c #B0B04E",
"m	c #DFDE81",
"n	c #393800",
"o	c #D3D278",
"p	c #93913E",
"q	c #FEFFD3",
"r	c #E8E48D",
"s	c #F8F7D7",
"t	c #E9E9D1",
"u	c #E1E17F",
"v	c #DBD776",
"w	c #D8D77B",
"x	c #DBD877",
"y	c #E7E97E",
"z	c #FFFF9D",
"....................",
"....................",
"....................",
"...........+........",
"......@#..#.....$...",
"...%.&.*.=-;....#>..",
"..,. #;;'#)......#!.",
"..~###.;{]..##^/.(_.",
"....#:<[}|...##1.2#.",
"....#34567...89..0#.",
"...a#b.<cd..e#fg.hi.",
"...#j...#k.#lmno.p#.",
"...#q...r#.......#s.",
"t##u.....v#.....#w..",
".xy.................",
".z..................",
"....................",
"....................",
"....................",
"...................."};
