/* XPM */
static char * matlabfunction_xpm[] = {
"16 16 36 1",
" 	c None",
".	c #FFFFFF",
"+	c #000000",
"@	c #336666",
"#	c #CC3300",
"$	c #111111",
"%	c #333333",
"&	c #FFFF00",
"*	c #993300",
"=	c #339999",
"-	c #660000",
";	c #424242",
">	c #CC6600",
",	c #330000",
"'	c #FFCC00",
")	c #FF6600",
"!	c #222222",
"~	c #663300",
"{	c #FF9933",
"]	c #FF9900",
"^	c #CC3333",
"/	c #669999",
"(	c #663333",
"_	c #996600",
":	c #66CCCC",
"<	c #66CC99",
"[	c #669966",
"}	c #993333",
"|	c #555555",
"1	c #800000",
"2	c #CC6633",
"3	c #996633",
"4	c #333300",
"5	c #666600",
"6	c #CC9900",
"7	c #999900",
"..........+.....",
".........@#.....",
"........$%&*....",
".......+=-&#....",
"......+@;*&>,...",
".....@=@-*')*...",
"...+!;!;~*{]^...",
".+@/=;%-(_]{#-..",
"/::</[%(}>]]#*..",
"+/<//|-1*>{])#$.",
"..@<@-1*2)]34#1.",
".....1*>>{5...*.",
".....,]]]_.....,",
".....+&&6.......",
"......75........",
"................"};
