/* XPM */
static const char * matrix_xpm[] = {
"16 16 73 1",
" 	c None",
".	c #FFFFFF",
"+	c #CDCEF4",
"@	c #8586DA",
"#	c #3534BB",
"$	c #2D34AD",
"%	c #2631A5",
"&	c #AAADD6",
"*	c #A5A7B9",
"=	c #181F44",
"-	c #181B35",
";	c #18182D",
">	c #8C8C8F",
",	c #3538BB",
"'	c #1820A5",
")	c #181C9C",
"!	c #4447A2",
"~	c #575A78",
"{	c #080831",
"]	c #000421",
"^	c #313444",
"/	c #5251C5",
"(	c #5B60BF",
"_	c #101C9C",
":	c #10188C",
"<	c #D1D2E5",
"[	c #CFD0DC",
"}	c #8C8FA5",
"|	c #000831",
"1	c #39394B",
"2	c #5254C5",
"3	c #BBBEE4",
"4	c #181C8C",
"5	c #7171AE",
"6	c #6F7195",
"7	c #EFEFF2",
"8	c #393C4B",
"9	c #3539A8",
"0	c #1F1F7F",
"a	c #F7F7FA",
"b	c #F0F0F4",
"c	c #676A90",
"d	c #9698D2",
"e	c #18187B",
"f	c #9A9CC4",
"g	c #9A9AB6",
"h	c #C7C8D6",
"i	c #E8E9F5",
"j	c #171F8F",
"k	c #10187B",
"l	c #2F3989",
"m	c #575C89",
"n	c #696CB4",
"o	c #101473",
"p	c #8B8DB3",
"q	c #CBCCE5",
"r	c #1E226C",
"s	c #363D90",
"t	c #081473",
"u	c #676C9F",
"v	c #4B4EC3",
"w	c #9E9EC7",
"x	c #D1D1E1",
"y	c #F1F1FB",
"z	c #9A9CE5",
"A	c #2124B5",
"B	c #B4B7E2",
"C	c #F7F7FB",
"D	c #454892",
"E	c #EFEFF3",
"F	c #A7A9B9",
"G	c #101326",
"H	c #CECECF",
"................",
"................",
"+@#$%&.....*=-;>",
"..,')!.....~{]^.",
"../(_:<...[}|]1.",
"..23)45...67{]8.",
"..2.940a.bc.{]8.",
"..2.d4ef.gh.{]8.",
"../.ijkl.m..|]1.",
"..2..neopg..{]8.",
"..2..qeorb..{]8.",
"../...stu...|]1.",
"..v...wox...{]8.",
"yzABC.aD..EF{]GH",
"................",
"................"};
