/* XPM */
static const char * mercury_xpm[] = {
"32 32 40 1",
" 	c None",
".	c #000000",
"+	c #986565",
"@	c #653232",
"#	c #888888",
"$	c #CB9898",
"%	c #996533",
"&	c #320000",
"*	c #222222",
"=	c #440000",
"-	c #FFCB99",
";	c #999999",
">	c #993365",
",	c #656532",
"'	c #111111",
")	c #FFCBCB",
"!	c #CB98CB",
"~	c #CCCCCC",
"{	c #323100",
"]	c #100000",
"^	c #BBBBBB",
"/	c #666666",
"(	c #555555",
"_	c #EEEEEE",
":	c #220000",
"<	c #DDDDDD",
"[	c #989865",
"}	c #444444",
"|	c #AAAAAA",
"1	c #CC6698",
"2	c #000010",
"3	c #FF9999",
"4	c #986598",
"5	c #CBCB98",
"6	c #333333",
"7	c #320031",
"8	c #CCCB66",
"9	c #777777",
"0	c #653265",
"a	c #001000",
"                                ",
"                                ",
"                                ",
"                                ",
"                                ",
"                                ",
"                                ",
"             .....              ",
"           ..+@@@@..            ",
"          .#$%+@&&*=.           ",
"         .$-+;>,@@*'..          ",
"        .)!!)~#>{*>{]'.         ",
"        .$;^$#+/@@(@*].         ",
"       .$_))~!$@*&*':':.        ",
"       .^))<;$[+}'']':'.        ",
"       .)|~)~;1/,@2']':.        ",
"       .$^$_3![/@2:':'..        ",
"       .$)^45$+@6*='']'.        ",
"        .54[+;/%7@*]':.         ",
"        .189$+>6%7:']'.         ",
"         .;>+/@{7{]'].          ",
"          .+%0@7,0]].           ",
"           ..+,@@*a.            ",
"             ....]              ",
"                                ",
"                                ",
"                                ",
"                                ",
"                                ",
"                                ",
"                                ",
"                                "};
