/* XPM */
static char * minimize_xpm[] = {
"16 16 34 1",
" 	c None",
".	c #8EBBE8",
"+	c #89B8E7",
"@	c #8AB9E8",
"#	c #88B7E6",
"$	c #CBE0F4",
"%	c #C5DCF3",
"&	c #5EA2E5",
"*	c #1377DB",
"=	c #539BE4",
"-	c #C7DDF3",
";	c #75B0E9",
">	c #67A7E7",
",	c #75B0EA",
"'	c #B3D1EE",
")	c #B4D1EE",
"!	c #D1E3F5",
"~	c #D2E3F4",
"{	c #6FABE7",
"]	c #6DAAE7",
"^	c #E2EDF8",
"/	c #1A7ADB",
"(	c #2681DC",
"_	c #E8F0F9",
":	c #F4F7FB",
"<	c #3388DD",
"[	c #1678DB",
"}	c #BED8F1",
"|	c #C8DDF3",
"1	c #67A4E2",
"2	c #6AA6E1",
"3	c #5499DF",
"4	c #64A4E3",
"5	c #C6DDF3",
"                ",
"                ",
"      .+@@@#    ",
"      $%&*=-    ",
"        ;*>     ",
"        ;*>     ",
"        ,*>     ",
"        ;*>     ",
"        ,*>     ",
"        ,*>     ",
"    ')  ;*>     ",
"   !**~ {*]     ",
"   ^/(_:<[}     ",
"    |12345      ",
"                ",
"                "};
