/* XPM */
static const char *moon_generic_xpm[] = {
/* width height ncolors chars_per_pixel */
"32 32 9 1",
/* colors */
"A s bg c None",
"B c #636363636363",
"C c #525252525252",
"D c #424242424242",
"E c #393939393939",
"F c #292929292929",
"G c #212121212121",
"H c #101010101010",
"I c #000000000000",
/* pixels */
"AAAAAAAAAAAAAAAAAAAAAAAAAAAAAAAA",
"AAAAAAAAAAAAAAAAAAAAAAAAAAAAAAAA",
"AAAAAAAAAAAAAAAAAAAAAAAAAAAAAAAA",
"AAAAAAAAAAAAAAAAAAAAAAAAAAAAAAAA",
"AAAAAAAAAAAAAAAAAAAAAAAAAAAAAAAA",
"AAAAAAAAAAAAAAAAAAAAAAAAAAAAAAAA",
"AAAAAAAAAAAAAAAAAAAAAAAAAAAAAAAA",
"AAAAAAAAAAAAAAAAAAAAAAAAAAAAAAAA",
"AAAAAAAAAAAAAEEDCCCAAAAAAAAAAAAA",
"AAAAAAAAAAAIIIDCCBBCEAAAAAAAAAAA",
"AAAAAAAAAAHIFCEBCCBBEEAAAAAAAAAA",
"AAAAAAAAAIFFFFFECEBBBBCAAAAAAAAA",
"AAAAAAAAAIHFFFFEBCCCCDFAAAAAAAAA",
"AAAAAAAAIBFIFICDCCCEDFCFAAAAAAAA",
"AAAAAAAAIBBBGCFCCBCDEEFFAAAAAAAA",
"AAAAAAAAIBIBDIDEDDCEEEDGAAAAAAAA",
"AAAAAAAAIDDDDDGCDCFBBFEBAAAAAAAA",
"AAAAAAAAIBBBBDFFCEFBBBEBAAAAAAAA",
"AAAAAAAAIIDBIFIDEDIBEBFGAAAAAAAA",
"AAAAAAAAAIHIHIBICBBBIBBBAAAAAAAA",
"AAAAAAAAAHIBBBDBBBEECIFAAAAAAAAA",
"AAAAAAAAAAIHIGBBIBIEFEAAAAAAAAAA",
"AAAAAAAAAAAIIIFIFBEIAAAAAAAAAAAA",
"AAAAAAAAAAAAAIIIIIIAAAAAAAAAAAAA",
"AAAAAAAAAAAAAAAAAAAAAAAAAAAAAAAA",
"AAAAAAAAAAAAAAAAAAAAAAAAAAAAAAAA",
"AAAAAAAAAAAAAAAAAAAAAAAAAAAAAAAA",
"AAAAAAAAAAAAAAAAAAAAAAAAAAAAAAAA",
"AAAAAAAAAAAAAAAAAAAAAAAAAAAAAAAA",
"AAAAAAAAAAAAAAAAAAAAAAAAAAAAAAAA",
"AAAAAAAAAAAAAAAAAAAAAAAAAAAAAAAA",
"AAAAAAAAAAAAAAAAAAAAAAAAAAAAAAAA"};
