/* XPM */
static const char * moon_xpm[] = {
"32 32 17 1",
" 	c None",
".	c #000000",
"+	c #222222",
"@	c #111111",
"#	c #555555",
"$	c #333333",
"%	c #444444",
"&	c #CCCCCC",
"*	c #AAAAAA",
"=	c #666666",
"-	c #777777",
";	c #999999",
">	c #EEEEEE",
",	c #BBBBBB",
"'	c #888888",
")	c #DDDDDD",
"!	c #FFFFFF",
"                                ",
"                                ",
"                                ",
"             .......            ",
"           ..;*&>>&&..          ",
"         ..=-';**)>)))..        ",
"        .$#-'*,&&))>>>>&.       ",
"       .+%#-;*,&)>>!>!!&&.      ",
"      .+$$=-'';*&&)))!!>>>.     ",
"      .++%#=-;;,&>>)',,))&.     ",
"     .@+$+%%=;*&&&)>,;*>&&,.    ",
"     .++@+%#=-#*,,>>))&>>'*.    ",
"    .@++++%#===;,))&*';*&&-*.   ",
"    .+@@@+$$%#;*,)&,*-;---;*.   ",
"    .+@@@+++#-'*&,,*;;-=$$,,.   ",
"    .++@@@@$#='*,*&;'''=%#,&.   ",
"    .++@@@@@$#-;*,'#=-;#%;,&.   ",
"    .+@+@@@++$#'*;#%#'=#%=*&.   ",
"    .++@+@@+++$-*;###=%$$=;,.   ",
"     .++@++@@++%'----#%%$='.    ",
"     .+++@+@+@$$=='*;#%$$#-.    ",
"      .+@+@+++$$$#-'-#$##%.     ",
"      .+++@+++++$%%#%=')%#.     ",
"       .+++++@++$$$%%#'#$.      ",
"        .+++++@+$$%%%%#%.       ",
"         ..++++$$%#===..        ",
"           ..+$+%%=-..          ",
"             .......            ",
"                                ",
"                                ",
"                                ",
"                                "};
