/* XPM */
static const char * mt_CallMatlabFunction_xpm[] = {
"16 16 103 2",
"  	c #FEFEFE",
". 	c #C0D9F3",
"+ 	c #F7FAFD",
"@ 	c #B2D0EF",
"# 	c #FBFCFD",
"$ 	c #B9D6F1",
"% 	c #8AB9E9",
"& 	c #D5E6F7",
"* 	c #B2D2F1",
"= 	c #EEF5FB",
"- 	c #9DC4EC",
"; 	c #A2C8EE",
"> 	c #2F86DF",
", 	c #539AE4",
"' 	c #2982DD",
") 	c #7FB3E9",
"! 	c #FDFDFE",
"~ 	c #8EBCEA",
"{ 	c #EEF4FA",
"] 	c #6BA9E8",
"^ 	c #84B7EA",
"/ 	c #EFF5FB",
"( 	c #65A5E7",
"_ 	c #EBF3FA",
": 	c #85B8EA",
"< 	c #CBE0F4",
"[ 	c #A5CAEF",
"} 	c #DBEAF9",
"| 	c #2280DE",
"1 	c #2682DE",
"2 	c #BDD8F4",
"3 	c #B6D4F2",
"4 	c #B1D1F2",
"5 	c #D9E9F9",
"6 	c #2180DD",
"7 	c #3087DF",
"8 	c #DEEBF9",
"9 	c #C7DEF5",
"0 	c #ACCDEF",
"a 	c #F6F9FB",
"b 	c #73ACE6",
"c 	c #E0EDFA",
"d 	c #1579DC",
"e 	c #398DE1",
"f 	c #3289E0",
"g 	c #CBE0F5",
"h 	c #BDD8F3",
"i 	c #177ADC",
"j 	c #B7D5F2",
"k 	c #9AC4ED",
"l 	c #3C8EE1",
"m 	c #ECF3FA",
"n 	c #2782DE",
"o 	c #3088E0",
"p 	c #D1E4F6",
"q 	c #6AA8E6",
"r 	c #1E7DDD",
"s 	c #2A84DE",
"t 	c #E4EFFA",
"u 	c #2883DF",
"v 	c #2B85DF",
"w 	c #5099E4",
"x 	c #CADFF5",
"y 	c #D9E8F8",
"z 	c #398CE0",
"A 	c #FDFEFE",
"B 	c #3B8EE1",
"C 	c #4191E2",
"D 	c #5DA1E6",
"E 	c #B0D0F1",
"F 	c #3489DF",
"G 	c #BFD8F2",
"H 	c #1C7DDC",
"I 	c #7AB1E8",
"J 	c #7DB2E9",
"K 	c #D7E7F7",
"L 	c #4895E3",
"M 	c #4F99E4",
"N 	c #EBF3FB",
"O 	c #82B6EA",
"P 	c #CCE1F6",
"Q 	c #599DE1",
"R 	c #5D9FE2",
"S 	c #75ADE8",
"T 	c #177ADB",
"U 	c #7EB2E7",
"V 	c #BBD7F2",
"W 	c #B8D5F2",
"X 	c #D5E5F5",
"Y 	c #D7E6F5",
"Z 	c #E5EFF8",
"` 	c #7EB3E9",
" .	c #FCFDFD",
"..	c #FCFCFD",
"+.	c #85B7E8",
"@.	c #F9FBFC",
"#.	c #D7E7F8",
"$.	c #B1D1F1",
"%.	c #D6E6F6",
"&.	c #B7D3F0",
"*.	c #C1DAF3",
"=.	c #F7FAFC",
"-.	c #C9DEF3",
"                                ",
"                                ",
"              . +         @ #   ",
"    $ % .   & *           = -   ",
"  ; > , '   ) !             ~ { ",
"  ] ^ / ( _ :               < [ ",
"} | 1 2   3 4 5 6 7 8 9 ~ 0 a b ",
"c d d e   f g + h i j k l m   n ",
"  d d     o p     q r s t     d ",
"  u v     w x     y i z A     n ",
"  B C     D E   ! F G H I   { J ",
"K L M x   N O P Q R   S T U V W ",
"N X Y Z     ` #  ...   ...# +.@.",
"            #.$.          %.&.  ",
"              *.=.        -.    ",
"                                "};
