/* XPM */
static const char * mt_FindEvents_xpm[] = {
"16 16 126 2",
"  	c None",
". 	c #FFC700",
"+ 	c #6D6E71",
"@ 	c #F6C107",
"# 	c #777469",
"$ 	c #717577",
"% 	c #8A9E9A",
"& 	c #90BFD6",
"* 	c #90C0D6",
"= 	c #809BA9",
"- 	c #707479",
"; 	c #887F5C",
"> 	c #778385",
", 	c #9BC6C6",
"' 	c #C2DFC2",
") 	c #D4EEF3",
"! 	c #E2E8C5",
"~ 	c #DFE4B8",
"{ 	c #AFE3FD",
"] 	c #8DC3DF",
"^ 	c #748088",
"/ 	c #FFD003",
"( 	c #B4AA48",
"_ 	c #707478",
": 	c #91C2CB",
"< 	c #D3E9BD",
"[ 	c #F5F4A0",
"} 	c #F7EA8E",
"| 	c #F8E38B",
"1 	c #F3F4DC",
"2 	c #F1FBFF",
"3 	c #C2E8FD",
"4 	c #85BDDE",
"5 	c #6F7479",
"6 	c #FCE417",
"7 	c #7F7E69",
"8 	c #7C98A2",
"9 	c #ADDAD4",
"0 	c #EFF3A8",
"a 	c #F0F09F",
"b 	c #EDEEC1",
"c 	c #E7F8FF",
"d 	c #9AD6FA",
"e 	c #7694A9",
"f 	c #FFCF00",
"g 	c #FCE519",
"h 	c #7EB0C6",
"i 	c #C8E4C3",
"j 	c #E8F2AF",
"k 	c #E9F0AA",
"l 	c #EAE8A0",
"m 	c #E7E8B7",
"n 	c #E3EDD6",
"o 	c #DDF5FF",
"p 	c #B5E1FC",
"q 	c #74ACD3",
"r 	c #FFCE00",
"s 	c #FCE415",
"t 	c #75AFCF",
"u 	c #C5E3C4",
"v 	c #E1F0B6",
"w 	c #E2EEAE",
"x 	c #E2E7A8",
"y 	c #DFE7BD",
"z 	c #DAECD8",
"A 	c #D3F2FF",
"B 	c #B2E0FC",
"C 	c #6CA6D3",
"D 	c #6E6F72",
"E 	c #FFDE04",
"F 	c #6AA3CA",
"G 	c #B5DCCC",
"H 	c #D9EEBC",
"I 	c #D9EEBB",
"J 	c #DBEAAE",
"K 	c #D3EAD3",
"L 	c #C9EFFF",
"M 	c #A1D7FA",
"N 	c #64A0D2",
"O 	c #7F7C63",
"P 	c #678AA6",
"Q 	c #7FBFDF",
"R 	c #D1EBBD",
"S 	c #D2E8B6",
"T 	c #D2E5B5",
"U 	c #D2E1B5",
"V 	c #C4EAED",
"W 	c #BFECFF",
"X 	c #70B9F4",
"Y 	c #6589AA",
"Z 	c #7D7864",
"` 	c #6C7279",
" .	c #5498D5",
"..	c #99CBCF",
"+.	c #C8E2BD",
"@.	c #B7E9F9",
"#.	c #BEE5E1",
"$.	c #C1E4D5",
"%.	c #B5E9FF",
"&.	c #85C8F7",
"*.	c #5398D8",
"=.	c #6D737A",
"-.	c #BC6D2A",
";.	c #7F7069",
">.	c #667889",
",.	c #579BD8",
"'.	c #7BBCE3",
").	c #93D4FB",
"!.	c #99D9FC",
"~.	c #71BBF5",
"{.	c #579BD9",
"].	c #68798A",
"^.	c #C9753E",
"/.	c #9C5822",
"(.	c #71655C",
"_.	c #6F747A",
":.	c #7192AC",
"<.	c #68A3D2",
"[.	c #69A3D2",
"}.	c #7293AD",
"|.	c #6F757B",
"1.	c #9F561C",
"2.	c #813E00",
"3.	c #803E00",
"4.	c #C7743C",
"5.	c #813E01",
"        .   + + + + + + +       ",
"        @ # $ % & * & = - +     ",
"  .     ; > , ' ) ! ~ { ] ^ +   ",
"    / ( _ : < [ } | 1 2 3 4 5 + ",
"    6 7 8 9 0 0 a b c c c d e + ",
"  f g + h i j j k l m n o p q + ",
"  r s + t u v v w x y z A B C D ",
"    E + F G H I J K L L L M N D ",
"    r O P Q R S T U V W W X Y + ",
"  .   Z `  ...+.@.#.$.%.&.*.=.+ ",
"      -.;.>.,.'.).!.).~.{.].+   ",
"    -.^./.(._.:.<.[.<.}.|.+     ",
"  -.^.1.2.3.+ + + D D + +       ",
"-.^.1.2.3.                      ",
"4.1.2.3.                        ",
"  5.3.                          "};
