/* XPM */
static const char * mt_NonlinearConstraint_xpm[] = {
"16 16 54 1",
" 	c #FFFFFF",
".	c #2481DE",
"+	c #1B7CDD",
"@	c #197BDD",
"#	c #EFF6FD",
"$	c #EAF3FD",
"%	c #D7E9FA",
"&	c #E1EEFB",
"*	c #1579DC",
"=	c #9FC8F1",
"-	c #69A9E9",
";	c #207FDE",
">	c #B8D7F5",
",	c #89BBEE",
"'	c #549DE6",
")	c #1A7CDD",
"!	c #217FDE",
"~	c #9EC8F1",
"{	c #6AA9E9",
"]	c #368CE1",
"^	c #1679DC",
"/	c #2984DF",
"(	c #2D86E0",
"_	c #CCE2F8",
":	c #8EBEEF",
"<	c #2A85DF",
"[	c #4795E4",
"}	c #040405",
"|	c #61A4E8",
"1	c #348BE1",
"2	c #1C7DDD",
"3	c #177ADC",
"4	c #5CA1E6",
"5	c #091520",
"6	c #010101",
"7	c #197BDB",
"8	c #2280DE",
"9	c #A8CDF3",
"0	c #112C47",
"a	c #051B30",
"b	c #227CD6",
"c	c #0D355E",
"d	c #072645",
"e	c #051B31",
"f	c #0D0F10",
"g	c #06223D",
"h	c #072644",
"i	c #12283D",
"j	c #062039",
"k	c #123152",
"l	c #E9F3FC",
"m	c #D6E8FA",
"n	c #DBEBFA",
"o	c #E0EDFB",
"                ",
" .++++++++++++@ ",
" +#$$$$$$$#%%&* ",
" +#$$$$$$$#=-;* ",
" +#$$$$#>,')*!* ",
" +#$$#~{]^*/(_* ",
" +##:'<^^[__}#* ",
" +|12*34_5##6$* ",
" +7*890##a$$6$* ",
" +bc##d$$e$$f$* ",
" +#g$$h$$i$$#$* ",
" +$j$$k$$#$$$$* ",
" +$0##l$$##$$$* ",
" +##$$$mn$$nmo* ",
" .++++++++++++@ ",
"                "};
