/* XPM */
static const char * mt_Stop_xpm[] = {
"16 16 182 2",
"  	c #FFFFFF",
". 	c #FCF6F5",
"+ 	c #F2C8C4",
"@ 	c #EAA19B",
"# 	c #EB9C96",
"$ 	c #EB9D96",
"% 	c #EC9E96",
"& 	c #E9948D",
"* 	c #EAA09B",
"= 	c #F1C8C5",
"- 	c #FCF5F3",
"; 	c #FDF6F5",
"> 	c #EDBFBD",
", 	c #EB9789",
"' 	c #F8A990",
") 	c #FAAA8E",
"! 	c #FBA88B",
"~ 	c #FBA98F",
"{ 	c #FBB095",
"] 	c #F5A693",
"^ 	c #EA9186",
"/ 	c #EBAEA9",
"( 	c #FBF2F2",
"_ 	c #FDF8F9",
": 	c #EEBCBA",
"< 	c #E18A81",
"[ 	c #EF907A",
"} 	c #FF906E",
"| 	c #FF8865",
"1 	c #FF8C68",
"2 	c #FF8A6A",
"3 	c #FF8B6A",
"4 	c #FF9C7B",
"5 	c #F49788",
"6 	c #E3877E",
"7 	c #EAAEAC",
"8 	c #FCF4F4",
"9 	c #F2C7C7",
"0 	c #E5877F",
"a 	c #F0876C",
"b 	c #FF805D",
"c 	c #FF6948",
"d 	c #FF6240",
"e 	c #FF6947",
"f 	c #FF6F4D",
"g 	c #FF6A4D",
"h 	c #FF7255",
"i 	c #FD8B6F",
"j 	c #F29485",
"k 	c #EA857D",
"l 	c #F0B7B5",
"m 	c #E5938D",
"n 	c #F3957E",
"o 	c #FE8663",
"p 	c #FF5F41",
"q 	c #FF5538",
"r 	c #FF5135",
"s 	c #FF5238",
"t 	c #FF593D",
"u 	c #FF5C41",
"v 	c #FF5D42",
"w 	c #FF6445",
"x 	c #FD7F65",
"y 	c #F88F80",
"z 	c #E27E79",
"A 	c #E0847D",
"B 	c #FCA285",
"C 	c #FF7451",
"D 	c #FF5B40",
"E 	c #FF4B34",
"F 	c #FF442E",
"G 	c #FF422D",
"H 	c #FF4931",
"I 	c #FF5039",
"J 	c #FF563D",
"K 	c #FF5137",
"L 	c #FF6547",
"M 	c #F48D7E",
"N 	c #D76C68",
"O 	c #E38580",
"P 	c #FD9A81",
"Q 	c #FF7655",
"R 	c #FF5F43",
"S 	c #FF4F37",
"T 	c #FF412C",
"U 	c #FF3D2A",
"V 	c #FF4D32",
"W 	c #FB4F37",
"X 	c #FC5841",
"Y 	c #F88576",
"Z 	c #D86B64",
"` 	c #E48581",
" .	c #FE9D88",
"..	c #FF795B",
"+.	c #FF6348",
"@.	c #FF513B",
"#.	c #FF4530",
"$.	c #FF3D29",
"%.	c #FE3926",
"&.	c #FD422C",
"*.	c #F84734",
"=.	c #FC4B34",
"-.	c #FE533C",
";.	c #FA8173",
">.	c #D76660",
",.	c #E2817A",
"'.	c #FEA089",
").	c #FF7859",
"!.	c #FF674B",
"~.	c #FF5A40",
"{.	c #FD442F",
"].	c #FF3A27",
"^.	c #F83826",
"/.	c #FF3E29",
"(.	c #FF422B",
"_.	c #FF442A",
":.	c #FF5139",
"<.	c #F77D6F",
"[.	c #D7615C",
"}.	c #E68D87",
"|.	c #F99D8B",
"1.	c #FF8368",
"2.	c #FF6448",
"3.	c #FF5237",
"4.	c #FA4630",
"5.	c #FE3C28",
"6.	c #FF3924",
"7.	c #FF3E28",
"8.	c #FE3D26",
"9.	c #FF482D",
"0.	c #FC6048",
"a.	c #F57E71",
"b.	c #DE716C",
"c.	c #EFBCBA",
"d.	c #EA8D82",
"e.	c #F78B7B",
"f.	c #FE6F58",
"g.	c #FF4028",
"h.	c #FF3A24",
"i.	c #FC3521",
"j.	c #FE3720",
"k.	c #FC4126",
"l.	c #FB5D44",
"m.	c #F38274",
"n.	c #EE9189",
"o.	c #ECAAA6",
"p.	c #FBF1F1",
"q.	c #E9A5A2",
"r.	c #E78077",
"s.	c #F57E6E",
"t.	c #FE614A",
"u.	c #FF462E",
"v.	c #FF432B",
"w.	c #FD3F29",
"x.	c #F94028",
"y.	c #F75A44",
"z.	c #EE776A",
"A.	c #E99591",
"B.	c #EEB6B2",
"C.	c #FAEDED",
"D.	c #FAEEEC",
"E.	c #E6A09C",
"F.	c #E67770",
"G.	c #F67A6A",
"H.	c #FC7B68",
"I.	c #F57364",
"J.	c #F87463",
"K.	c #F67A69",
"L.	c #EB7C70",
"M.	c #E4817B",
"N.	c #E8A19E",
"O.	c #F9E9E8",
"P.	c #F9EDEC",
"Q.	c #E9A3A0",
"R.	c #DD6B64",
"S.	c #D75A54",
"T.	c #D2534C",
"U.	c #D3524D",
"V.	c #D24D47",
"W.	c #DB6A65",
"X.	c #EDB3B1",
"Y.	c #FAECEC",
"                                ",
"      . + @ # $ % & * = -       ",
"    ; > , ' ) ! ~ { ] ^ / (     ",
"  _ : < [ } | 1 2 3 4 5 6 7 8   ",
"  9 0 a b c d e f g h i j k l   ",
"  m n o p q r s t u v w x y z   ",
"  A B C D E F G H I J K L M N   ",
"  O P Q R S T U G H V W X Y Z   ",
"  `  ...+.@.#.$.%.&.*.=.-.;.>.  ",
"  ,.'.).!.~.{.].^./.(._.:.<.[.  ",
"  }.|.1.2.3.4.5.6.7.8.9.0.a.b.  ",
"  c.d.e.f.3.g.h.i.j.k.l.m.n.o.  ",
"  p.q.r.s.t.u.v.w.x.y.z.A.B.C.  ",
"    D.E.F.G.H.I.J.K.L.M.N.O.    ",
"      P.Q.R.S.T.U.V.W.X.Y.      ",
"                                "};
