/* XPM */
static const char * mt_SetCommand_xpm[] = {
"16 16 92 2",
"  	c None",
". 	c #9EE0FE",
"+ 	c #83CBF9",
"@ 	c #96DAFC",
"# 	c #FFFFFF",
"$ 	c #E1F6FF",
"% 	c #C0E1FA",
"& 	c #8DD4FB",
"* 	c #DDF5FF",
"= 	c #F3FCFF",
"- 	c #BBDFFA",
"; 	c #85CDF9",
"> 	c #598BD1",
", 	c #4F99FE",
"' 	c #4F99FF",
") 	c #7DC7F8",
"! 	c #4B92F4",
"~ 	c #9DC3F9",
"{ 	c #9EC3F9",
"] 	c #98C1F9",
"^ 	c #94BDF9",
"/ 	c #8FBBF8",
"( 	c #8AB8F8",
"_ 	c #86B5F8",
": 	c #A3E4FF",
"< 	c #76ACF7",
"[ 	c #E43934",
"} 	c #4A91F4",
"| 	c #75C1F6",
"1 	c #4589E9",
"2 	c #D7D7D7",
"3 	c #6DBBF5",
"4 	c #FEFFFF",
"5 	c #4181DD",
"6 	c #65B4F3",
"7 	c #FAFEFF",
"8 	c #3C79D2",
"9 	c #FBFBFB",
"0 	c #CE2326",
"a 	c #F8EEEE",
"b 	c #6D6E71",
"c 	c #747578",
"d 	c #848689",
"e 	c #5DAEF2",
"f 	c #F6FCFF",
"g 	c #96B4DF",
"h 	c #F6F7F7",
"i 	c #D02527",
"j 	c #D4292A",
"k 	c #F4EAEA",
"l 	c #3771C7",
"m 	c #54A8F0",
"n 	c #B10614",
"o 	c #BA0F19",
"p 	c #C3181F",
"q 	c #CB2024",
"r 	c #D22729",
"s 	c #D62B2B",
"t 	c #DA2F2E",
"u 	c #F2F2F2",
"v 	c #B60B17",
"w 	c #C2171E",
"x 	c #CD2226",
"y 	c #D82D2D",
"z 	c #3268BC",
"A 	c #4CA2EF",
"B 	c #EEFAFF",
"C 	c #92ABD3",
"D 	c #EDEDEE",
"E 	c #EBD6D7",
"F 	c #2E60B0",
"G 	c #449CED",
"H 	c #EAF9FF",
"I 	c #2958A5",
"J 	c #E9E9EA",
"K 	c #E7D3D3",
"L 	c #E9E8E9",
"M 	c #69B6F4",
"N 	c #E6F8FF",
"O 	c #24509A",
"P 	c #E4E4E5",
"Q 	c #4FA3EB",
"R 	c #1F488F",
"S 	c #DFE0E1",
"T 	c #717376",
"U 	c #76787B",
"V 	c #7B7D80",
"W 	c #808285",
"X 	c #85878A",
"Y 	c #2D5AA3",
"Z 	c #DBDCDD",
"` 	c #2B579F",
"  . . . . . . +                 ",
"@ # # # # # # $ %               ",
"& # # # # # # * = -             ",
"; # > , ' ' ' ' ' ' ' ' ' ' ' ' ",
") # ! ~ { ] ^ / ( _ : : < [ [ } ",
"| # 1 2 2 2 2 2 2 2 2 2 2 2 2 1 ",
"3 4 5 # # # # # # # # # # # # 5 ",
"6 7 8 9 9 0 a 9 9 b c d 9 9 9 8 ",
"e f g h h i j k h h h h h h h l ",
"m n o p q r s t u v v w x y u z ",
"A B C D D j y E D D D D D D D F ",
"G H I J J s K L J b c d J J J I ",
"M N O P P P P P P P P P P P P O ",
"  Q R S S S S S S T U V W X S R ",
"    Y Z Z Z Z Z Z Z Z Z Z Z Z Y ",
"    ` ` ` ` ` ` ` ` ` ` ` ` ` ` "};
