/* XPM */
static const char * mt_SaveMission_xpm[] = {
"16 16 40 1",
" 	c #A4BEE4",
".	c #8DABD8",
"+	c #1478DC",
"@	c #6990CA",
"#	c #B8CEEF",
"$	c #F8FAFE",
"%	c #85A5D6",
"&	c #D9E5F6",
"*	c #CCDDF5",
"=	c #F3F8FD",
"-	c #E9F0FA",
";	c #E1ECF9",
">	c #BAD0EE",
",	c #B1C5E2",
"'	c #D1E0F6",
")	c #80AAE9",
"!	c #DBE7F8",
"~	c #7EA8E8",
"{	c #DEE8F8",
"]	c #79A2E1",
"^	c #C3D5EF",
"/	c #77A0DE",
"(	c #A9C2E7",
"_	c #C5D8F2",
":	c #9AB5DD",
"<	c #7099D6",
"[	c #C2D5F2",
"}	c #95B0DA",
"|	c #BED2F0",
"1	c #8EABD5",
"2	c #6D96D3",
"3	c #8AA7D2",
"4	c #7DA6E6",
"5	c #84A3CE",
"6	c #B3CAED",
"7	c #819ECC",
"8	c #648CC8",
"9	c #7C9AC8",
"0	c #ADC5EA",
"a	c #6186BC",
" .+++++++++++@#$",
"%&*$$$=-===-;>@,",
"+')$$+--=$=;!>>+",
"+*~==+-===-{&]^+",
"+*~--+-=$=;&&/(+",
"+*~;;;=$=;&&&/ +",
"+_~++++++++++/:+",
"+_]]]]]]]///</:+",
"+[]]]]]]/////<}+",
"+|]]]]]]///<<<1+",
"+>]$$$$$$$$$$23+",
"+#]$44444444$@5+",
"+6]$########$@7+",
"+6]$44444444$89+",
"+00$$$$$$$$$$99+",
".++++++++++++++a"};
