/* XPM */
static const char * mt_WriteCommand_xpm[] = {
"16 16 158 2",
"  	c None",
". 	c #9EE0FE",
"+ 	c #9DDFFD",
"@ 	c #9DE0FE",
"# 	c #9BC9DF",
"$ 	c #97DAFD",
"% 	c #FFFFFF",
"& 	c #F8F9F7",
"* 	c #CFDEE7",
"= 	c #8FD5FB",
"- 	c #F7F8F7",
"; 	c #FCFFFF",
"> 	c #CADEEB",
", 	c #87D0FA",
"' 	c #6D6E71",
") 	c #6D6D70",
"! 	c #757679",
"~ 	c #7E8184",
"{ 	c #888A8D",
"] 	c #FEFFFF",
"^ 	c #FDFEFF",
"/ 	c #B5B6BB",
"( 	c #B8BCC0",
"_ 	c #BBBFC5",
": 	c #ADA0B2",
"< 	c #BA4E57",
"[ 	c #E2838A",
"} 	c #81CAF9",
"| 	c #FCFEFF",
"1 	c #FAFEFF",
"2 	c #F8FEFF",
"3 	c #F7FEFF",
"4 	c #C9C5CE",
"5 	c #947074",
"6 	c #D9767E",
"7 	c #FDA9AE",
"8 	c #79C5F7",
"9 	c #6B6C6F",
"0 	c #6B6C70",
"a 	c #6A6C6F",
"b 	c #6F7075",
"c 	c #737479",
"d 	c #76797E",
"e 	c #7A7E83",
"f 	c #818389",
"g 	c #C1A365",
"h 	c #56606A",
"i 	c #9FA7AC",
"j 	c #AE8F92",
"k 	c #EC9197",
"l 	c #D4737A",
"m 	c #72BEF6",
"n 	c #F9FDFF",
"o 	c #F5FEFF",
"p 	c #F5FDFE",
"q 	c #F7E7B8",
"r 	c #FBC251",
"s 	c #FDEDC5",
"t 	c #59656F",
"u 	c #837F74",
"v 	c #907172",
"w 	c #6CBAF5",
"x 	c #6B6C6E",
"y 	c #6A6B6E",
"z 	c #6B6D6F",
"A 	c #6F7175",
"B 	c #74767C",
"C 	c #7B7D83",
"D 	c #CCAA60",
"E 	c #F9C750",
"F 	c #FFFAF1",
"G 	c #F5C54F",
"H 	c #F4BB40",
"I 	c #606471",
"J 	c #64B4F3",
"K 	c #FBFEFF",
"L 	c #FAFDFF",
"M 	c #F8FCFF",
"N 	c #F6FDFF",
"O 	c #F5FCFF",
"P 	c #F2FBFC",
"Q 	c #F5E3A9",
"R 	c #F6C553",
"S 	c #FBE4A9",
"T 	c #F5C24A",
"U 	c #F7B93E",
"V 	c #F4A92C",
"W 	c #5EAFF2",
"X 	c #6A6A6D",
"Y 	c #72767A",
"Z 	c #CEA87C",
"` 	c #F8C35C",
" .	c #F7C44D",
"..	c #F7C449",
"+.	c #F5B93B",
"@.	c #F6AA23",
"#.	c #BDAA70",
"$.	c #55AAF1",
"%.	c #F2FBFE",
"&.	c #F0FAFE",
"*.	c #EFFAFE",
"=.	c #EFF6F5",
"-.	c #FCBD91",
";.	c #F1B185",
">.	c #EDB366",
",.	c #F7B838",
"'.	c #F5A821",
").	c #E1E9D6",
"!.	c #56ABF3",
"~.	c #4EA4EF",
"{.	c #F2FBFF",
"].	c #6B6D70",
"^.	c #6E6E72",
"/.	c #BD9C85",
"(.	c #F3B285",
"_.	c #E8A87B",
":.	c #DD9D71",
"<.	c #EDA333",
"[.	c #E0E8DD",
"}.	c #DCF6FF",
"|.	c #4FA4EF",
"1.	c #489FEE",
"2.	c #EEFAFF",
"3.	c #EBFAFF",
"4.	c #EAF9FF",
"5.	c #C8D5DA",
"6.	c #DEA982",
"7.	c #E9A87A",
"8.	c #DFA47D",
"9.	c #D9BBA5",
"0.	c #DDEAE7",
"a.	c #D9F5FF",
"b.	c #D7F4FF",
"c.	c #489FF0",
"d.	c #489EEE",
"e.	c #747477",
"f.	c #403933",
"g.	c #151310",
"h.	c #E0DFD8",
"i.	c #DDF5FD",
"j.	c #DBF5FF",
"k.	c #D4F4FF",
"l.	c #77C0F6",
"m.	c #E7F8FF",
"n.	c #E6F7FF",
"o.	c #E3F7FF",
"p.	c #E0F6FF",
"q.	c #DEF5FF",
"r.	c #DDF6FF",
"s.	c #D7F3FF",
"t.	c #D6F4FF",
"u.	c #D3F2FF",
"v.	c #D0F1FF",
"w.	c #459CE9",
"x.	c #459CE8",
"y.	c #449CE9",
"z.	c #449BE9",
"A.	c #449CEA",
"  . . . . . + @ @ #             ",
"$ % % % % % % % % & *           ",
"= % % % % % % % % - ; >         ",
", % ' ) ! ~ { ] ^ / ( _ : < [   ",
"} % % % % % ^ | 1 2 3 4 5 6 7   ",
"8 % 9 0 a b c d e f g h i j k l ",
"m % % ^ ; 1 n o p q r s t u v   ",
"w % x y z A B C D E F G H I     ",
"J K L M N O P Q R S T U V       ",
"W 3 9 X ' Y Z `  ...+.@.#.      ",
"$.O %.&.*.=.-.;.>.,.'.).!.      ",
"~.{.].0 ^./.(._.:.<.[.}.|.      ",
"1.2.3.4.5.6.7.8.9.0.a.b.c.      ",
"d.4.) e.f.g.h.i.j.a.b.k.d.      ",
"l.m.n.o.p.q.r.a.s.t.u.v.l.      ",
"  w.w.x.y.y.z.y.A.A.y.w.        "};
