/* XPM */
static const char * mtc_CustomView_xpm[] = {
/* columns rows colors chars-per-pixel */
"16 16 3 1",
"  c None",
". c Blue",
"x c Red",
/* pixels */
"                ",
"                ",
"  ...  ...      ",
"   ...  ...     ",
"    ...  ...    ",
"     ...  ...   ",
"      ...  ...  ",
"      ...  ...  ",
"     ...  ...   ",
"    ...  ...    ",
"   ...  ...     ",
"  ...  ...      ",
" ...  ...       ",
"                ",
"                ",
"                "};
