/* XPM */
static const char * mtc_LA_xpm[] = {
/* columns rows colors chars-per-pixel */
"16 16 3 1",
"  c None",
". c #67B7DB",
"x c Grey",
/* pixels */
"                ",
"                ",
"                ",
"  ...     x     ",
"  ...    xxx    ",
"  ...   xx xx   ",
"  ...   x   x   ",
"  ...   xxxxx   ",
"  ...   xxxxx   ",
"  ...   x   x   ",
"  ...   x   x   ",
"  ...           ",
"  ........      ",
"  ........      ",
"  ........      ",
"                "};
