/* XPM */
static const char * mtc_L2_xpm[] = {
/* columns rows colors chars-per-pixel */
"16 16 3 1",
"  c None",
". c #67B7DB",
"x c Grey",
/* pixels */
"                ",
"                ",
"                ",
"  ...  xxxx     ",
"  ... xx  xx    ",
"  ...      xx   ",
"  ...     xx    ",
"  ...    xx     ",
"  ...   xx      ",
"  ...  xxxxxx   ",
"  ... xxxxxxx   ",
"  ...           ",
"  ........      ",
"  ........      ",
"  ........      ",
"                "};
