/* XPM */
static const char * mtc_ExcPlot_xpm[] = {
/* columns rows colors chars-per-pixel */
"16 16 9 1",
"X c Red",
"  c Gray0",
". c #000084",
"x c Blue",
"o c Green",
"O c #848484",
"+ c #c6c6c6",
"@ c None",
"# c Gray100",
/* pixels */
".@.@@++++o +++@@",
".@@@@@   o   @@@",
".@@@@@+ ooo +@@@",
".@@@@@@+ o +@@@@",
".@@@@@@@+ +@@@@@",
".@@....@@+@@@@@@",
".@.O@@@.O@@@@@@@",
".O.@@@@@.@@@@@@@",
"..@@@@@@@.@@@@@.",
".@@@@@@@@O.@@@.O",
".@@@@@@@@+O...O@",
".@@@@@@@+ @@@@@@",
".@@@@@@+ @XXXXXX",
".@@@@@+ o@XXXXXX",
".@@@@@   o@@@@@@",
"................",
};
