/* XPM */
static const char * mtc_ExcEquation_xpm[] = {
/* columns rows colors chars-per-pixel */
"16 16 5 1",
"X c Red",
"x c Gray",
". c #4D4D4D",
"  c None",
"= c #4D4DA6",
/* pixels */
"                ",
"                ",
"xxxx       xx   ",
"  xx       xx   ",
"  xx   xx  xx   ",
"  xx   xx  xx   ",
" xxx  xxxx xxxx ",
"x xx  xxxx xx  x",
"x xx   xx  xx  x",
"x xx   xx  xx  x",
"xxxx       xxxxx",
"                ",
"          XXXXXX",
"          XXXXXX",
"                ",
"                ",
};
