/* XPM */
static const char * mtc_L3_xpm[] = {
/* columns rows colors chars-per-pixel */
"16 16 3 1",
"  c None",
". c #67B7DB",
"x c Grey",
/* pixels */
"                ",
"                ",
"                ",
"  ...  xxxx     ",
"  ... xx   xx   ",
"  ...      xx   ",
"  ...   xxxx    ",
"  ...   xxxx    ",
"  ...      xx   ",
"  ... xx   xx   ",
"  ...  xxxx     ",
"  ...           ",
"  ........      ",
"  ........      ",
"  ........      ",
"                "};
