/* XPM */
static const char * mtc_IncControlFlow_xpm[] = {
"16 16 87 1",
"X	c Blue",
" 	c #FFFFFF",
".	c #FAFAFB",
"+	c #B2B6B9",
"@	c #A6ABB0",
"#	c #A9B2BA",
"$	c #B0B8C0",
"%	c #A6ABB1",
"&	c #B3B7BB",
"*	c #BFC1C3",
"=	c #A6ADB4",
"-	c #F1F4F7",
";	c #F2F5F8",
">	c #A6AFB8",
",	c #C0C3C6",
"'	c #67527D",
")	c #3C5285",
"!	c #182A5E",
"~	c #A3ACB4",
"{	c #EFF5FB",
"]	c #D4E4F4",
"^	c #D8E7F5",
"/	c #F4F8FC",
"(	c #D9DFE5",
"_	c #AFB3B6",
":	c #4A3562",
"<	c #39264E",
"[	c #AFBBC6",
"}	c #EFF4F9",
"|	c #80B5E9",
"1	c #549DE6",
"2	c #63A6E8",
"3	c #74AFEB",
"4	c #84B9ED",
"5	c #B6D5F3",
"6	c #F8FBFD",
"7	c #FAFAFA",
"8	c #A6ACB2",
"9	c #69547E",
"0	c #DBE5EF",
"a	c #4D99E5",
"b	c #4393E3",
"c	c #94C2F0",
"d	c #B0D2F4",
"e	c #F9FCFE",
"f	c #B2B3B4",
"g	c #F1F4F6",
"h	c #6BA7E4",
"i	c #328AE1",
"j	c #A5CBF2",
"k	c #CCE2F7",
"l	c #A5A7A9",
"m	c #E9F1F9",
"n	c #2280DE",
"o	c #B5D5F5",
"p	c #FAFCFE",
"q	c #A9AEB4",
"r	c #BDD5ED",
"s	c #EEF5FB",
"t	c #B0B5B9",
"u	c #B0B8BF",
"v	c #E9F1F8",
"w	c #A6ABAF",
"x	c #6BA8E5",
"y	c #CCE1F6",
"z	c #B2B5B7",
"A	c #EDF3F9",
"B	c #E7EEF5",
"C	c #482F62",
"D	c #A6ACB3",
"E	c #BFC1C2",
"F	c #D9DEE2",
"G	c #EFF4FA",
"H	c #B6D4F3",
"I	c #F7FAFD",
"J	c #AFBBC7",
"K	c #433A51",
"L	c #625176",
"M	c #AFB2B3",
"N	c #EFF5FA",
"O	c #D4E4F3",
"P	c #D8E6F4",
"Q	c #0B0B0B",
"R	c #412F54",
"S	c #7F6D91",
"T	c #A9AEB3",
"U	c #B0B5BA",
"    .+@#$%&.    ",
"   *=-    ;>,   ",
"')!~  {]^/  (_  ",
" :<[}|123456 (, ",
"7890ab1234cde >.",
"fg hib1234cjk ;&",
"l mnib1234cjop %",
"q rnib1234cjos #",
"t rnib1234cjos u",
"l vnib1234cj   w",
"fg xib1234c XX  ",
"7= Aab123   XX  ",
" EF G|12 XXXXXXX",
"  MF  NO XXXXXXX",
"   E=g      XX  ",
"    7flTUlf XX  "};
