/* XPM */
static const char * mtc_ClearFilters_xpm[] = {
"16 16 154 2",
"  	c None",
". 	c #E52E24",
"+ 	c #E82F25",
"@ 	c #EA3025",
"# 	c #EA2F25",
"$ 	c #EA2C24",
"% 	c #E72A23",
"& 	c #E42922",
"* 	c #E42A23",
"= 	c #E42C24",
"- 	c #E52B23",
"; 	c #E62D24",
"> 	c #E52C24",
", 	c #E32D23",
"' 	c #E32B23",
") 	c #E32923",
"! 	c #E22821",
"~ 	c #DD241F",
"{ 	c #DE2420",
"] 	c #DF241F",
"^ 	c #DF2820",
"/ 	c #DF2822",
"( 	c #DF2A21",
"_ 	c #D91E1B",
": 	c #D8201D",
"< 	c #D91F1B",
"[ 	c #DC2620",
"} 	c #DC2420",
"| 	c #DB261F",
"1 	c #DC261F",
"2 	c #D51A1A",
"3 	c #4298FF",
"4 	c #4398FF",
"5 	c #439AFF",
"6 	c #4699FF",
"7 	c #499BFF",
"8 	c #499DFF",
"9 	c #489CFF",
"0 	c #5094F8",
"a 	c #B83B50",
"b 	c #D5211E",
"c 	c #B83D50",
"d 	c #519AF8",
"e 	c #DB211E",
"f 	c #CF1317",
"g 	c #CF1417",
"h 	c #4F7FDF",
"i 	c #ABD1FD",
"j 	c #C3DEFE",
"k 	c #88B9FB",
"l 	c #70ABFB",
"m 	c #4292F8",
"n 	c #4B8BEF",
"o 	c #B6344A",
"p 	c #D51C1B",
"q 	c #B5374C",
"r 	c #4E92F2",
"s 	c #5688E4",
"t 	c #D61C1A",
"u 	c #D51B1A",
"v 	c #CC1013",
"w 	c #CB1015",
"x 	c #3D85F0",
"y 	c #9CBFF9",
"z 	c #9AC1F9",
"A 	c #71A7F4",
"B 	c #4681E2",
"C 	c #B32F45",
"D 	c #D2181A",
"E 	c #B33147",
"F 	c #4987E7",
"G 	c #408EF3",
"H 	c #D21716",
"I 	c #D21715",
"J 	c #C60D12",
"K 	c #377CE0",
"L 	c #81ADEE",
"M 	c #7B9EDF",
"N 	c #AB263E",
"O 	c #CD1014",
"P 	c #AE2941",
"Q 	c #447CD9",
"R 	c #3B85E7",
"S 	c #C70E12",
"T 	c #C70E13",
"U 	c #C20B10",
"V 	c #C10B10",
"W 	c #386DC6",
"X 	c #B0273B",
"Y 	c #C60C13",
"Z 	c #A7223B",
"` 	c #3C71CD",
" .	c #347AD8",
"..	c #C30C10",
"+.	c #C30C12",
"@.	c #BD080E",
"#.	c #BD080F",
"$.	c #B70B18",
"%.	c #C0090F",
"&.	c #A01832",
"*.	c #2F5DB1",
"=.	c #2663BB",
"-.	c #C1090F",
";.	c #B8060C",
">.	c #B9070D",
",.	c #B8060D",
"'.	c #B9080D",
").	c #99132D",
"!.	c #2852A4",
"~.	c #2059AE",
"{.	c #2259AD",
"].	c #BA060D",
"^.	c #BA070D",
"/.	c #B3040C",
"(.	c #B3040B",
"_.	c #B2040A",
":.	c #B2040B",
"<.	c #214B9A",
"[.	c #1C52A2",
"}.	c #1B52A2",
"|.	c #1B50A1",
"1.	c #B4040A",
"2.	c #B6040C",
"3.	c #AD020A",
"4.	c #AC0209",
"5.	c #AC020A",
"6.	c #144996",
"7.	c #144997",
"8.	c #144896",
"9.	c #164895",
"0.	c #B10209",
"a.	c #B0020A",
"b.	c #B0020B",
"c.	c #AA0108",
"d.	c #AB0209",
"e.	c #A90109",
"f.	c #AE0109",
"g.	c #AE0209",
"h.	c #AE0108",
"i.	c #C00E0D",
"j.	c #C0100E",
"k.	c #BF120E",
"l.	c #BE130E",
"m.	c #BE120D",
"n.	c #BE130D",
"o.	c #C3130F",
"p.	c #C2130E",
"q.	c #C1140E",
"r.	c #C5130D",
"s.	c #AC050A",
"t.	c #AD0509",
"u.	c #AE060A",
"v.	c #AE040A",
"w.	c #B1050A",
"          . + @ # $ %           ",
"      & * = - ; > , ' ) !       ",
"    ~ { ]             ^ / (     ",
"  _ : <               [ } | 1   ",
"  2 3 4 5 6 7 8 9 0 a b c d e   ",
"f g h i j k l m n o p q r s t u ",
"v w   x y z A B C D E F G   H I ",
"J J     K L M N O P Q R     S T ",
"U V       W X Y Z `  .      ..+.",
"@.#.      $.%.&.*.=.        -.-.",
";.>.    ,.'.).!.~.{.        ].^.",
"  /.(._.(.:.<.[.}.|.      1.2.  ",
"  3.4.5.5.  6.7.8.9.    0.a.b.  ",
"    c.d.e.            f.g.h.    ",
"      i.j.k.l.m.n.o.p.q.r.      ",
"          s.t.u.v.w.w.          "};
