/* XPM */
static const char * neptune_xpm[] = {
"32 32 26 1",
" 	c None",
".	c #000000",
"+	c #000010",
"@	c #000054",
"#	c #000044",
"$	c #000032",
"%	c #0066CC",
"&	c #006598",
"*	c #003298",
"=	c #003366",
"-	c #003232",
";	c #0033CC",
">	c #006666",
",	c #000088",
"'	c #000022",
")	c #001000",
"!	c #100000",
"~	c #000076",
"{	c #3366FF",
"]	c #3265CB",
"^	c #6699CC",
"/	c #9898CB",
"(	c #000066",
"_	c #0032FD",
":	c #0000AA",
"<	c #000098",
"                                ",
"                                ",
"            .......             ",
"         ..+@####$$...          ",
"        .%%&*=-#--$++@.         ",
"      ..%;%;>,=@##$'+++..       ",
"     );%;%;%;**==#$'++++#.      ",
"     !%;%;*;%;**==#'+++++.      ",
"    .**********~~@-$''.++'.     ",
"   .****;;;;**,**~@#'++.++$.    ",
"   .,{;]^^/^{{*{,=($$++.+++.    ",
"   .***;_{];**,,~~@-'++++.+.    ",
"  .**********,*=~=(#$+++.+'+.   ",
"  .;;;;;;;*******,=@$'+++++'.   ",
"  .*;*;;&;;;;**:**~=$'++.+++.   ",
"  .;*;;*;;*;*;*;***##'+++++'.   ",
"  .*;**;;;;%;;**:*(@$++++++'.   ",
"  .:*;*;;;_;_;;;**(#$'++.+++.   ",
"  .*<**,****<*,*,~-$'++.+++'.   ",
"   .*,,*,*,*,,*,~(#'++.+.+'.    ",
"   .(((((((((~(~@#''++.++++.    ",
"   .(@=@@{/{,{~(@$$'++++++#.    ",
"    .((((((~((@#$'++++.+++.     ",
"     .~~~~~(@@##$$''++++'.      ",
"     .,,,,~((@##'$''+'+'#.      ",
"      ..,,~=@###$''''''..       ",
"        .,~@@##$$$$''@.         ",
"         ...##$$$$'...          ",
"            .......             ",
"                                ",
"                                ",
"                                "};
