/* XPM */
static const char * nestreturn_xpm[] = {
"16 16 25 1",
" 	c #FFFFFF",
".	c #010101",
"+	c #3A3E29",
"@	c #E4E4E4",
"#	c #565656",
"$	c #3A3A3A",
"%	c #393B30",
"&	c #343434",
"*	c #EAEBE8",
"=	c #2F3225",
"-	c #2E2E2E",
";	c #2D3324",
">	c #1D1F16",
",	c #12130F",
"'	c #060606",
")	c #050505",
"!	c #454936",
"~	c #414530",
"{	c #3A3A36",
"]	c #666959",
"^	c #D7D8D3",
"/	c #424531",
"(	c #444738",
"_	c #4B4F3B",
":	c #505340",
"                ",
"          ....  ",
"          .++.  ",
"          .++.  ",
"          .++.  ",
"          .++.  ",
"    @#    .++.  ",
"   @$.    .++.  ",
"  @%&......++.  ",
" *=-..;++++++.  ",
" >,'')........  ",
" *!~{.]++++++]  ",
"  ^/~(]++++++]  ",
"   ^/_          ",
"    ^:          ",
"                "};
