/* XPM */
static char * nestreturn_xpm[] = {
"16 16 21 1",
" 	c None",
".	c #FFFFFF",
"+	c #EAEAEA",
"@	c #E5E5E5",
"#	c #777777",
"$	c #0D0D0D",
"%	c #939393",
"&	c #EAEBEA",
"*	c #787878",
"=	c #000000",
"-	c #EBEBEB",
";	c #797979",
">	c #0E0E0E",
",	c #909190",
"'	c #CCCCCC",
")	c #4A4A4A",
"!	c #010101",
"~	c #C8C8C8",
"{	c #C9C9C9",
"]	c #9C9C9C",
"^	c #FEFEFE",
"................",
"................",
"............+@..",
"..........+#$%..",
"........&*$==%..",
"......-;$====%..",
"....-;>======%..",
"...,>========%..",
"...')!=======%..",
".....~)!=====%..",
".......{)!===%..",
".........~)!=%..",
"...........~)]..",
".............^..",
"................",
"................"};
