/* XPM */
static char * nestreturn_xpm[] = {
"16 16 12 1",
" 	c None",
".	c #000000",
"+	c #393D28",
"@	c #232519",
"#	c #272A1C",
"$	c #2C3223",
"%	c #1C1E15",
"&	c #10110D",
"*	c #050505",
"=	c #040404",
"-	c #0F0F0A",
";	c #2A2D1D",
"                ",
"          ....  ",
"          .++.  ",
"          .++.  ",
"          .++.  ",
"          .++.  ",
"     .    .++.  ",
"    ..    .++.  ",
"   @.......++.  ",
"  #...$++++++.  ",
" %&**=........  ",
"  ++-.++++++++  ",
"   ++;++++++++  ",
"    ++          ",
"     +          ",
"                "};
