/* XPM */
static const char * network_xpm[] = {
"32 32 69 1",
" 	c None",
".	c #FFFFFF",
"+	c #FDEFF2",
"@	c #EFEFEF",
"#	c #FBDFE4",
"$	c #F9CFD7",
"%	c #CAD3E6",
"&	c #DFDFDF",
"*	c #CFCFCF",
"=	c #F39FAF",
"-	c #EF8094",
";	c #BFE7D8",
">	c #BDC8E0",
",	c #BFC9C5",
"'	c #9FDBC4",
")	c #8FD5BA",
"!	c #80CFB1",
"~	c #B0BDDA",
"{	c #A2B2D4",
"]	c #95A7CE",
"^	c #BFBFBF",
"/	c #A4A9B3",
"(	c #AFAFAF",
"_	c #BB9FA4",
":	c #8A93A6",
"<	c #9F9F9F",
"[	c #878E9D",
"}	c #8F8F8F",
"|	c #ED7087",
"1	c #B77F8A",
"2	c #EB6079",
"3	c #E7405F",
"4	c #E53051",
"5	c #E11036",
"6	c #DF0029",
"7	c #B04054",
"8	c #97606A",
"9	c #A7001F",
"0	c #8F2034",
"a	c #801025",
"b	c #60C39D",
"c	c #7B91C1",
"d	c #7FA798",
"e	c #6D86BB",
"f	c #7F9D92",
"g	c #50BD93",
"h	c #40B789",
"i	c #009F62",
"j	c #607BB5",
"k	c #6B7487",
"l	c #5370AF",
"m	c #56688E",
"n	c #385AA2",
"o	c #2B4F9C",
"p	c #7F7F7F",
"q	c #707070",
"r	c #606060",
"s	c #406859",
"t	c #45587E",
"u	c #404040",
"v	c #700015",
"w	c #00774A",
"x	c #204738",
"y	c #203B75",
"z	c #26375E",
"A	c #303030",
"B	c #202020",
"C	c #0B1427",
"D	c #101010",
"................................",
"................................",
".[yyyyyyyyy[....................",
".:oj>%%%%eo:....................",
".:l.......e:....................",
".:{.......%:....................",
".:~.......%:....................",
".:c.......]k....................",
".:o{.....>nCDq*...._111111111&..",
".:oonjjjnoo:*qBBq*.7653333466^..",
".&^^^A}^^^^&...^rDBa4+.....=6^..",
"./mmmztmmmm*......(0$.......3^..",
".:ooooooooo^.......7........-^..",
"./mmmztmmmm*.......7#.......2^..",
".....u^............72......$6^..",
".....u^..........&rv63----|56^..",
".....u^........^uDp8777777777*..",
".&^^^A}^^^^&.^uDp@.*^^^^^^^^^...",
".diiiiiiiiisAB}@...7666666669...",
".di!.....)ix<......7666666669...",
".db.......!d.......*^^^^^^^^^...",
".d'.......;d....................",
".d).......;d....................",
".dh.......gd....................",
".dig;;;;;gid....................",
".fwwwwwwwwwf....................",
"................................",
".fwwwwwwwww^....................",
".diiiiiiiii^....................",
".,ddddddddd&....................",
"................................",
"................................"};
