/* XPM */
static const char * NewMission_xpm[] = {
"16 16 107 2",
"  	c None",
". 	c #6B6BCB",
"+ 	c #6767C6",
"@ 	c #6666C1",
"# 	c #6464BD",
"$ 	c #6262B9",
"% 	c #6060B4",
"& 	c #5D5DAF",
"* 	c #5B5BAA",
"= 	c #5959A5",
"- 	c #5757A0",
"; 	c #55559C",
"> 	c #535399",
", 	c #55559A",
"' 	c #6969C9",
") 	c #9A9AF4",
"! 	c #9797F2",
"~ 	c #9393EF",
"{ 	c #8F90EC",
"] 	c #8C8CEA",
"^ 	c #8888E7",
"/ 	c #8585E5",
"( 	c #8383E3",
"_ 	c #8081E1",
": 	c #8080E1",
"< 	c #7E7EDE",
"[ 	c #535396",
"} 	c #6D6EC8",
"| 	c #6C6CCA",
"1 	c #6B6BC6",
"2 	c #6868C2",
"3 	c #6666BE",
"4 	c #6464B9",
"5 	c #6262B4",
"6 	c #5F5FB0",
"7 	c #5D5DAB",
"8 	c #5B5BA7",
"9 	c #5959A3",
"0 	c #5858A0",
"a 	c #545496",
"b 	c #9FA8BF",
"c 	c #EAEBF6",
"d 	c #E5E6F8",
"e 	c #E3E6F7",
"f 	c #E2E4F7",
"g 	c #E1E3F5",
"h 	c #E0E2F5",
"i 	c #DEE0F4",
"j 	c #DDDEF4",
"k 	c #DCDDF3",
"l 	c #DADCF2",
"m 	c #E6E7F2",
"n 	c #868DA0",
"o 	c #A2ACBF",
"p 	c #FAFAFD",
"q 	c #F1F4FE",
"r 	c #F0F2FD",
"s 	c #EFF1FD",
"t 	c #EEF0FD",
"u 	c #EDEEFD",
"v 	c #ECEDFD",
"w 	c #EAECFC",
"x 	c #E9EAFC",
"y 	c #E7E8FB",
"z 	c #F6F6FC",
"A 	c #878F9E",
"B 	c #F9FAFC",
"C 	c #D0D0D1",
"D 	c #CCCCCC",
"E 	c #E2E3FA",
"F 	c #F5F5FC",
"G 	c #F6F7FB",
"H 	c #EDEFFD",
"I 	c #E4E5FB",
"J 	c #E1E2FA",
"K 	c #DEDFF9",
"L 	c #F4F4FB",
"M 	c #F4F5F9",
"N 	c #CFCFD1",
"O 	c #DBDBF9",
"P 	c #F3F3FB",
"Q 	c #A1ABBE",
"R 	c #F5F6FA",
"S 	c #EBECFC",
"T 	c #E9EBFC",
"U 	c #E8E9FB",
"V 	c #E5E6FB",
"W 	c #E2E2FA",
"X 	c #DFDFF9",
"Y 	c #DCDCF9",
"Z 	c #DADAF9",
"` 	c #9EA8BB",
" .	c #F4F5F8",
"..	c #F8F8FC",
"+.	c #F7F8FC",
"@.	c #F7F7FC",
"#.	c #F4F4FC",
"$.	c #F1F1F6",
"%.	c #848C9C",
"&.	c #9FA7B8",
"*.	c #969FB1",
"=.	c #929AAC",
"-.	c #8D96A6",
";.	c #8992A2",
">.	c #868E9E",
",.	c #838B9B",
"'.	c #545963",
"                                ",
"                                ",
"                                ",
"  . + @ # $ % & * = - ; > ,     ",
"  ' ) ! ~ { ] ^ / ( _ : < [     ",
"  } | 1 2 3 4 5 6 7 8 9 0 a     ",
"  b c d e f g h i j k l m n     ",
"  o p q r s t u v w x y z A     ",
"  o B r C D D D D D C E F A     ",
"  o G t H v w x y I J K L A     ",
"  o M u C D D D D D N O P A     ",
"  Q R S T U V W X Y Z Z P A     ",
"  `  ...+.@.z F #.#.#.#.$.%.    ",
"  &.*.=.-.;.>.%.%.%.%.%.,.'.    ",
"                                ",
"                                "};
