/* XPM */
static const char * NewScript_xpm[] = {
"16 16 66 1",
" 	c None",
".	c #BDBFC1",
"+	c #D6D7D9",
"@	c #D3D4D6",
"#	c #D5D6D8",
"$	c #CBCCCE",
"%	c #A5A7AA",
"&	c #FFFFFF",
"*	c #F0F0F1",
"=	c #BDBEC1",
"-	c #AAACAE",
";	c #EDEDEE",
">	c #D4D5D7",
",	c #D3D5D6",
"'	c #ECEDEE",
")	c #D2D3D5",
"!	c #F0F1F2",
"~	c #D1D3D4",
"{	c #EFEFF0",
"]	c #C3C4C6",
"^	c #BABCBE",
"/	c #FDFDFE",
"(	c #EDEEEE",
"_	c #B6B8BA",
":	c #BABBBD",
"<	c #B9BBBD",
"[	c #BABAC1",
"}	c #EAF4DC",
"|	c #CFE7AE",
"1	c #D9ECBF",
"2	c #B2BCA9",
"3	c #CDE6AC",
"4	c #8BC53D",
"5	c #AED778",
"6	c #96CB50",
"7	c #8AC43E",
"8	c #EBF5DD",
"9	c #87C337",
"0	c #81C12D",
"a	c #A9D570",
"b	c #7FC029",
"c	c #C6E39F",
"d	c #A2D163",
"e	c #D5EAB8",
"f	c #F7FBF2",
"g	c #DFEFCA",
"h	c #CFE7AF",
"i	c #9ACD57",
"j	c #CCCDCF",
"k	c #F5F5F5",
"l	c #F6F3FB",
"m	c #C4DCA4",
"n	c #99CC54",
"o	c #B9DC8A",
"p	c #F2F9EA",
"q	c #CDE6AB",
"r	c #B4D982",
"s	c #95CA4E",
"t	c #89C539",
"u	c #85C232",
"v	c #EAF4DB",
"w	c #AAD571",
"x	c #80C02C",
"y	c #8CC63E",
"z	c #A0D060",
"A	c #93CA4B",
".+@@@@@@#$%     ",
"@&&&&&&&&*=-    ",
"@&&&&&&&&;>,    ",
"@&&&&&&&&')!~   ",
"@&&&&&&&&{])>^  ",
"@&&&&&&&&/{;(*_ ",
"@&&&&&&&&&&&&&: ",
"@&&&&&&&&&&&&&< ",
"@&&&&&&&&&&&&&[ ",
"@&&&&&&&&&&}|12 ",
"@&&&&&&&&&34567 ",
"@&&&&&&&&890}ab4",
"@&&&&&&&&cdefghi",
"jk******lmnopqrs",
"          tuvwx4",
"           yzA4 "};
