/* XPM */
static char * NonlinearConstraint_xpm[] = {
"16 16 20 1",
" 	c None",
".	c #1478DC",
"+	c #1377DB",
"@	c #000001",
"#	c #020E1A",
"$	c #000000",
"%	c #1377DA",
"&	c #06233F",
"*	c #041A2F",
"=	c #1373D3",
"-	c #08315B",
";	c #062544",
">	c #041A30",
",	c #000203",
"'	c #05213C",
")	c #062543",
"!	c #051C33",
"~	c #051F38",
"{	c #07284A",
"]	c #06223F",
"                ",
" .............. ",
" .            . ",
" .         .... ",
" .       ...... ",
" .    .+..... . ",
" .  ......  @ . ",
" ......+ #  $ . ",
" .%.. &  *  $ . ",
" .=-  ;  >  , . ",
" . '  )  !    . ",
" . ~  {       . ",
" . ]          . ",
" .            . ",
" .............. ",
"                "};
