/* XPM */
static char * openglplot_xpm[] = {
"27 24 525 2",
"  	c None",
". 	c #000000",
"+ 	c #030301",
"@ 	c #010002",
"# 	c #020106",
"$ 	c #000005",
"% 	c #000104",
"& 	c #000200",
"* 	c #030004",
"= 	c #040008",
"- 	c #000202",
"; 	c #000400",
"> 	c #040000",
", 	c #010200",
"' 	c #000100",
") 	c #000102",
"! 	c #000304",
"~ 	c #010300",
"{ 	c #030102",
"] 	c #FFFCFB",
"^ 	c #040402",
"/ 	c #030104",
"( 	c #010004",
"_ 	c #010005",
": 	c #020204",
"< 	c #010103",
"[ 	c #000007",
"} 	c #00030A",
"| 	c #000306",
"1 	c #091513",
"2 	c #040F09",
"3 	c #060902",
"4 	c #010100",
"5 	c #010400",
"6 	c #0B0D0C",
"7 	c #070705",
"8 	c #060407",
"9 	c #0F0D10",
"0 	c #FFFEFD",
"a 	c #010000",
"b 	c #020001",
"c 	c #070209",
"d 	c #060004",
"e 	c #060000",
"f 	c #000300",
"g 	c #030909",
"h 	c #474E54",
"i 	c #A2ACB5",
"j 	c #C7D6DD",
"k 	c #A1B6B9",
"l 	c #4F6660",
"m 	c #485645",
"n 	c #4A533E",
"o 	c #313A27",
"p 	c #171D0F",
"q 	c #020500",
"r 	c #13140E",
"s 	c #0F100B",
"t 	c #0B0B09",
"u 	c #0E0A0B",
"v 	c #1D191A",
"w 	c #1B191C",
"x 	c #0C0A0D",
"y 	c #FFFEFF",
"z 	c #020300",
"A 	c #000004",
"B 	c #020006",
"C 	c #060002",
"D 	c #010302",
"E 	c #1F2928",
"F 	c #869696",
"G 	c #AEC0C4",
"H 	c #5A6B72",
"I 	c #42575A",
"J 	c #314C47",
"K 	c #3A5647",
"L 	c #415939",
"M 	c #4D5D39",
"N 	c #596245",
"O 	c #63654F",
"P 	c #6C6958",
"Q 	c #0D0900",
"R 	c #030200",
"S 	c #130D0F",
"T 	c #000002",
"U 	c #000402",
"V 	c #252C36",
"W 	c #84929D",
"X 	c #7D959F",
"Y 	c #223D44",
"Z 	c #3E5857",
"` 	c #375146",
" .	c #435F46",
"..	c #46623C",
"+.	c #4D6939",
"@.	c #5A6C3C",
"#.	c #747450",
"$.	c #988D6F",
"%.	c #AF9F86",
"&.	c #7B6E5B",
"*.	c #120B01",
"=.	c #130F0C",
"-.	c #050001",
";.	c #050706",
">.	c #0B1111",
",.	c #F9FEFF",
"'.	c #000303",
").	c #000408",
"!.	c #2C343F",
"~.	c #2F4050",
"{.	c #294050",
"].	c #335159",
"^.	c #486666",
"/.	c #496056",
"(.	c #4D634E",
"_.	c #536B49",
":.	c #536A3E",
"<.	c #5F7342",
"[.	c #556131",
"}.	c #78754C",
"|.	c #A49673",
"1.	c #C3B08F",
"2.	c #BCAC93",
"3.	c #8A8478",
"4.	c #24201D",
"5.	c #1A1011",
"6.	c #251B1C",
"7.	c #141412",
"8.	c #FBFFFF",
"9.	c #0A0509",
"0.	c #100E11",
"a.	c #0A080D",
"b.	c #01040B",
"c.	c #081621",
"d.	c #374E5E",
"e.	c #193E51",
"f.	c #254D59",
"g.	c #335652",
"h.	c #4C6454",
"i.	c #667359",
"j.	c #747E5C",
"k.	c #5A6847",
"l.	c #4B5634",
"m.	c #7C805D",
"n.	c #9D9B75",
"o.	c #69643C",
"p.	c #B7AE85",
"q.	c #C3B48D",
"r.	c #A9A798",
"s.	c #474641",
"t.	c #1B0F0F",
"u.	c #110303",
"v.	c #110E09",
"w.	c #21211F",
"x.	c #040004",
"y.	c #0A050B",
"z.	c #18151C",
"A.	c #101721",
"B.	c #122937",
"C.	c #173C4C",
"D.	c #133E4F",
"E.	c #234F58",
"F.	c #5F827C",
"G.	c #647D6A",
"H.	c #8A977D",
"I.	c #686F50",
"J.	c #575E3F",
"K.	c #85886B",
"L.	c #948D71",
"M.	c #ABA084",
"N.	c #B0A786",
"O.	c #9D9571",
"P.	c #B0A683",
"Q.	c #9E997C",
"R.	c #8D9588",
"S.	c #6D736F",
"T.	c #231A1B",
"U.	c #1D1312",
"V.	c #090803",
"W.	c #0D0E09",
"X.	c #FEFDFF",
"Y.	c #0F0F11",
"Z.	c #0B0B0D",
"`.	c #00040A",
" +	c #1B3F4D",
".+	c #1D4B5A",
"++	c #173F4B",
"@+	c #3B6066",
"#+	c #52726F",
"$+	c #4D685F",
"%+	c #677C73",
"&+	c #536152",
"*+	c #92947C",
"=+	c #C8C1A5",
"-+	c #A6967D",
";+	c #A09079",
">+	c #A49983",
",+	c #BCB6A0",
"'+	c #ABA58F",
")+	c #A9AC9B",
"!+	c #677A74",
"~+	c #8B9F9E",
"{+	c #3D4343",
"]+	c #151513",
"^+	c #080D06",
"/+	c #010800",
"(+	c #FEFFFF",
"_+	c #0F0F0F",
":+	c #0C0E0D",
"<+	c #080E0E",
"[+	c #0A1D23",
"}+	c #214D5A",
"|+	c #134351",
"1+	c #25434B",
"2+	c #596D6E",
"3+	c #6D7E78",
"4+	c #5C6960",
"5+	c #3E4A46",
"6+	c #495048",
"7+	c #6D6855",
"8+	c #CEBFA8",
"9+	c #BFA994",
"0+	c #AF9E8C",
"a+	c #7D7A71",
"b+	c #686D67",
"c+	c #6D746D",
"d+	c #738380",
"e+	c #345356",
"f+	c #4B6C71",
"g+	c #5D6C71",
"h+	c #091211",
"i+	c #09130A",
"j+	c #060D06",
"k+	c #FAFBFF",
"l+	c #030504",
"m+	c #0A1416",
"n+	c #152E35",
"o+	c #184656",
"p+	c #1C4654",
"q+	c #404F52",
"r+	c #B6B3AC",
"s+	c #ECDFCF",
"t+	c #C8B7A7",
"u+	c #BAAC9F",
"v+	c #CFC1B6",
"w+	c #B0A093",
"x+	c #A49183",
"y+	c #D7C0B0",
"z+	c #D8CCC0",
"A+	c #9DABAC",
"B+	c #37545C",
"C+	c #34555C",
"D+	c #577D86",
"E+	c #336371",
"F+	c #35616E",
"G+	c #708691",
"H+	c #101B1D",
"I+	c #0E1410",
"J+	c #0A0C09",
"K+	c #FFFDFF",
"L+	c #161513",
"M+	c #171B1C",
"N+	c #051316",
"O+	c #17323D",
"P+	c #154456",
"Q+	c #214857",
"R+	c #B2B8B4",
"S+	c #E6D5C5",
"T+	c #DBBFA9",
"U+	c #E9C9B2",
"V+	c #DDC2AF",
"W+	c #E6CCBD",
"X+	c #D6BEB2",
"Y+	c #907A6D",
"Z+	c #B19C8B",
"`+	c #D5D1C6",
" @	c #556D77",
".@	c #275062",
"+@	c #275469",
"@@	c #2D6075",
"#@	c #1E566D",
"$@	c #2A5A6E",
"%@	c #4B6974",
"&@	c #17262B",
"*@	c #0C1212",
"=@	c #1C1C1C",
"-@	c #080C0B",
";@	c #040C0E",
">@	c #041119",
",@	c #173140",
"'@	c #19465D",
")@	c #305663",
"!@	c #E0E3D8",
"~@	c #F1DFC7",
"{@	c #ECD1B6",
"]@	c #F9DBC1",
"^@	c #E4CAB3",
"/@	c #F2D9C3",
"(@	c #E5CAB5",
"_@	c #B19B86",
":@	c #8A7B66",
"<@	c #8C8E83",
"[@	c #3D5764",
"}@	c #28516D",
"|@	c #265573",
"1@	c #265B7B",
"2@	c #215876",
"3@	c #2A5C73",
"4@	c #2B4B58",
"5@	c #001218",
"6@	c #030406",
"7@	c #FEFEFF",
"8@	c #0C100F",
"9@	c #050B0B",
"0@	c #00070E",
"a@	c #1B2E3C",
"b@	c #214962",
"c@	c #2A4F5F",
"d@	c #7F8981",
"e@	c #BCB5A3",
"f@	c #D1C1B1",
"g@	c #DDCBB7",
"h@	c #C9B59C",
"i@	c #C4B193",
"j@	c #AD987B",
"k@	c #97836A",
"l@	c #9F947E",
"m@	c #A2A7A0",
"n@	c #314D5B",
"o@	c #24506D",
"p@	c #27577B",
"q@	c #25597E",
"r@	c #174C6C",
"s@	c #204E66",
"t@	c #355562",
"u@	c #091C23",
"v@	c #0A1215",
"w@	c #131315",
"x@	c #FDFDFF",
"y@	c #11100E",
"z@	c #0D0B0C",
"A@	c #130E12",
"B@	c #19222B",
"C@	c #2F4F66",
"D@	c #224B5F",
"E@	c #3F5A61",
"F@	c #7B8A8D",
"G@	c #777F82",
"H@	c #83847E",
"I@	c #777254",
"J@	c #7C744D",
"K@	c #8E8460",
"L@	c #999073",
"M@	c #A69D8C",
"N@	c #6E706D",
"O@	c #2B4954",
"P@	c #26526B",
"Q@	c #255677",
"R@	c #285A7D",
"S@	c #2C5A7B",
"T@	c #264B65",
"U@	c #182F3D",
"V@	c #00040C",
"W@	c #000106",
"X@	c #030002",
"Y@	c #120E0F",
"Z@	c #140E10",
"`@	c #0E0307",
" #	c #14131B",
".#	c #4E6374",
"+#	c #2D4C60",
"@#	c #2D4D5C",
"##	c #2C4856",
"$#	c #344B5B",
"%#	c #425154",
"&#	c #6B7059",
"*#	c #7A7852",
"=#	c #8A8660",
"-#	c #817C5E",
";#	c #807A6A",
">#	c #454E4B",
",#	c #34545F",
"'#	c #26546B",
")#	c #2A5975",
"!#	c #265372",
"~#	c #1D455F",
"{#	c #2C4B60",
"]#	c #10222E",
"^#	c #040D14",
"/#	c #111015",
"(#	c #0B0708",
"_#	c #140F13",
":#	c #11080D",
"<#	c #110A11",
"[#	c #2F323B",
"}#	c #414D5B",
"|#	c #314858",
"1#	c #315064",
"2#	c #27475C",
"3#	c #2B4651",
"4#	c #545E55",
"5#	c #73735B",
"6#	c #807A5A",
"7#	c #837E60",
"8#	c #7A7D68",
"9#	c #596C66",
"0#	c #527885",
"a#	c #28566D",
"b#	c #224F66",
"c#	c #21475C",
"d#	c #234254",
"e#	c #243A48",
"f#	c #031019",
"g#	c #0B1218",
"h#	c #0C0D0F",
"i#	c #090708",
"j#	c #FFFFFD",
"k#	c #0D0D0F",
"l#	c #221C20",
"m#	c #1C161A",
"n#	c #1D181E",
"o#	c #373B44",
"p#	c #3F5261",
"q#	c #345568",
"r#	c #254E64",
"s#	c #355667",
"t#	c #7F8279",
"u#	c #88836F",
"v#	c #86846F",
"w#	c #7D897B",
"x#	c #3E5855",
"y#	c #5F8793",
"z#	c #1B485B",
"A#	c #284F60",
"B#	c #254554",
"C#	c #2B434F",
"D#	c #000E18",
"E#	c #000209",
"F#	c #000206",
"G#	c #030303",
"H#	c #100F0D",
"I#	c #060405",
"J#	c #050409",
"K#	c #0C1319",
"L#	c #1E313F",
"M#	c #254657",
"N#	c #214E61",
"O#	c #184153",
"P#	c #283E49",
"Q#	c #6F797B",
"R#	c #93948F",
"S#	c #848985",
"T#	c #697D7E",
"U#	c #32535A",
"V#	c #315563",
"W#	c #204555",
"X#	c #254552",
"Y#	c #243F4A",
"Z#	c #041620",
"`#	c #00030B",
" $	c #000107",
".$	c #0D0C07",
"+$	c #020403",
"@$	c #05060A",
"#$	c #090A0E",
"$$	c #112C37",
"%$	c #274B5B",
"&$	c #214555",
"*$	c #2E4553",
"=$	c #37454E",
"-$	c #6A7177",
";$	c #5E696D",
">$	c #304852",
",$	c #20404B",
"'$	c #24424D",
")$	c #1E3A45",
"!$	c #152D37",
"~$	c #02151C",
"{$	c #00050D",
"]$	c #000207",
"^$	c #000407",
"/$	c #000103",
"($	c #101109",
"_$	c #0C0D08",
":$	c #191A1C",
"<$	c #161A1D",
"[$	c #101115",
"}$	c #0C1013",
"|$	c #0A0F13",
"1$	c #141F25",
"2$	c #0C1C29",
"3$	c #162937",
"4$	c #263844",
"5$	c #1E3138",
"6$	c #213239",
"7$	c #26393F",
"8$	c #1D353F",
"9$	c #19343F",
"0$	c #172E34",
"a$	c #0B1E24",
"b$	c #00090E",
"c$	c #000307",
"d$	c #020100",
"e$	c #010204",
"f$	c #0E0C0D",
"g$	c #070709",
"h$	c #00050E",
"i$	c #021118",
"j$	c #0A191E",
"k$	c #081A1E",
"l$	c #00131A",
"m$	c #000E15",
"n$	c #000508",
"o$	c #000305",
"p$	c #000406",
"q$	c #14100D",
"r$	c #030408",
"s$	c #030000",
"t$	c #050000",
"u$	c #050100",
"v$	c #000201",
"w$	c #000203",
"x$	c #000507",
"y$	c #FFFFFF",
"z$	c #000105",
". + @ # $ % & & * = $ - & ; > > , ' ) ! . . ' ~ @ { ] ",
"^ . / ( _ : & ; < [ } | 1 2 3 4 5 & & 6 7 4 . . 8 9 0 ",
"a b $ c d e , f g h i j k l m n o p q r s t u v w x y ",
"z ' A B C e D E F G H I J K L M N O P Q a R S C @ T y ",
"f f U ) @ _ V W X Y Z `  ...+.@.#.$.%.&.*.=.e -.;.>.,.",
"f ; & '.).!.~.{.].^./.(._.:.<.[.}.|.1.2.3.4.5.6.7.& 8.",
"9.0.a.b.c.d.e.f.g.h.i.j.k.l.m.n.o.p.q.$.r.s.t.u.v.w.y ",
"x.y.z.A.B.C.D.E.F.G.H.I.J.K.L.M.N.O.P.Q.R.S.T.U.V.W.X.",
"Y.Z.T `. +.+++@+#+$+%+&+*+=+-+;+>+,+'+)+!+~+{+]+^+/+(+",
"_+:+<+[+}+|+1+2+3+4+5+6+7+8+9+0+a+b+c+d+e+f+g+h+i+j+k+",
"a l+m+n+o+p+q+r+s+t+u+v+w+x+y+z+A+B+C+D+E+F+G+H+I+J+K+",
"L+M+N+O+P+Q+R+S+T+U+V+W+X+Y+Z+`+ @.@+@@@#@$@%@&@*@=@K+",
"-@;@>@,@'@)@!@~@{@]@^@/@(@_@:@<@[@}@|@1@2@3@4@5@;@6@7@",
"8@9@0@a@b@c@d@e@f@g@h@i@j@k@l@m@n@o@p@q@r@s@t@u@v@w@x@",
"y@z@A@B@C@D@E@F@G@H@I@J@K@L@M@N@O@P@Q@R@S@T@U@V@W@X@y ",
"Y@Z@`@ #.#+#@###$#%#&#*#=#-#;#>#,#'#)#!#~#{#]#^#/#(#0 ",
"0._#:#<#[#}#|#1#2#3#4#5#6#7#8#9#0#a#b#c#d#e#f#g#h#i#j#",
"k#9 l#m#n#o#p#q#r#s#q+t#u#v#w#x#y#z#A#B#C#D#E#F#6@G#j#",
"R H#I#T J#K#L#M#N#O#P#Q#R#S#T#U#V#W#X#Y#Z#`# $% . a j#",
".$' +$@$#$| V@$$%$&$*$=$-$;$>$,$'$)$!$~${$]$^$/$. a j#",
"($_$:$<$[$}$|$1$2$3$4$5$6$7$8$9$0$a$b$c$| | T . d$a j#",
"d$_$e$% T . f$g$ $h$`#i$j$k$l$m$n$o$p$% ! ' a a a a j#",
"q$d$A r$< s$t$u$v$- % | w$- x$o$o$) w$+$. a a d$a . y$",
"s$R z$A @ > > s$& ' ' G#s$a w$w$' D . . a d$> a . . y$"};
