/* XPM */
static const char * OpenFolder_xpm[] = {
"16 16 46 1",
" 	c None",
".	c #CEA222",
"+	c #DDDDDD",
"@	c #FFFFFF",
"#	c #C69A19",
"$	c #C5C5C5",
"%	c #FFFF9C",
"&	c #FFF39C",
"*	c #FFF38C",
"=	c #9D7B1A",
"-	c #FFEB84",
";	c #E2C150",
">	c #B18919",
",	c #FFD784",
"'	c #DABF6C",
")	c #FFFBF7",
"!	c #FFE784",
"~	c #A17E19",
"{	c #898989",
"]	c #FDD570",
"^	c #F7F089",
"/	c #FFC75B",
"(	c #FBF996",
"_	c #9B7B19",
":	c #717171",
"<	c #E2B343",
"[	c #C9A021",
"}	c #FFFFA5",
"|	c #FFF794",
"1	c #E7BE53",
"2	c #CEBC5C",
"3	c #A5730D",
"4	c #CFA226",
"5	c #D7B840",
"6	c #EFBA43",
"7	c #656565",
"8	c #C69A1A",
"9	c #F0E47A",
"0	c #FFE37C",
"a	c #FFDF7C",
"b	c #DEB243",
"c	c #B9B9B9",
"d	c #C79C1C",
"e	c #FFD76C",
"f	c #BF9929",
"g	c #D1D1D1",
"                ",
"  ....+         ",
" .@@@@#$        ",
"#@%%%%@######+  ",
"#&*****@@@@@#=$ ",
"#-;###########>$",
"#,#'@@)@@@@@!@~{",
"#]#^%%%%%%%%/(_:",
"#<[}||||||||123:",
"#45%-------!6#7{",
"#89%0000000ab=7c",
"#d%eeeeeeeeef3:g",
"+3333333333337{+",
" ${::::::::::{$ ",
"  +gggggggggg+  ",
"                "};
