/* XPM */
static const char * OpenScript_xpm[] = {
"16 16 142 2",
"  	c None",
". 	c #4E669F",
"+ 	c #6472BC",
"@ 	c #5F70B6",
"# 	c #5363A3",
"$ 	c #606EB6",
"% 	c #747BD1",
"& 	c #8586E8",
"* 	c #5469A3",
"= 	c #D59E65",
"- 	c #D59D64",
"; 	c #495996",
"> 	c #465A91",
", 	c #5C6AB2",
"' 	c #5B6AAF",
") 	c #EBD497",
"! 	c #FCF3B2",
"~ 	c #FDF2B1",
"{ 	c #FCF2B0",
"] 	c #FCF1B0",
"^ 	c #F3D997",
"/ 	c #D39E65",
"( 	c #3D5082",
"_ 	c #435482",
": 	c #495C8F",
"< 	c #FBF0AF",
"[ 	c #FEECA8",
"} 	c #FEECA7",
"| 	c #FDEBA6",
"1 	c #FDEAA4",
"2 	c #FCE8A1",
"3 	c #EBCB87",
"4 	c #C9945F",
"5 	c #C18E5C",
"6 	c #BC8959",
"7 	c #B68556",
"8 	c #AB8651",
"9 	c #FAEEAC",
"0 	c #FDE9A2",
"a 	c #FCE9A0",
"b 	c #FCE89E",
"c 	c #FCE79C",
"d 	c #FBE69A",
"e 	c #FAEBA3",
"f 	c #FAECA4",
"g 	c #F9ECA2",
"h 	c #F1DA8D",
"i 	c #AC7D52",
"j 	c #FAEDA9",
"k 	c #FBE79C",
"l 	c #E8BF7C",
"m 	c #D79E61",
"n 	c #D79D61",
"o 	c #D79F61",
"p 	c #F9EBA5",
"q 	c #FAE598",
"r 	c #F4D78C",
"s 	c #DAA568",
"t 	c #F5EAA0",
"u 	c #F6E794",
"v 	c #F6E693",
"w 	c #F6E592",
"x 	c #F5E590",
"y 	c #F5E48F",
"z 	c #F5E48D",
"A 	c #F4E38B",
"B 	c #F3E188",
"C 	c #E5C36A",
"D 	c #D1985D",
"E 	c #F8E9A1",
"F 	c #F9E290",
"G 	c #DFAE6C",
"H 	c #EAD18F",
"I 	c #F4DF84",
"J 	c #F3D977",
"K 	c #F3D874",
"L 	c #F3D671",
"M 	c #F2D56E",
"N 	c #F2D46B",
"O 	c #F1D368",
"P 	c #F1D264",
"Q 	c #E5C05A",
"R 	c #CE9C56",
"S 	c #C69157",
"T 	c #D49C63",
"U 	c #F7E79D",
"V 	c #EDC97C",
"W 	c #DDAD6F",
"X 	c #F5E795",
"Y 	c #F1D367",
"Z 	c #F1D164",
"` 	c #F0D061",
" .	c #F0CF5D",
"..	c #EDCA59",
"+.	c #D5A74F",
"@.	c #B78250",
"#.	c #D19A62",
"$.	c #F5E497",
"%.	c #DAA465",
"&.	c #EFDB95",
"*.	c #F2D771",
"=.	c #F0D060",
"-.	c #EFCD5A",
";.	c #EFCC57",
">.	c #EFCB54",
",.	c #E1B74E",
"'.	c #B9874B",
").	c #CD9760",
"!.	c #E2BF7C",
"~.	c #DDB577",
"{.	c #F4E083",
"].	c #EFCD59",
"^.	c #EFCC56",
"/.	c #EFCB53",
"(.	c #EECA50",
"_.	c #EEC84E",
":.	c #E9C14B",
"<.	c #CA9A48",
"[.	c #966840",
"}.	c #C8935E",
"|.	c #C7925B",
"1.	c #E6C975",
"2.	c #E2BA55",
"3.	c #E1B851",
"4.	c #E0B74F",
"5.	c #E0B74D",
"6.	c #E0B64B",
"7.	c #E0B54A",
"8.	c #DFB548",
"9.	c #DFB447",
"0.	c #DAAE47",
"a.	c #AF7C47",
"b.	c #BE8C5A",
"c.	c #B88453",
"d.	c #B37E4D",
"e.	c #B07C4B",
"f.	c #AE7A49",
"g.	c #AC7848",
"h.	c #AB7848",
"i.	c #AB7748",
"j.	c #AA7648",
"k.	c #7F5937",
"                          .     ",
"                          + @   ",
"                      # $ % & * ",
"  = - - - - -       ; >   , '   ",
"= ) ! ~ { ] ^ /   ( _     :     ",
"- < [ } | 1 2 3 4 5 6 7 8       ",
"- 9 1 0 a b c d e f g h i       ",
"- j b k l m n n n n n n n n n o ",
"- p q r s t u v w x y z A B C D ",
"- E F G H I J K L M N O P Q R S ",
"T U V W X L M N Y Z `  ...+.@.  ",
"#.$.%.&.*.Y Z =. .-.;.>.,.'.    ",
").!.~.{.=. .].^./.(._.:.<.[.    ",
"}.|.1.2.3.4.5.6.7.8.9.0.a.      ",
"b.c.d.e.f.g.h.i.i.i.i.j.k.      ",
"                                "};
