/* XPM */
static char * openglplot_xpm[] = {
"16 16 215 2",
"  	c None",
". 	c #000000",
"+ 	c #010101",
"@ 	c #181812",
"# 	c #45443F",
"$ 	c #7C7A7C",
"% 	c #929195",
"& 	c #60636E",
"* 	c #0F191D",
"= 	c #010202",
"- 	c #0F1613",
"; 	c #5D6646",
"> 	c #6A7657",
", 	c #5F6A61",
"' 	c #647274",
") 	c #ACB4C3",
"! 	c #6A8594",
"~ 	c #194558",
"{ 	c #334C4A",
"] 	c #141B10",
"^ 	c #272C28",
"/ 	c #91926A",
"( 	c #798C5B",
"_ 	c #7D8D5A",
": 	c #858D61",
"< 	c #31545A",
"[ 	c #1B4455",
"} 	c #144458",
"| 	c #1D4C60",
"1 	c #406263",
"2 	c #546A4E",
"3 	c #253019",
"4 	c #081317",
"5 	c #8E9171",
"6 	c #8FAA60",
"7 	c #759759",
"8 	c #416B59",
"9 	c #28515B",
"0 	c #214C60",
"a 	c #103B51",
"b 	c #134257",
"c 	c #17465A",
"d 	c #426861",
"e 	c #7C8257",
"f 	c #6D7953",
"g 	c #272721",
"h 	c #030405",
"i 	c #294C57",
"j 	c #597D75",
"k 	c #40736B",
"l 	c #22576A",
"m 	c #134863",
"n 	c #11425C",
"o 	c #12415A",
"p 	c #14465E",
"q 	c #194C64",
"r 	c #12425A",
"s 	c #50675E",
"t 	c #426264",
"u 	c #496764",
"v 	c #84806B",
"w 	c #060504",
"x 	c #111D27",
"y 	c #336575",
"z 	c #477C73",
"A 	c #33697E",
"B 	c #184E6B",
"C 	c #134764",
"D 	c #114662",
"E 	c #164B66",
"F 	c #144862",
"G 	c #13475E",
"H 	c #14475F",
"I 	c #4F6763",
"J 	c #D4C1AC",
"K 	c #8B8F90",
"L 	c #98938B",
"M 	c #443B35",
"N 	c #113448",
"O 	c #1D5B7F",
"P 	c #417673",
"Q 	c #245D75",
"R 	c #275C76",
"S 	c #194D6C",
"T 	c #164B6C",
"U 	c #154D68",
"V 	c #124460",
"W 	c #10445F",
"X 	c #386074",
"Y 	c #D8BDB1",
"Z 	c #EDCEBC",
"` 	c #E3C4AF",
" .	c #E0C1AE",
"..	c #71645D",
"+.	c #143B50",
"@.	c #1B5776",
"#.	c #2B617A",
"$.	c #7F996D",
"%.	c #73947E",
"&.	c #245B79",
"*.	c #174D6E",
"=.	c #154C6A",
"-.	c #134563",
";.	c #164964",
">.	c #557580",
",.	c #E7CBB5",
"'.	c #F5D5C2",
").	c #F5D9C6",
"!.	c #EDD0B7",
"~.	c #80726A",
"{.	c #1B3F54",
"].	c #21536E",
"^.	c #597B75",
"/.	c #90A95F",
"(.	c #91AB62",
"_.	c #789A73",
":.	c #215A78",
"<.	c #174F70",
"[.	c #194E6F",
"}.	c #174A6A",
"|.	c #26566B",
"1.	c #807E60",
"2.	c #A79275",
"3.	c #B0967A",
"4.	c #A4896D",
"5.	c #7C6B59",
"6.	c #142F3F",
"7.	c #1B4A67",
"8.	c #466961",
"9.	c #6E9645",
"0.	c #80A354",
"a.	c #779C4E",
"b.	c #608D70",
"c.	c #2D6176",
"d.	c #1C5373",
"e.	c #195171",
"f.	c #2B586E",
"g.	c #2D586F",
"h.	c #566C5D",
"i.	c #7B7F4E",
"j.	c #58594B",
"k.	c #091B24",
"l.	c #15465D",
"m.	c #214759",
"n.	c #7F8958",
"o.	c #759643",
"p.	c #6B943F",
"q.	c #919E5C",
"r.	c #B4B290",
"s.	c #1C506E",
"t.	c #184C6D",
"u.	c #1C5272",
"v.	c #1C5171",
"w.	c #1A4D6C",
"x.	c #416259",
"y.	c #847E56",
"z.	c #2C302B",
"A.	c #010304",
"B.	c #154054",
"C.	c #12435A",
"D.	c #616B69",
"E.	c #727844",
"F.	c #838E4C",
"G.	c #898251",
"H.	c #45626B",
"I.	c #1A4867",
"J.	c #1A4866",
"K.	c #1E4D6B",
"L.	c #1A4865",
"M.	c #17435D",
"N.	c #696F62",
"O.	c #727556",
"P.	c #080A0A",
"Q.	c #08171E",
"R.	c #114157",
"S.	c #566468",
"T.	c #8E7E5A",
"U.	c #7A7C56",
"V.	c #29565F",
"W.	c #174C69",
"X.	c #114865",
"Y.	c #144A65",
"Z.	c #164B64",
"`.	c #10425B",
" +	c #1D4A61",
".+	c #9B8775",
"++	c #262B29",
"@+	c #0A1E29",
"#+	c #2E4D56",
"$+	c #7C7666",
"%+	c #29505C",
"&+	c #113D55",
"*+	c #134159",
"=+	c #15465E",
"-+	c #13445C",
";+	c #114057",
">+	c #2B4D5F",
",+	c #2A3436",
"'+	c #08141B",
")+	c #253F49",
"!+	c #153D50",
"~+	c #11394F",
"{+	c #10354C",
"]+	c #113850",
"^+	c #143E54",
"/+	c #103245",
"(+	c #091820",
"_+	c #020404",
":+	c #1B2830",
"<+	c #0F2935",
"[+	c #132F3D",
"}+	c #142F3D",
"|+	c #0E2632",
"1+	c #09171E",
"2+	c #020405",
". . . . + @ # $ % & * = . . . . ",
". . . - ; > , ' ) ! ~ { ] . . . ",
". . ^ / ( _ : < [ } | 1 2 3 . . ",
". 4 5 6 7 8 9 0 a b c d e f g . ",
"h i j k l m n o p q r s t u v w ",
"x y z A B C D E F G H I J K L M ",
"N O P Q R S T U V W X Y Z `  ...",
"+.@.#.$.%.&.*.=.-.;.>.,.'.).!.~.",
"{.].^./.(._.:.<.[.}.|.1.2.3.4.5.",
"6.7.8.9.0.a.b.c.d.e.<.f.g.h.i.j.",
"k.l.m.n.o.p.q.r.s.t.u.v.w.x.y.z.",
"A.B.C.D.E.F.G.H.I.J.K.L.M.N.O.P.",
". Q.R.S.T.U.V.W.X.Y.Z.`. +.+++. ",
". . @+#+$+%+&+*+C.=+-+;+>+,+. . ",
". . . '+)+!+~+{+]+^+~+/+(+. . . ",
". . . . _+:+<+[+}+|+1+2+. . . . "};
