/* XPM */
static char * Optimize_16_xpm[] = {
"16 16 57 1",
" 	c None",
".	c #2280DE",
"+	c #539CE5",
"@	c #1A7CDD",
"#	c #3A8EE2",
"$	c #4795E3",
"%	c #207EDE",
"&	c #509BE5",
"*	c #3088E0",
"=	c #1478DC",
"-	c #1D7DDD",
";	c #BEDAF5",
">	c #1679DC",
",	c #67A8E8",
"'	c #1C7DDD",
")	c #F2F7FD",
"!	c #D3E5F8",
"~	c #197BDD",
"{	c #549CE6",
"]	c #187ADD",
"^	c #2D86E0",
"/	c #F8DA73",
"(	c #F8D768",
"_	c #2381DE",
":	c #4996E4",
"<	c #4291DB",
"[	c #FBE8A5",
"}	c #F8D766",
"|	c #F8D259",
"1	c #FAE08C",
"2	c #7CADD3",
"3	c #FBE8A1",
"4	c #F9D86A",
"5	c #FAE08B",
"6	c #F9DD82",
"7	c #F7CE51",
"8	c #F4C332",
"9	c #F8D477",
"0	c #FAE087",
"a	c #F8DA74",
"b	c #F9DD83",
"c	c #F6D054",
"d	c #F7D061",
"e	c #4291DD",
"f	c #F7D04C",
"g	c #F9DE83",
"h	c #F9D97A",
"i	c #F4C12C",
"j	c #1D7DDC",
"k	c #7CAED4",
"l	c #F7CF4D",
"m	c #F5C730",
"n	c #F4C32A",
"o	c #F4C333",
"p	c #7BABCF",
"q	c #FAE191",
"r	c #F9D987",
"                ",
"                ",
" .+             ",
"@#$%            ",
"   &*           ",
"   =-          =",
"    =.        ==",
"    ==       ;>,",
"     =')    !~{ ",
"     =]^ /( _:  ",
"      =<[}|12=  ",
"      34/56789  ",
"       0a1bcd   ",
"       efghij   ",
"       klmnop   ",
"        q==r    "};
