/* XPM */
static const char * optimize_xpm[] = {
"16 16 74 1",
" 	c #FFFFFF",
".	c #C6DFF7",
"+	c #2381DE",
"@	c #549CE5",
"#	c #1B7DDD",
"$	c #3B8EE2",
"%	c #4895E3",
"&	c #217FDE",
"*	c #F9FCFF",
"=	c #F5FAFE",
"-	c #DDECFB",
";	c #519BE5",
">	c #3188E0",
",	c #FBFDFF",
"'	c #60A4E8",
")	c #1E7EDD",
"!	c #CDE2F8",
"~	c #4494E3",
"{	c #E6F1FC",
"]	c #197BDD",
"^	c #EFF6FD",
"/	c #72AEEA",
"(	c #63A6E8",
"_	c #79B2EB",
":	c #187ADD",
"<	c #BFDAF6",
"[	c #BEDAF5",
"}	c #177ADC",
"|	c #68A8E8",
"1	c #1A7BDD",
"2	c #1D7EDD",
"3	c #FAFCFF",
"4	c #D3E5F8",
"5	c #1A7CDD",
"6	c #559CE6",
"7	c #8CBDEE",
"8	c #F8DA74",
"9	c #F8D769",
"0	c #2481DE",
"a	c #4A96E4",
"b	c #B2D3F4",
"c	c #4391DB",
"d	c #FBE8A5",
"e	c #F8D767",
"f	c #F8D25A",
"g	c #FAE08C",
"h	c #7DADD3",
"i	c #2F87E0",
"j	c #FBE8A1",
"k	c #F9D86B",
"l	c #FAE08B",
"m	c #F9DD82",
"n	c #F7CE52",
"o	c #F4C333",
"p	c #F8D478",
"q	c #FAE087",
"r	c #F8DA75",
"s	c #F9DD83",
"t	c #F6D055",
"u	c #F7D062",
"v	c #4391DD",
"w	c #F7D04D",
"x	c #F9DE83",
"y	c #F9D97B",
"z	c #F4C12D",
"A	c #1E7EDC",
"B	c #7DAED4",
"C	c #F7CF4E",
"D	c #F5C731",
"E	c #F4C32B",
"F	c #F4C334",
"G	c #7CABCF",
"H	c #FAE191",
"I	c #F9D987",
"                ",
".+@             ",
"#$%&            ",
"*=-;>           ",
",= ')!        =~",
"   {]+^       /(",
"    _:<      [}|",
"    {123    456 ",
"     /]7 89 0ab ",
"     {1cdefghi  ",
"      jk8lmnop  ",
"      {qrgstu   ",
"       vwxyzA   ",
"       BCDEFG   ",
"        H~]I    ",
"                "};
