/* XPM */
static const char * paste_xpm[] = {
"16 16 153 2",
"  	c None",
". 	c #D3A051",
"+ 	c #DBAC59",
"@ 	c #DAAA58",
"# 	c #D5A353",
"$ 	c #B87A34",
"% 	c #F4D476",
"& 	c #FFEA87",
"* 	c #FFE684",
"= 	c #FFE986",
"- 	c #F8D97A",
"; 	c #BB7D37",
"> 	c #D5A352",
", 	c #FAD87A",
"' 	c #F6D478",
") 	c #FEDE80",
"! 	c #FFE081",
"~ 	c #FFDF81",
"{ 	c #F7D478",
"] 	c #DAAC5A",
"^ 	c #FFE57D",
"/ 	c #FDD664",
"( 	c #FBD463",
"_ 	c #FFD85E",
": 	c #FFD85D",
"< 	c #FFDA5D",
"[ 	c #FFE770",
"} 	c #DDAE55",
"| 	c #FFE47F",
"1 	c #FDD96E",
"2 	c #FDD96F",
"3 	c #FED96F",
"4 	c #FDD970",
"5 	c #BBBA8C",
"6 	c #AFB494",
"7 	c #B3B693",
"8 	c #B9BB98",
"9 	c #8B9588",
"0 	c #DAAA59",
"a 	c #FFE27A",
"b 	c #FBD564",
"c 	c #FDD663",
"d 	c #EECD64",
"e 	c #7EA6C7",
"f 	c #A9CEF5",
"g 	c #A0C7EF",
"h 	c #A0C8EF",
"i 	c #A9CDF1",
"j 	c #A2C7EB",
"k 	c #1B7CC6",
"l 	c #FFE37C",
"m 	c #FCD768",
"n 	c #FCD769",
"o 	c #FED868",
"p 	c #EDCD68",
"q 	c #96B4C9",
"r 	c #D9EDFE",
"s 	c #CDE5F7",
"t 	c #CDE6F7",
"u 	c #D7EBFA",
"v 	c #D2E2F1",
"w 	c #BBCBDE",
"x 	c #5397C9",
"y 	c #FDD971",
"z 	c #FFDA70",
"A 	c #EECF70",
"B 	c #95B4CA",
"C 	c #D8ECFD",
"D 	c #CCE6F6",
"E 	c #D6EBF9",
"F 	c #CBDEEF",
"G 	c #D8DDE4",
"H 	c #F4EEEB",
"I 	c #5D9CCB",
"J 	c #ECCB63",
"K 	c #96B4C8",
"L 	c #DAEEFD",
"M 	c #CCE5F6",
"N 	c #D7ECF9",
"O 	c #D1E1F1",
"P 	c #88AED4",
"Q 	c #9BBBD9",
"R 	c #96B6D7",
"S 	c #3284C3",
"T 	c #FFE480",
"U 	c #FDDA72",
"V 	c #FDDA73",
"W 	c #FFDB72",
"X 	c #EED072",
"Y 	c #D3E9FB",
"Z 	c #C6E0F4",
"` 	c #C7E1F4",
" .	c #C8E2F4",
"..	c #D6E8F7",
"+.	c #C7DEF3",
"@.	c #C4DCF2",
"#.	c #D1E4F5",
"$.	c #9FC4E4",
"%.	c #FFDA6F",
"&.	c #EECF6F",
"*.	c #DFEFFE",
"=.	c #D4E8F7",
"-.	c #D5E8F7",
";.	c #D3E7F7",
">.	c #D5E9F7",
",.	c #DFEFFA",
"'.	c #A5C9E7",
").	c #FBD666",
"!.	c #FBD667",
"~.	c #FDD766",
"{.	c #ECCD66",
"].	c #95B3C8",
"^.	c #D3E9FC",
"/.	c #C6E0F5",
"(.	c #C7E1F5",
"_.	c #D1E7F8",
":.	c #9FC5E5",
"<.	c #FFE37D",
"[.	c #FCD86A",
"}.	c #FCD86B",
"|.	c #FED96A",
"1.	c #EDCE6A",
"2.	c #E2F0FE",
"3.	c #D7EAF8",
"4.	c #D8EAF8",
"5.	c #E2F0FB",
"6.	c #A5C9E6",
"7.	c #DAAC59",
"8.	c #FFE17D",
"9.	c #FFE27C",
"0.	c #F0D77B",
"a.	c #97B5CB",
"b.	c #E9F4FF",
"c.	c #E0EFF9",
"d.	c #E1EFF9",
"e.	c #ECF6FC",
"f.	c #A9CAE7",
"g.	c #C0853C",
"h.	c #CC974A",
"i.	c #CB9549",
"j.	c #CD9547",
"k.	c #C28D44",
"l.	c #8EABC4",
"m.	c #D8EEFE",
"n.	c #C9E4F6",
"o.	c #CAE5F6",
"p.	c #D4EBF9",
"q.	c #A4C9E7",
"r.	c #4D94CE",
"s.	c #B9D4EC",
"t.	c #B1CFE9",
"u.	c #B9D4EB",
"v.	c #7EB1DA",
"      . + @ @ + #               ",
"    $ % & * * = - ;             ",
"> , ' ) ! ! ! ! ~ { , >         ",
"] ^ / ( ( ( _ : : < [ }         ",
"@ | 1 2 3 4 5 6 7 7 8 9         ",
"0 a ( b c d e f g h i j k       ",
"0 l m n o p q r s t u v w x     ",
"@ | 4 y z A B C D D E F G H I   ",
"0 a ( b c J K L M D N O P Q R S ",
"@ T U V W X B Y Z `  ...+.@.#.$.",
"@ | 2 4 %.&.q *.=.-.-.;.>.>.,.'.",
"0 l ).!.~.{.].^./.(.(.(.(.(._.:.",
"0 <.[.}.|.1.q 2.3.4.4.4.4.4.5.6.",
"7.= 8.8.9.0.a.b.c.d.d.d.d.d.e.f.",
"g.h.i.i.j.k.l.m.n.o.o.o.o.o.p.q.",
"            r.s.t.t.t.t.t.t.u.v."};
