/* XPM */
static const char * PauseMission_xpm[] = {
"16 16 45 1",
" 	c None",
".	c #5D97DE",
"+	c #286FCB",
"@	c #3978CE",
"#	c #71AAEE",
"$	c #91C3FB",
"%	c #4885D7",
"&	c #4584D7",
"*	c #92C0F8",
"=	c #8ABCF8",
"-	c #4281D6",
";	c #83B4F5",
">	c #7EB2F6",
",	c #3E7ED5",
"'	c #76AAF1",
")	c #72A9F3",
"!	c #3E7ED6",
"~	c #397AD4",
"{	c #609AEA",
"]	c #5F9CEC",
"^	c #3D7CD4",
"/	c #2970CC",
"(	c #2676CE",
"_	c #2C7BD4",
":	c #3379C1",
"<	c #2777D2",
"[	c #2C7CD7",
"}	c #2970CD",
"|	c #435FB2",
"1	c #277BD8",
"2	c #2C7FDC",
"3	c #2971CE",
"4	c #2A78C3",
"5	c #277FDF",
"6	c #2C83E2",
"7	c #2A72D0",
"8	c #2973D1",
"9	c #2883E5",
"0	c #3088E9",
"a	c #2873D0",
"b	c #2267C5",
"c	c #3485E5",
"d	c #2877D6",
"e	c #266CCA",
"f	c #276ECB",
"                ",
"    .+    .+    ",
"   @#$%  @#$%   ",
"   &*=&  &*=&   ",
"   -;>-  -;>-   ",
"   ,')!  ,')!   ",
"   ~{]^  ~{]^   ",
"   /(_/  /(_/   ",
"   /(_/  /(_/   ",
"   :<[}  :<[}   ",
"   |123  |123   ",
"   4567  4567   ",
"   890a  890a   ",
"   bccd  bccd   ",
"    ef    ef    ",
"                "};
