/* XPM */
static char * pause_xpm[] = {
"16 16 8 1",
" 	c None",
".	c #BDC3D6",
"+	c #8496CE",
"@	c #A5B2DE",
"#	c #ADBADE",
"$	c #4259AD",
"%	c #8C9ED6",
"&	c #7B92D6",
"                ",
"                ",
"                ",
"    .+@  .+@    ",
"    #$%  #$%    ",
"    #$%  #$%    ",
"    #$%  #$%    ",
"    #$%  #$%    ",
"    #$%  #$%    ",
"    #$%  #$%    ",
"    #$%  #$%    ",
"    #$%  #$%    ",
"    .&@  .&@    ",
"                ",
"                ",
"                "};
