/* XPM */
static const char * PauseAnimation_xpm[] = {
"16 16 74 1",
" 	c None",
".	c #147BB3",
"+	c #1580BA",
"@	c #1581BB",
"#	c #147CB4",
"$	c #1580BB",
"%	c #1376AB",
"&	c #1885C1",
"*	c #167EB7",
"=	c #126A9B",
"-	c #1681BC",
";	c #1274AA",
">	c #1782BE",
",	c #147BB4",
"'	c #116899",
")	c #147FB9",
"!	c #1171A6",
"~	c #147FBA",
"{	c #1278B0",
"]	c #0F6696",
"^	c #137CB6",
"/	c #106EA3",
"(	c #127CB7",
"_	c #1175AD",
":	c #0E6393",
"<	c #1179B2",
"[	c #0D6BA0",
"}	c #0F78B2",
"|	c #0F78B3",
"1	c #0E72A9",
"2	c #0C608F",
"3	c #0E75AE",
"4	c #0B689B",
"5	c #0D73AE",
"6	c #0C6DA5",
"7	c #0A5D8C",
"8	c #0C71AA",
"9	c #096497",
"0	c #0A70A9",
"a	c #096AA0",
"b	c #085A88",
"c	c #0A6EA6",
"d	c #076194",
"e	c #066BA4",
"f	c #076CA5",
"g	c #07669C",
"h	c #055784",
"i	c #066CA5",
"j	c #0869A1",
"k	c #065E90",
"l	c #0567A0",
"m	c #056398",
"n	c #045381",
"o	c #05669D",
"p	c #045B8D",
"q	c #02649C",
"r	c #03649C",
"s	c #036094",
"t	c #02517E",
"u	c #04639A",
"v	c #02588A",
"w	c #006199",
"x	c #016199",
"y	c #015D91",
"z	c #014F7B",
"A	c #026096",
"B	c #014D78",
"C	c #015687",
"D	c #015789",
"E	c #015585",
"F	c #01466D",
"G	c #015788",
"H	c #015889",
"I	c #015C8F",
"                ",
"   .+@#   +$+   ",
"   %&&*  =&&-   ",
"   ;>>,  '>>)   ",
"   !~${  ]$$^   ",
"   /((_  :((<   ",
"   [}|1  2||3   ",
"   4556  7558   ",
"   900a  b00c   ",
"   defg  hfij   ",
"   kllm  nllo   ",
"   pqrs  trru   ",
"   vwxy  zxxA   ",
"   BCDE  FGHI   ",
"                ",
"                "};
