/* XPM */
static char * pause_xpm[] = {
"16 15 7 1",
" 	c None",
".	c #C8E20E",
"+	c #E8FC0B",
"@	c #FCFF0A",
"#	c #E5FB0B",
"$	c #CEEA0D",
"%	c #F3FE0A",
"                ",
"                ",
"                ",
"                ",
"      .+@+.     ",
"     #@@@@@#    ",
"    $@@@@@@@$   ",
"    %@@@@@@@%   ",
"    %@@@@@@@%   ",
"    $@@@@@@@$   ",
"     #@@@@@#    ",
"      .+@+.     ",
"                ",
"                ",
"                "};
