/* XPM */
static char * pendown_xpm[] = {
"16 16 101 2",
"  	c None",
". 	c #FFFFFF",
"+ 	c #1577DD",
"@ 	c #235AFF",
"# 	c #316DD9",
"$ 	c #1A76DB",
"% 	c #F4E7CC",
"& 	c #DCB26C",
"* 	c #CAA76B",
"= 	c #CB9C60",
"- 	c #FCF7ED",
"; 	c #1478DC",
"> 	c #9EC7F1",
", 	c #F6DEC3",
"' 	c #DFB179",
") 	c #EDD2B2",
"! 	c #EECC9C",
"~ 	c #CD9F4D",
"{ 	c #DCB888",
"] 	c #82B7EC",
"^ 	c #F4E5B1",
"/ 	c #EECF74",
"( 	c #F2D7B7",
"_ 	c #F8E2CB",
": 	c #E7C395",
"< 	c #CC9758",
"[ 	c #499BB4",
"} 	c #2785BC",
"| 	c #1879CE",
"1 	c #84AEC5",
"2 	c #EFD682",
"3 	c #F3DD9D",
"4 	c #F0D19B",
"5 	c #EBC295",
"6 	c #F5D5B2",
"7 	c #CE9750",
"8 	c #3186AF",
"9 	c #3A8EE2",
"0 	c #5CA1E7",
"a 	c #1478DB",
"b 	c #F5E6A4",
"c 	c #F9ECA0",
"d 	c #F1D279",
"e 	c #E6BC70",
"f 	c #E3B683",
"g 	c #DCB281",
"h 	c #ECD7C0",
"i 	c #1B75DC",
"j 	c #1D7CCB",
"k 	c #1B7BCE",
"l 	c #1578DB",
"m 	c #F4DB6D",
"n 	c #F5DA64",
"o 	c #DBA659",
"p 	c #DDA465",
"q 	c #EAD4BB",
"r 	c #1578DA",
"s 	c #F5DD6F",
"t 	c #F5DC5A",
"u 	c #F6DF6B",
"v 	c #EAC268",
"w 	c #E3AC62",
"x 	c #EFD1AF",
"y 	c #EACF7B",
"z 	c #E8CCAC",
"A 	c #E8D8B7",
"B 	c #D5B66E",
"C 	c #EFDFA5",
"D 	c #FAF8F6",
"E 	c #EDDABD",
"F 	c #C9A55E",
"G 	c #DEC893",
"H 	c #F4E69B",
"I 	c #DACBB1",
"J 	c #C8A154",
"K 	c #E2CAAE",
"L 	c #DFBF55",
"M 	c #ECCF50",
"N 	c #EED66B",
"O 	c #E5BD65",
"P 	c #E0A95F",
"Q 	c #936D1E",
"R 	c #F6DCBD",
"S 	c #C9924F",
"T 	c #C18C2E",
"U 	c #CDA64D",
"V 	c #8B671C",
"W 	c #EEB474",
"X 	c #E9A152",
"Y 	c #CB7827",
"Z 	c #B26519",
"` 	c #B67935",
" .	c #584012",
"..	c #C59154",
"+.	c #E9C9A0",
"@.	c #BB833E",
"#.	c #E4CEB4",
"$.	c #946423",
"%.	c #AF732A",
"&.	c #C9A166",
"*.	c #F0E6D5",
"                                ",
". . + @ # $ . . . . % & * = & - ",
". . ; > > ; . . . , & ' ) ! ~ { ",
". . ; ] ] ; . . ^ / ! ( _ , : < ",
"[ } ; ] ] ; | 1 2 3 4 5 6 6 6 7 ",
". 8 ; 9 0 ; a 2 b c d e ' f g h ",
". . i j k l 2 b c m n / o p q . ",
". . . a r 2 b c s t u v w x . . ",
". . . ) y b c u t m v w z . . . ",
". . A B C c u t u v w z . . . . ",
"D E F G H u t u v w z . . . . . ",
"I J K * L M N O P z . . . . . . ",
"Q E R S T U ~ 7 z . . . . . . . ",
"V ) W X Y Z ` K . . . . . . . . ",
" ...5 +.= @.#.. . . . . . . . . ",
" . .$.%.&.*.. . . . . . . . . . "};
