/* XPM */
static const char * pendown_xpm[] = {
"16 16 100 2",
"  	c #FFFFFF",
". 	c #1678DD",
"+ 	c #245BFF",
"@ 	c #326ED9",
"# 	c #1B77DB",
"$ 	c #F4E7CC",
"% 	c #DCB26D",
"& 	c #CAA76C",
"* 	c #CB9C61",
"= 	c #FCF7ED",
"- 	c #1579DC",
"; 	c #9EC7F1",
"> 	c #F6DEC3",
", 	c #DFB17A",
"' 	c #EDD2B2",
") 	c #EECC9C",
"! 	c #CD9F4E",
"~ 	c #DCB888",
"{ 	c #82B7EC",
"] 	c #F4E5B1",
"^ 	c #EECF75",
"/ 	c #F2D7B7",
"( 	c #F8E2CB",
"_ 	c #E7C395",
": 	c #CC9759",
"< 	c #4A9BB4",
"[ 	c #2885BC",
"} 	c #197ACE",
"| 	c #84AEC5",
"1 	c #EFD682",
"2 	c #F3DD9D",
"3 	c #F0D19B",
"4 	c #EBC295",
"5 	c #F5D5B2",
"6 	c #CE9751",
"7 	c #3286AF",
"8 	c #3B8EE2",
"9 	c #5DA1E7",
"0 	c #1579DB",
"a 	c #F5E6A4",
"b 	c #F9ECA0",
"c 	c #F1D27A",
"d 	c #E6BC71",
"e 	c #E3B683",
"f 	c #DCB281",
"g 	c #ECD7C0",
"h 	c #1C76DC",
"i 	c #1E7DCB",
"j 	c #1C7CCE",
"k 	c #1679DB",
"l 	c #F4DB6E",
"m 	c #F5DA65",
"n 	c #DBA65A",
"o 	c #DDA466",
"p 	c #EAD4BB",
"q 	c #1679DA",
"r 	c #F5DD70",
"s 	c #F5DC5B",
"t 	c #F6DF6C",
"u 	c #EAC269",
"v 	c #E3AC63",
"w 	c #EFD1AF",
"x 	c #EACF7C",
"y 	c #E8CCAC",
"z 	c #E8D8B7",
"A 	c #D5B66F",
"B 	c #EFDFA5",
"C 	c #FAF8F6",
"D 	c #EDDABD",
"E 	c #C9A55F",
"F 	c #DEC893",
"G 	c #F4E69B",
"H 	c #DACBB1",
"I 	c #C8A155",
"J 	c #E2CAAE",
"K 	c #DFBF56",
"L 	c #ECCF51",
"M 	c #EED66C",
"N 	c #E5BD66",
"O 	c #E0A960",
"P 	c #936E1F",
"Q 	c #F6DCBD",
"R 	c #C99250",
"S 	c #C18C2F",
"T 	c #CDA64E",
"U 	c #8B681D",
"V 	c #EEB475",
"W 	c #E9A153",
"X 	c #CB7928",
"Y 	c #B2661A",
"Z 	c #B67A36",
"` 	c #594113",
" .	c #C59155",
"..	c #E9C9A0",
"+.	c #BB833F",
"@.	c #E4CEB4",
"#.	c #946524",
"$.	c #AF742B",
"%.	c #C9A167",
"&.	c #F0E6D5",
"                                ",
"    . + @ #         $ % & * % = ",
"    - ; ; -       > % , ' ) ! ~ ",
"    - { { -     ] ^ ) / ( > _ : ",
"< [ - { { - } | 1 2 3 4 5 5 5 6 ",
"  7 - 8 9 - 0 1 a b c d , e f g ",
"    h i j k 1 a b l m ^ n o p   ",
"      0 q 1 a b r s t u v w     ",
"      ' x a b t s l u v y       ",
"    z A B b t s t u v y         ",
"C D E F G t s t u v y           ",
"H I J & K L M N O y             ",
"P D Q R S T ! 6 y               ",
"U ' V W X Y Z J                 ",
"`  .4 ..* +.@.                  ",
"` ` #.$.%.&.                    "};
