/* XPM */
static char * PenUp_xpm[] = {
"16 16 102 2",
"  	c None",
". 	c #1478DB",
"+ 	c #1578DA",
"@ 	c #FFFFFF",
"# 	c #1B75DC",
"$ 	c #1D7CCB",
"% 	c #1B7BCE",
"& 	c #1578DB",
"* 	c #F4E7CC",
"= 	c #DCB26C",
"- 	c #CAA76B",
"; 	c #CB9C60",
"> 	c #FCF7ED",
", 	c #3186AF",
"' 	c #1478DC",
") 	c #3A8EE2",
"! 	c #5CA1E7",
"~ 	c #F6DEC3",
"{ 	c #DFB179",
"] 	c #EDD2B2",
"^ 	c #EECC9C",
"/ 	c #CD9F4D",
"( 	c #DCB888",
"_ 	c #499BB4",
": 	c #2785BC",
"< 	c #82B7EC",
"[ 	c #1879CE",
"} 	c #89BBED",
"| 	c #F4E5B1",
"1 	c #EECF74",
"2 	c #F2D7B7",
"3 	c #F8E2CB",
"4 	c #E7C395",
"5 	c #CC9758",
"6 	c #F4E4AD",
"7 	c #EFD682",
"8 	c #F3DD9D",
"9 	c #F0D19B",
"0 	c #EBC295",
"a 	c #F5D5B2",
"b 	c #CE9750",
"c 	c #9EC7F1",
"d 	c #F5E6A4",
"e 	c #F9ECA0",
"f 	c #F1D279",
"g 	c #E6BC70",
"h 	c #E3B683",
"i 	c #DCB281",
"j 	c #ECD7C0",
"k 	c #1577DD",
"l 	c #235AFF",
"m 	c #316DD9",
"n 	c #1A76DB",
"o 	c #F4DB6D",
"p 	c #F5DA64",
"q 	c #DBA659",
"r 	c #DDA465",
"s 	c #EAD4BB",
"t 	c #F5DD6F",
"u 	c #F5DC5A",
"v 	c #F6DF6B",
"w 	c #EAC268",
"x 	c #E3AC62",
"y 	c #EFD1AF",
"z 	c #EACF7B",
"A 	c #E8CCAC",
"B 	c #E8D8B7",
"C 	c #D5B66E",
"D 	c #EFDFA5",
"E 	c #FAF8F6",
"F 	c #EDDABD",
"G 	c #C9A55E",
"H 	c #DEC893",
"I 	c #F4E69B",
"J 	c #DACBB1",
"K 	c #C8A154",
"L 	c #E2CAAE",
"M 	c #DFBF55",
"N 	c #ECCF50",
"O 	c #EED66B",
"P 	c #E5BD65",
"Q 	c #E0A95F",
"R 	c #936D1E",
"S 	c #F6DCBD",
"T 	c #C9924F",
"U 	c #C18C2E",
"V 	c #CDA64D",
"W 	c #8B671C",
"X 	c #EEB474",
"Y 	c #E9A152",
"Z 	c #CB7827",
"` 	c #B26519",
" .	c #B67935",
"..	c #584012",
"+.	c #C59154",
"@.	c #E9C9A0",
"#.	c #BB833E",
"$.	c #E4CEB4",
"%.	c #946423",
"&.	c #AF732A",
"*.	c #C9A166",
"=.	c #F0E6D5",
"      . +                       ",
"@ @ # $ % & @ @ @ @ * = - ; = > ",
"@ , ' ) ! ' . @ @ ~ = { ] ^ / ( ",
"_ : ' < < ' [ } | 1 ^ 2 3 ~ 4 5 ",
"@ @ ' < < ' @ 6 7 8 9 0 a a a b ",
"@ @ ' c c ' 6 7 d e f g { h i j ",
"@ @ k l m n 7 d e o p 1 q r s @ ",
"@ @ @ @ | 7 d e t u v w x y @ @ ",
"@ @ @ ] z d e v u o w x A @ @ @ ",
"@ @ B C D e v u v w x A @ @ @ @ ",
"E F G H I v u v w x A @ @ @ @ @ ",
"J K L - M N O P Q A @ @ @ @ @ @ ",
"R F S T U V / b A @ @ @ @ @ @ @ ",
"W ] X Y Z `  .L @ @ @ @ @ @ @ @ ",
"..+.0 @.; #.$.@ @ @ @ @ @ @ @ @ ",
"....%.&.*.=.@ @ @ @ @ @ @ @ @ @ "};
