/* XPM */
static const char * penup_xpm[] = {
"16 16 101 2",
"  	c #FFFFFF",
". 	c #1579DB",
"+ 	c #1679DA",
"@ 	c #1C76DC",
"# 	c #1E7DCB",
"$ 	c #1C7CCE",
"% 	c #1679DB",
"& 	c #F4E7CC",
"* 	c #DCB26D",
"= 	c #CAA76C",
"- 	c #CB9C61",
"; 	c #FCF7ED",
"> 	c #3286AF",
", 	c #1579DC",
"' 	c #3B8EE2",
") 	c #5DA1E7",
"! 	c #F6DEC3",
"~ 	c #DFB17A",
"{ 	c #EDD2B2",
"] 	c #EECC9C",
"^ 	c #CD9F4E",
"/ 	c #DCB888",
"( 	c #4A9BB4",
"_ 	c #2885BC",
": 	c #82B7EC",
"< 	c #197ACE",
"[ 	c #89BBED",
"} 	c #F4E5B1",
"| 	c #EECF75",
"1 	c #F2D7B7",
"2 	c #F8E2CB",
"3 	c #E7C395",
"4 	c #CC9759",
"5 	c #F4E4AD",
"6 	c #EFD682",
"7 	c #F3DD9D",
"8 	c #F0D19B",
"9 	c #EBC295",
"0 	c #F5D5B2",
"a 	c #CE9751",
"b 	c #9EC7F1",
"c 	c #F5E6A4",
"d 	c #F9ECA0",
"e 	c #F1D27A",
"f 	c #E6BC71",
"g 	c #E3B683",
"h 	c #DCB281",
"i 	c #ECD7C0",
"j 	c #1678DD",
"k 	c #245BFF",
"l 	c #326ED9",
"m 	c #1B77DB",
"n 	c #F4DB6E",
"o 	c #F5DA65",
"p 	c #DBA65A",
"q 	c #DDA466",
"r 	c #EAD4BB",
"s 	c #F5DD70",
"t 	c #F5DC5B",
"u 	c #F6DF6C",
"v 	c #EAC269",
"w 	c #E3AC63",
"x 	c #EFD1AF",
"y 	c #EACF7C",
"z 	c #E8CCAC",
"A 	c #E8D8B7",
"B 	c #D5B66F",
"C 	c #EFDFA5",
"D 	c #FAF8F6",
"E 	c #EDDABD",
"F 	c #C9A55F",
"G 	c #DEC893",
"H 	c #F4E69B",
"I 	c #DACBB1",
"J 	c #C8A155",
"K 	c #E2CAAE",
"L 	c #DFBF56",
"M 	c #ECCF51",
"N 	c #EED66C",
"O 	c #E5BD66",
"P 	c #E0A960",
"Q 	c #936E1F",
"R 	c #F6DCBD",
"S 	c #C99250",
"T 	c #C18C2F",
"U 	c #CDA64E",
"V 	c #8B681D",
"W 	c #EEB475",
"X 	c #E9A153",
"Y 	c #CB7928",
"Z 	c #B2661A",
"` 	c #B67A36",
" .	c #594113",
"..	c #C59155",
"+.	c #E9C9A0",
"@.	c #BB833F",
"#.	c #E4CEB4",
"$.	c #946524",
"%.	c #AF742B",
"&.	c #C9A167",
"*.	c #F0E6D5",
"      . +                       ",
"    @ # $ %         & * = - * ; ",
"  > , ' ) , .     ! * ~ { ] ^ / ",
"( _ , : : , < [ } | ] 1 2 ! 3 4 ",
"    , : : ,   5 6 7 8 9 0 0 0 a ",
"    , b b , 5 6 c d e f ~ g h i ",
"    j k l m 6 c d n o | p q r   ",
"        } 6 c d s t u v w x     ",
"      { y c d u t n v w z       ",
"    A B C d u t u v w z         ",
"D E F G H u t u v w z           ",
"I J K = L M N O P z             ",
"Q E R S T U ^ a z               ",
"V { W X Y Z ` K                 ",
" ...9 +.- @.#.                  ",
" . .$.%.&.*.                    "};
