/* XPM */
static const char *planet_generic_xpm[] = {
/* width height ncolors chars_per_pixel */
"32 32 25 1",
/* colors */
"A s bg c None",
"B c #000000001010",
"C c #000000005454",
"D c #000000004444",
"E c #000000003232",
"F c #00006666CCCC",
"G c #000065659898",
"H c #000032329898",
"I c #000033336666",
"J c #000032323232",
"K c #00003333CCCC",
"L c #000066666666",
"M c #000000008888",
"N c #000000002222",
"O c #000000007676",
"P c #33336666FFFF",
"Q c #32326565CBCB",
"R c #66669999CCCC",
"S c #98989898CBCB",
"T c #000000006666",
"U c #00003232FDFD",
"V c #00000000AAAA",
"W c #000000009898",
"X c #000000000000",
"Y c #000000000000",
/* pixels */
"AAAAAAAAAAAAAAAAAAAAAAAAAAAAAAAA",
"AAAAAAAAAAAAAAAAAAAAAAAAAAAAAAAA",
"AAAAAAAAAAAAAAAAAAAAAAAAAAAAAAAA",
"AAAAAAAAAAAAAYYDYEEAAAAAAAAAAAAA",
"AAAAAAAAAAAYYIJDJJEBBAAAAAAAAAAA",
"AAAAAAAAAYFKLMILDDENBYYAAAAAAAAA",
"AAAAAAAYYFKFKHHIILENBBBYAAAAAAAA",
"AAAAAAYYFKHKLKHHLILFFBBBYAAAAAAA",
"AAAAAYYHHLLLHHLOOLLLFNXBBYAAAAAA",
"AAAAYYHHKLKLHLLHLOCLFFBXBYAAAAAA",
"AAAAYYKQRRSLLPLPMIFFFLBXBYAAAAAA",
"AAAAYHHKUPLKHLMMOOCFLBBBBYBAAAAA",
"AAAYYHHHHHHLLLHIOITDLLBBXYNAAAAA",
"AAAYKKKKKKHHLLHLHMIFLFBBBYBNAAAA",
"AAAYKHKKGKKLKHLVLHOFFFLBXYBBAAAA",
"AAAYHKKHKKHKHLHKHLHLFLLBBYYNAAAA",
"AAAYKHHKKKKFKKLHVLTCLFFBBYYNAAAA",
"AAAYHKHKKKUKUKKLHLTDLLBFXYBBAAAA",
"AAAAYHHMHHHHWHMHMLJLFFLXBYBNAAAA",
"AAAAYMMHMHMHMMHMLTLLLFFBXYNAAAAA",
"AAAAYYTTTTTTTOLLCDLLBLXBBYYAAAAA",
"AAAAAYICCPSPMPOTCFENLFFBYYAAAAAA",
"AAAAAYTTTTTOTLCDLFFFBBXBYBAAAAAA",
"AAAAAAYYOOOTCCDFFFNLFBBBNAAAAAAA",
"AAAAAAAYMMOTTCDDNFNNBNBYAAAAAAAA",
"AAAAAAAAYYOICDDDENNNNNAAAAAAAAAA",
"AAAAAAAAAAYCCDDEEEENAAAAAAAAAAAA",
"AAAAAAAAAAAAYYYYYYAAAAAAAAAAAAAA",
"AAAAAAAAAAAAAAAAAAAAAAAAAAAAAAAA",
"AAAAAAAAAAAAAAAAAAAAAAAAAAAAAAAA",
"AAAAAAAAAAAAAAAAAAAAAAAAAAAAAAAA",
"AAAAAAAAAAAAAAAAAAAAAAAAAAAAAAAA"};
