/* XPM */
static char * play_xpm[] = {
"16 16 3 1",
" 	c None",
".      c #00B75B",
"*	c #008040",
"                ",
"                ",
"                ",
"    **          ",
"    *..*        ",
"    *....*      ",
"    *.....*     ",
"    *.......*   ",
"    *.......*   ",
"    *......*    ",
"    *....*      ",
"    *..*        ",
"    **          ",
"                ",
"                ",
"                "};
