/* XPM */
static char * play_xpm[] = {
"16 16 30 1",
" 	c None",
".	c #BDC3D6",
"+	c #BDC3DE",
"@	c #ADBADE",
"#	c #5265B5",
"$	c #8496CE",
"%	c #C6C7D6",
"&	c #4259AD",
"*	c #39519C",
"=	c #4A61A5",
"-	c #94A2CE",
";	c #CECFD6",
">	c #31498C",
",	c #31417B",
"'	c #52659C",
")	c #A5AED6",
"!	c #29386B",
"~	c #293463",
"{	c #5A699C",
"]	c #21305A",
"^	c #4A5994",
"/	c #9CA6CE",
"(	c #D6D3CE",
"_	c #42559C",
":	c #C6CBD6",
"<	c #4A61AD",
"[	c #6B82C6",
"}	c #ADB6DE",
"|	c #848284",
"1	c #636563",
"                ",
"                ",
"                ",
"    .+          ",
"    @#$%        ",
"    @&*=-;      ",
"    @&*>,')     ",
"    @&*>,!~{.   ",
"    @&*>,!]{.   ",
"    @&*>,^/(    ",
"    @&*_$:      ",
"    @<[+        ",
"    .}          ",
"                ",
"                ",
"|1              "};
