/* XPM */
static const char * pluto_xpm[] = {
"32 32 13 1",
" 	c None",
".	c #000000",
"+	c #999999",
"@	c #777777",
"#	c #666666",
"$	c #555555",
"%	c #888888",
"&	c #333333",
"*	c #444444",
"=	c #222222",
"-	c #111111",
";	c #AAAAAA",
">	c #BBBBBB",
"                                ",
"                                ",
"                                ",
"                                ",
"                                ",
"                                ",
"                                ",
"                                ",
"                                ",
"             .....              ",
"           ..+@##$..            ",
"          .%%@&*$$.&.           ",
"          .&$&&&*===.           ",
"         .***$$$***-=.          ",
"         .+;;$;>@@*=-.          ",
"         .+;>++*$&=.-.          ",
"         .#=##&=--.--.          ",
"         .$**===..-...          ",
"          .*=&====-..           ",
"          .***==---=.           ",
"           ..=----..            ",
"             .....              ",
"                                ",
"                                ",
"                                ",
"                                ",
"                                ",
"                                ",
"                                ",
"                                ",
"                                ",
"                                "};
