/* XPM */
static char * propagateevent_xpm[] = {
"16 16 58 1",
" 	c None",
".	c #257CE4",
"+	c #227AE4",
"@	c #C5D3FD",
"#	c #9DB6FE",
"$	c #ACC0FB",
"%	c #9CB5FE",
"&	c #488DEB",
"*	c #7299F9",
"=	c #C2D2FF",
"-	c #4477F6",
";	c #C5D4FF",
">	c #BDCBF0",
",	c #7C8499",
"'	c #8B9FD3",
")	c #ADB0B6",
"!	c #4A79FF",
"~	c #E1EEFA",
"{	c #92A9E9",
"]	c #1F5CA1",
"^	c #4868BD",
"/	c #767A84",
"(	c #BFD6FC",
"_	c #1478DC",
":	c #BDCAF3",
"<	c #2E56BA",
"[	c #176DCD",
"}	c #9BA5C1",
"|	c #1F5CA3",
"1	c #0D437D",
"2	c #3169A2",
"3	c #1A70D4",
"4	c #6A78A2",
"5	c #3C79B8",
"6	c #B8C1CA",
"7	c #90B0FF",
"8	c #4579F5",
"9	c #B5BCD3",
"0	c #2D82E4",
"a	c #779AFF",
"b	c #86A5FF",
"c	c #92B2FF",
"d	c #D3DBF5",
"e	c #BECCF6",
"f	c #B9C6E8",
"g	c #B5C1DD",
"h	c #B4BBCF",
"i	c #D9E3FF",
"j	c #5D86FC",
"k	c #DAE4FF",
"l	c #C2D2FE",
"m	c #2D79EC",
"n	c #C2CFF8",
"o	c #7699FC",
"p	c #EAF0FE",
"q	c #89A8FF",
"r	c #1E7CDF",
"s	c #EBF0FE",
"      .+@       ",
"     #$%&       ",
"     *=         ",
"     -;  >, ')  ",
"     !~  {] ^/  ",
"    (!       _  ",
"    =!  :<[}|12 ",
"    =!   3_4 56 ",
"    78   __9    ",
"    0a   __9    ",
"    _b   3_9    ",
"    _c  d<[9    ",
"    0=  efgh    ",
"  i jk          ",
" lmno           ",
" pqrs           "};
