/* XPM */
static char * propagateevent_xpm[] = {
"16 16 74 1",
" 	c None",
".	c #FFFFFF",
"+	c #FBFBFB",
"@	c #9D9D9D",
"#	c #AEAEAE",
"$	c #BABABA",
"%	c #858585",
"&	c #B3B3B3",
"*	c #C5C5C5",
"=	c #2D2D2D",
"-	c #FEFEFE",
";	c #FDFDFD",
">	c #242424",
",	c #EFEFEF",
"'	c #FAFAFA",
")	c #5F5F5F",
"!	c #676767",
"~	c #363636",
"{	c #909090",
"]	c #EDECED",
"^	c #101010",
"/	c #CFCFCF",
"(	c #D3D3D3",
"_	c #BFBFBF",
":	c #E3E3E3",
"<	c #C8C8C8",
"[	c #232323",
"}	c #A4A4A4",
"|	c #383838",
"1	c #A6A6A6",
"2	c #454545",
"3	c #505050",
"4	c #C2C2C2",
"5	c #545454",
"6	c #E7E7E7",
"7	c #848484",
"8	c #4C4C4C",
"9	c #727272",
"0	c #111111",
"a	c #AFAFAF",
"b	c #000000",
"c	c #A9AAA9",
"d	c #656565",
"e	c #636363",
"f	c #787878",
"g	c #D5D5D5",
"h	c #DCDCDC",
"i	c #494949",
"j	c #7E7E7E",
"k	c #343434",
"l	c #F0F0F0",
"m	c #1F1F1F",
"n	c #BEBEBE",
"o	c #DFDFDF",
"p	c #5B5B5B",
"q	c #B7B7B7",
"r	c #EAEAEA",
"s	c #0C0C0C",
"t	c #E1E1E1",
"u	c #C7C7C7",
"v	c #A0A0A0",
"w	c #A1A1A1",
"x	c #DBDBDB",
"y	c #F2F2F2",
"z	c #0E0E0E",
"A	c #FCFCFC",
"B	c #EDEDED",
"C	c #D1D1D1",
"D	c #DADADA",
"E	c #161616",
"F	c #868686",
"G	c #B9B8B9",
"H	c #B1B1B1",
"I	c #B9B9B9",
".....+@#$.......",
".....%&*=.--.;..",
".....>,.'.)!.~{.",
"....]^..../(._:.",
"....<[..........",
"....}|...1234!56",
"....78....907abc",
"....de....fbg-h-",
"....ij....fb,...",
"....k@....fbl...",
"....mn...opbqr..",
"...;st...uv}wx..",
"...yzA..........",
".B.C2...........",
"DE;FG...........",
".H#I............"};
