/* XPM */
static char * propagateevent_xpm[] = {
"48 48 50 1",
" 	c None",
".	c #FFFFFF",
"+	c #4A79FF",
"@	c #5282FF",
"#	c #638AFF",
"$	c #527DFF",
"%	c #527DF7",
"&	c #EFEFEF",
"*	c #7396FF",
"=	c #5A82F7",
"-	c #4269E7",
";	c #5A86FF",
">	c #F7F7F7",
",	c #FFFBFF",
"'	c #5279F7",
")	c #5A82FF",
"!	c #529AD6",
"~	c #3175D6",
"{	c #3171DE",
"]	c #3159BD",
"^	c #213C7B",
"/	c #101C39",
"(	c #000000",
"_	c #94CFF7",
":	c #9CD3FF",
"<	c #081831",
"[	c #081429",
"}	c #000C18",
"|	c #000810",
"1	c #3965E7",
"2	c #3961D6",
"3	c #315DC6",
"4	c #3155BD",
"5	c #2951AD",
"6	c #2949A5",
"7	c #21459C",
"8	c #21418C",
"9	c #21387B",
"0	c #10244A",
"a	c #18285A",
"b	c #183063",
"c	c #213473",
"d	c #4A7DFF",
"e	c #186DB5",
"f	c #426DEF",
"g	c #E7E7E7",
"h	c #6B92FF",
"i	c #F7F3F7",
"j	c #426DE7",
"k	c #4A79F7",
"................+@@+#...........................",
"...............$+++++%..........................",
"..............&++#*+++=.........................",
"..............%+-..++++.........................",
".............;++>..@+++.........................",
".............+++...,%').........................",
".............+++.....,..........................",
"............>+++................................",
"............!+++................................",
"............~+++................................",
"............{+++.............]^/.....]^/........",
"............+++#............+]^/(...+]^/(.......",
"............+++_............+]^/(...+]^/(.......",
"............+++>............+]^/(...+]^/(.......",
"............+++,.............]^/.....]^/........",
"...........:+++.................................",
"...........#+++.................................",
"...........++++........................<[}|.....",
"...........++++..........123456789...0/<[}|(....",
"...........++++...........23456789..a0/<[}|(....",
"...........++++............3456789.ba0/<[}|(....",
"...........++++............3456789cb...<[}|(....",
"...........++++............3456789c.....[}......",
"...........++++............3456789..............",
"..........:+++)............3456789..............",
"..........@++d ............3456789..............",
"..........++++e............3456789..............",
"..........++++ ............3456789..............",
"..........++++.............3456789..............",
"..........++++.............3456789..............",
"..........++++.............3456789..............",
"..........++++.............3456789..............",
"..........++++.............3456789..............",
"..........++++.............3456789..............",
"..........++d#............23456789..............",
"..........+++:............23456789..............",
"..........+++...........f123456789cb............",
"..........+++...................................",
".........>+++...................................",
".........g+++...................................",
".........)++h...................................",
"...@)....+++....................................",
"..@++#...+@$....................................",
".>++++..i+#&....................................",
"..++++#j-+=.....................................",
"..k++++++%......................................",
"...@@@@@+.......................................",
".....,,........................................."};
