/* XPM */
static char * propagateevent_xpm[] = {
"20 20 52 1",
" 	c None",
".	c #FFFFFF",
"+	c #BAB379",
"@	c #C6BC7E",
"#	c #AAAD52",
"$	c #0D0600",
"%	c #5F570E",
"&	c #808328",
"*	c #A8A44D",
"=	c #B2AD51",
"-	c #676A11",
";	c #6E7200",
">	c #858418",
",	c #E6E475",
"'	c #383B00",
")	c #A0A429",
"!	c #A9A83C",
"~	c #1F2000",
"{	c #E2E37D",
"]	c #111100",
"^	c #7C7A2D",
"/	c #110A00",
"(	c #564D14",
"_	c #2E2C00",
":	c #DEDD9A",
"<	c #080700",
"[	c #474304",
"}	c #120A00",
"|	c #ACA26D",
"1	c #E4E28D",
"2	c #DBDB95",
"3	c #080800",
"4	c #131000",
"5	c #7A762D",
"6	c #DEDE98",
"7	c #D5D388",
"8	c #0A0700",
"9	c #C8C469",
"0	c #090900",
"a	c #9A964D",
"b	c #110E00",
"c	c #BDBA69",
"d	c #928F3E",
"e	c #232500",
"f	c #414300",
"g	c #646515",
"h	c #7C7D20",
"i	c #797A2E",
"j	c #878634",
"k	c #6B6912",
"l	c #302F00",
"m	c #D1CF7A",
"......+@............",
".....#$%............",
".....&*=............",
".....-......;..>,...",
".....'......)..!....",
".....~........{.....",
".....].....^/(_.....",
"....:<.....[}|1.....",
"....23.....45.......",
"....63....789.......",
".....0....ab........",
".....0....cd........",
".....e..............",
".....f..............",
".....g..............",
"...hij..............",
"...klm..............",
"....................",
"....................",
"...................."};
