/* XPM */
static char * propagator_xpm[] = {
"20 20 57 1",
" 	c None",
".	c #FFFFFF",
"+	c #EFEEA6",
"@	c #6D6816",
"#	c #0E0900",
"$	c #C3BF76",
"%	c #2E2B00",
"&	c #120F00",
"*	c #E6E287",
"=	c #6F6B12",
"-	c #120E00",
";	c #C3C073",
">	c #323000",
",	c #100E00",
"'	c #E1DE7D",
")	c #E7E68A",
"!	c #EBEA96",
"~	c #C2C56C",
"{	c #A8A846",
"]	c #373500",
"^	c #0B0700",
"/	c #E6E299",
"(	c #E5E291",
"_	c #3D3C00",
":	c #0B0A00",
"<	c #C5C56B",
"[	c #737124",
"}	c #353000",
"|	c #F2EDAD",
"1	c #58540A",
"2	c #5A5906",
"3	c #0F0F00",
"4	c #E4E482",
"5	c #FCFBC4",
"6	c #353200",
"7	c #746F2F",
"8	c #7C7531",
"9	c #E4E190",
"0	c #DEDF82",
"a	c #B2B44F",
"b	c #D7D695",
"c	c #0A0800",
"d	c #6D661E",
"e	c #CCC86F",
"f	c #98955E",
"g	c #080400",
"h	c #8C8736",
"i	c #45420F",
"j	c #171300",
"k	c #100D00",
"l	c #706D36",
"m	c #B2B157",
"n	c #080700",
"o	c #C6C582",
"p	c #86852B",
"q	c #343500",
"r	c #F9FAAA",
"....................",
"........+...........",
".......@#$..%&*.....",
".......=-;..>,'.....",
"....................",
"....................",
"........)!..~.......",
"......{]^/(_:<......",
".......[}|1234......",
"......567890a.......",
"......bcde..........",
"......fgh...........",
"......ij............",
"......kl............",
".....mno............",
".....pqr............",
"....................",
"....................",
"....................",
"...................."};
