/* XPM */
static char * propagator_xpm[] = {
"16 16 48 1",
" 	c None",
".	c #FFFFFF",
"+	c #FAF9FA",
"@	c #979797",
"#	c #E1E1E1",
"$	c #D8D8D8",
"%	c #9D9D9D",
"&	c #FDFEFD",
"*	c #C3C3C3",
"=	c #000000",
"-	c #747474",
";	c #5D5D5D",
">	c #DCDCDC",
",	c #FAFAFA",
"'	c #E2E2E2",
")	c #9D9E9D",
"!	c #FDFDFD",
"~	c #FEFEFE",
"{	c #CCCCCC",
"]	c #2E2E2E",
"^	c #1E1E1E",
"/	c #3B3B3B",
"(	c #D9D9D9",
"_	c #4B4B4B",
":	c #272727",
"<	c #646464",
"[	c #F7F7F7",
"}	c #D0D0D0",
"|	c #060706",
"1	c #575657",
"2	c #EBEBEB",
"3	c #121212",
"4	c #BDBDBD",
"5	c #FBFBFB",
"6	c #0C0C0C",
"7	c #030203",
"8	c #A0A0A0",
"9	c #717171",
"0	c #414241",
"a	c #DFDFDF",
"b	c #F0F0F0",
"c	c #E9E9E9",
"d	c #0B0B0B",
"e	c #F3F3F3",
"f	c #C9C9C9",
"g	c #323232",
"h	c #363636",
"i	c #797879",
"................",
".....+@#.$%&....",
".....*=-.;=>....",
".....,@'.$)!....",
"................",
".......~..~.....",
"....{]^/(_:<,...",
"....[}|:123=4...",
".....5678.902...",
".....56=a.......",
".....56=b.......",
".....56=b.......",
".....56=b.......",
"....,cd=ae......",
"....fghhhi......",
"................"};
