/* XPM */
static const char * propagateevent_xpm[] = {
"16 16 60 1",
" 	c #FFFFFF",
".	c #267DE4",
"+	c #237BE4",
"@	c #C5D3FD",
"#	c #9DB6FE",
"$	c #ACC0FB",
"%	c #9CB5FE",
"&	c #498DEB",
"*	c #7399F9",
"=	c #C2D2FF",
"-	c #4578F6",
";	c #C5D4FF",
">	c #BDCBF0",
",	c #7D8499",
"'	c #8B9FD3",
")	c #ADB0B6",
"!	c #4B7AFF",
"~	c #E1EEFA",
"{	c #92A9E9",
"]	c #205DA1",
"^	c #4969BD",
"/	c #777B84",
"(	c #BFD6FC",
"_	c #DEECFA",
":	c #FAFDFE",
"<	c #BDCAF3",
"[	c #2F57BA",
"}	c #186ECD",
"|	c #9BA5C1",
"1	c #205DA3",
"2	c #A1B7CD",
"3	c #AAC1D9",
"4	c #1B71D4",
"5	c #1579DC",
"6	c #6B79A2",
"7	c #3D7AB8",
"8	c #B8C1CA",
"9	c #90B0FF",
"0	c #467AF5",
"a	c #B5BCD3",
"b	c #2E82E4",
"c	c #789AFF",
"d	c #86A5FF",
"e	c #92B2FF",
"f	c #D3DBF5",
"g	c #BECCF6",
"h	c #B9C6E8",
"i	c #B5C1DD",
"j	c #B4BBCF",
"k	c #D9E3FF",
"l	c #5E86FC",
"m	c #DAE4FF",
"n	c #C2D2FE",
"o	c #2E7AEC",
"p	c #C2CFF8",
"q	c #7799FC",
"r	c #EAF0FE",
"s	c #89A8FF",
"t	c #1F7DDF",
"u	c #EBF0FE",
"      .+@       ",
"     #$%&       ",
"     *=         ",
"     -;  >, ')  ",
"     !~  {] ^/  ",
"    (!       _: ",
"    =!  <[}|123 ",
"    =!   456 78 ",
"    90   55a    ",
"    bc   55a    ",
"    5d   45a    ",
"    5e  f[}a    ",
"    b=  ghij    ",
"  k lm          ",
" nopq           ",
" rstu           "};
