/* XPM */
static const char * redfolder_xpm[] = {
"32 32 6 1",
" 	c None",
".	c #FFFFFF",
"+	c #808080",
"@	c #FF0000",
"#	c #C0C0C0",
"$	c #000000",
"................................",
"................................",
"......++++++++++................",
"......++++++++++................",
"....++@@##@@##@@++..............",
"....++@@##@@##@@++..............",
"..++@@##@@##@@##@@++++++++++++..",
"..++@@##@@##@@##@@++++++++++++..",
"..++........................++$$",
"..++........................++$$",
"..++..@@##@@##@@##@@##@@##@@++$$",
"..++..@@##@@##@@##@@##@@##@@++$$",
"..++..##@@##@@##@@##@@##@@##++$$",
"..++..##@@##@@##@@##@@##@@##++$$",
"..++..@@##@@##@@##@@##@@##@@++$$",
"..++..@@##@@##@@##@@##@@##@@++$$",
"..++..##@@##@@##@@##@@##@@##++$$",
"..++..##@@##@@##@@##@@##@@##++$$",
"..++..@@##@@##@@##@@##@@##@@++$$",
"..++..@@##@@##@@##@@##@@##@@++$$",
"..++..##@@##@@##@@##@@##@@##++$$",
"..++..##@@##@@##@@##@@##@@##++$$",
"..++..@@##@@##@@##@@##@@##@@++$$",
"..++..@@##@@##@@##@@##@@##@@++$$",
"..++++++++++++++++++++++++++++$$",
"..++++++++++++++++++++++++++++$$",
"....$$$$$$$$$$$$$$$$$$$$$$$$$$$$",
"....$$$$$$$$$$$$$$$$$$$$$$$$$$$$",
"................................",
"................................",
"................................",
"................................"};
