/* XPM */
static char * report_xpm[] = {
"16 16 55 1",
" 	c None",
".	c #FFFFFF",
"+	c #218ADE",
"@	c #2982D6",
"#	c #186DD6",
"$	c #1865CE",
"%	c #1069C6",
"&	c #1065CE",
"*	c #086DE7",
"=	c #0875F7",
"-	c #0882F7",
";	c #2182CE",
">	c #39829C",
",	c #4A7D7B",
"'	c #1882D6",
")	c #398AD6",
"!	c #2171CE",
"~	c #186DCE",
"{	c #2175C6",
"]	c #186DC6",
"^	c #1071DE",
"/	c #107DF7",
"(	c #1082F7",
"_	c #4286C6",
":	c #4A829C",
"<	c #2171A5",
"[	c #7BAEDE",
"}	c #6BA2DE",
"|	c #639ADE",
"1	c #639ED6",
"2	c #6B9ED6",
"3	c #63A2E7",
"4	c #5AA2F7",
"5	c #52A2F7",
"6	c #7BAACE",
"7	c #6B96B5",
"8	c #186DB5",
"9	c #429EE7",
"0	c #9CC3DE",
"a	c #1871BD",
"b	c #52A2E7",
"c	c #101018",
"d	c #080810",
"e	c #ADCFE7",
"f	c #429AE7",
"g	c #8CB6DE",
"h	c #1886DE",
"i	c #398ACE",
"j	c #3982C6",
"k	c #397DBD",
"l	c #3986C6",
"m	c #3982BD",
"n	c #317DBD",
"o	c #297DBD",
"p	c #1069B5",
"................",
"................",
"..+@#$%&*=-;>,..",
"..')!~{]^/(_:<..",
"..+[}|12345678..",
"..9.........0a..",
"..b.cdc.cdc.ea..",
"..b.........ea..",
"..b.cdc.cdc.ea..",
"..b.........ea..",
"..b.cdc.cdc.ea..",
"..b.........ea..",
"..f.........ga..",
"..hijkklmnmlop..",
"................",
"................"};
