/* XPM */
static char * report_xpm[] = {
"33 33 86 1",
" 	c None",
".	c #FFFFFF",
"+	c #F5F5F5",
"@	c #EDEDED",
"#	c #E6E6E6",
"$	c #DFDFDF",
"%	c #D4D4D4",
"&	c #CFCFCF",
"*	c #C5C5C5",
"=	c #FBD88A",
"-	c #F5D286",
";	c #F1CF81",
">	c #EFCE83",
",	c #BDBDBD",
"'	c #B6B6B6",
")	c #ABABAB",
"!	c #A4A4A4",
"~	c #9D9D9D",
"{	c #979797",
"]	c #8B8B8B",
"^	c #848484",
"/	c #ECCB7D",
"(	c #E4C57E",
"_	c #DBBD79",
":	c #D3B674",
"<	c #DBBD6E",
"[	c #D4B768",
"}	c #D3B566",
"|	c #CFB372",
"1	c #CCB061",
"2	c #CCAF70",
"3	c #C8AC6E",
"4	c #C4A86B",
"5	c #C1A666",
"6	c #C9AD5E",
"7	c #C4A95A",
"8	c #C2A758",
"9	c #BCA267",
"0	c #BEA356",
"a	c #B29A62",
"b	c #A9925D",
"c	c #A18A58",
"d	c #A38C4A",
"e	c #9C8656",
"f	c #968144",
"g	c #8D794D",
"h	c #85723C",
"i	c #7F7F7F",
"j	c #757575",
"k	c #6C6C6C",
"l	c #666666",
"m	c #7C6B44",
"n	c #756540",
"o	c #5F5F5F",
"p	c #555555",
"q	c #4D4D4D",
"r	c #444444",
"s	c #7E6C39",
"t	c #71623E",
"u	c #6D5E3C",
"v	c #665738",
"w	c #625435",
"x	c #62542D",
"y	c #5E512A",
"z	c #564A2F",
"A	c #4D422A",
"B	c #443B25",
"C	c #3F3F3F",
"D	c #3B3220",
"E	c #2C2C2C",
"F	c #272727",
"G	c #3F361D",
"H	c #332C1C",
"I	c #2B2516",
"J	c #22211E",
"K	c #272115",
"L	c #231E13",
"M	c #1B1B1B",
"N	c #1F1B11",
"O	c #121212",
"P	c #1E1A0E",
"Q	c #1A160C",
"R	c #17140D",
"S	c #0B0A0A",
"T	c #0C0B06",
"U	c #010101",
".................................",
".................................",
"...........,joCCCCCCCCCoooii!&...",
"..........qGb9_________999eeUUU*.",
".........+U================NUfTU.",
".........,A================Uy7GU.",
".........kc===============aUxxIl.",
".........E(===============ep~~'%.",
"........#U========-eAIUUUKBi.....",
"........!U======3mTUqj~,!^MU*....",
"........iN===-nUE]+........@MS...",
"........iN=2QUj..............)O..",
"........iRLM,~Ej...,......'...C'.",
"........pUCiUUuUj.$r.....$U...qi.",
"......&SSEUt====AUSU%+U+.{Uq.~F+.",
"....#qUUSQ=========(UOBUFU-UUF...",
"...{UUC@iN===========(==(==U.....",
"...SUl..lH=================U.....",
"..^C....Ev=================H@....",
"........U9=================z,....",
".......~A==================m~....",
"...pCCCSBme4>==============ei....",
"..Oe(-_3bcnALUUULBna(======9o....",
".,D=============-|evITUg===:q....",
".k5=================_T9====w^....",
".j7-================nT====>U+....",
".%f77}/=============AB===-T,.....",
"..J0777776<(;=======:Tm_cT)......",
"...Sh77777777777771}[<xUO,.......",
"...%OQs0878787877777dsPS#........",
"......{rUUUTQQUUUUUSrk,..........",
".................................",
"................................."};
