/* XPM */
static char * report_xpm[] = {
"16 16 85 1",
" 	c None",
".	c #FFFFFF",
"+	c #218ADE",
"@	c #2982D6",
"#	c #186DD6",
"$	c #1865CE",
"%	c #1069C6",
"&	c #1065CE",
"*	c #086DE7",
"=	c #0875F7",
"-	c #0882F7",
";	c #2182CE",
">	c #39829C",
",	c #4A7D7B",
"'	c #1882D6",
")	c #398AD6",
"!	c #2171CE",
"~	c #186DCE",
"{	c #2175C6",
"]	c #186DC6",
"^	c #1071DE",
"/	c #107DF7",
"(	c #1082F7",
"_	c #4286C6",
":	c #4A829C",
"<	c #2171A5",
"[	c #7BAEDE",
"}	c #6BA2DE",
"|	c #639ADE",
"1	c #639ED6",
"2	c #6B9ED6",
"3	c #63A2E7",
"4	c #5AA2F7",
"5	c #52A2F7",
"6	c #7BAACE",
"7	c #6B96B5",
"8	c #186DB5",
"9	c #429EE7",
"0	c #D6E7FF",
"a	c #EFF3FF",
"b	c #E7F3FF",
"c	c #E7EFFF",
"d	c #EFF3F7",
"e	c #9CC3DE",
"f	c #1871BD",
"g	c #52A2E7",
"h	c #E7E7E7",
"i	c #9C9E9C",
"j	c #C6C3C6",
"k	c #ADAAAD",
"l	c #9C9A9C",
"m	c #D6D3D6",
"n	c #949694",
"o	c #DEDBDE",
"p	c #ADCFE7",
"q	c #E7E3E7",
"r	c #A5AAA5",
"s	c #D6D7D6",
"t	c #EFEFEF",
"u	c #CECBCE",
"v	c #BDBEBD",
"w	c #CECFCE",
"x	c #C6C7C6",
"y	c #BDBABD",
"z	c #DEE3DE",
"A	c #B5B2B5",
"B	c #A5A2A5",
"C	c #A5A6A5",
"D	c #429AE7",
"E	c #BDD7EF",
"F	c #CEDBEF",
"G	c #C6D7E7",
"H	c #D6DFEF",
"I	c #C6D3E7",
"J	c #CEDFEF",
"K	c #8CB6DE",
"L	c #1886DE",
"M	c #398ACE",
"N	c #3982C6",
"O	c #397DBD",
"P	c #3986C6",
"Q	c #3982BD",
"R	c #317DBD",
"S	c #297DBD",
"T	c #1069B5",
"................",
"................",
"..+@#$%&*=-;>,..",
"..')!~{]^/(_:<..",
"..+[}|12345678..",
"..90aabaabcdef..",
"..gahijklmnopf..",
"..gaqljrlmnspf..",
"..gatjsuvqvhpf..",
"..gatuswvqxhpf..",
"..gatvsxyzyhpf..",
"..gaqkjABmCspf..",
"..DEFGGHFIFJKf..",
"..LMNOOPQRQPST..",
"................",
"................"};
