/* XPM */
static const char * rt_ContactLocator_xpm[] = {
"16 16 129 2",
"  	c None",
". 	c #828485",
"+ 	c #9D9EA1",
"@ 	c #ACADB0",
"# 	c #B3B4B7",
"$ 	c #B9BBBD",
"% 	c #8F9194",
"& 	c #808183",
"* 	c #9E9FA2",
"= 	c #B5B6B9",
"- 	c #BEBFC1",
"; 	c #C4C5C6",
"> 	c #C6C7C9",
", 	c #49494B",
"' 	c #4F4E51",
") 	c #8E9092",
"! 	c #838587",
"~ 	c #959698",
"{ 	c #BDBEC0",
"] 	c #C7C8CA",
"^ 	c #CFD0D1",
"/ 	c #D3D3D5",
"( 	c #D1D1D3",
"_ 	c #CACBCC",
": 	c #414042",
"< 	c #424143",
"[ 	c #959799",
"} 	c #868789",
"| 	c #8F9091",
"1 	c #B6B7B8",
"2 	c #CFCFD1",
"3 	c #D9DADB",
"4 	c #DFDFE1",
"5 	c #DBDCDD",
"6 	c #D1D2D3",
"7 	c #97989A",
"8 	c #707173",
"9 	c #9C9EA1",
"0 	c #898A8C",
"a 	c #909192",
"b 	c #9C9C9E",
"c 	c #CCCDCE",
"d 	c #DEDFE0",
"e 	c #E8E8E9",
"f 	c #D2D2D3",
"g 	c #7D7E80",
"h 	c #6B6C6E",
"i 	c #8A8B8D",
"j 	c #9FA0A3",
"k 	c #98999B",
"l 	c #98989A",
"m 	c #A9AAAB",
"n 	c #D4D4D5",
"o 	c #BABABC",
"p 	c #646567",
"q 	c #767779",
"r 	c #BABBBD",
"s 	c #ADAFB1",
"t 	c #A4A6A8",
"u 	c #919193",
"v 	c #949496",
"w 	c #9B9B9D",
"x 	c #7A7A7B",
"y 	c #606062",
"z 	c #636466",
"A 	c #696A6C",
"B 	c #B4B5B7",
"C 	c #BAB8AD",
"D 	c #F5C416",
"E 	c #FFC700",
"F 	c #A2A4A6",
"G 	c #A5A6A8",
"H 	c #909193",
"I 	c #949596",
"J 	c #6D6E6F",
"K 	c #555557",
"L 	c #59595B",
"M 	c #969799",
"N 	c #B3B4B6",
"O 	c #E7C139",
"P 	c #FFD100",
"Q 	c #FFD500",
"R 	c #A4A5A8",
"S 	c #A5A6A9",
"T 	c #919293",
"U 	c #6B6B6D",
"V 	c #6E6F70",
"W 	c #8D8E90",
"X 	c #C5A946",
"Y 	c #FFCD00",
"Z 	c #D4B237",
"` 	c #A2A3A6",
" .	c #A5A7A9",
"..	c #88898B",
"+.	c #88888A",
"@.	c #A49767",
"#.	c #FFCA00",
"$.	c #FFD300",
"%.	c #D5B338",
"&.	c #898A8D",
"*.	c #7E8083",
"=.	c #8C8E90",
"-.	c #9C9DA0",
";.	c #9FA1A3",
">.	c #9F9983",
",.	c #F7C308",
"'.	c #898B8E",
").	c #7A7B7E",
"!.	c #7B7C7F",
"~.	c #929497",
"{.	c #939598",
"].	c #ECBE1D",
"^.	c #F5C109",
"/.	c #77797B",
"(.	c #7D7F81",
"_.	c #757678",
":.	c #6A6B6D",
"<.	c #86888B",
"[.	c #848588",
"}.	c #818386",
"|.	c #7D7E81",
"1.	c #AC984F",
"2.	c #E6B817",
"3.	c #6D6F71",
"4.	c #656769",
"5.	c #77787B",
"6.	c #9E8F58",
"7.	c #88826C",
"8.	c #656668",
"    . + @ # $                   ",
"  % & * = - ; > >       , '     ",
"  ) ! ~ { ] ^ / ( _     : <     ",
"  [ } | 1 2 3 4 5 6 7 8         ",
"  9 0 a b c d e f g h i         ",
"  j k | l m n o h p q r s       ",
"    t u v w x y z A B C D E E E ",
"    F G H I J K L M N O P Q E   ",
"      R S T a U V W X Y Q Z     ",
"        `  .7 ..+.@.#.$.%.&.*.  ",
"        =.-.;.-.>.,.P E E E E E ",
"      '.).!.~.{.].E E E E E ^.  ",
"    /.(._.:.  <.[.}.|.1.E 2.    ",
"    h 3.h 4.      5.6.E ^.7.    ",
"  z p 8.p z         E E         ",
"  z z z z z       E E           "};
