/* XPM */
static const char * rt_ChemicalThruster_xpm[] = {
"16 16 89 1",
" 	c None",
".	c #CED0D1",
"+	c #CACBCB",
"@	c #919192",
"#	c #ECEDED",
"$	c #DEDFDF",
"%	c #C3C4C4",
"&	c #9D9D9E",
"*	c #6F6F70",
"=	c #4D4C4E",
"-	c #565658",
";	c #C5C7C9",
">	c #DBDCDD",
",	c #EEEFEF",
"'	c #E7E7E7",
")	c #CDCDCD",
"!	c #A8A8A9",
"~	c #737274",
"{	c #4A494B",
"]	c #4C4B4D",
"^	c #656669",
"/	c #636467",
"(	c #9C9EA1",
"_	c #CBCCCE",
":	c #ECECED",
"<	c #F3F4F4",
"[	c #EAEAEA",
"}	c #D1D1D1",
"|	c #AFAEAF",
"1	c #787779",
"2	c #49484A",
"3	c #504F51",
"4	c #4B4C4D",
"5	c #B1B1B2",
"6	c #F4F5F5",
"7	c #ECECEC",
"8	c #D5D5D5",
"9	c #B5B4B5",
"0	c #868586",
"a	c #515153",
"b	c #575759",
"c	c #656667",
"d	c #B5B5B6",
"e	c #D9D9D9",
"f	c #BBBABB",
"g	c #929192",
"h	c #514F51",
"i	c #59595B",
"j	c #595A5C",
"k	c #555657",
"l	c #747475",
"m	c #616164",
"n	c #9CDFFE",
"o	c #B6E8FE",
"p	c #474849",
"q	c #414142",
"r	c #525253",
"s	c #67686B",
"t	c #8ED4FB",
"u	c #F8FDFF",
"v	c #585859",
"w	c #838485",
"x	c #88898B",
"y	c #696A6C",
"z	c #81CAF9",
"A	c #EAF9FF",
"B	c #AAABAC",
"C	c #C7C8C9",
"D	c #999B9D",
"E	c #68696C",
"F	c #73BFF6",
"G	c #DDF5FF",
"H	c #ACAEB0",
"I	c #76787A",
"J	c #64B4F4",
"K	c #8DCCF8",
"L	c #CFF1FF",
"M	c #8B8C8F",
"N	c #57AAF1",
"O	c #C3DBD0",
"P	c #D0E3D1",
"Q	c #499FEE",
"R	c #8BAEB0",
"S	c #F7C348",
"T	c #62B1F2",
"U	c #D9B256",
"V	c #F7B433",
"W	c #3C96E7",
"X	c #3792E6",
"          .     ",
"          +@    ",
"      #$%&*=-   ",
"   ;>,')!~{]^/  ",
" (_:<[}|1{23    ",
" 4567890{2ab    ",
"  cdefgh2ai     ",
"  jk*l=2aimnon  ",
"   pqr2aimstut  ",
"    vwximy zAz  ",
"     BCDyE FGF  ",
"      ;HI JKLKJ ",
"        M NOPON ",
"         QRSSSRQ",
"         TUVVVUT",
"         WXXXXXW"};
