/* XPM */
static const char * rt_ChemicalTank_xpm[] = {
"16 16 97 2",
"  	c None",
". 	c #4D4D4D",
"+ 	c #CACBCD",
"@ 	c #CBCCCE",
"# 	c #CFCFD1",
"$ 	c #B7B7B9",
"% 	c #858587",
"& 	c #5A5A5C",
"* 	c #D2D3D5",
"= 	c #E4E4E5",
"- 	c #E4E5E6",
"; 	c #DCDDDE",
"> 	c #ADADAF",
", 	c #656567",
"' 	c #48484A",
") 	c #BBBCBE",
"! 	c #E0E0E1",
"~ 	c #EAEBEB",
"{ 	c #EFF0F0",
"] 	c #B0B1B3",
"^ 	c #727274",
"/ 	c #4C4B4D",
"( 	c #545456",
"_ 	c #B4B4B7",
": 	c #E1E1E2",
"< 	c #ECEDED",
"[ 	c #F2F3F3",
"} 	c #E8E8E9",
"| 	c #D3D3D5",
"1 	c #B5B6B8",
"2 	c #88888A",
"3 	c #69686A",
"4 	c #848586",
"5 	c #A4A5A6",
"6 	c #ADAEAF",
"7 	c #B0B1B2",
"8 	c #A8A9A9",
"9 	c #959597",
"0 	c #747577",
"a 	c #3B3A3C",
"b 	c #4C4C4E",
"c 	c #9EE0FE",
"d 	c #808183",
"e 	c #BDBDBF",
"f 	c #C8C9CB",
"g 	c #C9C9CC",
"h 	c #BEBFC2",
"i 	c #A8AAAC",
"j 	c #8E8F91",
"k 	c #656669",
"l 	c #90D6FC",
"m 	c #FAFEFF",
"n 	c #616163",
"o 	c #77787A",
"p 	c #88898B",
"q 	c #8C8D90",
"r 	c #86878A",
"s 	c #757679",
"t 	c #5D5D60",
"u 	c #49494B",
"v 	c #5B5B5E",
"w 	c #66676A",
"x 	c #83CBF9",
"y 	c #EDFAFF",
"z 	c #4A494B",
"A 	c #545355",
"B 	c #606062",
"C 	c #646467",
"D 	c #5F5F62",
"E 	c #535254",
"F 	c #57575A",
"G 	c #67686B",
"H 	c #606163",
"I 	c #75C1F7",
"J 	c #DFF6FF",
"K 	c #4D4D4F",
"L 	c #4B4A4C",
"M 	c #515153",
"N 	c #5E5F61",
"O 	c #5F6062",
"P 	c #8FCDF8",
"Q 	c #D2F2FF",
"R 	c #606063",
"S 	c #636366",
"T 	c #656568",
"U 	c #67686A",
"V 	c #646568",
"W 	c #5AACF1",
"X 	c #B7E6FD",
"Y 	c #C4EEFF",
"Z 	c #8DAFB0",
"` 	c #F7C348",
" .	c #5EAEF2",
"..	c #E1B44E",
"+.	c #F7B839",
"@.	c #4AA0EA",
"#.	c #4199E8",
"  . . . .                       ",
"        .                       ",
"        . .                     ",
"    + @ # $ % &                 ",
"  * = - ; + > , '               ",
") ! ~ { - # ] ^ / (             ",
"_ : < [ } | 1 2 3 &             ",
"4 5 6 7 8 9 0 ( a b   c c c     ",
"d e f g h i j ^ 3 k   l m l     ",
"n o p q r s t u v w   x y x     ",
"z A B C D E u F G H   I J I     ",
"  K L z L M N G O     P Q P     ",
"    R S T U V N     W X Y X W   ",
"        . .         Z ` ` ` Z   ",
"          .        ...+.+.+... .",
"          . . . . @.#.#.#.#.#.@."};
