/* XPM */
static const char * rt_ElectricTank_xpm[] = {
"16 16 119 2",
"  	c None",
". 	c #E43731",
"+ 	c #E4342F",
"@ 	c #E3332E",
"# 	c #E3322D",
"$ 	c #E3332D",
"% 	c #E43631",
"& 	c #E2332F",
"* 	c #EC7370",
"= 	c #F19B99",
"- 	c #F19A99",
"; 	c #F19B9A",
"> 	c #F19C9A",
", 	c #EC7471",
"' 	c #E2332E",
") 	c #DD2F2D",
"! 	c #E66766",
"~ 	c #ED8A89",
"{ 	c #EC8786",
"] 	c #EC8685",
"^ 	c #EC8787",
"/ 	c #ED8A8A",
"( 	c #E66866",
"_ 	c #DC2E2C",
": 	c #D92B2A",
"< 	c #E25D5C",
"[ 	c #E87B7A",
"} 	c #E77878",
"| 	c #E77777",
"1 	c #E87B7B",
"2 	c #E25D5D",
"3 	c #D82B2A",
"4 	c #D42728",
"5 	c #DC5252",
"6 	c #E26C6C",
"7 	c #E16A6B",
"8 	c #E1696A",
"9 	c #E16A6A",
"0 	c #E26C6D",
"a 	c #E27071",
"b 	c #DD5051",
"c 	c #D1191A",
"d 	c #D33133",
"e 	c #DD5D60",
"f 	c #DD5B5D",
"g 	c #DC5A5C",
"h 	c #DD5B5C",
"i 	c #DC5C5D",
"j 	c #DD5C5E",
"k 	c #DD5E60",
"l 	c #D95255",
"m 	c #D74446",
"n 	c #D33032",
"o 	c #D02224",
"p 	c #CC1517",
"q 	c #CD292D",
"r 	c #D54C50",
"s 	c #D54A4E",
"t 	c #D54B4F",
"u 	c #D64B50",
"v 	c #D64B4F",
"w 	c #D5494D",
"x 	c #D23F43",
"y 	c #CE2F33",
"z 	c #CB2127",
"A 	c #CA1C20",
"B 	c #CB1D21",
"C 	c #CA1E23",
"D 	c #CB2024",
"E 	c #C71315",
"F 	c #C82229",
"G 	c #CF3C41",
"H 	c #CE3B3F",
"I 	c #CE3B40",
"J 	c #CD363A",
"K 	c #CB2E32",
"L 	c #C72228",
"M 	c #C5171D",
"N 	c #C5181F",
"O 	c #C61920",
"P 	c #C61A21",
"Q 	c #C61B21",
"R 	c #C21014",
"S 	c #C41A22",
"T 	c #C6242C",
"U 	c #C41E25",
"V 	c #C11720",
"W 	c #C2151C",
"X 	c #C2161C",
"Y 	c #C2161D",
"Z 	c #C2171E",
"` 	c #BD0D11",
" .	c #BE121A",
"..	c #BD121A",
"+.	c #BD121B",
"@.	c #B80B11",
"#.	c #B80E18",
"$.	c #B80D18",
"%.	c #B3080E",
"&.	c #B30815",
"*.	c #AE050D",
"=.	c #AF0312",
"-.	c #AF0412",
";.	c #AE0311",
">.	c #AE0312",
",.	c #AE0412",
"'.	c #B10812",
").	c #B10811",
"!.	c #B20912",
"~.	c #B10912",
"{.	c #B20811",
"].	c #BE1A18",
"^.	c #BF1918",
"/.	c #BF1A18",
"(.	c #BE1918",
"_.	c #BF1917",
":.	c #AD0311",
"<.	c #AD0310",
"[.	c #AD0211",
"        . + @ # $ @ + %         ",
"      & * = = - = ; > , '       ",
"    ) ! ~ { ] ] ] ] ^ / ( _     ",
"  : < [ } | | | | | | } 1 2 3   ",
"4 5 6 7 8 8 8 8 8 8 9 7 0 a b c ",
"d e f g g g g h i j k l m n o p ",
"q r s s t u v w x y z A B C D E ",
"F G H I J K L M N O P Q Q Q Q R ",
"S T U V W X Y Z Z Z Z Z Z Z Z ` ",
" .....+.+.+.+.+.+.+.+.+.+.+.+.@.",
"#.$.$.$.$.$.$.$.$.$.$.$.$.$.$.%.",
"&.&.&.&.&.&.&.&.&.&.&.&.&.&.&.*.",
"  =.=.=.-.;.=.>.>.>.;.=.;.-.,.  ",
"    '.).!.'.'.~.'.).'.{.).'.    ",
"      ].^./.^.^.(.^._./.].      ",
"        :.:.:.:.<.:.[.:.        "};
