/* XPM */
static const char * rt_ElectricThruster_xpm[] = {
"16 16 80 1",
" 	c None",
".	c #C7C9CA",
"+	c #DEDFDF",
"@	c #9F9FA0",
"#	c #ECEDED",
"$	c #E0E0E1",
"%	c #C6C7C7",
"&	c #A2A2A3",
"*	c #767577",
"=	c #505052",
"-	c #535356",
";	c #C1C3C5",
">	c #D8D9DA",
",	c #EBECED",
"'	c #E9E9E9",
")	c #D1D1D2",
"!	c #AEADAE",
"~	c #7A797B",
"{	c #4E4D4F",
"]	c #4C4B4D",
"^	c #646567",
"/	c #636467",
"(	c #A2A4A6",
"_	c #C4C5C7",
":	c #E6E7E7",
"<	c #F2F3F3",
"[	c #D5D5D5",
"}	c #B4B3B4",
"|	c #818081",
"1	c #484749",
"2	c #4F4E50",
"3	c #525354",
"4	c #C4C5C6",
"5	c #F4F4F5",
"6	c #EEEEEF",
"7	c #D8D8D9",
"8	c #BAB9BA",
"9	c #8E8D8E",
"0	c #504F51",
"a	c #504F52",
"b	c #565658",
"c	c #545556",
"d	c #6F7072",
"e	c #CDCDCE",
"f	c #DCDCDC",
"g	c #BFBFBF",
"h	c #9A989A",
"i	c #59585A",
"j	c #58585A",
"k	c #5A5B5D",
"l	c #5C5C5E",
"m	c #7E7E7F",
"n	c #807F80",
"o	c #565557",
"p	c #606063",
"q	c #F6A522",
"r	c #49494B",
"s	c #414142",
"t	c #505051",
"u	c #67676A",
"v	c #F69D20",
"w	c #525253",
"x	c #7D7E7F",
"y	c #7E7E80",
"z	c #68686B",
"A	c #4D4D4D",
"B	c #A4A6A7",
"C	c #868789",
"D	c #696A6D",
"E	c #71BC3B",
"F	c #C5C7C9",
"G	c #B0B2B4",
"H	c #757679",
"I	c #626366",
"J	c #58A129",
"K	c #898B8D",
"L	c #76C03E",
"M	c #5FA82D",
"N	c #529A23",
"O	c #569E27",
"          .     ",
"          +@    ",
"      #$%&*=-   ",
"   ;>,')!~{]^/  ",
" (_:<#[}|{12    ",
" 345678901ab    ",
" cdefghi1aj     ",
"  klmno1ajpq  q ",
"   rst1ajpuv  v ",
"    wxyjpz A  A ",
"     B_CzDEEEEEE",
"      FGHIJJJJJJ",
"        K  LLLL ",
"           MMMM ",
"           NOON ",
"            AA  "};
