/* XPM */
static const char * rt_EphemerisFile_xpm[] = {
"16 16 29 1",
" 	c #FFFFFF",
".	c #F5F5F5",
"+	c #BF8F61",
"@	c #BE7849",
"#	c #BA6128",
"$	c #C7C7C7",
"%	c #DEDEDE",
"&	c #C9C9C9",
"*	c #CAC6C4",
"=	c #E2E2E2",
"-	c #C49966",
";	c #B75A26",
">	c #EDEDED",
",	c #D4D4D4",
"'	c #B68266",
")	c #1478DC",
"!	c #A2C0EA",
"~	c #A0BEEA",
"{	c #B25124",
"]	c #C29564",
"^	c #B14E23",
"/	c #B37963",
"(	c #AE4A22",
"_	c #AB4221",
":	c #A54B2C",
"<	c #AF5D35",
"[	c #D8C9C4",
"}	c #BE978A",
"|	c #C2AAA2",
" .+@#$$$$$$$$$$%",
".&**#          $",
" =+-; .......> *",
".,**;.. . .....&",
" ='-; .)))))). $",
".&**;. )!!~~)..&",
" ='-{ .))))))..&",
".&**{  .. ....>&",
" =']{ .))))))=>$",
".&**^ .... . .%$",
" =/](.. ... >&=&",
".&**(  ..> .&= &",
" =/+_ ...>.&=  $",
".&**_  ..>,=   &",
" >:<_%%,%$%,$&&&",
"  [}|&&&&&&&&&&%"};
