/* XPM */
static const char * rt_Estimator_xpm[] = {
"16 16 64 1",
" 	c None",
".	c #FFFFFF",
"+	c #84A5DE",
"@	c #636363",
"#	c #EFF7FF",
"$	c #73B5EF",
"%	c #42A5F7",
"&	c #4294E7",
"*	c #E6F2FE",
"=	c #C6DEFF",
"-	c #ADB5FF",
";	c #848CB5",
">	c #2D8FDC",
",	c #3083D5",
"'	c #1B65CA",
")	c #1D68C6",
"!	c #1663C8",
"~	c #0876EC",
"{	c #0E82F1",
"]	c #3281B6",
"^	c #59816A",
"/	c #BDCEFF",
"(	c #0974D5",
"_	c #5491CC",
":	c #1F69CC",
"<	c #347DC3",
"[	c #2673BE",
"}	c #1A7DE9",
"|	c #1F87FD",
"1	c #728B8F",
"2	c #166AB0",
"3	c #1C86DE",
"4	c #F5F5FE",
"5	c #D6E6EB",
"6	c #E4F0ED",
"7	c #CFDEE0",
"8	c #E7EFF7",
"9	c #AD04B5",
"0	c #0EEFF9",
"a	c #F4851C",
"b	c #7E8F9C",
"c	c #A6CAF0",
"d	c #D6EFFF",
"e	c #D0D1D4",
"f	c #C0C0C2",
"g	c #BCBABB",
"h	c #E8E6E3",
"i	c #849CCE",
"j	c #DB645E",
"k	c #00B61A",
"l	c #7B94C6",
"m	c #7B8CC6",
"n	c #7384BD",
"o	c #C6E7FF",
"p	c #A5BDE7",
"q	c #CFE7FB",
"r	c #BEDFF9",
"s	c #B5DAF8",
"t	c #B5D9F8",
"u	c #6B73A5",
"v	c #94A5D6",
"w	c #94A5CE",
"x	c #949CCE",
"y	c #8C94B5",
"..+++++++++@....",
"..+...####+$@...",
"..+.######%%&@..",
"..+#######*=-;@.",
"..+#>,')!~{]^/@.",
"..+#(_:<[}|12/@.",
"..+#3.45.6762/@.",
"..+83.90.ab62c@.",
"..+d3.ef.gh62c@.",
"..id3.ja.k362c@.",
"..ld3.ef.gh62c@.",
"..md322222222c@.",
"..nodddddddddp@.",
"..n=qoorrssstp@.",
"..uvvvwwxxxxyy@.",
"...@@@@@@@@@@@@."};
