/* XPM */
static const char * rt_EclipseLocator_xpm[] = {
"16 16 119 2",
"  	c None",
". 	c #FFC700",
"+ 	c #7D7F82",
"@ 	c #78797C",
"# 	c #807D6D",
"$ 	c #8B8365",
"% 	c #807E75",
"& 	c #A0955F",
"* 	c #F2C50D",
"= 	c #FFCB00",
"- 	c #908764",
"; 	c #6C6B65",
"> 	c #60605E",
", 	c #656357",
"' 	c #6B6857",
") 	c #72705B",
"! 	c #8A8457",
"~ 	c #BAAC40",
"{ 	c #EED012",
"] 	c #76777A",
"^ 	c #67645A",
"/ 	c #5A574F",
"( 	c #53524C",
"_ 	c #53524F",
": 	c #565654",
"< 	c #5E5D5A",
"[ 	c #8F894B",
"} 	c #ABA143",
"| 	c #CBBB31",
"1 	c #F8D107",
"2 	c #FFCF00",
"3 	c #7C7E81",
"4 	c #606163",
"5 	c #4D4D4E",
"6 	c #494846",
"7 	c #474646",
"8 	c #484747",
"9 	c #4B4A4A",
"0 	c #52514F",
"a 	c #6B684F",
"b 	c #9D9540",
"c 	c #BFB237",
"d 	c #D3BF2B",
"e 	c #FFCC00",
"f 	c #747578",
"g 	c #525255",
"h 	c #464546",
"i 	c #434243",
"j 	c #424143",
"k 	c #434244",
"l 	c #5F5D4B",
"m 	c #7A754C",
"n 	c #86825A",
"o 	c #A89E50",
"p 	c #FFD800",
"q 	c #73726B",
"r 	c #4F4E4C",
"s 	c #414042",
"t 	c #444344",
"u 	c #494847",
"v 	c #51504D",
"w 	c #5D5D56",
"x 	c #706F60",
"y 	c #898564",
"z 	c #FFD200",
"A 	c #72716B",
"B 	c #4E4D4C",
"C 	c #424243",
"D 	c #504F4C",
"E 	c #5D5C53",
"F 	c #6F6E5E",
"G 	c #888464",
"H 	c #717275",
"I 	c #505052",
"J 	c #444445",
"K 	c #454445",
"L 	c #4A4948",
"M 	c #53524D",
"N 	c #605F55",
"O 	c #73715D",
"P 	c #938C5F",
"Q 	c #FFD600",
"R 	c #797B7E",
"S 	c #5C5C5F",
"T 	c #4B4A4C",
"U 	c #474645",
"V 	c #454444",
"W 	c #464545",
"X 	c #494948",
"Y 	c #504F4B",
"Z 	c #595851",
"` 	c #686657",
" .	c #7C795F",
"..	c #BAA740",
"+.	c #707174",
"@.	c #605D56",
"#.	c #54524C",
"$.	c #4F4E4A",
"%.	c #53514B",
"&.	c #5A584F",
"*.	c #666354",
"=.	c #76735C",
"-.	c #8A8665",
";.	c #F1C10E",
">.	c #888061",
",.	c #65635F",
"'.	c #5A5959",
").	c #5E5C54",
"!.	c #656254",
"~.	c #6D6A58",
"{.	c #79755D",
"].	c #90885E",
"^.	c #D6B127",
"/.	c #77797C",
"(.	c #777468",
"_.	c #827B61",
":.	c #797870",
"<.	c #8F8667",
"[.	c #F2C00D",
"                                ",
"          . .     . .           ",
"      + @ # $ % & * =           ",
"    - ; > , ' ) ! ~ {     .     ",
"  ] ^ / ( _ : < [ } | 1 2 .     ",
"3 4 5 6 7 8 9 0 a b c d e       ",
"f g h i j k h 9 l m n o p       ",
"q r i s s j t u v w x y z . .   ",
"A B C s s j t 8 D E F G z . .   ",
"H I J j j i K L M N O P Q       ",
"R S T U V W X Y Z `  ....       ",
"  +.@.#.$.$.%.&.*.=.-.;.. .     ",
"    >.,.'.).!.~.{.].^.    .     ",
"      /.H (._.:.<.[..           ",
"          . .     . .           ",
"                                "};
