/* XPM */
static const char * rt_ElectricTank_xpm[] = {
"16 16 86 1",
" 	c None",
".	c #4D4D4D",
"+	c #CACBCD",
"@	c #CBCCCE",
"#	c #CFCFD1",
"$	c #B7B7B9",
"%	c #858587",
"&	c #5A5A5C",
"*	c #D2D3D5",
"=	c #E4E4E5",
"-	c #E4E5E6",
";	c #DCDDDE",
">	c #ADADAF",
",	c #656567",
"'	c #48484A",
")	c #BBBCBE",
"!	c #E0E0E1",
"~	c #EAEBEB",
"{	c #EFF0F0",
"]	c #B0B1B3",
"^	c #727274",
"/	c #4C4B4D",
"(	c #545456",
"_	c #B4B4B7",
":	c #E1E1E2",
"<	c #ECEDED",
"[	c #F2F3F3",
"}	c #E8E8E9",
"|	c #D3D3D5",
"1	c #B5B6B8",
"2	c #88888A",
"3	c #69686A",
"4	c #848586",
"5	c #A4A5A6",
"6	c #ADAEAF",
"7	c #B0B1B2",
"8	c #A8A9A9",
"9	c #959597",
"0	c #747577",
"a	c #3B3A3C",
"b	c #4C4C4E",
"c	c #F6A522",
"d	c #808183",
"e	c #BDBDBF",
"f	c #C8C9CB",
"g	c #C9C9CC",
"h	c #BEBFC2",
"i	c #A8AAAC",
"j	c #8E8F91",
"k	c #656669",
"l	c #F69D20",
"m	c #616163",
"n	c #77787A",
"o	c #88898B",
"p	c #8C8D90",
"q	c #86878A",
"r	c #757679",
"s	c #5D5D60",
"t	c #49494B",
"u	c #5B5B5E",
"v	c #66676A",
"w	c #4A494B",
"x	c #545355",
"y	c #606062",
"z	c #646467",
"A	c #5F5F62",
"B	c #535254",
"C	c #57575A",
"D	c #67686B",
"E	c #606163",
"F	c #71BC3B",
"G	c #4D4D4F",
"H	c #4B4A4C",
"I	c #515153",
"J	c #5E5F61",
"K	c #5F6062",
"L	c #58A129",
"M	c #606063",
"N	c #636366",
"O	c #656568",
"P	c #67686A",
"Q	c #646568",
"R	c #76C03E",
"S	c #5FA82D",
"T	c #529A23",
"U	c #569E27",
" ....           ",
"    .           ",
"    ..          ",
"  +@#$%&        ",
" *=-;+>,'       ",
")!~{-#]^/(      ",
"_:<[}|123&      ",
"4567890(ab c  c ",
"defghij^3k l  l ",
"mnopqrstuv .  . ",
"wxyzABtCDEFFFFFF",
" GHwHIJDK LLLLLL",
"  MNOPQJ   RRRR ",
"    ..     SSSS ",
"     .     TUUT ",
"     ....   ..  "};
