/* XPM */
static const char * rt_Formation_xpm[] = {
"32 32 5 1",
" 	c None",
".	c #808080",
"+	c #FFFF00",
"@	c #C0C0C0",
"#	c #000000",
"                                ",
"                                ",
"      ..........                ",
"      ..........                ",
"    ..++@@++@@++..              ",
"    ..++@@++@@++..              ",
"  ..++@@++@@++@@++............  ",
"  ..++@@++@@++@@++............  ",
"  ..                        ..##",
"  ..                        ..##",
"  ..  ++@@++@@++@@++@@++@@++..##",
"  ..  ++@@++@@++@@++@@++@@++..##",
"  ..  @@++@@++@@++@@++@@++@@..##",
"  ..  @@++@@++@@++@@++@@++@@..##",
"  ..  ++@@++@@++@@++@@++@@++..##",
"  ..  ++@@++@@++@@++@@++@@++..##",
"  ..  @@++@@++@@++@@++@@++@@..##",
"  ..  @@++@@++@@++@@++@@++@@..##",
"  ..  ++@@++@@++@@++@@++@@++..##",
"  ..  ++@@++@@++@@++@@++@@++..##",
"  ..  @@++@@++@@++@@++@@++@@..##",
"  ..  @@++@@++@@++@@++@@++@@..##",
"  ..  ++@@++@@++@@++@@++@@++..##",
"  ..  ++@@++@@++@@++@@++@@++..##",
"  ............................##",
"  ............................##",
"    ############################",
"    ############################",
"                                ",
"                                ",
"                                ",
"                                "};
