/* XPM */
static const char * rt_FileInterface_xpm[] = {
"16 16 91 1",
" 	c None",
".	c #9EE0FE",
"+	c #83CBF9",
"@	c #97DAFD",
"#	c #FFFFFF",
"$	c #E1F6FF",
"%	c #BFE1FA",
"&	c #8FD5FB",
"*	c #B1B2B3",
"=	c #747578",
"-	c #848588",
";	c #8F9194",
">	c #838487",
",	c #737477",
"'	c #DDF5FF",
")	c #F3FCFF",
"!	c #BBDFFA",
"~	c #88D0FA",
"{	c #6D6E71",
"]	c #939598",
"^	c #BEC0C2",
"/	c #BBBDBF",
"(	c #9EA0A3",
"_	c #95979A",
":	c #A2A4A7",
"<	c #A2D2F8",
"[	c #A9D7F9",
"}	c #AFDDFA",
"|	c #73C0F6",
"1	c #81CAF9",
"2	c #AFB1B3",
"3	c #F2FBFF",
"4	c #7AC5F7",
"5	c #7A7C7F",
"6	c #838588",
"7	c #7A7B7E",
"8	c #A3A8AB",
"9	c #EEFAFF",
"0	c #73BFF6",
"a	c #478F1B",
"b	c #6DB838",
"c	c #6BB236",
"d	c #4E9020",
"e	c #397711",
"f	c #46871C",
"g	c #60A630",
"h	c #A1A7AB",
"i	c #EBF9FF",
"j	c #6CBAF5",
"k	c #FEFFFF",
"l	c #E8F8FF",
"m	c #65B4F3",
"n	c #FBFEFF",
"o	c #E5F7FF",
"p	c #5EAFF2",
"q	c #F7FDFF",
"r	c #ACB0B3",
"s	c #78797C",
"t	c #818285",
"u	c #818386",
"v	c #797B7E",
"w	c #9EA6AB",
"x	c #56AAF1",
"y	c #F4FCFF",
"z	c #ABB0B3",
"A	c #9CA5AB",
"B	c #DEF5FF",
"C	c #4FA4EF",
"D	c #F1FBFF",
"E	c #DBF4FF",
"F	c #489FEE",
"G	c #EDFAFF",
"H	c #D7F3FF",
"I	c #489EEE",
"J	c #EAF9FF",
"K	c #A6AEB3",
"L	c #757679",
"M	c #7D7F82",
"N	c #7F8083",
"O	c #98A4AB",
"P	c #D4F2FF",
"Q	c #77C0F6",
"R	c #E7F8FF",
"S	c #E2F7FF",
"T	c #E0F6FF",
"U	c #DCF5FF",
"V	c #D9F4FF",
"W	c #D5F3FF",
"X	c #D3F2FF",
"Y	c #D0F1FF",
"Z	c #459CE9",
"  ........+     ",
" @########$%    ",
" &#*=-;;>,')!   ",
" ~#{]^/(_:<[}|  ",
" 1#{]^/(_:2{31  ",
" 4#*{56>7{{894  ",
" 0#*abcdefghi0  ",
" jk{]^/(_:2{lj  ",
" mn{]^/(_:2{om  ",
" pqr{stuv{{w$p  ",
" xyzabcdefgABx  ",
" CD{]^/(_:2{EC  ",
" FG{]^/(_:2{HF  ",
" IJK{LMNs{{OPI  ",
" QRoSTBUVHWXYQ  ",
"  ZZZZZZZZZZZ   "};
