/* XPM */
static const char * rt_GroundStation_xpm[] = {
"16 16 121 2",
"  	c None",
". 	c #BDD9F3",
"+ 	c #95AFD2",
"@ 	c #9FBEE1",
"# 	c #A4CAEF",
"$ 	c #A4B4D0",
"% 	c #9CC6ED",
"& 	c #BCCFE6",
"* 	c #BFD0E5",
"= 	c #C7DFF4",
"- 	c #82B6E9",
"; 	c #8DBDEB",
"> 	c #9AC4ED",
", 	c #A8CCF0",
"' 	c #ABC8E7",
") 	c #C4D8F0",
"! 	c #CAE0F5",
"~ 	c #C9DAEE",
"{ 	c #BECEE5",
"] 	c #B9CAE2",
"^ 	c #D2E4F6",
"/ 	c #A1C8EE",
"( 	c #90BFEC",
"_ 	c #9EC7EE",
": 	c #ACCFF1",
"< 	c #B9D6F3",
"[ 	c #C7DCF1",
"} 	c #CDE2F6",
"| 	c #D7E8F7",
"1 	c #E0EDF9",
"2 	c #E9F2FB",
"3 	c #D0E3F5",
"4 	c #D1E4F6",
"5 	c #C4DCF4",
"6 	c #CADFF4",
"7 	c #A2C9EF",
"8 	c #B0D1F1",
"9 	c #BCD8F3",
"0 	c #BBD1EA",
"a 	c #C1D3EA",
"b 	c #CBE0F5",
"c 	c #DDEBF8",
"d 	c #EBF3FB",
"e 	c #F3F7FC",
"f 	c #FAFAFB",
"g 	c #F2F2F5",
"h 	c #E9F2FA",
"i 	c #A8CCEF",
"j 	c #C9DFF4",
"k 	c #BDD8F2",
"l 	c #C6DEF5",
"m 	c #BFDAF4",
"n 	c #C9E0F5",
"o 	c #C9DEF4",
"p 	c #7FAFE0",
"q 	c #106DCC",
"r 	c #87B9E9",
"s 	c #E7F1FA",
"t 	c #FBFCFE",
"u 	c #FEFEFE",
"v 	c #D7E8F6",
"w 	c #AACEF0",
"x 	c #94C0EA",
"y 	c #A6CAED",
"z 	c #C9D9ED",
"A 	c #CADEF3",
"B 	c #6CA2DC",
"C 	c #0666CA",
"D 	c #0D67C7",
"E 	c #B8C2D7",
"F 	c #FFFFFE",
"G 	c #F9F9FA",
"H 	c #F1F1F4",
"I 	c #FDFEFE",
"J 	c #78B1E8",
"K 	c #DEEBF7",
"L 	c #7BB2E6",
"M 	c #63A5E4",
"N 	c #7FB4E8",
"O 	c #C1DBF3",
"P 	c #E6F0FA",
"Q 	c #DCE7F3",
"R 	c #C9D2E1",
"S 	c #F8F8F8",
"T 	c #F3F3F6",
"U 	c #C6DEF4",
"V 	c #8AB9E8",
"W 	c #CEE2F5",
"X 	c #4B98E2",
"Y 	c #237FDA",
"Z 	c #1271D1",
"` 	c #3A82CF",
" .	c #71A0D5",
"..	c #A4C1E3",
"+.	c #C3DAF1",
"@.	c #CEE2F6",
"#.	c #CBE1F5",
"$.	c #B9D6F2",
"%.	c #89B2DE",
"&.	c #6588BB",
"*.	c #DEE3EC",
"=.	c #DEECF8",
"-.	c #569BDF",
";.	c #0A65C7",
">.	c #0B59B5",
",.	c #134D9F",
"'.	c #1E4389",
").	c #2D3D79",
"!.	c #394074",
"~.	c #3C4377",
"{.	c #383D70",
"].	c #6E6F93",
"^.	c #E5E4EA",
"/.	c #0C5AB5",
"(.	c #1356BD",
"_.	c #3E5189",
":.	c #464B7B",
"<.	c #616288",
"[.	c #9091AB",
"}.	c #D6D6E0",
"|.	c #1956C3",
"                                ",
"      . + @ # $ % & *           ",
"  = - ; > , ' ) ! ~ { ] ^       ",
"  / ( _ : < [ } | 1 2 3 4 5     ",
"6 ! 7 8 9 0 a b c d e f g h i   ",
"j k l m n o p q r s t u f u v w ",
"  x y ! z A B C D E u F G H I J ",
"  K L M N O P Q R S u u u T U V ",
"    W X Y Z `  ...+.@.#.$.%.&.*.",
"      =.-.;.>.,.'.).!.~.{.].^.  ",
"          /.>.(._.:.<.[.}.      ",
"          >.>.;.(.~.{.          ",
"          (.(.;.(.(.{.          ",
"          |.|.;.|.(.(.          ",
"          |.|.;.;.(.(.          ",
"                                "};
