/* XPM */
static const char * rt_GroundTrackPlot_xpm[] = {
"32 32 4 1",
" 	c None",
"-	c #FFFFFF",
".	c #000000",
"+	c #FF0000",
"                                ",
"                                ",
"                                ",
"    ......................      ",
"    .+---++---++---++---+.      ",
"    .+---++---++---++---+.      ",
"    .---++---++---++---++.      ",
"    .---++---++---++---++.      ",
"    .---++---++---++---++.      ",
"    .---++---++---++---++.      ",
"    .---++---++---++---++.      ",
"    .--++---++---++---++-.      ",
"    .--++---++---++---++-.      ",
"    .--++---++---++---++-.      ",
"    .--++---++---++---++-.      ",
"    .--++---++---++---++-.      ",
"    .-++---++---++---++--.      ",
"    .-++---++---++---++--.      ",
"    .-++---++---++---++--.      ",
"    .-++---++---++---++--.      ",
"    .-++---++---++---++--.      ",
"    .++---++---++---++-- .      ",
"    .++---++---++---++---.      ",
"    .++---++---++---++---.      ",
"    .++---++---++---++---.      ",
"    .++---++---++---++---.      ",
"    ......................      ",
"                                ",
"                                ",
"                                ",
"                                ",
"                                "};
