/* XPM */
static const char * rt_ImpulsiveBurn_xpm[] = {
"16 16 94 2",
"  	c None",
". 	c #FFFFFF",
"+ 	c #BDBEBD",
"@ 	c #848484",
"# 	c #A2A5AB",
"$ 	c #ABB0B5",
"% 	c #737373",
"& 	c #292929",
"* 	c #DCD8D6",
"= 	c #B38784",
"- 	c #AAA5A5",
"; 	c #5A3944",
"> 	c #4A6194",
", 	c #5A6994",
"' 	c #74798B",
") 	c #979B9F",
"! 	c #D4D4D4",
"~ 	c #BFA78C",
"{ 	c #BEA69C",
"] 	c #B2786B",
"^ 	c #BF6D08",
"/ 	c #A54E18",
"( 	c #A24436",
"_ 	c #31498C",
": 	c #314584",
"< 	c #425184",
"[ 	c #52597B",
"} 	c #424963",
"| 	c #6B696B",
"1 	c #393831",
"2 	c #D0C8C6",
"3 	c #BFA084",
"4 	c #BC6831",
"5 	c #AD1000",
"6 	c #C63C00",
"7 	c #B74721",
"8 	c #9A6E36",
"9 	c #29417B",
"0 	c #29386B",
"a 	c #293463",
"b 	c #314163",
"c 	c #313439",
"d 	c #CB9C9C",
"e 	c #BE665A",
"f 	c #D63800",
"g 	c #AD0400",
"h 	c #AD1800",
"i 	c #E06317",
"j 	c #E16F1F",
"k 	c #AA5F2E",
"l 	c #21305A",
"m 	c #292831",
"n 	c #BB8484",
"o 	c #BD0000",
"p 	c #C63000",
"q 	c #D74608",
"r 	c #FF9526",
"s 	c #FF8A08",
"t 	c #B2722E",
"u 	c #AF5042",
"v 	c #DE5500",
"w 	c #AD0800",
"x 	c #DF5E0F",
"y 	c #AA6A2E",
"z 	c #ECE7E7",
"A 	c #BC918C",
"B 	c #CF5E08",
"C 	c #AA6A36",
"D 	c #BFA38C",
"E 	c #BA8B7B",
"F 	c #B75521",
"G 	c #BB7718",
"H 	c #B45A18",
"I 	c #A2583D",
"J 	c #39456B",
"K 	c #4A516B",
"L 	c #292C31",
"M 	c #D5CECE",
"N 	c #C33C18",
"O 	c #8D4E31",
"P 	c #834826",
"Q 	c #31417B",
"R 	c #42598C",
"S 	c #525D84",
"T 	c #5A657B",
"U 	c #6F7177",
"V 	c #939597",
"W 	c #52514B",
"X 	c #58647E",
"Y 	c #7B8AAD",
"Z 	c #7E8694",
"` 	c #ABABAF",
" .	c #737573",
"..	c #101010",
". . . . . . . . . . . . . . . . ",
". . . . . . . . . . . . . . + @ ",
". . . . . . . # $ . . . . . % & ",
". . . . * = - ; > , ' ) ! . % & ",
". . ~ { ] ^ / ( _ : < [ } | 1 & ",
". 2 3 4 5 6 7 8 _ : 9 0 a b c & ",
"d e f g h i j k _ : 9 0 a l m & ",
"n o p q r s j t _ : 9 0 a l m & ",
"n u v w h x j y _ : 9 0 a l m & ",
"z A 3 B 5 6 7 C _ : 9 0 a l m & ",
". . D E F G H I _ : 9 0 J K L & ",
". . . . M N O P Q R S T U V W & ",
". . . . . . . X Y Z ` . . . % & ",
". . . . . . . . . . . . . .  ...",
". . . . . . . . . . . . . . . . ",
". . . . . . . . . . . . . . . . "};
