/* XPM */
static const char * rt_MatlabFunction_xpm[] = {
"16 16 12 1",
" 	c None",
".	c #FFFFFF",
"+	c #0065CE",
"@	c #0055B5",
"#	c #00499C",
"$	c #003C84",
"%	c #003063",
"&	c #00244A",
"*	c #001831",
"=	c #000C18",
"-	c #393C42",
";	c #080810",
"................",
"................",
"................",
"................",
"....+@#$%&*=....",
".-..+@#$%&*=.-..",
".;-.+@#$%&*=.;-.",
"-;;-+@#$%&*=-;;-",
"-;;-+@#$%&*=-;;-",
".;-.+@#$%&*=.;-.",
".-..+@#$%&*=.-..",
"....+@#$%&*=....",
"................",
"................",
"................",
"................"};
