/* XPM */
static const char * rt_NuclearPowerSystem_xpm[] = {
"16 16 90 1",
" 	c None",
".	c #6D6E71",
"+	c #727376",
"@	c #ABADB0",
"#	c #DDDFDF",
"$	c #CBCCCE",
"%	c #C6C7C9",
"&	c #CCCDCE",
"*	c #B0B2B4",
"=	c #8F9093",
"-	c #D9DADB",
";	c #C3C4C6",
">	c #BEBFC1",
",	c #C7C8CA",
"'	c #8B8D90",
")	c #86888A",
"!	c #D3D5D6",
"~	c #BCBDBE",
"{	c #B4B5B7",
"]	c #AFB1B3",
"^	c #838487",
"/	c #FFC700",
"(	c #FFCC13",
"_	c #F6C208",
":	c #D6B338",
"<	c #D4CEB6",
"[	c #B1B3B5",
"}	c #9C9EA1",
"|	c #A6A8AB",
"1	c #888A8D",
"2	c #FFCA09",
"3	c #E0C353",
"4	c #ACA78A",
"5	c #98968A",
"6	c #FBC914",
"7	c #B1A885",
"8	c #989A9D",
"9	c #8E8F92",
"0	c #FFC800",
"a	c #FFE559",
"b	c #7A7870",
"c	c #716F70",
"d	c #F9C60A",
"e	c #A5A08A",
"f	c #929396",
"g	c #FFD30B",
"h	c #FFE956",
"i	c #E1CE56",
"j	c #575556",
"k	c #6D6956",
"l	c #625F56",
"m	c #FFD200",
"n	c #DAB83C",
"o	c #9E9FA2",
"p	c #858689",
"q	c #FFDC00",
"r	c #FFE432",
"s	c #FFE53C",
"t	c #DDC73C",
"u	c #F2DA3C",
"v	c #F9C50A",
"w	c #9EA0A2",
"x	c #85878A",
"y	c #CFB400",
"z	c #BFA603",
"A	c #CFB718",
"B	c #FFE120",
"C	c #312C22",
"D	c #BFA918",
"E	c #A2A4A7",
"F	c #403700",
"G	c #000000",
"H	c #100E00",
"I	c #FFDD00",
"J	c #A7A9AB",
"K	c #7E7F82",
"L	c #605300",
"M	c #806F00",
"N	c #B1B3B6",
"O	c #77787B",
"P	c #BFA600",
"Q	c #504500",
"R	c #B5B7B9",
"S	c #757679",
"T	c #9F8A00",
"U	c #EFCF00",
"V	c #86878A",
"W	c #FFE74D",
"X	c #F4DD4D",
"Y	c #959699",
"       ........ ",
"       +@#$%&*. ",
"        =-;>,'  ",
"        )!~{]^  ",
"   //((_:<[}|1  ",
"  2345543678|9  ",
" 0abccccbade|f  ",
"/ghijkljihmn|op ",
"/qrstuutsrqv|wx ",
"/yzABCCBDzy/|E^ ",
"/FGHIHHIGGF/|JK ",
"/LGGMIIMGGL/|NO ",
"/PGGQIIQGGP/|RS ",
"/ITHUIIUHTI/|RV ",
"/WWXWWWWXWW/|RY.",
"////////////...."};
