/* XPM */
static const char * rt_OrbitView_xpm[] = {
"16 16 119 2",
"  	c None",
". 	c #FFFFFF",
"+ 	c #F9F9F9",
"@ 	c #E1E2E1",
"# 	c #E7E5E7",
"$ 	c #F3F0F3",
"% 	c #DCDFE1",
"& 	c #DEDBD6",
"* 	c #848E6B",
"= 	c #5A695A",
"- 	c #637173",
"; 	c #A5AEBD",
"> 	c #396173",
", 	c #42656B",
"' 	c #BDC7BD",
") 	c #CECFC6",
"! 	c #9CA26B",
"~ 	c #738E52",
"{ 	c #6B825A",
"] 	c #395D63",
"^ 	c #103C52",
"/ 	c #104152",
"( 	c #315D63",
"_ 	c #5A6D52",
": 	c #BDC7B5",
"< 	c #D6DFE7",
"[ 	c #738A73",
"} 	c #638E5A",
"| 	c #316563",
"1 	c #10455A",
"2 	c #10415A",
"3 	c #21515A",
"4 	c #63755A",
"5 	c #E7E3DE",
"6 	c #5A8294",
"7 	c #4A7573",
"8 	c #29657B",
"9 	c #104963",
"0 	c #08415A",
"a 	c #104563",
"b 	c #29515A",
"c 	c #9C9A8C",
"d 	c #6B7D84",
"e 	c #ADA294",
"f 	c #F4F4F8",
"g 	c #105573",
"h 	c #316D73",
"i 	c #296173",
"j 	c #185573",
"k 	c #10496B",
"l 	c #08455A",
"m 	c #9C9A9C",
"n 	c #EFCFBD",
"o 	c #E7C7B5",
"p 	c #CEAE9C",
"q 	c #F8F4F1",
"r 	c #F1C0C4",
"s 	c #104D6B",
"t 	c #316573",
"u 	c #8CA673",
"v 	c #73967B",
"w 	c #105173",
"x 	c #AD9E8C",
"y 	c #E7C3AD",
"z 	c #E7BEAD",
"A 	c #D6B29C",
"B 	c #F7B6B5",
"C 	c #F4989A",
"D 	c #5A344A",
"E 	c #BD3431",
"F 	c #CE4929",
"G 	c #9C9252",
"H 	c #6B7163",
"I 	c #314563",
"J 	c #525552",
"K 	c #CE3C31",
"L 	c #D63429",
"M 	c #AD5942",
"N 	c #F79694",
"O 	c #FFFDFF",
"P 	c #395D73",
"Q 	c #314552",
"R 	c #8C7942",
"S 	c #C64521",
"T 	c #D64121",
"U 	c #D63C31",
"V 	c #BD1818",
"W 	c #A52831",
"X 	c #393C5A",
"Y 	c #5A5D4A",
"Z 	c #948E6B",
"` 	c #9CB2BD",
" .	c #63695A",
"..	c #7B8642",
"+.	c #7B824A",
"@.	c #526D6B",
"#.	c #6B715A",
"$.	c #A5AA94",
"%.	c #5A6163",
"&.	c #8C865A",
"*.	c #31595A",
"=.	c #084563",
"-.	c #18495A",
";.	c #AD9E94",
">.	c #F7F7F7",
",.	c #D6DFDE",
"'.	c #63757B",
").	c #31515A",
"!.	c #08344A",
"~.	c #083C52",
"{.	c #084152",
"].	c #08384A",
"^.	c #4A6D7B",
"/.	c #B5BEC6",
"(.	c #5A7984",
"_.	c #315563",
":.	c #5A7584",
"<.	c #ADBABD",
"[.	c #F7F3F7",
". . . . . . . . . . . . . . . . ",
". . . . . + @ # $ % + . . . . . ",
". . . . & * = - ; > , ' . . . . ",
". . . ) ! ~ { ] ^ / ( _ : . . . ",
". . < [ } | 1 ^ / 2 3 4 4 5 . . ",
". . 6 7 8 9 0 a 9 1 b c d e . . ",
". f g h i j k k l a m n o p q . ",
". r s t u v w k a 9 x y z A B . ",
". C D E F G H I I I J K L M N . ",
". O P Q R S T U V V W X Y Z . . ",
". . ` 2  ...+.@.a 9 9 2 #.$.. . ",
". . . > %.&.*.9 =.9 0 -.;.>.. . ",
". . . ,.'.).!.!.~.{.].^.>.. . . ",
". . . . . /.(._._.:.<.[.. . . . ",
". . . . . . . . . . . . . . . . ",
". . . . . . . . . . . . . . . . "};
