/* XPM */
static const char * rt_Propagator_xpm[] = {
"16 16 40 1",
" 	c None",
".	c #FFFFFF",
"+	c #B0B3D6",
"@	c #808092",
"#	c #D9D8F3",
"$	c #A4A3B6",
"%	c #7C7BC2",
"&	c #35355A",
"*	c #9A99D6",
"=	c #F7F7F7",
"-	c #EFEFEF",
";	c #EAEAFC",
">	c #7779DC",
",	c #4B4EBF",
"'	c #4B4BA5",
")	c #B9B9D4",
"!	c #B7B8CA",
"~	c #1F1F44",
"{	c #10101E",
"]	c #D6D6D6",
"^	c #C5C6F0",
"/	c #181CAD",
"(	c #18188C",
"_	c #7474A9",
":	c #2F3367",
"<	c #0F0F37",
"[	c #000010",
"}	c #BDBDBD",
"|	c #363682",
"1	c #EFEFF3",
"2	c #BFBFC9",
"3	c #94949A",
"4	c #7B7BAD",
"5	c #A2A2C5",
"6	c #F8F8FC",
"7	c #9696CE",
"8	c #4D509D",
"9	c #4D4D8B",
"0	c #A1A2C7",
"a	c #F9F9FA",
"................",
"................",
"......+@.#$.....",
"......%&.*&.....",
"..........=-....",
"....;>,')!~{]...",
".....^/(_:<[}...",
".....^/(|123....",
".....^/(4.......",
".....^/(5.......",
".....^/(5.......",
".....^/(5.......",
".....^/(5.......",
"....67890a......",
"................",
"................"};
