/* XPM */
static const char * rt_SolarPowerSystem_xpm[] = {
"16 16 47 1",
" 	c None",
".	c #4C93F7",
"+	c #4D96F9",
"@	c #4C97FA",
"#	c #478CED",
"$	c #488EEF",
"%	c #4B92F1",
"&	c #4385E4",
"*	c #3F7ED8",
"=	c #407DD9",
"-	c #3E7CD5",
";	c #000000",
">	c #3870C7",
",	c #3A75CD",
"'	c #376FC5",
")	c #376EC4",
"!	c #3A76CE",
"~	c #3673CB",
"{	c #356DC3",
"]	c #356EC2",
"^	c #356FC4",
"/	c #2E66BF",
"(	c #3165B7",
"_	c #3065B5",
":	c #3166B7",
"<	c #3065B6",
"[	c #285FB4",
"}	c #2C5FB0",
"|	c #2C5DAC",
"1	c #2B5DAB",
"2	c #2457A8",
"3	c #2856A4",
"4	c #2755A1",
"5	c #1F4F9D",
"6	c #224D95",
"7	c #224D96",
"8	c #214C93",
"9	c #234E95",
"0	c #1B4690",
"a	c #1F488D",
"b	c #20488F",
"c	c #1A4089",
"d	c #3666B1",
"e	c #3564AF",
"f	c #3463AE",
"g	c #3664AF",
"h	c #214A8F",
"                ",
"                ",
"         .+@    ",
"        #$ %    ",
"        &       ",
"       *=-      ",
";;    >,')!   ~ ",
"  ;;   {] ^    /",
"   ;;  ( _:< < [",
" ;;;  }| |  1  2",
";     34 4  4  5",
"      6  789 7 0",
"      a   b    c",
"    de    f   g ",
"    h           ",
"                "};
