/* XPM */
static const char * rt_Script_xpm[] = {
"16 16 173 2",
"  	c None",
". 	c #6868C8",
"+ 	c #6667C4",
"@ 	c #6565C0",
"# 	c #6363BC",
"$ 	c #6262B8",
"% 	c #6060B4",
"& 	c #5E5EAF",
"* 	c #5C5CAB",
"= 	c #5A5AA7",
"- 	c #5858A2",
"; 	c #734E82",
"> 	c #B03034",
", 	c #B83131",
"' 	c #98394D",
") 	c #6A6ACA",
"! 	c #9798F0",
"~ 	c #9B9BF4",
"{ 	c #9797F2",
"] 	c #9393EF",
"^ 	c #8F90EC",
"/ 	c #8C8CEA",
"( 	c #8888E7",
"_ 	c #8585E5",
": 	c #8383E3",
"< 	c #8A78BA",
"[ 	c #B23639",
"} 	c #DA4B4B",
"| 	c #E35151",
"1 	c #B53333",
"2 	c #6969CA",
"3 	c #9E9FF6",
"4 	c #8985C5",
"5 	c #89888E",
"6 	c #A08688",
"7 	c #C14444",
"8 	c #C03939",
"9 	c #BC3939",
"0 	c #A02A2B",
"a 	c #6B6BCA",
"b 	c #6969C6",
"c 	c #6868C3",
"d 	c #6566BF",
"e 	c #6464BB",
"f 	c #6262B7",
"g 	c #6060B2",
"h 	c #6F689C",
"i 	c #927D62",
"j 	c #BABABB",
"k 	c #D4D4D4",
"l 	c #8C7374",
"m 	c #AF3838",
"n 	c #9F2B2E",
"o 	c #99A1C0",
"p 	c #F3F3FA",
"q 	c #ECEEFB",
"r 	c #EBEDFB",
"s 	c #EAECFA",
"t 	c #E9EBF9",
"u 	c #E8EAF9",
"v 	c #E3DCD9",
"w 	c #CE9B40",
"x 	c #F1DD83",
"y 	c #BBB399",
"z 	c #B4B4B6",
"A 	c #A7A7A9",
"B 	c #78595B",
"C 	c #8C7B88",
"D 	c #A2ACBF",
"E 	c #FAFAFD",
"F 	c #F1F4FE",
"G 	c #F1F3FD",
"H 	c #F0F2FD",
"I 	c #EFF1FD",
"J 	c #E9E2DC",
"K 	c #CF9C41",
"L 	c #F4E183",
"M 	c #F0D36F",
"N 	c #D89D2F",
"O 	c #836E50",
"P 	c #7A7A7C",
"Q 	c #D3CED0",
"R 	c #88909F",
"S 	c #F8F9FC",
"T 	c #F0F1FD",
"U 	c #DC9F2C",
"V 	c #CF810B",
"W 	c #C18135",
"X 	c #D6D0D8",
"Y 	c #F6F6FC",
"Z 	c #878F9E",
"` 	c #F7F8FB",
" .	c #EEF0FD",
"..	c #E8E1DC",
"+.	c #C38131",
"@.	c #DDD5DB",
"#.	c #E2E3FA",
"$.	c #F5F5FC",
"%.	c #F6F7FA",
"&.	c #E8E0DB",
"*.	c #C28031",
"=.	c #D9D2DA",
"-.	c #E1E2FA",
";.	c #DFE0F9",
">.	c #A1ABBE",
",.	c #F5F6FA",
"'.	c #EDEEFA",
").	c #C89742",
"!.	c #EBCE6F",
"~.	c #C18031",
"{.	c #D5CFDA",
"].	c #DEDEF5",
"^.	c #D6D7EF",
"/.	c #D0D0EA",
"(.	c #E1E1E8",
"_.	c #818896",
":.	c #A0AABD",
"<.	c #F4F4F9",
"[.	c #E2D9CA",
"}.	c #DAC65D",
"|.	c #CB912F",
"1.	c #D7982A",
"2.	c #BB7C30",
"3.	c #C5C0CE",
"4.	c #C6C6DB",
"5.	c #B4B5CA",
"6.	c #ADADC3",
"7.	c #AFB0C7",
"8.	c #CBCBD2",
"9.	c #7B828F",
"0.	c #9EA7BA",
"a.	c #F5F5FA",
"b.	c #D1BE90",
"c.	c #E7D667",
"d.	c #E2C259",
"e.	c #C68223",
"f.	c #B87728",
"g.	c #9A949A",
"h.	c #9393A2",
"i.	c #8E8E9E",
"j.	c #9595A6",
"k.	c #A3A3B8",
"l.	c #B3B3CB",
"m.	c #D9D9E0",
"n.	c #828A98",
"o.	c #9BA4B7",
"p.	c #F1F1F2",
"q.	c #9D8748",
"r.	c #DDBC59",
"s.	c #C9A854",
"t.	c #9B8557",
"u.	c #7C766E",
"v.	c #7E7E81",
"w.	c #919194",
"x.	c #ABABB0",
"y.	c #C7C7CE",
"z.	c #DDDDE4",
"A.	c #EAEAF2",
"B.	c #EEEEF3",
"C.	c #848C9C",
"D.	c #9CA4B4",
"E.	c #8F9297",
"F.	c #60563E",
"G.	c #656053",
"H.	c #53555A",
"I.	c #53575D",
"J.	c #5C6068",
"K.	c #6B707C",
"L.	c #777E8C",
"M.	c #7F8696",
"N.	c #828A9A",
"O.	c #838B9B",
"P.	c #545963",
"                                ",
"  . + @ # $ % & * = - ; > , '   ",
") ! ~ { ] ^ / ( _ : < [ } | 1   ",
"2 3 ~ { ] ^ / ( _ 4 5 6 7 8 9 0 ",
"2 a b c d e f g h i j k l m n   ",
"o p q r s t u v w x y z A B C   ",
"D E F G H I J K L M N O P Q R   ",
"D S H T I J K L M U V W X Y Z   ",
"D ` T  ...K L M U V +.@.#.$.Z   ",
"D %. .&.K L M U V *.=.-.;.p Z   ",
">.,.'.).!.M U V ~.{.].^./.(._.  ",
":.<.[.}.|.1.V 2.3.4.5.6.7.8.9.  ",
"0.a.b.c.d.e.f.g.h.i.j.k.l.m.n.  ",
"o.p.q.r.s.t.u.v.w.x.y.z.A.B.C.  ",
"D.E.F.G.H.I.J.K.L.M.N.C.C.O.P.  ",
"                                "};
