/* XPM */
static const char * rt_SolarPowerSystem_xpm[] = {
"16 16 44 1",
" 	c None",
".	c #B4B6B8",
"+	c #AEB0B2",
"@	c #9EC5FC",
"#	c #D6D7D8",
"$	c #A8AAAC",
"%	c #A9BDDB",
"&	c #C8C9CA",
"*	c #A2A4A6",
"=	c #7CA7E5",
"-	c #C1C2C4",
";	c #75A2E3",
">	c #6698E0",
",	c #538BDC",
"'	c #9C9EA0",
")	c #90A5C7",
"!	c #B5B6B9",
"~	c #879EC2",
"{	c #A7A9AB",
"]	c #718EB8",
"^	c #6B89B5",
"/	c #96989A",
"(	c #5681C5",
"_	c #A7A8AA",
":	c #4A77C0",
"<	c #3E6FBC",
"[	c #3367B9",
"}	c #3166B8",
"|	c #8F9194",
"1	c #758BAE",
"2	c #7288AC",
"3	c #6C83A9",
"4	c #6880A6",
"5	c #647DA5",
"6	c #898B8E",
"7	c #234F98",
"8	c #87898C",
"9	c #838588",
"0	c #62789D",
"a	c #929497",
"b	c #909295",
"c	c #29549D",
"d	c #8B8C8F",
"e	c #86878A",
"                ",
"                ",
"                ",
"................",
"+@@@@#@@@@#@@@@+",
"$%%%%&%%%%&%%%%$",
"*====-====-=;>,*",
"'))))!)))~{]^^^'",
"/((((_:<[}/}}}}/",
"|1234/5555/5555|",
"6777787777877776",
"90000a0000a00009",
"bccccdccccdccccb",
"eeeeeeeeeeeeeeee",
"                ",
"                "};
