/* XPM */
static const char * rt_Spacecraft_xpm[] = {
"16 16 65 1",
" 	c None",
".	c #FFFFFF",
"+	c #7B7D7B",
"@	c #4A3C7B",
"#	c #63657B",
"$	c #7BA6FF",
"%	c #4A65E7",
"&	c #3130FF",
"*	c #080C7B",
"=	c #7B867B",
"-	c #4A55FF",
";	c #4255FF",
">	c #4A597B",
",	c #4A30FF",
"'	c #18187B",
")	c #393C39",
"!	c #000000",
"~	c #638EF7",
"{	c #4A3CF7",
"]	c #313452",
"^	c #8C8E8C",
"/	c #C6C7C6",
"(	c #31415A",
"_	c #313C73",
":	c #8C657B",
"<	c #21285A",
"[	c #31285A",
"}	c #4A387B",
"|	c #6365F7",
"1	c #2124FF",
"2	c #2130FF",
"3	c #080000",
"4	c #392400",
"5	c #21247B",
"6	c #210000",
"7	c #521800",
"8	c #7B9AF7",
"9	c #5A49FF",
"0	c #313C7B",
"a	c #311800",
"b	c #8C5500",
"c	c #9C6500",
"d	c #633000",
"e	c #290C00",
"f	c #634D00",
"g	c #CEB631",
"h	c #C68E00",
"i	c #180C00",
"j	c #5A2400",
"k	c #4A2400",
"l	c #632400",
"m	c #E7CF63",
"n	c #CE9A31",
"o	c #733C00",
"p	c #421800",
"q	c #DEC34A",
"r	c #A57100",
"s	c #BDBEBD",
"t	c #845900",
"u	c #B57D18",
"v	c #7B4900",
"w	c #73715A",
"x	c #5A3C00",
"y	c #4A3000",
"z	c #635939",
"................",
"................",
"..+@+......+#+..",
"+#$%&*=..+@-&;@+",
".+>$%,')!>~{&'+.",
"...+>]^//^(_+...",
"...+:<^//^[}+...",
".+>|12'34>~{15+.",
"+#$~{'6776>8{90+",
"..+>+abcdde+>+..",
".....fghcbi.....",
"....+jghcbk+....",
"....+lmbnop+....",
"....+cqrnod+....",
"....stqruvks....",
".....swxyzs....."};
