/* XPM */
static const char * rt_Thruster_xpm[] = {
"16 16 63 1",
" 	c None",
".	c #FFFFFF",
"+	c #8091CB",
"@	c #AAB3D8",
"#	c #CBCCD9",
"$	c #E7E3EF",
"%	c #F7F3F7",
"&	c #F7F7F7",
"*	c #F0ECF0",
"=	c #858485",
"-	c #292929",
";	c #393939",
">	c #4261BD",
",	c #4A65AD",
"'	c #556AA2",
")	c #747DA2",
"!	c #9698AD",
"~	c #B3B4BA",
"{	c #C5BFC5",
"]	c #6D706D",
"^	c #101010",
"/	c #181818",
"(	c #425DBD",
"_	c #3955A5",
":	c #314D94",
"<	c #394D8C",
"[	c #39497B",
"}	c #475677",
"|	c #626878",
"1	c #4B4E4B",
"2	c #080808",
"3	c #314584",
"4	c #293C7B",
"5	c #29346B",
"6	c #293863",
"7	c #262D36",
"8	c #21306B",
"9	c #213063",
"0	c #262A36",
"a	c #21305A",
"b	c #263136",
"c	c #395194",
"d	c #39518C",
"e	c #394D7B",
"f	c #525D77",
"g	c #6F717E",
"h	c #4B5152",
"i	c #526DC6",
"j	c #576DB7",
"k	c #6977A5",
"l	c #8791AD",
"m	c #AAAFB9",
"n	c #C9CAC9",
"o	c #CDCACD",
"p	c #797579",
"q	c #9AA7CD",
"r	c #B2B9C5",
"s	c #D9D7E1",
"t	c #EFEFF7",
"u	c #F7EFF7",
"v	c #9E999E",
"w	c #525552",
"x	c #5F615F",
"................",
"................",
"................",
"...+@#$%&*=-;...",
"...>,')!~{]^/...",
"...(_:<[}|12/...",
"...(_:345672/...",
"...(_:348902/...",
"...(_:348a02/...",
"...(_:3456b2/...",
"...(_cdefgh2/...",
"...ijklmnop^/...",
"...qrst&.uvwx...",
"................",
"................",
"................"};
