/* XPM */
static const char * rt_Transmitter_xpm[] = {
"16 16 138 2",
"  	c None",
". 	c #F2F1F4",
"+ 	c #BDBECE",
"@ 	c #7C7D9E",
"# 	c #F3F4F6",
"$ 	c #B8B9CA",
"% 	c #5F628A",
"& 	c #9697B1",
"* 	c #B4B5C7",
"= 	c #484A79",
"- 	c #545581",
"; 	c #E6E6EC",
"> 	c #D0D1DB",
", 	c #9C9DB6",
"' 	c #C9CAD6",
") 	c #C7C8D6",
"! 	c #E0E0E8",
"~ 	c #C1C4D4",
"{ 	c #BBC3D7",
"] 	c #D9E9F7",
"^ 	c #A4B4D0",
"/ 	c #C0DAF3",
"( 	c #9FBEE1",
"_ 	c #95AFD2",
": 	c #BDD9F3",
"< 	c #ECF4FA",
"[ 	c #B9CAE2",
"} 	c #BECEE5",
"| 	c #C9DAEE",
"1 	c #CAE0F5",
"2 	c #A7BBDA",
"3 	c #ABC8E7",
"4 	c #A8CCF0",
"5 	c #9AC4ED",
"6 	c #8DBDEB",
"7 	c #82B6E9",
"8 	c #C7DFF4",
"9 	c #C4DCF4",
"0 	c #D1E4F6",
"a 	c #BDC2D4",
"b 	c #E9F2FB",
"c 	c #E0EDF9",
"d 	c #D7E8F7",
"e 	c #CDE2F6",
"f 	c #9DB0CF",
"g 	c #B9D6F3",
"h 	c #ACCFF1",
"i 	c #9EC7EE",
"j 	c #90BFEC",
"k 	c #A1C8EE",
"l 	c #A8CCEF",
"m 	c #E9F2FA",
"n 	c #E0E1E8",
"o 	c #E0E2EA",
"p 	c #F3F7FC",
"q 	c #EBF3FB",
"r 	c #DDEBF8",
"s 	c #CBE0F5",
"t 	c #B4C3DC",
"u 	c #BBD1EA",
"v 	c #BCD8F3",
"w 	c #B0D1F1",
"x 	c #A2C9EF",
"y 	c #CADFF4",
"z 	c #AACEF0",
"A 	c #D7E8F6",
"B 	c #FEFEFE",
"C 	c #C7C8D5",
"D 	c #FBFCFE",
"E 	c #E7F1FA",
"F 	c #87B9E9",
"G 	c #106DCC",
"H 	c #7FAFE0",
"I 	c #A5B4D1",
"J 	c #C9E0F5",
"K 	c #BFDAF4",
"L 	c #C6DEF5",
"M 	c #BDD8F2",
"N 	c #C9DFF4",
"O 	c #78B1E8",
"P 	c #FDFEFE",
"Q 	c #E1E2E8",
"R 	c #E4E4EA",
"S 	c #FFFFFE",
"T 	c #B8C2D7",
"U 	c #0D67C7",
"V 	c #0666CA",
"W 	c #6CA2DC",
"X 	c #BDC9DE",
"Y 	c #C9D9ED",
"Z 	c #A6CAED",
"` 	c #94C0EA",
" .	c #8AB9E8",
"..	c #C6DEF4",
"+.	c #C8C9D5",
"@.	c #F8F8F8",
"#.	c #C9D2E1",
"$.	c #DCE7F3",
"%.	c #E6F0FA",
"&.	c #C1DBF3",
"*.	c #7FB4E8",
"=.	c #63A5E4",
"-.	c #7BB2E6",
";.	c #DEEBF7",
">.	c #DEE3EC",
",.	c #6588BB",
"'.	c #89B2DE",
").	c #B9D6F2",
"!.	c #CBE1F5",
"~.	c #CEE2F6",
"{.	c #C3DAF1",
"].	c #A4C1E3",
"^.	c #71A0D5",
"/.	c #3A82CF",
"(.	c #1271D1",
"_.	c #237FDA",
":.	c #4B98E2",
"<.	c #CEE2F5",
"[.	c #E5E4EA",
"}.	c #6E6F93",
"|.	c #383D70",
"1.	c #3C4377",
"2.	c #394074",
"3.	c #2D3D79",
"4.	c #1E4389",
"5.	c #134D9F",
"6.	c #0B59B5",
"7.	c #0A65C7",
"8.	c #569BDF",
"9.	c #DEECF8",
"0.	c #D6D6E0",
"a.	c #9091AB",
"b.	c #616288",
"c.	c #464B7B",
"d.	c #3E5189",
"e.	c #4A6CA7",
"f.	c #7A9FCE",
"g.	c #CEDFF0",
"          .                     ",
"          + @ #                 ",
"          $ % &                 ",
"          * = - ;               ",
"          > , > ' ) !           ",
"          ~ { ] ^ / ( _ :       ",
"      < [ } | 1 2 3 4 5 6 7 8   ",
"    9 0 a b c d e f g h i j k   ",
"  l m n o p q r s t u v w x 1 y ",
"z A B C B D E F G H I J K L M N ",
"O P Q R S B T U V W X Y 1 Z `   ",
" ...+.B B B @.#.$.%.&.*.=.-.;.  ",
">.,.'.).!.~.{.].^./.(._.:.<.    ",
"  [.}.|.1.2.3.4.5.6.7.8.9.      ",
"      0.a.b.c.d.e.f.g.          ",
"                                "};
