/* XPM */
static const char * rt_Tank_xpm[] = {
"16 16 43 1",
" 	c None",
".	c #FFFFFF",
"+	c #525252",
"@	c #393939",
"#	c #ADADAD",
"$	c #CECECE",
"%	c #F7F7F7",
"&	c #363D4B",
"*	c #2F3944",
"=	c #AFAFB2",
"-	c #A5ADC0",
";	c #4762AF",
">	c #394D8C",
",	c #293C73",
"'	c #212C52",
")	c #646674",
"!	c #A8B0C7",
"~	c #526DCE",
"{	c #425DAD",
"]	c #101C31",
"^	c #474A4D",
"/	c #6781E7",
"(	c #080C18",
"_	c #C5C8D2",
":	c #637DE7",
"<	c #6B6B6B",
"[	c #BEC1CC",
"}	c #5A5A5A",
"|	c #E8E9EB",
"1	c #8C8C8C",
"2	c #8998CF",
"3	c #171B26",
"4	c #7889C8",
"5	c #1E2A3D",
"6	c #CECECF",
"7	c #B4B9C4",
"8	c #364064",
"9	c #1F2E4F",
"0	c #7B8089",
"a	c #B9BAC0",
"b	c #BDBFC1",
"c	c #C1C3C7",
"d	c #A5A7AA",
"................",
"..+++++@#.......",
".......@@$......",
"......%&*=......",
".....-;>,')%....",
"....!~{>,']^....",
"...%/~{>,'](#...",
"..._:~{>,'](<...",
"...[:~{>,'](}...",
"...|:~{>,'](1...",
"....2~{>,']3%...",
"....%4{>,'56....",
"......7890%.....",
".......ab#......",
".......cd++++@..",
"................"};
