/* XPM */
static const char * rt_Variable_xpm[] = {
"16 16 63 1",
" 	c None",
".	c #FFFFFF",
"+	c #F1F1F4",
"@	c #C7C8EC",
"#	c #989CD4",
"$	c #E1E1EE",
"%	c #C9CACD",
"&	c #777985",
"*	c #CACBCC",
"=	c #D8D9E8",
"-	c #908FC7",
";	c #3540A8",
">	c #454892",
",	c #F8F8F8",
"'	c #C9CACF",
")	c #6C7185",
"!	c #373744",
"~	c #747474",
"{	c #8C8FBA",
"]	c #1E227B",
"^	c #C8C9DB",
"/	c #AFB0C2",
"(	c #D2D3D8",
"_	c #C7C9C9",
":	c #D9DADB",
"<	c #C5C6D6",
"[	c #262D87",
"}	c #7171A4",
"|	c #E1E1E7",
"1	c #F5F5F7",
"2	c #4B519B",
"3	c #5C5C89",
"4	c #6166A7",
"5	c #4B4A87",
"6	c #EEEEF1",
"7	c #C0C1D8",
"8	c #8086B6",
"9	c #2D2D71",
"0	c #C9C9D2",
"a	c #E4E4EF",
"b	c #C4C5E4",
"c	c #E1E2EF",
"d	c #1F2269",
"e	c #9A9CB0",
"f	c #F9F9F9",
"g	c #E0E1E3",
"h	c #F7F7F7",
"i	c #BCBDD9",
"j	c #AFB0D8",
"k	c #B8BBE8",
"l	c #DCDDE5",
"m	c #F8F8F9",
"n	c #373D79",
"o	c #616389",
"p	c #B2B3BE",
"q	c #D6D8DA",
"r	c #B6B7F2",
"s	c #6068D4",
"t	c #C7C8DA",
"u	c #9FA0BF",
"v	c #272B5A",
"w	c #ABAFB9",
"x	c #F2F2F2",
"................",
"................",
"................",
"....+@#$..%&*...",
"....=-;>,')!~...",
".....,{]^/(_:...",
"......<[}|......",
"......123.......",
"......1456......",
"......7890......",
".....abcdefgh...",
"...ijklmnopq....",
"...rst..uvwx....",
"................",
"................",
"................"};
