/* XPM */
static const char * rt_XYPlot_xpm[] = {
"16 16 84 1",
" 	c None",
".	c #848284",
"+	c #FFFFFF",
"@	c #8C8A8C",
"#	c #CEDBF7",
"$	c #738AE7",
"%	c #5A7DEF",
"&	c #AFB8EF",
"*	c #848684",
"=	c #E7E7FF",
"-	c #5275D6",
";	c #8095E9",
">	c #96AAE9",
",	c #5C79D8",
"'	c #BFC8EF",
")	c #7B797B",
"!	c #94A6DE",
"~	c #627ED9",
"{	c #DEDFF7",
"]	c #FFFBFF",
"^	c #748DD8",
"/	c #6985D2",
"(	c #5A6173",
"_	c #5269BD",
":	c #8FA1E7",
"<	c #BDC7F7",
"[	c #5A75C5",
"}	c #B7C0E7",
"|	c #39415A",
"1	c #556AB9",
"2	c #DEE3F7",
"3	c #EFF3FF",
"4	c #6F85CF",
"5	c #7185C3",
"6	c #313C52",
"7	c #7889CB",
"8	c #8C9ED6",
"9	c #4B619E",
"0	c #474E57",
"a	c #9FACCF",
"b	c #DEDFDE",
"c	c #BDC3E7",
"d	c #314584",
"e	c #96A7D9",
"f	c #4A454A",
"g	c #8C96AD",
"h	c #4A5994",
"i	c #536596",
"j	c #8C868C",
"k	c #646A7B",
"l	c #535A71",
"m	c #636563",
"n	c #A2AFD8",
"o	c #273A67",
"p	c #D6DBF7",
"q	c #EFEBF7",
"r	c #526297",
"s	c #6B79B5",
"t	c #E7E7F7",
"u	c #3D4C7B",
"v	c #7B85B2",
"w	c #B9C2E0",
"x	c #2E3C64",
"y	c #ADBAE7",
"z	c #7B89C1",
"A	c #2F3E67",
"B	c #68759A",
"C	c #425584",
"D	c #F7FBFF",
"E	c #BFC8E7",
"F	c #182442",
"G	c #8795BF",
"H	c #262D44",
"I	c #A5B2DE",
"J	c #5A595A",
"K	c #747D9A",
"L	c #1E2A3D",
"M	c #AFB0C7",
"N	c #5F6879",
"O	c #424D73",
"P	c #525552",
"Q	c #777D97",
"R	c #424D6B",
"S	c #E7EBF7",
".+++++++++++++++",
"@+#$%&++++++++++",
"*=-;>,'+++++++++",
")!~{]^/+++++++++",
"(_:++<[}++++++++",
"|12++345++++++++",
"67++++893+++++++",
"0abbbbcdebbbbbbb",
"f@@@@@ghi@@@@jkl",
"m++++++nop+++qrs",
"m++++++tuv+++wxy",
"m+++++++zA3+]BCD",
"m+++++++EFG+wHI+",
"J++++++++KLMNO++",
"P++++++++3QxRS++",
"P++++++++++]++++"};
