/* XPM */
static const char * RunAnimation_xpm[] = {
"16 16 56 1",
" 	c None",
".	c #126FA2",
"+	c #1681BD",
"@	c #137CB5",
"#	c #106A9B",
"$	c #1782BE",
"%	c #1681BC",
"&	c #147FB9",
"*	c #0F6899",
"=	c #1580BB",
"-	c #147FBA",
";	c #147EB8",
">	c #127BB6",
",	c #0D6696",
"'	c #127CB7",
")	c #117BB6",
"!	c #117AB4",
"~	c #1078B1",
"{	c #0C6393",
"]	c #0F78B3",
"^	c #0F78B2",
"/	c #0E76B0",
"(	c #0D74AC",
"_	c #0A6090",
":	c #0D74AE",
"<	c #0D74AD",
"[	c #0C73AB",
"}	c #0C6FA7",
"|	c #085C8C",
"1	c #0A70A9",
"2	c #0A6FA8",
"3	c #0A6EA7",
"4	c #0A6A9F",
"5	c #065989",
"6	c #086CA5",
"7	c #086BA4",
"8	c #086CA4",
"9	c #086AA2",
"0	c #0969A0",
"a	c #055786",
"b	c #0467A0",
"c	c #0567A0",
"d	c #0568A0",
"e	c #05679F",
"f	c #05679E",
"g	c #06669B",
"h	c #035583",
"i	c #03659D",
"j	c #02649C",
"k	c #03649B",
"l	c #046296",
"m	c #025380",
"n	c #016198",
"o	c #025F93",
"p	c #024E79",
"q	c #025A8C",
"                ",
"                ",
"  .+@           ",
"  #$%&          ",
"  *=--;>        ",
"  ,'''')!~      ",
"  {]^]^]^^/(    ",
"  _::::::::<[}  ",
"  |1111111234   ",
"  567678790     ",
"  abcdefg       ",
"  hijkl         ",
"  mno           ",
"  pq            ",
"                ",
"                "};
