/* XPM */
static const char * RunMission_xpm[] = {
"16 16 54 1",
" 	c None",
".	c #3583C4",
"+	c #478BC8",
"@	c #1375BB",
"#	c #3181C2",
"$	c #97B0DC",
"%	c #93AEDB",
"&	c #88A7D7",
"*	c #4289C7",
"=	c #0C74BB",
"-	c #4389C7",
";	c #8DAAD9",
">	c #7BA1D3",
",	c #3883C4",
"'	c #4087C6",
")	c #86A5D7",
"!	c #86A4D6",
"~	c #6B98CF",
"{	c #2D7FC2",
"]	c #3D85C5",
"^	c #7EA0D5",
"/	c #5991CB",
"(	c #2079BE",
"_	c #3983C4",
":	c #769BD2",
"<	c #769AD1",
"[	c #4A89C7",
"}	c #1777BD",
"|	c #3581C3",
"1	c #6D95CE",
"2	c #6993CC",
"3	c #3A82C3",
"4	c #1275BC",
"5	c #317EC1",
"6	c #638FCB",
"7	c #5A8BC9",
"8	c #1677BD",
"9	c #2C7CC0",
"0	c #5689C8",
"a	c #5789C8",
"b	c #297BBF",
"c	c #267ABF",
"d	c #4883C4",
"e	c #3F81C3",
"f	c #1376BC",
"g	c #1D78BD",
"h	c #327EC1",
"i	c #2F7DC0",
"j	c #1F78BE",
"k	c #0E75BB",
"l	c #1878BE",
"m	c #1577BD",
"n	c #0F75BB",
"o	c #0F75BC",
" .+@            ",
"#$%&*=          ",
"-;;;;>,         ",
"')))))!~{       ",
"]^^^^^^^^/(     ",
"_:::::::::<[}   ",
"|11111111111234 ",
"5666666666666678",
"90000000000000ab",
"cdddddddddddddef",
"ghhhhhhhhhhhijk ",
"4llllllllllmn   ",
"ooooooooooo     ",
"ooooooooo       ",
"ooooooo         ",
"ooooo           "};
