/* XPM */
static const char * saturn_xpm[] = {
"32 32 45 1",
" 	c None",
".	c #000000",
"+	c #CB6532",
"@	c #983200",
"#	c #CC6500",
"$	c #993333",
"%	c #986500",
"&	c #CB3232",
"*	c #100000",
"=	c #996533",
"-	c #001000",
";	c #CB9832",
">	c #222222",
",	c #000010",
"'	c #653232",
")	c #333333",
"!	c #440000",
"~	c #323100",
"{	c #220000",
"]	c #989865",
"^	c #CBCB98",
"/	c #666500",
"(	c #660000",
"_	c #FFCB99",
":	c #CB9898",
"<	c #986565",
"[	c #656532",
"}	c #663200",
"|	c #FFFECB",
"1	c #CC9866",
"2	c #999833",
"3	c #CCFF99",
"4	c #FFCBCB",
"5	c #CC6666",
"6	c #FFFE99",
"7	c #FF9865",
"8	c #555555",
"9	c #540000",
"0	c #CBFFCB",
"a	c #320000",
"b	c #CCCB66",
"c	c #760000",
"d	c #FFCB65",
"e	c #880000",
"f	c #CC3200",
"                            ..  ",
"                          ..+@. ",
"                        ..#$%&. ",
"                       .+#$%++. ",
"                      .+@$*=$-  ",
"                     .;@.->++.  ",
"               ......,@,..$@-   ",
"             ..===')!~{..*@+.   ",
"           ..]^]]==/'(*..'%.    ",
"          .^^_^:<=[$}%$..#$.    ",
"         ._|^^:12==}'@[!@'.     ",
"        .^|34_:25<@/$[}!=!.     ",
"        .|_|^11<==}$[}}$}.      ",
"       .^_6^:1]+<%$[}}$}..      ",
"       .6|^71<5]%8='9$}.!.      ",
"       .0_11<12+===9=@,!}.      ",
"       ._11<11+==<!+@.!'~.      ",
"       .1151;;<;=a+}.!'}.       ",
"       .b111;1;'a+c.9'}~*       ",
"       .=1;111}a+c-!}'}.        ",
"      .}!%dd;[a=c-9/'}~,        ",
"     .+=-a%2!c@e.9/'}}.         ",
"    .@=*,.'*=@$.![}},.          ",
"   .@$.....#$@.9/}*.            ",
"   .c/...$#$}...,.              ",
"  .@$..$$@$..                   ",
"  .c+$=@}@.                     ",
" .=c%$}c..                      ",
" .f=e@,.                        ",
" .=+,.                          ",
"  ..                            ",
"                                "};
