/* XPM */
static const char * save_xpm[] = {
"16 15 97 2",
"  	c None",
". 	c #A2BCE3",
"+ 	c #92AFDA",
"@ 	c #1F7EDE",
"# 	c #2280DE",
"$ 	c #2180DE",
"% 	c #217FDE",
"& 	c #6E94CC",
"* 	c #B3CAED",
"= 	c #F4F7FC",
"- 	c #779FD7",
"; 	c #D8E4F6",
"> 	c #C2D7F3",
", 	c #F8FAFE",
"' 	c #DCEAFA",
") 	c #F2F7FD",
"! 	c #E9F0FA",
"~ 	c #F3F8FD",
"{ 	c #F4F8FD",
"] 	c #E8F0FA",
"^ 	c #E0EBF9",
"/ 	c #BAD0EE",
"( 	c #7398CE",
"_ 	c #9DBBE1",
": 	c #1478DC",
"< 	c #D0DFF6",
"[ 	c #80AAE9",
"} 	c #F7FAFE",
"| 	c #EBF2FB",
"1 	c #F1F6FC",
"2 	c #DBE7F8",
"3 	c #AEC7EC",
"4 	c #BCD1EE",
"5 	c #CCDDF5",
"6 	c #7EA8E8",
"7 	c #F0F6FC",
"8 	c #E7EFFA",
"9 	c #DDE7F8",
"0 	c #D9E5F6",
"a 	c #78A2E0",
"b 	c #BCD0ED",
"c 	c #E6EFFA",
"d 	c #549CE5",
"e 	c #ECF2FB",
"f 	c #F5F9FD",
"g 	c #F6F9FE",
"h 	c #EDF4FC",
"i 	c #DEEAF8",
"j 	c #77A0DE",
"k 	c #A7C1E6",
"l 	c #C9DBF4",
"m 	c #94C0EE",
"n 	c #9FC8F1",
"o 	c #A2C9F1",
"p 	c #8FBCEC",
"q 	c #A0BBE1",
"r 	c #C5D8F2",
"s 	c #7CA5E5",
"t 	c #408ADE",
"u 	c #3F8ADD",
"v 	c #3C86D9",
"w 	c #9AB5DD",
"x 	c #C4D6F2",
"y 	c #79A2E1",
"z 	c #78A1E0",
"A 	c #749CDA",
"B 	c #98B2DC",
"C 	c #C0D3F1",
"D 	c #739CDA",
"E 	c #7099D6",
"F 	c #91ADD7",
"G 	c #BCD1EF",
"H 	c #C8D9F3",
"I 	c #C8D8F2",
"J 	c #C5D6EF",
"K 	c #6E97D4",
"L 	c #8CA8D3",
"M 	c #B9CFEF",
"N 	c #A3C0EE",
"O 	c #6A92CD",
"P 	c #86A4CF",
"Q 	c #B4CBEE",
"R 	c #A9C4ED",
"S 	c #6990CA",
"T 	c #829FCC",
"U 	c #88AEE8",
"V 	c #658DC8",
"W 	c #7D9BC9",
"X 	c #AEC6EA",
"Y 	c #A6C1E9",
"Z 	c #E9EFFB",
"` 	c #7998C8",
" .	c #7C9AC8",
"..	c #85A8D8",
"+.	c #1E7DDD",
"@.	c #1B7ADB",
"#.	c #5C85BE",
". + @ # # # # $ # # # $ % & * = ",
"- ; > , , ' ) ! ~ { ~ ] ^ / ( _ ",
": < [ } } : ! | ~ } 1 ^ 2 3 4 : ",
": 5 6 7 7 : ! ~ { ~ 8 9 0 a b : ",
": 5 6 c c d e f g h i 0 0 j k : ",
": l 6 m m m n o n m p p p j q : ",
": r s t t t t t t u u u v j w : ",
": x y y y y y y z j j j A A B : ",
": C y y y y y y j j j D D E F : ",
": G y H H H H H I I I J J K L : ",
": M y , N N N N N N N N , O P : ",
": Q y , R R R R R R R R , S T : ",
": * y , U U U U U U U U , V W : ",
": X Y , Z Z Z Z Z Z Z Z , `  .: ",
"..+.+.# # # # # # # # # # @.@.#."};
