/* XPM */
static const char * Save_xpm[] = {
"24 24 92 2",
"  	c None",
". 	c #4F99FF",
"+ 	c #1F3368",
"@ 	c #DDDEDF",
"# 	c #4D95F9",
"$ 	c #64A3FA",
"% 	c #98C1FC",
"& 	c #A3C8FC",
"* 	c #22376C",
"= 	c #EAEBEB",
"- 	c #3A4D7B",
"; 	c #2F4274",
"> 	c #4A91F3",
", 	c #8FBBF7",
"' 	c #99C1F8",
") 	c #253C71",
"! 	c #E9EAEB",
"~ 	c #314779",
"{ 	c #488CEE",
"] 	c #90B9F5",
"^ 	c #284075",
"/ 	c #DADBDC",
"( 	c #334A7B",
"_ 	c #83B1F3",
": 	c #6CA2F1",
"< 	c #4588E8",
"[ 	c #86B2F0",
"} 	c #2B4579",
"| 	c #CED0D1",
"1 	c #354E7F",
"2 	c #649BEC",
"3 	c #4E8EE9",
"4 	c #4384E2",
"5 	c #7DA9EB",
"6 	c #2F497D",
"7 	c #C5C7C9",
"8 	c #385182",
"9 	c #4080DC",
"0 	c #72A1E5",
"a 	c #324D82",
"b 	c #B5B9BF",
"c 	c #C0C2C4",
"d 	c #3B5486",
"e 	c #7E8BA5",
"f 	c #3E7CD6",
"g 	c #6898DF",
"h 	c #39578D",
"i 	c #355286",
"j 	c #63779A",
"k 	c #B3B7BD",
"l 	c #BDBFC1",
"m 	c #36558C",
"n 	c #3B77D0",
"o 	c #5D8ED8",
"p 	c #4F7ABD",
"q 	c #39598F",
"r 	c #375589",
"s 	c #37588E",
"t 	c #3A6BB8",
"u 	c #3973CB",
"v 	c #5385D2",
"w 	c #5083D1",
"x 	c #497ECF",
"y 	c #4178CD",
"z 	c #3A74CB",
"A 	c #366FC5",
"B 	c #376FC5",
"C 	c #346BBF",
"D 	c #3167B9",
"E 	c #E4E5E6",
"F 	c #2F62B3",
"G 	c #E0E1E2",
"H 	c #2C5EAD",
"I 	c #DCDDDE",
"J 	c #ACACAC",
"K 	c #2A5AA8",
"L 	c #D8D9DA",
"M 	c #2756A2",
"N 	c #D4D5D7",
"O 	c #25529C",
"P 	c #D0D1D3",
"Q 	c #234D96",
"R 	c #CCCDCF",
"S 	c #204990",
"T 	c #C8C9CB",
"U 	c #1E458A",
"V 	c #C4C6C7",
"W 	c #2B57A0",
"X 	c #3767B3",
"Y 	c #B9BBBD",
"Z 	c #1F478C",
"` 	c #939497",
"  . . . . + + + @ @ @ @ @ @ @ @ @ + + . . . .   ",
"# $ % & & * * * = = = = = - ; ; = * * & & % $ # ",
"> , ' ' ' ) ) ) ! ! ! ! ! ~ ) ) ! ) ) ' ' ' , > ",
"{ ] ] ] ] ^ ^ ^ / / / / / ( ^ ^ / ^ ^ ] ] _ : { ",
"< [ [ [ [ } } } | | | | | 1 } } | } } 2 3 < < < ",
"4 5 5 5 5 6 6 6 7 7 7 7 7 8 6 6 7 6 6 4 4 4 4 4 ",
"9 0 0 0 0 a a a b c c c c d a e b a a 9 9 9 9 9 ",
"f g g g g h i i j k l l l l l k j i m f f f f f ",
"n o o o o p q r r r r r r r r r r s t n n n n n ",
"u v w x y z u u u u u u u u u u u u u u u u u u ",
"A B A A A A A A A A A A A A A A A A A A A A A A ",
"C C C C C C C C C C C C C C C C C C C C C C C C ",
"D D D E E E E E E E E E E E E E E E E E E D D D ",
"F F F G G G G G G G G G G G G G G G G G G F F F ",
"H H H I I J J J J J J J J J J J J J J I I H H H ",
"K K K L L L L L L L L L L L L L L L L L L K K K ",
"M M M N N J J J J J J J J J J J J J J N N M M M ",
"O O O P P P P P P P P P P P P P P P P P P O O O ",
"Q Q Q R R J J J J J J J J J J J J J J R R Q Q Q ",
"S S S T T T T T T T T T T T T T T T T T T S S S ",
"U U U V V J J J J J J J J J J J J J J V V U U U ",
"W W W c c c c c c c c c c c c c c c c c c W W W ",
"X X X Y Y Y Y Y Y Y Y Y Y Y Y Y Y Y Y Y Y X X X ",
"  Z Z ` ` ` ` ` ` ` ` ` ` ` ` ` ` ` ` ` ` Z Z   "};
