/* XPM */
static const char * SaveMission_xpm[] = {
"16 16 93 2",
"  	c None",
". 	c #1076BD",
"+ 	c #3F91CB",
"@ 	c #6DA6D5",
"# 	c #74AAD6",
"$ 	c #71A9D6",
"% 	c #6CA6D4",
"& 	c #6EA6D5",
"* 	c #4F96CC",
"= 	c #2A86C8",
"- 	c #9FCEEE",
"; 	c #FFFFFF",
"> 	c #E2ECF6",
", 	c #EEF3F9",
"' 	c #FEFDFE",
") 	c #4694CD",
"! 	c #308ACA",
"~ 	c #9ACBED",
"{ 	c #5A9BCE",
"] 	c #89B6DC",
"^ 	c #90C5EA",
"/ 	c #2784C6",
"( 	c #2F89CA",
"_ 	c #5F9ED0",
": 	c #8DB8DD",
"< 	c #94C9ED",
"[ 	c #4598D2",
"} 	c #93C8EC",
"| 	c #4296D1",
"1 	c #5698CD",
"2 	c #87B4DB",
"3 	c #9BCCED",
"4 	c #C2D7EB",
"5 	c #D6E2F1",
"6 	c #95C9EC",
"7 	c #318ACA",
"8 	c #8DC5EB",
"9 	c #D2E7F7",
"0 	c #DAEDF9",
"a 	c #D8EBF8",
"b 	c #D1E7F6",
"c 	c #89C3EA",
"d 	c #4497D1",
"e 	c #368DCB",
"f 	c #72B7E6",
"g 	c #67B1E3",
"h 	c #73B8E6",
"i 	c #4798D2",
"j 	c #75B8E6",
"k 	c #71B6E5",
"l 	c #71B6E4",
"m 	c #75B9E6",
"n 	c #E8F3FC",
"o 	c #E8F3FD",
"p 	c #E8F2FB",
"q 	c #8EC5EB",
"r 	c #4396D1",
"s 	c #9DCDF2",
"t 	c #F3F9E0",
"u 	c #D7EBB5",
"v 	c #D9ECB9",
"w 	c #D8EBB5",
"x 	c #F6FAE8",
"y 	c #96CAF0",
"z 	c #9CCCF1",
"A 	c #EFF7DF",
"B 	c #D1E8B2",
"C 	c #D4E9B6",
"D 	c #D2E8B3",
"E 	c #F1F8E7",
"F 	c #95C9F0",
"G 	c #9BCCF0",
"H 	c #F4F9E9",
"I 	c #E0EFCA",
"J 	c #E1F0CD",
"K 	c #E0EFCB",
"L 	c #F6FAEF",
"M 	c #94C9EF",
"N 	c #A3D2F5",
"O 	c #F8FDDE",
"P 	c #D6ECA9",
"Q 	c #D9EEAD",
"R 	c #D7EDA9",
"S 	c #FAFEE4",
"T 	c #9DCEF3",
"U 	c #4397D2",
"V 	c #1579BF",
"W 	c #60A5D7",
"X 	c #A7C7E4",
"Y 	c #A5C6E2",
"Z 	c #A6C7E4",
"` 	c #61A6D8",
" .	c #2080C3",
". + @ # $ % % % % % % % & *     ",
"= - ; > , ; ; ; ; ; ; ; ; ' )   ",
"! ~ ; { ] ; ; ; ; ; ; ; ; ; ^ / ",
"( ~ ; _ : ; ; ; ; ; ; ; ; ; < [ ",
"( ~ ; _ : ; ; ; ; ; ; ; ; ; } | ",
"( ~ ; 1 2 ; ; ; ; ; ; ; ; ; } | ",
"( 3 ; 4 5 ; ; ; ; ; ; ; ; ; 6 | ",
"7 8 9 0 a b b b b b b b b b c d ",
"e f g g g g g g g g g g g g h i ",
"e j k k k k k k k k k k k l m i ",
"! } n o n n n n n n n n o p q r ",
"( s t u v v v v v v v v w x y | ",
"( z A B C C C C C C C C D E F | ",
"( G H I J J J J J J J J K L M | ",
"( N O P Q Q Q Q Q Q Q Q R S T U ",
"V W X Y Y Y Y Y Y Y Y Y Y Z `  ."};
