/* XPM */
static const char * screenshot_xpm[] = {
"16 15 82 1",
" 	c None",
".	c #85878A",
"+	c #7C7D80",
"@	c #77787B",
"#	c #ACAEB1",
"$	c #9D9EA1",
"%	c #6A6B6E",
"&	c #939598",
"*	c #ABADB0",
"=	c #A9ABAE",
"-	c #7D7E81",
";	c #7F8083",
">	c #929497",
",	c #939497",
"'	c #898B8E",
")	c #919295",
"!	c #A7A9AC",
"~	c #989B9E",
"{	c #838588",
"]	c #8C8D90",
"^	c #ADAFB2",
"/	c #A5A7AA",
"(	c #8F9093",
"_	c #6B6C6F",
":	c #A1A3A6",
"<	c #AAADB0",
"[	c #888A8D",
"}	c #86888B",
"|	c #8B8D90",
"1	c #848588",
"2	c #818184",
"3	c #98999C",
"4	c #A6A8AB",
"5	c #9EA0A3",
"6	c #A8AAAD",
"7	c #AAACAF",
"8	c #A0A2A5",
"9	c #9FA1A4",
"0	c #919396",
"a	c #8A8B8E",
"b	c #A4A6A9",
"c	c #8D8F92",
"d	c #7E7F82",
"e	c #9A9C9F",
"f	c #95979A",
"g	c #9B9DA0",
"h	c #8A8C8F",
"i	c #989A9D",
"j	c #838487",
"k	c #818285",
"l	c #7E8083",
"m	c #78797C",
"n	c #898A8D",
"o	c #999B9E",
"p	c #8F9194",
"q	c #9D9FA2",
"r	c #808285",
"s	c #BABBBE",
"t	c #C4C5C8",
"u	c #AFB1B4",
"v	c #97989B",
"w	c #86878A",
"x	c #D6D7D9",
"y	c #EAEBEB",
"z	c #C6C7C9",
"A	c #9C9EA1",
"B	c #A3A5A8",
"C	c #CBCCCE",
"D	c #D9DADC",
"E	c #BDBEC1",
"F	c #8B8D8F",
"G	c #848689",
"H	c #76787B",
"I	c #8E9093",
"J	c #A3A6A8",
"K	c #828386",
"L	c #7A7C7F",
"M	c #929396",
"N	c #949699",
"O	c #87898C",
"P	c #6C6D70",
"Q	c #717275",
"         .+     ",
"        @#$     ",
"  %%    &*=- %% ",
";&>>,'-)!!=~'>&{",
"]^//*(_:=!<[}^^&",
"|/123456677897#0",
"a*667bcd+1e#4fg)",
"h*!=i+jkjjla!g80",
"h*6/m]n&op0dq*#0",
"h*=orhistu0']770",
"h*7vwa7xyzA[.770",
"|^*e1]BCDEihF##>",
"G5AfH0IJ#gfKcq5a",
"    _LM0>NOP    ",
"      QdrH_     "};
