/* XPM */
static char * script_xpm[] = {
"16 16 5 1",
" 	c None",
".	c #FFFFFF",
"+	c #808080",
"@	c #0000FF",
"#	c #000000",
"                ",
" ##########     ",
" #........#+    ",
" #.@@@@...#+    ",
" #........#+    ",
" #.@@@@@@.#+    ",
" #........#+    ",
" #.@@@....#+    ",
" #........#+    ",
" #.@@@@@..#+    ",
" #........#+    ",
" #.@@@@...#+    ",
" #........#+    ",
" ##########+    ",
"  ++++++++++    ",
"                "};
