/* XPM */
static char * scriptevent_xpm[] = {
"16 16 96 2",
"  	c None",
". 	c #FCFCFC",
"+ 	c #FDFDFD",
"@ 	c #FCFCFD",
"# 	c #FEFEFE",
"$ 	c #FDFDFE",
"% 	c #F0F0FB",
"& 	c #B8B8EF",
"* 	c #9191E8",
"= 	c #A6A6EC",
"- 	c #D3D3F5",
"; 	c #EDEDFA",
"> 	c #DFDFF7",
", 	c #E6E6F8",
"' 	c #ECECFA",
") 	c #ACACEC",
"! 	c #B3B3EE",
"~ 	c #8B8BE6",
"{ 	c #4F4FDA",
"] 	c #3B3BD6",
"^ 	c #5959DC",
"/ 	c #9A9BE9",
"( 	c #AAAAEC",
"_ 	c #CFCFF4",
": 	c #F5F5FC",
"< 	c #E3E3F9",
"[ 	c #E6E6F9",
"} 	c #FBFBFD",
"| 	c #7A7AE3",
"1 	c #C9C9F3",
"2 	c #FAFAFD",
"3 	c #FCFCFE",
"4 	c #4D4DDA",
"5 	c #C3C3F1",
"6 	c #F1F1FB",
"7 	c #E4E4F8",
"8 	c #6262DE",
"9 	c #2525D2",
"0 	c #4545D8",
"a 	c #8282E4",
"b 	c #C1C1F1",
"c 	c #EFEFFB",
"d 	c #F3F3FB",
"e 	c #C5C5F2",
"f 	c #8181E4",
"g 	c #4243D8",
"h 	c #2323D2",
"i 	c #4646D8",
"j 	c #B6B6EF",
"k 	c #D2D2F5",
"l 	c #D4D4F5",
"m 	c #EEEEFA",
"n 	c #6060DE",
"o 	c #2728D2",
"p 	c #C8C8F3",
"q 	c #E3E3F8",
"r 	c #6E6EE0",
"s 	c #9999E9",
"t 	c #BABAEF",
"u 	c #9797E8",
"v 	c #5252DB",
"w 	c #FBFBFC",
"x 	c #8E8EE7",
"y 	c #7D7DE3",
"z 	c #6F6FE0",
"A 	c #7575E2",
"B 	c #7676E2",
"C 	c #A5A5EB",
"D 	c #9797E9",
"E 	c #5656DC",
"F 	c #F3F3FC",
"G 	c #8484E5",
"H 	c #9E9FEA",
"I 	c #ACACED",
"J 	c #7878E2",
"K 	c #F4F4FC",
"L 	c #7C7CE3",
"M 	c #C7C7F2",
"N 	c #E1E1F8",
"O 	c #7171E1",
"P 	c #E5E5F8",
"Q 	c #F2F2FB",
"R 	c #9B9BE9",
"S 	c #F6F6FC",
"T 	c #D2D2F4",
"U 	c #8C8CE6",
"V 	c #CECEF4",
"W 	c #C0C0F1",
"X 	c #9D9EEA",
"Y 	c #A0A0EA",
"Z 	c #A2A2EA",
"` 	c #B1B1EE",
" .	c #E5E5F9",
"..	c #FBFBFB",
"+.	c #F9F9FC",
"@.	c #FAFAFC",
"  . + + + @ # # @ $ $ # + # +   ",
"  + $ + @ % & * = - ; > , # $   ",
"  . + + ' ) ! ~ { ] ^ / ; $ +   ",
"  + $ + ( _ $ + : < [ } $ # #   ",
"  + $ + | 1 } 2 2 3 $ # + # $   ",
"  . + $ ~ 4 5 6 @ 3 $ # + # +   ",
"  . $ + 7 8 9 0 a b c 3 + # +   ",
"  . + + } d e f g h i j 2 $ +   ",
"  . $ @ 6 k l m c e n o p $ @   ",
"  @ + q r s t u _ 2 m v f $ @   ",
"  w + x y 2 @ l z : } x A $ @   ",
"  } + B C 6 e D E F } G H $ @   ",
"  w + I J K ! L M @ N O P $ +   ",
"  . + Q ~ R P S Q T U V @ $ +   ",
"  . + @ : W X Y Z `  .3 + # +   ",
"  ... . w . @ +.@.+ @ @ . + .   "};
