/* XPM */
static char * scriptevent_xpm[] = {
"16 16 103 2",
"  	c None",
". 	c #FEFEFE",
"+ 	c #D8E7F5",
"@ 	c #82BDE9",
"# 	c #1478DC",
"$ 	c #689ECD",
"% 	c #6DB2E6",
"& 	c #87B8DF",
"* 	c #7DBCE7",
"= 	c #8CC0EA",
"- 	c #96C8EC",
"; 	c #BDDAF9",
"> 	c #EFF2F6",
", 	c #F0F4F8",
"' 	c #D9EAFC",
") 	c #A5CAEA",
"! 	c #68AEE0",
"~ 	c #C4DFF3",
"{ 	c #AAD0EC",
"] 	c #9AC6EB",
"^ 	c #E2F0FD",
"/ 	c #F1F8FD",
"( 	c #9FC8E7",
"_ 	c #D5E9FD",
": 	c #E2EFFC",
"< 	c #70A0E0",
"[ 	c #80B1D8",
"} 	c #92BEE1",
"| 	c #B2D0ED",
"1 	c #CCE2FA",
"2 	c #D2E5F9",
"3 	c #719DD2",
"4 	c #66A4D5",
"5 	c #E9EFF6",
"6 	c #C1DCF9",
"7 	c #D5D4B9",
"8 	c #D8A558",
"9 	c #DBB185",
"0 	c #D09D46",
"a 	c #D0C6A8",
"b 	c #D0E7F6",
"c 	c #CFD0AD",
"d 	c #E7BE77",
"e 	c #F0D2B4",
"f 	c #FFF2E0",
"g 	c #EFD2AC",
"h 	c #CC9659",
"i 	c #CDD0B2",
"j 	c #EDD581",
"k 	c #E7C08B",
"l 	c #F6D3AE",
"m 	c #FCE0C4",
"n 	c #D4A26A",
"o 	c #F6EADC",
"p 	c #CAD2BD",
"q 	c #EDD178",
"r 	c #FDF6C6",
"s 	c #F6DD6C",
"t 	c #EDCA6D",
"u 	c #D7A363",
"v 	c #C9CEBB",
"w 	c #F7E15A",
"x 	c #BDBEAD",
"y 	c #E7CB77",
"z 	c #F5DF5B",
"A 	c #DC984A",
"B 	c #7E91A1",
"C 	c #809DC1",
"D 	c #8CAED5",
"E 	c #A2C7F7",
"F 	c #B0B6AF",
"G 	c #D5B67A",
"H 	c #BEC6CD",
"I 	c #769ABF",
"J 	c #BBCCDE",
"K 	c #5985B4",
"L 	c #7BA5D9",
"M 	c #80898F",
"N 	c #D1B790",
"O 	c #E4C955",
"P 	c #D5DEE8",
"Q 	c #A3BAD6",
"R 	c #85A4C7",
"S 	c #93ACC8",
"T 	c #AA8943",
"U 	c #D89A54",
"V 	c #BE7A1A",
"W 	c #C59849",
"X 	c #C68E49",
"Y 	c #94AAC6",
"Z 	c #ACBED3",
"` 	c #6D90B8",
" .	c #86602A",
"..	c #F9C794",
"+.	c #C98541",
"@.	c #AE6B27",
"#.	c #F0E5D8",
"$.	c #D2D8E0",
"%.	c #7B96B8",
"&.	c #6C8AB0",
"*.	c #BB874A",
"=.	c #9B8156",
"-.	c #5073A1",
". . + @ @ # # # $ % & * = - + . ",
". . ; = . . . . > , ' + ; ) ! ~ ",
". . { ] . ' ^ , , , > . . / ~ ! ",
". . ( ) . + _ : ' , ' : . < , [ ",
". . } | > 1 1 2 2 _ ' : . 3 ~ 4 ",
". . [ ~ 5 ; 6 6 1 1 1 7 8 9 0 a ",
". . $ + b ; ; ; 6 6 c d e f g h ",
". . % , ~ ~ ; 6 6 i j # k l m n ",
". . # o ~ ; ; 6 p q r s t u n o ",
". > # . ; ; ; v q r s w q 0 o . ",
". + % . ; ; x y r z z q A B . . ",
"> C D : E F G r z w q A H I . . ",
"J # K L M G N O w q 0 P Q R . . ",
"S R . . T o U V W X Y > Y Y . . ",
"Z ` Q Z  .k ..+.@.#.$., %.Q . . ",
"> Y %.&. . .*.=.# # # # -.P . . "};
