/* XPM */
static const char * SlowerAnimation_xpm[] = {
"16 16 93 2",
"  	c None",
". 	c #F5C53B",
"+ 	c #F6C745",
"@ 	c #F6CB55",
"# 	c #F6CE61",
"$ 	c #F7D26C",
"% 	c #F8D677",
"& 	c #F9DA86",
"* 	c #F8D36B",
"= 	c #F5C53A",
"- 	c #F6C950",
"; 	c #F7D271",
"> 	c #F8D98A",
", 	c #FAE1A2",
"' 	c #FDEABD",
") 	c #FDF1D3",
"! 	c #F7D166",
"~ 	c #F5C539",
"{ 	c #F6CA50",
"] 	c #F8D270",
"^ 	c #F9D988",
"/ 	c #FBE0A0",
"( 	c #FDEBC2",
"_ 	c #FAE19D",
": 	c #F6CA4F",
"< 	c #F8D16F",
"[ 	c #F9D887",
"} 	c #FCE8B9",
"| 	c #F6CE5D",
"1 	c #F8D987",
"2 	c #FBE2A5",
"3 	c #F9DB8A",
"4 	c #F9D889",
"5 	c #FBDF9E",
"6 	c #F6CC57",
"7 	c #F6C94F",
"8 	c #F7CF67",
"9 	c #F8D376",
"0 	c #F9D884",
"a 	c #F9DD90",
"b 	c #FBE2A3",
"c 	c #F6CC55",
"d 	c #F8D26F",
"e 	c #FADA8D",
"f 	c #F9D985",
"g 	c #F5C640",
"h 	c #F7CC5F",
"i 	c #F8D57A",
"j 	c #F9DA8F",
"k 	c #FBE2A4",
"l 	c #FCEABD",
"m 	c #FCE6B0",
"n 	c #F6C94C",
"o 	c #F6C94B",
"p 	c #F8D271",
"q 	c #F9DA8C",
"r 	c #F7CD5D",
"s 	c #F4C53E",
"t 	c #F7CE63",
"u 	c #F9D67F",
"v 	c #FADC96",
"w 	c #FCE5AD",
"x 	c #FDEEC9",
"y 	c #F9D87E",
"z 	c #F5C642",
"A 	c #F8D171",
"B 	c #F5C641",
"C 	c #F7CE61",
"D 	c #F9D57C",
"E 	c #FADB93",
"F 	c #FCE5AE",
"G 	c #F7CD5E",
"H 	c #F6CB57",
"I 	c #F4C334",
"J 	c #F5C743",
"K 	c #F7CE62",
"L 	c #F9D67D",
"M 	c #F9DC94",
"N 	c #FBE5AF",
"O 	c #F8D36E",
"P 	c #F5C438",
"Q 	c #FADD98",
"R 	c #FADD92",
"S 	c #FADE97",
"T 	c #F7CF62",
"U 	c #F5C53F",
"V 	c #F7CD61",
"W 	c #F9D782",
"X 	c #F8D67F",
"Y 	c #F6CB58",
"Z 	c #F8D681",
"` 	c #F5C747",
" .	c #F7D069",
". . . . + @ # $ % & *           ",
"  . . = - ; > , ' ) !           ",
"  . . ~ { ] ^ / ( _             ",
"    . = : < [ / } |             ",
"    . = { ] 1 2 3               ",
"      = { ] 4 5 6 7 8 9 0 a b c ",
"      = { d e f g h i j k l m n ",
"        o p q r s t u v w x y   ",
"        z A 9 . B C D E F k     ",
"          G H I J K L M N O     ",
"          J   P J K D Q R       ",
"                z K L S T       ",
"                U V W X         ",
"                  Y Z @         ",
"                  `  .          ",
"                    s           "};
