/* XPM */
static char * spacecrapt_xpm[] = {
"25 21 362 2",
"  	c None",
". 	c #F3FFF8",
"+ 	c #F9FFF8",
"@ 	c #F7F0E8",
"# 	c #FFFCF3",
"$ 	c #FFF9F3",
"% 	c #FFF0E9",
"& 	c #FFFEF6",
"* 	c #FCFFFB",
"= 	c #F1FFFF",
"- 	c #EEFFFF",
"; 	c #EAFFFF",
"> 	c #F8FFFF",
", 	c #FEFEFF",
"' 	c #F5F0F7",
") 	c #FFFCFF",
"! 	c #FFFEFA",
"~ 	c #EDE9E0",
"{ 	c #FFFFFA",
"] 	c #F5F1F0",
"^ 	c #FFFEFD",
"/ 	c #FFFDFF",
"( 	c #FFFEFF",
"_ 	c #E8F5EC",
": 	c #FBFFFA",
"< 	c #FFFEF5",
"[ 	c #FFFDF4",
"} 	c #FFF6ED",
"| 	c #F7F4EB",
"1 	c #FCFFFA",
"2 	c #EFFEF9",
"3 	c #F2FFFF",
"4 	c #ECFBFF",
"5 	c #F7FFFF",
"6 	c #EEF1F8",
"7 	c #FEFCFF",
"8 	c #FBF2F3",
"9 	c #FFFAF4",
"0 	c #FFFFF6",
"a 	c #FFFEF9",
"b 	c #F7F4EF",
"c 	c #FEFAF9",
"d 	c #F5F0F4",
"e 	c #FBFFFF",
"f 	c #F0F5F1",
"g 	c #FEFEF4",
"h 	c #FAF8EB",
"i 	c #FFFFF3",
"j 	c #E5E8DD",
"k 	c #81877D",
"l 	c #FBFFFD",
"m 	c #F8FCFD",
"n 	c #FAF9FE",
"o 	c #FFFAFF",
"p 	c #FFFCFB",
"q 	c #FFF7F3",
"r 	c #FFFDF6",
"s 	c #FBF8EF",
"t 	c #FFFDFC",
"u 	c #FCF8F7",
"v 	c #FDFBFE",
"w 	c #FEFFFF",
"x 	c #F8FCFB",
"y 	c #F8FFF4",
"z 	c #DCE9D8",
"A 	c #2D3828",
"B 	c #41493E",
"C 	c #C7C8C3",
"D 	c #FDF7F7",
"E 	c #FFFBFF",
"F 	c #FFFAFD",
"G 	c #FFF7F6",
"H 	c #FFF9EF",
"I 	c #FFFEF3",
"J 	c #FFFFF4",
"K 	c #C9C6BD",
"L 	c #E6E3DE",
"M 	c #FFFDF8",
"N 	c #FCFAFD",
"O 	c #FBF9FC",
"P 	c #F7F4FB",
"Q 	c #EEF9F3",
"R 	c #D9EBDF",
"S 	c #D5EEDB",
"T 	c #637C67",
"U 	c #7E917E",
"V 	c #E4EFE1",
"W 	c #393833",
"X 	c #F7EDEC",
"Y 	c #F8E9EC",
"Z 	c #FBEBEC",
"` 	c #FFFBF8",
" .	c #F1EADA",
"..	c #F2EFDE",
"+.	c #D6D4C8",
"@.	c #24241A",
"#.	c #2D2C27",
"$.	c #F7F6F4",
"%.	c #EEEDEB",
"&.	c #FFFFFF",
"*.	c #F7FFFD",
"=.	c #F1FFFA",
"-.	c #7F9C88",
";.	c #55725C",
">.	c #A9C0AE",
",.	c #909E91",
"'.	c #CBCDC8",
").	c #6D6C6A",
"!.	c #F6F6F4",
"~.	c #FEFFFA",
"{.	c #EDF3E7",
"].	c #FCFFF3",
"^.	c #494D3C",
"/.	c #E9EBDE",
"(.	c #B3B5AA",
"_.	c #3A3934",
":.	c #F1F0EB",
"<.	c #FFFFFD",
"[.	c #F6F4F7",
"}.	c #FDF3FB",
"|.	c #FEFCFD",
"1.	c #EDF8F0",
"2.	c #C6DBCC",
"3.	c #46614E",
"4.	c #D6F1DE",
"5.	c #4F6455",
"6.	c #6E7F75",
"7.	c #BECFC9",
"8.	c #5E7270",
"9.	c #7F9996",
"0.	c #DDFCF7",
"a.	c #83A49D",
"b.	c #DEFEF3",
"c.	c #A8C4B6",
"d.	c #455A4B",
"e.	c #F8FFF3",
"f.	c #888B80",
"g.	c #6D6E68",
"h.	c #F8F8F6",
"i.	c #F3F3F1",
"j.	c #F9F9FB",
"k.	c #F4F3F1",
"l.	c #F9FFFA",
"m.	c #ECFCEF",
"n.	c #BFD1C1",
"o.	c #B2C4B4",
"p.	c #9CACA1",
"q.	c #879C95",
"r.	c #12312C",
"s.	c #A8D5D2",
"t.	c #15534E",
"u.	c #418880",
"v.	c #00160C",
"w.	c #002B22",
"x.	c #306259",
"y.	c #294A41",
"z.	c #8C998F",
"A.	c #494C41",
"B.	c #D2D5CE",
"C.	c #C2C5BE",
"D.	c #B3B3B1",
"E.	c #E6E6E4",
"F.	c #F7F7F9",
"G.	c #FFFEFB",
"H.	c #F7FDF3",
"I.	c #F9FFF4",
"J.	c #EFF7EA",
"K.	c #878F84",
"L.	c #69726D",
"M.	c #829895",
"N.	c #A5D6D3",
"O.	c #044F4A",
"P.	c #268E85",
"Q.	c #003C31",
"R.	c #27968D",
"S.	c #003D36",
"T.	c #246C6B",
"U.	c #376563",
"V.	c #90A49B",
"W.	c #A3A99D",
"X.	c #545952",
"Y.	c #BABFB8",
"Z.	c #A8AAA7",
"`.	c #6D6F6C",
" +	c #F2F3F5",
".+	c #FCFDFF",
"++	c #FEF9F5",
"@+	c #FFFEF7",
"#+	c #F7FAEF",
"$+	c #EBEDEC",
"%+	c #788D8E",
"&+	c #1E5655",
"*+	c #3F9E98",
"=+	c #005245",
"-+	c #16AA9C",
";+	c #42CEC5",
">+	c #037A76",
",+	c #2B7E84",
"'+	c #5D9094",
")+	c #EEFFFC",
"!+	c #D6DCD0",
"~+	c #C0C5BE",
"{+	c #C9CECA",
"]+	c #A2A4A1",
"^+	c #FFFCF6",
"/+	c #FCF5ED",
"(+	c #F0E8E5",
"_+	c #ECFEFF",
":+	c #6DA7A8",
"<+	c #00443D",
"[+	c #33C5B8",
"}+	c #21C6B6",
"|+	c #13ADA3",
"1+	c #3DBEBA",
"2+	c #095D67",
"3+	c #295B64",
"4+	c #BFD6D0",
"5+	c #F2FAED",
"6+	c #A5ACA4",
"7+	c #B1B8B0",
"8+	c #747A76",
"9+	c #FCFFFD",
"0+	c #E9EAEC",
"a+	c #FDFEFF",
"b+	c #FFFDFA",
"c+	c #FFFFF8",
"d+	c #F4F6EB",
"e+	c #ECEEE3",
"f+	c #FFFCFA",
"g+	c #EEF9FD",
"h+	c #0A3D3E",
"i+	c #197872",
"j+	c #35C3B5",
"k+	c #24C5B5",
"l+	c #3ED2C6",
"m+	c #005957",
"n+	c #125C67",
"o+	c #28535A",
"p+	c #AFC4BF",
"q+	c #F8FFF5",
"r+	c #747E75",
"s+	c #E3EAE2",
"t+	c #F1F7F3",
"u+	c #EFF5F1",
"v+	c #FCFFFF",
"w+	c #F4EAEB",
"x+	c #FEFFF6",
"y+	c #FAF5EF",
"z+	c #FFF8FA",
"A+	c #EFF0F5",
"B+	c #6D8F91",
"C+	c #003430",
"D+	c #3EB4A6",
"E+	c #2DB6A4",
"F+	c #006052",
"G+	c #096A63",
"H+	c #285D63",
"I+	c #869FA4",
"J+	c #47564F",
"K+	c #6A7668",
"L+	c #E5F1E7",
"M+	c #E7F1E8",
"N+	c #F9FFFB",
"O+	c #EEF2F3",
"P+	c #FBF5F7",
"Q+	c #F5FFFA",
"R+	c #F0FFF6",
"S+	c #F4FFF4",
"T+	c #FEFFF8",
"U+	c #FFF4F4",
"V+	c #9C9398",
"W+	c #56656A",
"X+	c #265754",
"Y+	c #197367",
"Z+	c #005240",
"`+	c #1E816F",
" @	c #41897E",
".@	c #A4C2C2",
"+@	c #252F30",
"@@	c #AFBBB1",
"#@	c #BFCBBD",
"$@	c #B8C4BA",
"%@	c #D6E2D8",
"&@	c #EFF8F3",
"*@	c #F8FEFA",
"=@	c #FFEFFD",
"-@	c #F4FFFF",
";@	c #E4FFF2",
">@	c #E5FDEF",
",@	c #F8FFF8",
"'@	c #FFFBF9",
")@	c #77686B",
"!@	c #828085",
"~@	c #364C4A",
"{@	c #65A195",
"]@	c #3C8675",
"^@	c #CCFFFE",
"/@	c #82B1A1",
"(@	c #BFC4BE",
"_@	c #BFB8B2",
":@	c #242A1E",
"<@	c #A7B5A6",
"[@	c #97A399",
"}@	c #3E4A40",
"|@	c #EEF7F2",
"1@	c #F6FCF8",
"2@	c #F9FDFE",
"3@	c #FFF9FF",
"4@	c #F2FFFE",
"5@	c #F0FFFD",
"6@	c #F1FFFB",
"7@	c #EDF9EF",
"8@	c #FFFDFB",
"9@	c #FFF9F9",
"0@	c #877E81",
"a@	c #8E9796",
"b@	c #E9FFFF",
"c@	c #E2FFFF",
"d@	c #E4FFFD",
"e@	c #E0F8EB",
"f@	c #716C66",
"g@	c #B4A9A3",
"h@	c #8B8E85",
"i@	c #535D54",
"j@	c #333D34",
"k@	c #ECF6EE",
"l@	c #F8FEFC",
"m@	c #F7FBFA",
"n@	c #F9FFFF",
"o@	c #FCFEFD",
"p@	c #F6FFFD",
"q@	c #F2FFFC",
"r@	c #E7F0EB",
"s@	c #989795",
"t@	c #96928F",
"u@	c #9B9B99",
"v@	c #2C2E2B",
"w@	c #FBFDFA",
"x@	c #FEFFFD",
"y@	c #F5F7F6",
"z@	c #FDFFFE",
"A@	c #FEFEFE",
"B@	c #F1F1F1",
"C@	c #F0F0F0",
"D@	c #E7E7E7",
"E@	c #565656",
"F@	c #282828",
"G@	c #F4F4F4",
"H@	c #FAFAFA",
"I@	c #EFEFEF",
"J@	c #FBFBFB",
"K@	c #F8F8F8",
"L@	c #AEAEAE",
"M@	c #E8E8E8",
"N@	c #E4E4E4",
"O@	c #F7F7F7",
"P@	c #F6F6F6",
"Q@	c #F5F5F5",
"R@	c #F3F3F3",
"S@	c #F9F9F9",
"T@	c #E2E2E2",
"U@	c #FDFDFD",
". + @ # $ % & * = - ; = > , ' ) ! ~ { { ] ^ / ) ( ",
"_ : < [ } # | 1 2 3 4 5 6 7 ) 8 9 0 a b ^ c d / ( ",
"e f { g h i j k l m n o ) p q r [ s { { t u ( v ( ",
"w x * + y z A B C D E F G $ H I J K L M ^ ^ N O ( ",
"P w Q R S T U V W X Y Z ` [  ...+.@.#.{ $.%.( ( ( ",
") &.*.=.-.;.>.,.'.).( !.~.{.].^./.(._.:.<.<.7 [.( ",
"}.|.1.2.3.4.5.6.7.8.9.0.a.b.c.d.e.f.g.{ h.i.j.&.( ",
") k.l.m.n.o.p.q.r.s.t.u.v.w.x.y.z.A.B.C.D.E.&.F.( ",
"G.{ H.I.J.K.L.M.N.O.P.Q.R.S.T.U.V.W.X.Y.Z.`. +.+&.",
"++@+0 #+0 { $+%+&+*+=+-+;+>+,+'+)+!+~+X.{+]+w w &.",
"^+@+0 J /+(+( _+:+<+[+}+|+1+2+3+4+5+6+7+8+9+0+a+&.",
"b+c+d+e+0 f+E g+h+i+j+k+l+m+n+o+p+q+r+s+t+u+v+w &.",
"w+G.: + x+y+z+A+B+C+D+E+F+G+H+I+J+K+L+M+l N+e O+w ",
"o P+Q+R+S+T+U+V+W+X+Y+Z+`+ @.@+@@@#@$@%@&@*@v+v+w ",
"=@) -@;@>@,@'@)@!@~@{@]@^@/@(@_@:@<@[@}@|@1@v+2@w ",
"3@o 4@5@6@7@8@9@0@a@b@c@d@e@f@g@h@i@j@k@l l@m@.+w ",
"/ ( v+n@l 9+<.^ ( o@p@q@5 r@s@t@u@v@w@x@y@w z@A@&.",
"&.&.&.&.&.&.&.&.&.B@&.&.C@&.D@E@F@G@H@I@&.&.G@&.&.",
"&.&.&.&.&.&.&.&.H@&.J@A@K@&.&.L@M@&.N@&.O@&.A@&.&.",
"&.&.&.&.&.&.&.&.P@&.Q@G@&.R@G@&.&.S@&.&.H@&.Q@&.&.",
"&.&.&.&.&.&.&.&.&.P@&.A@S@&.&.H@T@&.&.S@&.K@&.U@&."};
