/* XPM */
static const char * StopMission_xpm[] = {
"16 16 62 1",
" 	c None",
".	c #CE383A",
"+	c #D84943",
"@	c #DA4C45",
"#	c #D94C45",
"$	c #D94C44",
"%	c #D13F3D",
"&	c #C1232F",
"*	c #C62A33",
"=	c #E5614E",
"-	c #F47B5C",
";	c #F57C5D",
">	c #F57D5D",
",	c #EB6D54",
"'	c #D03C3C",
")	c #C52A33",
"!	c #EB6C53",
"~	c #F2785A",
"{	c #EF7357",
"]	c #EE7257",
"^	c #EF7257",
"/	c #F07659",
"(	c #F17759",
"_	c #D1403D",
":	c #E05A49",
"<	c #EE7256",
"[	c #EB6D53",
"}	c #EC6E54",
"|	c #EA6C52",
"1	c #C62C33",
"2	c #CA3236",
"3	c #E86950",
"4	c #E6654E",
"5	c #E5654E",
"6	c #E86A50",
"7	c #D74B41",
"8	c #CF3D3A",
"9	c #E3624B",
"0	c #E15E49",
"a	c #E2614A",
"b	c #D95043",
"c	c #CE3B39",
"d	c #DE5A46",
"e	c #DC5645",
"f	c #DD5846",
"g	c #D54A3F",
"h	c #CB3637",
"i	c #D74F41",
"j	c #D64D40",
"k	c #D1423C",
"l	c #C72F34",
"m	c #D0423B",
"n	c #CF403A",
"o	c #D0413B",
"p	c #CB3837",
"q	c #C42931",
"r	c #CA3636",
"s	c #C93435",
"t	c #C93535",
"u	c #C32831",
"v	c #C22530",
"w	c #BF1E2D",
"    .+@##@$%&   ",
"  *=-;>>>>>;,'  ",
" )!~{]]]]]]^/(_ ",
" :<[[[[[[[[[[}|1",
"2344444444444567",
"89000000000000ab",
"cdeeeeeeeeeeeefg",
"hijjjjjjjjjjjjik",
"lmnnnnnnnnnnnnop",
"qrsssssssssssstl",
"&uuuuuuuuuuuuuuv",
"wwwwwwwwwwwwwwww",
"wwwwwwwwwwwwwwww",
" wwwwwwwwwwwwww ",
"  wwwwwwwwwwwww ",
"   wwwwwwwwww   "};
