/* XPM */
static char * stop_xpm[] = {
"16 16 20 1",
" 	c None",
".	c #5A79DE",
"+	c #4A69C6",
"@	c #4A65BD",
"#	c #425DB5",
"$	c #4259A5",
"%	c #39519C",
"&	c #394D94",
"*	c #314984",
"=	c #B5BADE",
"-	c #526DCE",
";	c #425DAD",
">	c #39559C",
",	c #31498C",
"'	c #31417B",
")	c #29386B",
"!	c #21305A",
"~	c #18284A",
"{	c #ADBADE",
"]	c #5A75DE",
"                ",
"                ",
"                ",
"                ",
"    .+@#$%&*=   ",
"    -;>,')!~{   ",
"    -;>,')!~{   ",
"    -;>,')!~{   ",
"    -;>,')!~{   ",
"    -;>,')!~{   ",
"    -;>,')!~{   ",
"    ]+@#$%&*=   ",
"                ",
"                ",
"                ",
"                "};
