/* XPM */
static char * stop_xpm[] = {
"16 16 228 2",
"  	c None",
". 	c #FFFFFF",
"+ 	c #F8E3DF",
"@ 	c #EEB3B1",
"# 	c #E79690",
"$ 	c #EA9995",
"% 	c #E89792",
"& 	c #E99993",
"* 	c #E78C87",
"= 	c #E6938E",
"- 	c #EEB6B3",
"; 	c #F8E2E1",
"> 	c #F8DFDD",
", 	c #EAA9A3",
"' 	c #F49D86",
") 	c #F6B19C",
"! 	c #F8A78D",
"~ 	c #F9A98E",
"{ 	c #F9AB93",
"] 	c #F9B299",
"^ 	c #F7AB99",
"/ 	c #EA968D",
"( 	c #EC9F93",
"_ 	c #F3D4D3",
": 	c #F6DDDC",
"< 	c #EAA8A3",
"[ 	c #DE8A84",
"} 	c #F8987E",
"| 	c #FE9A78",
"1 	c #FE9574",
"2 	c #FE9B76",
"3 	c #FF9374",
"4 	c #FF9575",
"5 	c #FEA57F",
"6 	c #FA9F8B",
"7 	c #E88981",
"8 	c #E2908A",
"9 	c #F6D8D7",
"0 	c #F9E8E7",
"a 	c #EAA7A5",
"b 	c #E17A6C",
"c 	c #F69172",
"d 	c #FE8562",
"e 	c #FF714F",
"f 	c #FF6E4B",
"g 	c #FF7B58",
"h 	c #FF7456",
"i 	c #FF7B5B",
"j 	c #FD8E75",
"k 	c #F39887",
"l 	c #E98F85",
"m 	c #E5918E",
"n 	c #F7DCDB",
"o 	c #ECAEAC",
"p 	c #E68176",
"q 	c #F59276",
"r 	c #FE7E5C",
"s 	c #FF6043",
"t 	c #FF5F3F",
"u 	c #FF593B",
"v 	c #FF6342",
"w 	c #FF6345",
"x 	c #FF6247",
"y 	c #FF674B",
"z 	c #FF6A4D",
"A 	c #FF8867",
"B 	c #F38D7F",
"C 	c #F38A7A",
"D 	c #E99A97",
"E 	c #DF847E",
"F 	c #F7A38B",
"G 	c #FE8B67",
"H 	c #FF6746",
"I 	c #FF563A",
"J 	c #FF5235",
"K 	c #FF4B31",
"L 	c #FF4932",
"M 	c #FF5338",
"N 	c #FF573C",
"O 	c #FF5940",
"P 	c #FF5B3E",
"Q 	c #FF5F44",
"R 	c #FF8266",
"S 	c #F59285",
"T 	c #D96A65",
"U 	c #DD7A74",
"V 	c #F9A48C",
"W 	c #FF7F5B",
"X 	c #FF6146",
"Y 	c #FF573D",
"Z 	c #FF432F",
"` 	c #FF432C",
" .	c #FF412C",
"..	c #FF462F",
"+.	c #FF4C35",
"@.	c #FF533C",
"#.	c #FF5339",
"$.	c #FF5239",
"%.	c #FF6E50",
"&.	c #EE8F85",
"*.	c #D4625D",
"=.	c #DF7C78",
"-.	c #FB9B87",
";.	c #FF8360",
">.	c #FF6448",
",.	c #FF5A3E",
"'.	c #FF4933",
").	c #FF3F2A",
"!.	c #FF3C29",
"~.	c #FF402B",
"{.	c #FF4830",
"].	c #FF482E",
"^.	c #FF5035",
"/.	c #F84E39",
"(.	c #FE624C",
"_.	c #F68A7D",
":.	c #D46059",
"<.	c #E07D79",
"[.	c #FCA18F",
"}.	c #FF8366",
"|.	c #FF6C4E",
"1.	c #FF5840",
"2.	c #FF4B36",
"3.	c #FF442D",
"4.	c #FF3D28",
"5.	c #FF3723",
"6.	c #FF412B",
"7.	c #F74330",
"8.	c #F94C38",
"9.	c #FE4B33",
"0.	c #FD5D48",
"a.	c #F7897C",
"b.	c #D25B55",
"c.	c #DE7872",
"d.	c #FBA490",
"e.	c #FF8061",
"f.	c #FF6D50",
"g.	c #FF6349",
"h.	c #FF543A",
"i.	c #FF3E2A",
"j.	c #FF3A26",
"k.	c #F63626",
"l.	c #FF3C27",
"m.	c #FE412B",
"n.	c #FF432B",
"o.	c #FC5944",
"p.	c #F48477",
"q.	c #D35751",
"r.	c #E07C76",
"s.	c #FAA291",
"t.	c #FE886C",
"u.	c #FF5A3F",
"v.	c #FF5037",
"w.	c #F7432E",
"x.	c #FF3926",
"y.	c #FE3723",
"z.	c #FF3D27",
"A.	c #FF3F29",
"B.	c #FF4128",
"C.	c #FD644C",
"D.	c #F48277",
"E.	c #D75D57",
"F.	c #EAA5A1",
"G.	c #EF9689",
"H.	c #F9927D",
"I.	c #FE755E",
"J.	c #FF5F41",
"K.	c #FE4932",
"L.	c #FE422C",
"M.	c #FF3824",
"N.	c #FF3A24",
"O.	c #FA3B24",
"P.	c #FF452A",
"Q.	c #FC6049",
"R.	c #F37665",
"S.	c #F0867B",
"T.	c #E48C88",
"U.	c #F6DCDB",
"V.	c #E5908B",
"W.	c #ED8B7F",
"X.	c #F67E70",
"Y.	c #FE6750",
"Z.	c #FE4D33",
"`.	c #FF3E26",
" +	c #FF3922",
".+	c #F93420",
"++	c #FD3720",
"@+	c #FB3F27",
"#+	c #FA5E45",
"$+	c #F07365",
"%+	c #F19D98",
"&+	c #ECA39D",
"*+	c #F2CAC8",
"=+	c #F2CDCB",
"-+	c #E38882",
";+	c #EB8276",
">+	c #F77968",
",+	c #FD5E47",
"'+	c #FE4D38",
")+	c #FF4E38",
"!+	c #F74831",
"~+	c #F55C47",
"{+	c #EE7365",
"]+	c #E98780",
"^+	c #E8A19D",
"/+	c #F3CCC9",
"(+	c #F0C9C7",
"_+	c #E3847E",
":+	c #EA776F",
"<+	c #F77F6E",
"[+	c #F98372",
"}+	c #F0776B",
"|+	c #F47A6C",
"1+	c #F58071",
"2+	c #ED8376",
"3+	c #E57C74",
"4+	c #E6928E",
"5+	c #EEB9B6",
"6+	c #F1C9C7",
"7+	c #E28581",
"8+	c #D65751",
"9+	c #D04C48",
"0+	c #CE453E",
"a+	c #CE4540",
"b+	c #CE413B",
"c+	c #D14943",
"d+	c #E89895",
"e+	c #F3D0CE",
". . . + @ # $ % & * = - ; . . . ",
". . > , ' ) ! ~ { ] ^ / ( _ . . ",
". : < [ } | 1 2 3 4 5 6 7 8 9 . ",
"0 a b c d e f e g h i j k l m n ",
"o p q r s t u v w x y z A B C D ",
"E F G H I J K L M N O P Q R S T ",
"U V W X Y Z `  ...+.@.#.$.%.&.*.",
"=.-.;.>.,.'.).!.~.{.].^./.(._.:.",
"<.[.}.|.1.2.3.4.5.6.7.8.9.0.a.b.",
"c.d.e.f.g.h.i.j.k.l.m.n.].o.p.q.",
"r.s.t.f.u.v.w.x.y.z.A.B.K C.D.E.",
"F.G.H.I.J.K.L.4.M.N.O.P.Q.R.S.T.",
"U.V.W.X.Y.Z.`. +.+++@+#+$+%+&+*+",
". =+-+;+>+,+'+)++.!+~+{+]+^+/+. ",
". . (+_+:+<+[+}+|+1+2+3+4+5+. . ",
". . . 6+7+8+9+0+a+b+c+d+e+. . . "};
