/* XPM */
static char * stop_xpm[] = {
"16 15 2 1",
" 	c None",
".	c #FF0712",
"                ",
"                ",
"                ",
"                ",
"      .....     ",
"     .......    ",
"    .........   ",
"    .........   ",
"    .........   ",
"    .........   ",
"     .......    ",
"      .....     ",
"                ",
"                ",
"                "};
