/* XPM */
static const char * sun_xpm[] = {
"32 32 14 1",
" 	c None",
".	c #000000",
"+	c #FDCB00",
"@	c #FD9800",
"#	c #983200",
"$	c #CC6500",
"%	c #FFCC33",
"&	c #FFFE33",
"*	c #FFCB65",
"=	c #FFFE65",
"-	c #FFFE99",
";	c #663200",
">	c #660000",
",	c #001000",
"            ..     .            ",
"          ..++. ...+.   .       ",
"        . .@@@@#@@@@+. .+.      ",
"      ..+.@$#######$@+.++.      ",
"    . .@@$##%+%%+%+##$@@@. .    ",
"  ..+.@$##%%+%%%%%%%%##$@@.+.   ",
"   .@@$#%%%%%&%%&%%%%+%#$@@+.   ",
" ..@@$#%+%%&%%*&*%&%&%%+#$@.    ",
"..+@@#%+%&%%===*=**=%%%%%#@.    ",
"  .@$#%%&%*=***=*==*%=%%+#$@..  ",
"  .@#%%%%*=*=-----*=*%%&%%#@@+. ",
" .@$#%%&%=*=-------*==*%%%#$@.  ",
" .+#%+%%=*=---------**=%&%+;@.. ",
"  ##+%&%=*-----------=*%%%%;@++.",
" .+#%%%*=*-----------*=%&%+;@.. ",
" .@#%%%&*=-----------=*&*%%;@.  ",
".+@#+%&*=*-----------*=*%%+;@@. ",
" .@#%%%%*=-----------=*%%%%;@+. ",
".@@#+%%&*=*---------=*%&%&+;+.  ",
".+@$;%%%=*=*-------=**=%%%;$.   ",
" ..@;%%&%%*=*-----=*=&%%%%;@.   ",
"   .$;+%%=%=*=*=*=**&*%%%>$@+.. ",
"  .@@;%%%%%*=*=*=*%=%%%%+>@+..  ",
"  .+@$;+%%&%%%%&*%&%%%%+>$,.    ",
"  ..+#$;%+%%&%&*%%%%%%+>$,      ",
"    . .$>>%%%%%%%%&%%>>$@.      ",
"      .+@$>>+%+%+%+>>$@@@+.     ",
"       ..@@$>>>>>>>$@@.+.+.     ",
"         .@@@@@@@@@@@+.. .      ",
"         .+..+@+...++.          ",
"          .  .+.   ...          ",
"              .                 "};
