/* XPM */
static char * target_xpm[] = {
"16 16 109 2",
"  	c None",
". 	c #FFFFFF",
"+ 	c #FDFDFD",
"@ 	c #D0D0D0",
"# 	c #ABABAB",
"$ 	c #AAAAAA",
"% 	c #CDCDCD",
"& 	c #FCFCFC",
"* 	c #939393",
"= 	c #1E1E1E",
"- 	c #000000",
"; 	c #1A1A1A",
"> 	c #8B8B8B",
", 	c #FAFAFA",
"' 	c #F2F2F2",
") 	c #444444",
"! 	c #0E0E0E",
"~ 	c #656565",
"{ 	c #999999",
"] 	c #A1A1A1",
"^ 	c #797979",
"/ 	c #222222",
"( 	c #3C3C3C",
"_ 	c #EEEEEE",
": 	c #494949",
"< 	c #4B4B4B",
"[ 	c #EAEAEA",
"} 	c #FBFBFB",
"| 	c #838383",
"1 	c #020202",
"2 	c #3E3E3E",
"3 	c #A0A0A0",
"4 	c #424242",
"5 	c #919191",
"6 	c #363636",
"7 	c #7F7F7F",
"8 	c #F5F5F5",
"9 	c #868686",
"0 	c #2F2F2F",
"a 	c #030303",
"b 	c #D9D9D9",
"c 	c #5C5C5C",
"d 	c #070707",
"e 	c #131313",
"f 	c #3E3D3E",
"g 	c #F9F9F9",
"h 	c #2A2A2A",
"i 	c #FEFEFE",
"j 	c #E6E6E6",
"k 	c #010101",
"l 	c #3D3D3D",
"m 	c #BEBEBE",
"n 	c #383838",
"o 	c #ECECEC",
"p 	c #8F8F8F",
"q 	c #C4C4C4",
"r 	c #6A6A6A",
"s 	c #7B7B7B",
"t 	c #B3B3B3",
"u 	c #BCBDBC",
"v 	c #6C6C6C",
"w 	c #1C1C1C",
"x 	c #585858",
"y 	c #B7B7B7",
"z 	c #C5C5C5",
"A 	c #7E7E7E",
"B 	c #AEAEAE",
"C 	c #DADADA",
"D 	c #A5A5A5",
"E 	c #191919",
"F 	c #5B5B5B",
"G 	c #B3B2B3",
"H 	c #B8B8B8",
"I 	c #E9E9E9",
"J 	c #3B3B3B",
"K 	c #2E2E2E",
"L 	c #E0E0E0",
"M 	c #F8F8F8",
"N 	c #858585",
"O 	c #DCDCDC",
"P 	c #353535",
"Q 	c #D7D7D7",
"R 	c #060606",
"S 	c #4A4B4A",
"T 	c #282828",
"U 	c #3F3F3F",
"V 	c #A2A2A2",
"W 	c #4D4D4D",
"X 	c #484848",
"Y 	c #9D9D9D",
"Z 	c #565656",
"` 	c #E7E7E7",
" .	c #4A494A",
"..	c #F7F7F7",
"+.	c #535353",
"@.	c #0C0C0C",
"#.	c #606060",
"$.	c #959495",
"%.	c #9C9C9C",
"&.	c #747474",
"*.	c #1F1F1F",
"=.	c #494A49",
"-.	c #F3F3F3",
";.	c #A4A4A4",
">.	c #2E2D2E",
",.	c #292929",
"'.	c #BDBDBD",
").	c #BCBCBC",
"!.	c #DEDEDE",
". . . . . + @ # $ % & . . . . . ",
". . . & * = - - - - ; > , . . . ",
". . ' ) - ! ~ { ] ^ / - ( _ . . ",
". + : - < [ . . . . } | 1 2 } . ",
". 3 - 4 , & 5 ( 6 7 8 . 9 - * . ",
". 0 a b . c - d e - f g & h / i ",
"j k l . m - n o + p - { . 9 - b ",
"q - r . s - t u v i w x . t - y ",
"z - r . A - B C D + E F . G - H ",
"I k J . z - K L M A - ] . N - O ",
". P 1 Q . v - 1 R - S & } T T i ",
". $ - U g i V W X 5 , . | - Y . ",
". i Z - X ` . . . . g A k  .+ . ",
". . ..+.- @.#.$.%.&.*.- =.-.. . ",
". . . i ;.>.- - - - ,.Y + . . . ",
". . . . . . L '.).!.i . . . . . "};
