/* XPM */
static char * target_xpm[] = {
"16 16 124 2",
"  	c None",
". 	c #FEFEFE",
"+ 	c #FBFBFD",
"@ 	c #F3F3FB",
"# 	c #B4B4EE",
"$ 	c #5757DB",
"% 	c #1C1BCF",
"& 	c #0504CB",
"* 	c #FDFDFD",
"= 	c #FDFDFE",
"- 	c #E2E2F8",
"; 	c #6B6BDF",
"> 	c #1111CE",
", 	c #0201CB",
"' 	c #0100CB",
") 	c #1211CE",
"! 	c #6C6CE0",
"~ 	c #FCFCFD",
"{ 	c #4E4EDA",
"] 	c #0404CC",
"^ 	c #0401C9",
"/ 	c #1507BD",
"( 	c #2E0FAD",
"_ 	c #3211AA",
": 	c #1F0AB7",
"< 	c #0703C6",
"[ 	c #0302CB",
"} 	c #0504CC",
"| 	c #5050DA",
"1 	c #E3E3F8",
"2 	c #0505CC",
"3 	c #0302CA",
"4 	c #1206BF",
"5 	c #652289",
"6 	c #AD3A5B",
"7 	c #C5434C",
"8 	c #C7444B",
"9 	c #B93E53",
"0 	c #832C76",
"a 	c #270DB1",
"b 	c #0402CA",
"c 	c #6C6CDF",
"d 	c #1105BF",
"e 	c #882E73",
"f 	c #CC4547",
"g 	c #D04745",
"h 	c #D14844",
"i 	c #D14745",
"j 	c #CF4646",
"k 	c #1212CE",
"l 	c #5858DB",
"m 	c #0301C9",
"n 	c #62218B",
"o 	c #CC4548",
"p 	c #D04645",
"q 	c #D24943",
"r 	c #D65D3B",
"s 	c #D8623A",
"t 	c #D34D42",
"u 	c #CF4645",
"v 	c #973369",
"w 	c #0F05C1",
"x 	c #1D1DD0",
"y 	c #A9395E",
"z 	c #D24844",
"A 	c #DE832D",
"B 	c #F2DE0A",
"C 	c #F4E507",
"D 	c #E5A121",
"E 	c #C8444A",
"F 	c #3B14A4",
"G 	c #0605CB",
"H 	c #C1414E",
"I 	c #D34F41",
"J 	c #EECA11",
"K 	c #F8F700",
"L 	c #D76239",
"M 	c #60208C",
"N 	c #0504CA",
"O 	c #2A0EAF",
"P 	c #C3424D",
"Q 	c #EBC015",
"R 	c #64228A",
"S 	c #1D1DCF",
"T 	c #1808BB",
"U 	c #B23C58",
"V 	c #D96C35",
"W 	c #EEC911",
"X 	c #D34A43",
"Y 	c #CB4548",
"Z 	c #47189C",
"` 	c #1C1CCF",
" .	c #0502C8",
"..	c #78287D",
"+.	c #CE4646",
"@.	c #D34E41",
"#.	c #D44F41",
"$.	c #D34944",
"%.	c #AA395D",
"&.	c #0301CB",
"*.	c #200AB6",
"=.	c #A53860",
"-.	c #D04844",
";.	c #C0414F",
">.	c #48189C",
",.	c #6A6ADF",
"'.	c #260DB2",
").	c #8D306F",
"!.	c #C4424D",
"~.	c #D04646",
"{.	c #CA4449",
"].	c #A7385F",
"^.	c #46189D",
"/.	c #0704C8",
"(.	c #0505CB",
"_.	c #E1E1F8",
":.	c #4D4DDA",
"<.	c #0B04C4",
"[.	c #551D93",
"}.	c #5B1F8F",
"|.	c #4116A1",
"1.	c #1608BD",
"2.	c #0706CB",
"3.	c #1E1DCF",
". . + @ # $ % & & % $ # @ + * . ",
"= + - ; > , ' ' ' ' , ) ! - + . ",
"~ - { ] , ^ / ( _ : < [ } | 1 ~ ",
"@ ; 2 3 4 5 6 7 8 9 0 a b 2 c @ ",
"# > , d e f g h i g j 6 ( 3 k # ",
"l , m n o p q r s t g u v w , $ ",
"x ' 4 y g z A B C D t g E F ' % ",
"G ' a H g I J K K C L g g M ' N ",
"G ' O P g t Q K K B r g g R ' N ",
"S ' T U g z V Q W A X g Y Z ' ` ",
"l ,  ...+.p z @.#.$.i u %.T , $ ",
"# > &.*.=.j g -.i i u ;.>.b ) # ",
"@ ,.} b '.).!.j ~.{.].^./.(.; @ ",
"~ _.:.} 3 <._ [.}.|.1.3 (.{ - ~ ",
". + _.,.> , ' ' ' ' , ) ; - + = ",
". . + @ # l S 2.2.3.l # @ + * . "};
