/* XPM */
static char * target_xpm[] = {
"16 16 49 1",
" 	c None",
".	c #1478DC",
"+	c #1577DA",
"@	c #1776D8",
"#	c #1477DB",
"$	c #3F61B3",
"%	c #AD294C",
"&	c #E20E1B",
"*	c #E50D18",
"=	c #C71C33",
"-	c #684D8D",
";	c #1875D7",
">	c #704885",
",	c #FC0102",
"'	c #FF0000",
")	c #75508B",
"!	c #1676D9",
"~	c #76467F",
"{	c #1576DA",
"]	c #FF3200",
"^	c #FFD200",
"/	c #FFE800",
"(	c #FF6E00",
"_	c #994773",
":	c #1C73D3",
"<	c #FFD500",
"[	c #FFFF00",
"}	c #FFFE00",
"|	c #FF2C00",
"1	c #2270CE",
"2	c #E70B15",
"3	c #FFED00",
"4	c #FF4100",
"5	c #2370CE",
"6	c #FFBF00",
"7	c #FF0300",
"8	c #D61526",
"9	c #2B6CC6",
"0	c #FF2800",
"a	c #FF3E00",
"b	c #B03254",
"c	c #B92341",
"d	c #ED0810",
"e	c #2E6AC3",
"f	c #F3060A",
"g	c #B62544",
"h	c #455EAD",
"i	c #485DAB",
"j	c #1775D8",
"     ......     ",
"   +........@   ",
"  #..........+  ",
" #...$%&*=-...; ",
" ...>,''''')!.. ",
"...$,'''''''~..{",
"...%'']^/(''_:..",
"...&''<[[}|''1..",
"...2''3[[[4''5..",
"...=''(}[67'89..",
"...-'''0a7''b..{",
" ...c''''''de.. ",
" #..!~f'''ge..; ",
"  #...:hi9...+  ",
"   +........j   ",
"     ......     "};
