/* XPM */
static char * target_xpm[] = {
"24 20 478 2",
"  	c None",
". 	c #F5F3FE",
"+ 	c #FFFAFF",
"@ 	c #FFECED",
"# 	c #FFE9EB",
"$ 	c #F6E7EE",
"% 	c #F1F2F4",
"& 	c #DEF9EA",
"* 	c #E1FEE2",
"= 	c #ECF5D8",
"- 	c #F1F8D7",
"; 	c #DDF0D4",
"> 	c #EEFFDF",
", 	c #FAFAD6",
"' 	c #E6EDCB",
") 	c #DAFFE9",
"! 	c #D3FFE4",
"~ 	c #EAFCD2",
"{ 	c #E9F7D3",
"] 	c #E3F9F6",
"^ 	c #E1EFF8",
"/ 	c #F9EEF6",
"( 	c #FFEEF4",
"_ 	c #FFFBFF",
": 	c #F5F4FC",
"< 	c #F9F8FD",
"[ 	c #F4EBEE",
"} 	c #E1C8CB",
"| 	c #F6DDE0",
"1 	c #F2EBF3",
"2 	c #DFE6EE",
"3 	c #D7EAF0",
"4 	c #CDDFE1",
"5 	c #E4E8EB",
"6 	c #E5E4EA",
"7 	c #DBE1F1",
"8 	c #E6E7F9",
"9 	c #F3E3EE",
"0 	c #E7DDE8",
"a 	c #D6E8FC",
"b 	c #D2EEF9",
"c 	c #CFE1D1",
"d 	c #DDECD9",
"e 	c #D6EBEC",
"f 	c #E6F0FA",
"g 	c #EFE0E7",
"h 	c #DEC9CE",
"i 	c #F2EBF2",
"j 	c #F8F9FE",
"k 	c #E5E5DB",
"l 	c #FCF5EF",
"m 	c #D0BABD",
"n 	c #C3B2BA",
"o 	c #B4BDC4",
"p 	c #BACBDF",
"q 	c #B9BDEC",
"r 	c #BEBAF7",
"s 	c #B8AFF2",
"t 	c #0E0050",
"u 	c #1A006D",
"v 	c #170068",
"w 	c #21005E",
"x 	c #250064",
"y 	c #0E0064",
"z 	c #AFB0FF",
"A 	c #B4C2E7",
"B 	c #B2C5D4",
"C 	c #BACCDA",
"D 	c #B7BBC6",
"E 	c #C7B0B6",
"F 	c #D3B9BA",
"G 	c #FAF4F4",
"H 	c #E1E5E4",
"I 	c #FBF6F0",
"J 	c #DCD5CF",
"K 	c #D8C8CB",
"L 	c #C7C0C7",
"M 	c #C0D1D9",
"N 	c #A3B8D7",
"O 	c #C6C5FF",
"P 	c #19076A",
"Q 	c #170056",
"R 	c #3D066E",
"S 	c #290053",
"T 	c #43005F",
"U 	c #4D0054",
"V 	c #350047",
"W 	c #3D037B",
"X 	c #100061",
"Y 	c #10105A",
"Z 	c #C0CCFC",
"` 	c #AAB5D3",
" .	c #CDCBD9",
"..	c #D5BABF",
"+.	c #E2C4C2",
"@.	c #F4F9F2",
"#.	c #FFF4FE",
"$.	c #DBD0D6",
"%.	c #D6D1CE",
"&.	c #C5C9CA",
"*.	c #A7B7C4",
"=.	c #B5C6F2",
"-.	c #000263",
";.	c #06005E",
">.	c #410057",
",.	c #4C0023",
"'.	c #B2194F",
").	c #C6133A",
"!.	c #D40F2D",
"~.	c #BF163D",
"{.	c #3F001F",
"].	c #2F0051",
"^.	c #040049",
"/.	c #060151",
"(.	c #C0C0F2",
"_.	c #B7AFC7",
":.	c #DCBFC3",
"<.	c #E7CAC2",
"[.	c #DBD3C6",
"}.	c #F8FCEB",
"|.	c #F9F2FA",
"1.	c #DDD8DC",
"2.	c #C4C5C0",
"3.	c #C1C6CC",
"4.	c #C6CEF2",
"5.	c #010243",
"6.	c #1A086E",
"7.	c #360063",
"8.	c #991D66",
"9.	c #B00C2E",
"0.	c #D72211",
"a.	c #DA1400",
"b.	c #E80F00",
"c.	c #E41F00",
"d.	c #A21621",
"e.	c #88275C",
"f.	c #3C0053",
"g.	c #280362",
"h.	c #0C0042",
"i.	c #D3C8F0",
"j.	c #D4BDC3",
"k.	c #D6BFB1",
"l.	c #E2DAC7",
"m.	c #F8F8E0",
"n.	c #E7F4EA",
"o.	c #E7F1E9",
"p.	c #B8BAB7",
"q.	c #C9C5DE",
"r.	c #B7B1FB",
"s.	c #15005B",
"t.	c #35004D",
"u.	c #8E195D",
"v.	c #C81532",
"w.	c #E32108",
"x.	c #C52000",
"y.	c #C52900",
"z.	c #CF2700",
"A.	c #D01D00",
"B.	c #E12400",
"C.	c #C5182B",
"D.	c #98155B",
"E.	c #42004A",
"F.	c #1A0052",
"G.	c #BAB2EE",
"H.	c #D0C4CE",
"I.	c #C4B7A4",
"J.	c #F7EDD4",
"K.	c #F9EFD4",
"L.	c #E8F8EE",
"M.	c #CDD8D0",
"N.	c #D0D3CC",
"O.	c #C4C1DC",
"P.	c #0E0361",
"Q.	c #270064",
"R.	c #59002B",
"S.	c #BE1A35",
"T.	c #D11001",
"U.	c #D41F00",
"V.	c #FFC53D",
"W.	c #FFDB29",
"X.	c #FFDC1F",
"Y.	c #FFC727",
"Z.	c #DC1E00",
"`.	c #DB0D00",
" +	c #C9133C",
".+	c #610032",
"++	c #270060",
"@+	c #090858",
"#+	c #C1C4D3",
"$+	c #D4D3BE",
"%+	c #DFD3B9",
"&+	c #FFF0D4",
"*+	c #E3E1EE",
"=+	c #F1F2F6",
"-+	c #BAC1B1",
";+	c #B6BCC8",
">+	c #0E0B64",
",+	c #26004C",
"'+	c #BB163E",
")+	c #DD1305",
"!+	c #CA2400",
"~+	c #FFCC5F",
"{+	c #FFE43E",
"]+	c #FFED21",
"^+	c #FFF411",
"/+	c #FFEB22",
"(+	c #FFC946",
"_+	c #DE1C00",
":+	c #E50D0E",
"<+	c #BE124E",
"[+	c #230059",
"}+	c #070D6F",
"|+	c #ABC0D3",
"1+	c #B6C3AF",
"2+	c #FDF1D9",
"3+	c #F8DEC5",
"4+	c #FFF2FF",
"5+	c #E6E0EA",
"6+	c #C1CBB3",
"7+	c #C8D3D5",
"8+	c #000052",
"9+	c #45005B",
"0+	c #C4041D",
"a+	c #E80C00",
"b+	c #BE2300",
"c+	c #FFD44C",
"d+	c #FFDF24",
"e+	c #FFFF20",
"f+	c #FFFF14",
"g+	c #FFE80B",
"h+	c #FFD139",
"i+	c #CF1D00",
"j+	c #EE0800",
"k+	c #C1022D",
"l+	c #3E006F",
"m+	c #000068",
"n+	c #B8D7EC",
"o+	c #B8CDBA",
"p+	c #EEE1CE",
"q+	c #FFF2DE",
"r+	c #FFE5FF",
"s+	c #DCCFE0",
"t+	c #BBC8AE",
"u+	c #BAC6C2",
"v+	c #07004E",
"w+	c #3D0049",
"x+	c #E01E36",
"y+	c #E60A00",
"z+	c #C22900",
"A+	c #FFE04B",
"B+	c #FFF122",
"C+	c #FFF003",
"D+	c #FFF400",
"E+	c #FFF41A",
"F+	c #FFE044",
"G+	c #C62700",
"H+	c #E80900",
"I+	c #DC1E40",
"J+	c #2F005B",
"K+	c #000567",
"L+	c #A7C9E2",
"M+	c #B2CABD",
"N+	c #E0D2C7",
"O+	c #FFE8DF",
"P+	c #FFF7FF",
"Q+	c #EDE4E9",
"R+	c #D3D9CB",
"S+	c #110053",
"T+	c #370048",
"U+	c #B00A2E",
"V+	c #DB1401",
"W+	c #C92100",
"X+	c #FFC642",
"Y+	c #FFE32A",
"Z+	c #FFF11E",
"`+	c #FFF020",
" @	c #FFE12F",
".@	c #FFC450",
"+@	c #C82000",
"@@	c #DD1108",
"#@	c #AF0A32",
"$@	c #27004E",
"%@	c #00095C",
"&@	c #A3C2D7",
"*@	c #C8DDD8",
"=@	c #EFE4E2",
"-@	c #FFF6F5",
";@	c #E5F3D0",
">@	c #D2DAC5",
",@	c #CEC8D2",
"'@	c #C0AEE0",
")@	c #35157A",
"!@	c #33005E",
"~@	c #460017",
"{@	c #C52A3C",
"]@	c #D81300",
"^@	c #D62100",
"/@	c #FFD657",
"(@	c #FFD643",
"_@	c #FFD048",
":@	c #FFCB6A",
"<@	c #DA1800",
"[@	c #DA0A17",
"}@	c #D1204A",
"|@	c #4D0012",
"1@	c #250147",
"2@	c #1D265F",
"3@	c #ABBCD0",
"4@	c #C4CDD2",
"5@	c #DBD1D9",
"6@	c #F8E4EF",
"7@	c #ECF7CD",
"8@	c #EAEDDA",
"9@	c #CCBFDB",
"0@	c #D5BFFD",
"a@	c #B49BEE",
"b@	c #1A0050",
"c@	c #360051",
"d@	c #932A65",
"e@	c #D01A26",
"f@	c #D61300",
"g@	c #B72300",
"h@	c #B43000",
"i@	c #C12900",
"j@	c #C71800",
"k@	c #D80C15",
"l@	c #CF1547",
"m@	c #9F2173",
"n@	c #3E004C",
"o@	c #130034",
"p@	c #A6A9C8",
"q@	c #CACBDD",
"r@	c #C6C4D1",
"s@	c #EDE6F6",
"t@	c #F3EAFD",
"u@	c #FFEBE2",
"v@	c #F5E4EA",
"w@	c #BCB2D7",
"x@	c #B6B3E0",
"y@	c #CED2EF",
"z@	c #161848",
"A@	c #080168",
"B@	c #16004C",
"C@	c #8F1345",
"D@	c #CD232C",
"E@	c #D31505",
"F@	c #E01500",
"G@	c #E81100",
"H@	c #DA1203",
"I@	c #C22735",
"J@	c #811851",
"K@	c #160055",
"L@	c #0F0069",
"M@	c #1C183D",
"N@	c #D5D2D9",
"O@	c #C1B3C2",
"P@	c #C1B2C7",
"Q@	c #EAE6FD",
"R@	c #EDEDFF",
"S@	c #FFEDF2",
"T@	c #E4CFDE",
"U@	c #CEC7E9",
"V@	c #BEC1E0",
"W@	c #B1BEC7",
"X@	c #B4C5E3",
"Y@	c #000969",
"Z@	c #170774",
"`@	c #390039",
" #	c #64001C",
".#	c #B11336",
"+#	c #C6122F",
"@#	c #CC0F2B",
"##	c #B31234",
"$#	c #550021",
"%#	c #290040",
"&#	c #140874",
"*#	c #020762",
"=#	c #BFC1D8",
"-#	c #BFBAB6",
";#	c #CFBEC8",
">#	c #D7C6D8",
",#	c #D7D4E9",
"'#	c #F0F5FF",
")#	c #F6ECED",
"!#	c #EDE6ED",
"~#	c #BBB7C8",
"{#	c #C5C6DA",
"]#	c #C1C3D8",
"^#	c #C0C4E7",
"/#	c #AFB0F3",
"(#	c #170E5F",
"_#	c #1D014E",
":#	c #28004B",
"<#	c #2D0048",
"[#	c #34004D",
"}#	c #350053",
"|#	c #2B0058",
"1#	c #20006B",
"2#	c #160064",
"3#	c #17114F",
"4#	c #B3B3D5",
"5#	c #C7C5D0",
"6#	c #C8C4C5",
"7#	c #CCC6CA",
"8#	c #BEB7BE",
"9#	c #EAE7EE",
"0#	c #EEEFF4",
"a#	c #F1F0EB",
"b#	c #E4E3DF",
"c#	c #C5C3C4",
"d#	c #D2D1D7",
"e#	c #BEBBCC",
"f#	c #B7B5CD",
"g#	c #D9D7FC",
"h#	c #A9A7D6",
"i#	c #C2BEF9",
"j#	c #010043",
"k#	c #070455",
"l#	c #05025B",
"m#	c #050162",
"n#	c #040168",
"o#	c #000067",
"p#	c #BFBBFF",
"q#	c #ACA9C8",
"r#	c #DDDBE0",
"s#	c #B9B7BA",
"t#	c #BFBDC0",
"u#	c #D3D1D2",
"v#	c #E4E3E1",
"w#	c #F1F0EE",
"x#	c #FEFCEF",
"y#	c #E7E8DA",
"z#	c #D7D7CB",
"A#	c #E5E7DC",
"B#	c #DEDFDA",
"C#	c #D4D6D5",
"D#	c #EDEEF2",
"E#	c #EEF1FA",
"F#	c #D6DAE6",
"G#	c #EAF0FF",
"H#	c #DDE2F8",
"I#	c #DDE3FD",
"J#	c #DDE2FF",
"K#	c #DBE1FF",
"L#	c #E8EEFF",
"M#	c #D3D9F3",
"N#	c #F0F0FC",
"O#	c #EFEDF0",
"P#	c #D6D4D7",
"Q#	c #DFDDE0",
"R#	c #E6E4E5",
"S#	c #D7D5D6",
"T#	c #E7E6E4",
"U#	c #FCFBF9",
"V#	c #FFFFED",
"W#	c #F8F7E5",
"X#	c #EFF0DE",
"Y#	c #EDEEDC",
"Z#	c #F8FAEC",
"`#	c #FBFDEF",
" $	c #E9ECE1",
".$	c #DEE4D8",
"+$	c #EEF4EA",
"@$	c #EAF2E7",
"#$	c #E8F2EA",
"$$	c #EBF5ED",
"%$	c #EAF5F1",
"&$	c #E7F2EE",
"*$	c #E6F2EE",
"=$	c #EBF4F1",
"-$	c #E0E1E3",
";$	c #EBE9EC",
">$	c #FCFAFD",
",$	c #F9F7FA",
"'$	c #EDEBEC",
")$	c #EFEDEE",
"!$	c #F6F5F3",
"~$	c #FEFDFB",
". + @ # $ % & * = - ; > , ' ) ! ~ { ] ^ / ( _ : ",
"< [ } | 1 2 3 4 5 6 7 8 9 0 a b c d e f g h i j ",
"k l m n o p q r s t u v w x y z A B C D E F G H ",
"I J K L M N O P Q R S T U V W X Y Z `  ...+.J @.",
"#.$.%.&.*.=.-.;.>.,.'.).!.~.{.].^./.(._.:.<.[.}.",
"|.1.2.3.4.5.6.7.8.9.0.a.b.c.d.e.f.g.h.i.j.k.l.m.",
"n.o.p.q.r.s.t.u.v.w.x.y.z.A.B.C.D.E.F.G.H.I.J.K.",
"L.M.N.O.P.Q.R.S.T.U.V.W.X.Y.Z.`. +.+++@+#+$+%+&+",
"*+=+-+;+>+,+'+)+!+~+{+]+^+/+(+_+:+<+[+}+|+1+2+3+",
"4+5+6+7+8+9+0+a+b+c+d+e+f+g+h+i+j+k+l+m+n+o+p+q+",
"r+s+t+u+v+w+x+y+z+A+B+C+D+E+F+G+H+I+J+K+L+M+N+O+",
"P+Q+R+D S+T+U+V+W+X+Y+Z+`+ @.@+@@@#@$@%@&@*@=@-@",
";@>@,@'@)@!@~@{@]@^@/@(@_@:@<@[@}@|@1@2@3@4@5@6@",
"7@8@9@0@a@b@c@d@e@f@g@h@i@j@k@l@m@n@o@p@q@r@s@t@",
"u@v@w@x@y@z@A@B@C@D@E@F@G@H@I@J@K@L@M@N@O@P@Q@R@",
"S@T@U@V@W@X@Y@Z@`@ #.#+#@###$#%#&#*#=#-#;#>#,#'#",
")#!#~#{#]#^#/#(#_#:#<#[#}#|#1#2#3#4#5#6#7#8#9#0#",
"a#b#c#d#e#f#g#h#i#j#k#l#m#n#o#p#q#r#s#t#u#c#v#w#",
"x#y#z#A#B#C#D#E#F#G#H#I#J#K#L#M#N#O#P#Q#R#S#T#U#",
"V#W#X#Y#Z#`# $.$+$@$#$$$%$&$*$=$-$;$>$,$'$)$!$~$"};
