/* XPM */
static const char * target_xpm[] = {
"16 16 75 1",
" 	c #F7F7F7",
".	c #D7E5F4",
"+	c #82B6E9",
"@	c #4795E2",
"#	c #2F87DF",
"$	c #D7E5F3",
"%	c #F5F6F8",
"&	c #80B4E8",
"*	c #1B7CDD",
"=	c #1579DC",
"-	c #81B3E7",
";	c #5CA0E5",
">	c #5CA0E4",
",	c #F5F6F7",
"'	c #4062B3",
")	c #AD2A4D",
"!	c #E20F1C",
"~	c #E50E19",
"{	c #C71D34",
"]	c #694E8D",
"^	c #82B3E6",
"/	c #714985",
"(	c #FC0203",
"_	c #FF0101",
":	c #76518B",
"<	c #1777D9",
"[	c #D8E5F3",
"}	c #80B4E9",
"|	c #774780",
"1	c #80B3E8",
"2	c #FF3A0A",
"3	c #FED412",
"4	c #FEE916",
"5	c #FF750D",
"6	c #994874",
"7	c #1D74D3",
"8	c #FED711",
"9	c #FFFF01",
"0	c #FFFE04",
"a	c #FF380F",
"b	c #2371CE",
"c	c #E70C16",
"d	c #FEED13",
"e	c #FFFF05",
"f	c #FE5014",
"g	c #2471CE",
"h	c #FFC310",
"i	c #FF0401",
"j	c #D61627",
"k	c #2C6DC6",
"l	c #FF3610",
"m	c #FE4E16",
"n	c #B03355",
"o	c #D6E5F4",
"p	c #1A7CDD",
"q	c #B92442",
"r	c #ED0911",
"s	c #2F6BC3",
"t	c #D7E4F3",
"u	c #7EB3E8",
"v	c #F3070B",
"w	c #B62645",
"x	c #80B2E6",
"y	c #599EE4",
"z	c #465FAD",
"A	c #495EAB",
"B	c #5A9EE3",
"C	c #7AB0E7",
"D	c #187ADD",
"E	c #7BAFE6",
"F	c #D2E3F3",
"G	c #76AFE8",
"H	c #3A8DE1",
"I	c #1E7EDE",
"J	c #D3E2F3",
"    .+@##@+$    ",
"  %&*======*-%  ",
" %;==========>, ",
" &===')!~{]===^ ",
".*==/(_____:<=*[",
"}=='(_______|==1",
"@==)__2345__67=@",
"#==!__8990a__b=#",
"#==c__d9e9f__g=#",
"@=={__509hi_jk=@",
"}==]___lmi__n==1",
"op==q______rs=pt",
" u==<|v___ws==x ",
" %y===7zAk===B, ",
"  %CD======DE%  ",
"    FGHIIHGJ    "};
