/* XPM */
static char * toggle_xpm[] = {
"16 16 10 1",
" 	c None",
".	c #5A5A5A",
"+	c #565C63",
"@	c #555C64",
"#	c #585A5C",
"$	c #585A5D",
"%	c #585B5E",
"&	c #1484FF",
"*	c #585A5E",
"=	c #595A5C",
"                ",
"                ",
"      ....      ",
"    ..+  @..    ",
"   .#      $.   ",
"   .        .   ",
"  .%   &&   @.  ",
"  .   &&&&   .  ",
"  .   &&&&   .  ",
"  .*   &&   +.  ",
"   .        .   ",
"   .=      #.   ",
"    ..*  %..    ",
"      ....      ",
"                ",
"                "};
