/* XPM */
static const char * toggle_xpm[] = {
"16 16 19 1",
" 	c #FFFFFF",
".	c #E8E8E8",
"+	c #A7A7A7",
"@	c #888888",
"#	c #FEFEFE",
"$	c #ACACAC",
"%	c #717171",
"&	c #B3B6B9",
"*	c #D1D4D7",
"=	c #878889",
"-	c #FAFAFB",
";	c #87888A",
">	c #B4B5B7",
",	c #C3DDFA",
"'	c #3294FF",
")	c #C2DEFC",
"!	c #D2D4D4",
"~	c #1584FF",
"{	c #C3DCF8",
"                ",
"                ",
"     .+@@+.     ",
"   #$%&**&%$#   ",
"   $=-    -;$   ",
"  .%-      -%.  ",
"  +>  ,'')  &+  ",
"  @!  '~~'  *@  ",
"  @!  '~~'  *@  ",
"  +>  {'',  &+  ",
"  .%-      -%.  ",
"   $=-    -=$   ",
"   #$%>!!>%$#   ",
"     .+@@+.     ",
"                ",
"                "};
