/* XPM */
static const char * triton_xpm[] = {
"32 32 31 1",
" 	c None",
".	c #000000",
"+	c #993333",
"@	c #996533",
"#	c #CB6532",
"$	c #986565",
"%	c #CC6666",
"&	c #CC9866",
"*	c #653232",
"=	c #CB9898",
"-	c #CB9832",
";	c #663200",
">	c #989865",
",	c #320031",
"'	c #323100",
")	c #660032",
"!	c #222222",
"~	c #440000",
"{	c #656532",
"]	c #333333",
"^	c #320000",
"/	c #111111",
"(	c #540000",
"_	c #999833",
":	c #220000",
"<	c #100000",
"[	c #660000",
"}	c #666500",
"|	c #001000",
"1	c #444444",
"2	c #000010",
"                                ",
"                                ",
"                                ",
"            .......             ",
"          ..+@@#$#$..           ",
"        ..@$$%&$&%#$#..         ",
"       .**@$&&=&%&%-%@%.        ",
"      .*;*$$&&&=&#&%>%#$.       ",
"     .,;**@@$&=&%&%&&&&#%.      ",
"     .');*$%>%>%>%-%&&&&@.      ",
"    .!~'*{@@@@%$#@%%&&%&#%.     ",
"    .~]'***@@@&@$#$-%&&%&@.     ",
"   .^/'(*;@**@$+#$-%%&%&%#%.    ",
"   .!^^]'**@@+{@+$%_%#&#>%@.    ",
"   .!^!;,;*@+{++@@_%@%@&%@%.    ",
"   .:!:!;***@*;*+@$%@$%@%#$.    ",
"   ./:'^^'{;**+*{+$@$#@%#$@.    ",
"   .:!:',~;*;*;*+@@+@@@$@#$.    ",
"   .'::,'','*'***@*{+$+@$+@.    ",
"    .:!<^!','[*@$*+*@{$+@*.     ",
"    .!::!^^'~];{{*}***@**+.     ",
"     .:':/^^!;,;****;*;*;|      ",
"     .!<^/','^',;'***;*;*.      ",
"      ./:^/'^!~','~1')'*.       ",
"       .:!^:/^!^',';,;!.        ",
"        ../:^!:^^',^'2<         ",
"          ..!::!!^^|.           ",
"            ..|...|             ",
"                                ",
"                                ",
"                                ",
"                                "};
