/* XPM */
static const char * uranus_xpm[] = {
"32 32 30 1",
" 	c None",
".	c #000000",
"+	c #222222",
"@	c #000022",
"#	c #000032",
"$	c #000010",
"%	c #000044",
"&	c #000054",
"*	c #003232",
"=	c #003366",
"-	c #000066",
";	c #323265",
">	c #000076",
",	c #003298",
"'	c #333399",
")	c #006598",
"!	c #006666",
"~	c #336699",
"{	c #3265CB",
"]	c #3298CB",
"^	c #0066CC",
"/	c #6699CC",
"(	c #0099CC",
"_	c #65CBFF",
":	c #66CCCC",
"<	c #6598FF",
"[	c #32CBCB",
"}	c #3399FF",
"|	c #009898",
"1	c #001000",
"                                ",
"                                ",
"            .......             ",
"         .+@##@@@$$...          ",
"        .%&%%#@@$@$$$..         ",
"      ..%*=%*###$@$$$$$..       ",
"     .&&=-+=&###@@$$.$.$..      ",
"     .====;==%%##@@$$$$.$.      ",
"    .=======;%*%##@$$$.$$..     ",
"   .===>=,'=;=&&%##@$$$..$..    ",
"   .,,,),!~)'====%#@@$$.$...    ",
"   .=,=,,~~'~===&*%#@$$$.$..    ",
"  .,)))))~~~~,,==-%%#@$.$.$..   ",
"  .),),)){]~{),====##@$$..$..   ",
"  .)))^)^~]]~)),==&=#@$$.$...   ",
"  .))^)^^]/{]),),==%##@$$..$.   ",
"  .)^)^(]]]]/))),===%#@$.$.$.   ",
"  .^)^(^(]/]]^)),,=&%*@$$.$..   ",
"  .)(^((]]_]/^^)),==&%@$$....   ",
"   .^^(((]:<]())),===#@@$.$.    ",
"   .((((]]_]/(^),)==%%#$$$..    ",
"   .^^((]]<[}^)^),,==%#@@$..    ",
"    .(^((]_]/(^)))==-*##$$.     ",
"     .^(]]:]/^))),,==&%#@.      ",
"     .((]]<]}|^),,===&%##.      ",
"      ..(]:]/^)))),===%1.       ",
"        .]<]]^)),,=,==.         ",
"         $;@]),),),...          ",
"            .......             ",
"                                ",
"                                ",
"                                "};
