/* XPM */
static char * variable_xpm[] = {
"20 20 73 1",
" 	c None",
".	c #FFFFFF",
"+	c #D5D563",
"@	c #9F9F3D",
"#	c #78742D",
"$	c #C1BF75",
"%	c #E6E394",
"&	c #807B2A",
"*	c #CACD5C",
"=	c #A4A548",
"-	c #181300",
";	c #2B2800",
">	c #FAFBCE",
",	c #E1E489",
"'	c #2C2900",
")	c #100D00",
"!	c #110E00",
"~	c #817F44",
"{	c #070500",
"]	c #C0C17D",
"^	c #656915",
"/	c #DADD84",
"(	c #F1F4B3",
"_	c #DCDF76",
":	c #CBCA89",
"<	c #080500",
"[	c #343200",
"}	c #B8B96D",
"|	c #FBF7AD",
"1	c #252100",
"2	c #302C00",
"3	c #FCFAAD",
"4	c #FDFAA9",
"5	c #514C0A",
"6	c #0C0600",
"7	c #E7E39C",
"8	c #C1BF68",
"9	c #5C5914",
"0	c #0A0400",
"a	c #A6A167",
"b	c #707113",
"c	c #F4F5CC",
"d	c #0E0700",
"e	c #686232",
"f	c #FCFCCE",
"g	c #D6D86B",
"h	c #EFF079",
"i	c #818030",
"j	c #DEDD8D",
"k	c #6E711A",
"l	c #D5DA73",
"m	c #474314",
"n	c #241F00",
"o	c #DBD797",
"p	c #7B7A20",
"q	c #CCCA73",
"r	c #0C0B00",
"s	c #171600",
"t	c #C2C56A",
"u	c #9B9A57",
"v	c #080600",
"w	c #4D4A03",
"x	c #D9D772",
"y	c #F5F4BC",
"z	c #D3D36F",
"A	c #FFFEFF",
"B	c #FCFDFF",
"C	c #FEFFFF",
"D	c #FDFFFE",
"E	c #FEFEFD",
"F	c #FEFFFD",
"G	c #FFFFFD",
"H	c #FFFDFF",
"....................",
"....................",
"....................",
"....................",
"......+@#$..%#&.....",
"......*=-;>,')!.....",
"........~{]^/(_.....",
"........:<[}........",
"........|123........",
"........4567........",
"........890a........",
"........bcdefgh.....",
".....ijkl.mnop......",
"....qrst..uvw.......",
".....xy....z........",
"....................",
"....................",
"....................",
"....................",
"AB.C.DEFGFGF.C..HA.G"};
