/* XPM */
static char * varyevent_xpm[] = {
"16 16 83 1",
" 	c None",
".	c #FFFFFF",
"+	c #F0F0F0",
"@	c #ADADAD",
"#	c #BDBDBD",
"$	c #F3F2F3",
"%	c #909090",
"&	c #C3C3C3",
"*	c #474747",
"=	c #525252",
"-	c #FCFCFC",
";	c #7B7C7B",
">	c #FEFEFE",
",	c #FBFBFB",
"'	c #444444",
")	c #E0E0E0",
"!	c #9C9C9C",
"~	c #3D3D3D",
"{	c #D1D1D1",
"]	c #7F7F7F",
"^	c #1B1B1B",
"/	c #919191",
"(	c #FDFDFD",
"_	c #9E9E9E",
":	c #717171",
"<	c #C9C9C9",
"[	c #9B9B9B",
"}	c #5D5D5D",
"|	c #E5E5E5",
"1	c #C6C5C6",
"2	c #585858",
"3	c #8E8E8E",
"4	c #292929",
"5	c #A7A7A7",
"6	c #E6E6E6",
"7	c #636363",
"8	c #6D6D6D",
"9	c #EFEFEF",
"0	c #070707",
"a	c #D0D0D0",
"b	c #FAFAFA",
"c	c #2B2A2B",
"d	c #E1E1E1",
"e	c #DADADA",
"f	c #0A0A0A",
"g	c #B6B6B6",
"h	c #B0B0B0",
"i	c #F3F3F3",
"j	c #B7B7B7",
"k	c #434343",
"l	c #ECECEC",
"m	c #151515",
"n	c #121212",
"o	c #E8E7E8",
"p	c #8B8B8B",
"q	c #797979",
"r	c #CBCBCB",
"s	c #464646",
"t	c #CECECE",
"u	c #262626",
"v	c #EDEDED",
"w	c #9F9F9F",
"x	c #828282",
"y	c #818181",
"z	c #A5A5A5",
"A	c #838383",
"B	c #8D8D8D",
"C	c #969696",
"D	c #515151",
"E	c #F4F4F4",
"F	c #DFE0DF",
"G	c #5F5F5F",
"H	c #BCBCBC",
"I	c #282828",
"J	c #E8E8E8",
"K	c #757575",
"L	c #575757",
"M	c #DBDBDB",
"N	c #E9E9E9",
"O	c #A8A8A8",
"P	c #AAAAAA",
"Q	c #C7C7C7",
"R	c #A0A0A0",
"................",
"...+@#$.........",
"...%&*=.........",
"..-;.>,.........",
"...')...........",
"...!~,....>..>..",
"..{]^/..(_!:<[}|",
".12,34..56.7890a",
"bcd.ef-.g..'h.i.",
"jk..lm....,no...",
"pq..rs....tu..v.",
"wx..yz.iAbB}..C.",
"+DEFG(.HIJKL(zM.",
".NwOb..>@P,QR)..",
"................",
"................"};
