/* XPM */
static char * varyevent_xpm[] = {
"16 16 67 1",
" 	c None",
".	c #CACACA",
"+	c #ACACAC",
"@	c #C9C8C9",
"#	c #D6D6D6",
"$	c #B2B2B2",
"%	c #648DB7",
"&	c #1E79D4",
"*	c #F0F0F0",
"=	c #C4C4C4",
"-	c #8BA2BA",
";	c #D3D3D3",
">	c #C7C7C7",
",	c #1478DC",
"'	c #DEDEDE",
")	c #C9C9C9",
"!	c #949494",
"~	c #CCCCCC",
"{	c #C6C6C6",
"]	c #D7D7D7",
"^	c #BFBFBF",
"/	c #D8D8D8",
"(	c #9C9C9C",
"_	c #8BAFF8",
":	c #D0D0D0",
"<	c #BDBDBD",
"[	c #A3A3A3",
"}	c #447CB3",
"|	c #AFAFAF",
"1	c #1577D9",
"2	c #E9E9E9",
"3	c #4077AE",
"4	c #BEBEBE",
"5	c #93B4F8",
"6	c #C1C1C1",
"7	c #B0B0B0",
"8	c #D2D2D2",
"9	c #9D9D9D",
"0	c #D9D9D9",
"a	c #2573C1",
"b	c #F5F5F5",
"c	c #E2E2E2",
"d	c #AAAAAA",
"e	c #EFEFEF",
"f	c #919191",
"g	c #EAEAEA",
"h	c #CDCDCD",
"i	c #989898",
"j	c #3280CE",
"k	c #909090",
"l	c #E3E3E3",
"m	c #ADADAD",
"n	c #7596B6",
"o	c #8BACCD",
"p	c #CFCFCF",
"q	c #8A8A8A",
"r	c #A9A9A9",
"s	c #BABABA",
"t	c #1A75D0",
"u	c #799ABB",
"v	c #A6BED5",
"w	c #8CADCE",
"x	c #B3B3B3",
"y	c #C8C8C8",
"z	c #C2C2C2",
"A	c #B6B6B6",
"B	c #9EB6CD",
"                ",
"                ",
"    .+@         ",
"   #$%&*        ",
"   =-*;         ",
"   >,'          ",
"   ),!   ~{#]^  ",
"  /(_,] :<[}|1^ ",
" 2345,6 7 4,890 ",
" <a b,6 c d,e   ",
" f, g,h   ,,    ",
" ij >kl ml,n o  ",
" pqgrs  th,uvw  ",
"  >xy   (z:AB   ",
"                ",
"                "};
