/* XPM */
static const char * venus_xpm[] = {
"32 32 23 1",
" 	c None",
".	c #000000",
"+	c #663200",
"@	c #986500",
"#	c #CB9832",
"$	c #440000",
"%	c #983200",
"&	c #CC9900",
"*	c #100000",
"=	c #540000",
"-	c #989700",
";	c #CC6500",
">	c #CBCB32",
",	c #323100",
"'	c #999833",
")	c #320000",
"!	c #996533",
"~	c #666500",
"{	c #FFCC33",
"]	c #FF9833",
"^	c #760000",
"/	c #660000",
"(	c #000010",
"                                ",
"                                ",
"                                ",
"            .......             ",
"          ..#>#{>{>..           ",
"        ..&&&#&####>>..         ",
"       .@@@-#@-#&######.        ",
"      .@+@@@@-'@-#'-'##>.       ",
"     .++@+@+@@@@!@@!####>.      ",
"     .++++++++~%@!'&-'&##.      ",
"    .$++++++~%@@!-@@!@#>#>.     ",
"    .,=+++++%~@@-&;';'&##].     ",
"   .$=++++@@@&-&&#-&#&##&>>.    ",
"   .$*$+~@@-;-&;-&&&&#&#>]#.    ",
"   .*$+++%@@@@@@@@@!;@#&&##.    ",
"   .$,$++++%+%++%%@@@@@@#&#.    ",
"   .*$=,=+=+%+%%~@%@@@@#@##.    ",
"   .)*$$*$,=+%+@%@@@@;;;#&#.    ",
"   .*)*$$$==,+%+@@@@@@&&&#&.    ",
"    .*)$,$,++++%%@@;@;@;#&.     ",
"    .**$)$$$$+++%%%@@@@#;&.     ",
"     .)*$*$$+$+++%+%%%@@;(      ",
"     .*$*$,$$==+%+%+++%@@.      ",
"      .*)*$$,$++^%++%+@%.       ",
"       .*)*$$=$=+++%+%+.        ",
"        ..*$*,+=++/++..         ",
"          ..*$$==++..           ",
"            .......             ",
"                                ",
"                                ",
"                                ",
"                                "};
