/* XPM */
static const char * WebHelp_xpm[] = {
"16 16 167 2",
"  	c None",
". 	c #2C85A5",
"+ 	c #3F9095",
"@ 	c #66AA6D",
"# 	c #5EA672",
"$ 	c #3F9291",
"% 	c #62A773",
"& 	c #45948E",
"* 	c #1878B8",
"= 	c #62A870",
"- 	c #8EC73E",
"; 	c #96CD35",
"> 	c #7BB955",
", 	c #2E86A3",
"' 	c #1F7EB0",
") 	c #4C9889",
"! 	c #68AC69",
"~ 	c #499888",
"{ 	c #086FC6",
"] 	c #6EB063",
"^ 	c #96CD34",
"/ 	c #99CF32",
"( 	c #75B45C",
"_ 	c #1B7BB4",
": 	c #57A17A",
"< 	c #88C245",
"[ 	c #72B262",
"} 	c #5CA17C",
"| 	c #0D72C1",
"1 	c #63A96D",
"2 	c #80BE4D",
"3 	c #4B9987",
"4 	c #409193",
"5 	c #2180AC",
"6 	c #0A72C1",
"7 	c #0F74BF",
"8 	c #6EB162",
"9 	c #95CC35",
"0 	c #84BF4C",
"a 	c #82BC51",
"b 	c #86C049",
"c 	c #2782A8",
"d 	c #0B73C0",
"e 	c #1377B9",
"f 	c #0770C4",
"g 	c #207FAE",
"h 	c #217FAE",
"i 	c #1F7EAF",
"j 	c #1778B8",
"k 	c #7EBB52",
"l 	c #92CA38",
"m 	c #90C93A",
"n 	c #8BC541",
"o 	c #509D80",
"p 	c #2581AB",
"q 	c #0B73BF",
"r 	c #0D74BD",
"s 	c #0F75BC",
"t 	c #0A72C0",
"u 	c #0C73C0",
"v 	c #61A871",
"w 	c #0971C2",
"x 	c #4A988A",
"y 	c #88C14A",
"z 	c #77B65A",
"A 	c #59A07E",
"B 	c #217DB3",
"C 	c #0C72C1",
"D 	c #0E75BD",
"E 	c #0C74BD",
"F 	c #0F75B6",
"G 	c #449684",
"H 	c #56A075",
"I 	c #0E74BD",
"J 	c #1275BC",
"K 	c #2E87A3",
"L 	c #65AA6C",
"M 	c #64A870",
"N 	c #7BB858",
"O 	c #3E9193",
"P 	c #1075BD",
"Q 	c #0B73BC",
"R 	c #0971C1",
"S 	c #67A8A0",
"T 	c #B0D758",
"U 	c #95C571",
"V 	c #046EC6",
"W 	c #358C9B",
"X 	c #95CB37",
"Y 	c #91CA38",
"Z 	c #92C93A",
"` 	c #3E9091",
" .	c #0D72C2",
"..	c #83B2DA",
"+.	c #6AA5D2",
"@.	c #2B82C3",
"#.	c #2F84C4",
"$.	c #9EC3E2",
"%.	c #0B72BF",
"&.	c #2381AA",
"*.	c #88C246",
"=.	c #60A771",
"-.	c #076FBB",
";.	c #82B1DB",
">.	c #5499CE",
",.	c #1D7BC0",
"'.	c #9AC1E3",
").	c #8AB8DE",
"!.	c #086EB9",
"~.	c #66A3D3",
"{.	c #1175BD",
"].	c #6BAE65",
"^.	c #0A71BC",
"/.	c #3387C8",
"(.	c #86B4DB",
"_.	c #006AB7",
":.	c #D2E2F1",
"<.	c #ABCBE6",
"[.	c #C3D9ED",
"}.	c #83B7DC",
"|.	c #0064B4",
"1.	c #B6D2E9",
"2.	c #0E75BC",
"3.	c #0D73C0",
"4.	c #74B45E",
"5.	c #489889",
"6.	c #0A70B8",
"7.	c #5F9FD2",
"8.	c #5198CD",
"9.	c #0770BA",
"0.	c #4795CB",
"a.	c #2E85C4",
"b.	c #C2D9ED",
"c.	c #6FAAD6",
"d.	c #0066B5",
"e.	c #6BA5D4",
"f.	c #0C73BF",
"g.	c #2883A7",
"h.	c #358B9C",
"i.	c #0770B8",
"j.	c #5C9CD0",
"k.	c #5098CD",
"l.	c #046FB9",
"m.	c #0068B6",
"n.	c #94BDDF",
"o.	c #9CC3E2",
"p.	c #036EB8",
"q.	c #006DB8",
"r.	c #6CA6D4",
"s.	c #0670BA",
"t.	c #4793CB",
"u.	c #95BDE0",
"v.	c #006CB7",
"w.	c #0871BA",
"x.	c #A3C6E4",
"y.	c #6DA8D6",
"z.	c #026DB8",
"A.	c #B9D3EA",
"B.	c #4C94CC",
"C.	c #7EB1D9",
"D.	c #559BCF",
"E.	c #0065B4",
"F.	c #71A9D6",
"G.	c #EDF3F9",
"H.	c #77ADD8",
"I.	c #3588C6",
"J.	c #3F8EC8",
"        . + @ # $               ",
"      % & * = - ; > ,           ",
"    ' ) ! ~ { ] ^ / ( _         ",
"  : < [ } = | 1 2 3 4 5 6       ",
"7 8 9 0 a b c d e f g h i       ",
"j k l m n o p q r s t u v       ",
"w x y z A B C D s E F G H       ",
"I J K L M N O P Q R S T U       ",
"s I V W X Y Z `  ...+.@.#.$.    ",
"  s %.&.*.^ =.-.;.>.,.'.).!.~.  ",
"  s I {.k ].^./.(._.:.<.[.}.|.1.",
"    2.3.4.5.6.7.8.9.0.a.b.c.d.e.",
"      f.g.h.i.j.k.l.m.n.o.p.q.r.",
"            s.t.u.v.w.x.y.z.z.A.",
"                  B.d.C.D.E.F.  ",
"                  G.H.I.J.x.    "};
