/* XPM */
static char * whileloop_xpm[] = {
"16 16 13 1",
" 	c None",
".	c #1F003F",
"+	c #132E6B",
"@	c #112459",
"#	c #1C013A",
"$	c #170130",
"%	c #1374D5",
"&	c #1478DC",
"*	c #1373D4",
"=	c #0E0220",
"-	c #1A0137",
";	c #000000",
">	c #16002D",
"                ",
"                ",
".+@             ",
" #$  %&&&&      ",
"  . &&&&&&&     ",
"   *&&&&&&&     ",
"   &&&&&&&&     ",
"   &&&&&&&&     ",
"   &&&&&&&&     ",
"   &&&&&&&&     ",
"   %&&&&&&&     ",
"    &&&&&&&  .  ",
"     %&&&&   =- ",
"             ;>.",
"                ",
"                "};
