/* XPM */
static char * whileloop_xpm[] = {
"16 16 69 1",
" 	c None",
".	c #FFFFFF",
"+	c #FEFEFE",
"@	c #F9FAF9",
"#	c #F5F5F5",
"$	c #6A6A6A",
"%	c #CFCFCF",
"&	c #FBFBFB",
"*	c #616161",
"=	c #474747",
"-	c #6E6E6E",
";	c #ECECEC",
">	c #F8F8F8",
",	c #E2E2E2",
"'	c #717271",
")	c #AEAEAE",
"!	c #565656",
"~	c #F1F1F1",
"{	c #C8C8C8",
"]	c #717171",
"^	c #EAEAEA",
"/	c #E1E1E1",
"(	c #727272",
"_	c #A8A7A8",
":	c #C7C7C7",
"<	c #F2F2F2",
"[	c #6F6F6F",
"}	c #EBEBEB",
"|	c #FEFFFE",
"1	c #7F7F7F",
"2	c #747474",
"3	c #C1C1C1",
"4	c #B3B3B3",
"5	c #9F9F9F",
"6	c #D4D4D4",
"7	c #828282",
"8	c #FAFAFA",
"9	c #EFEFEF",
"0	c #8A8A8A",
"a	c #808080",
"b	c #838483",
"c	c #7D7D7D",
"d	c #FDFDFD",
"e	c #818181",
"f	c #989798",
"g	c #E0E0E0",
"h	c #CCCCCC",
"i	c #ACACAC",
"j	c #EDEDED",
"k	c #797979",
"l	c #F6F6F6",
"m	c #9D9D9D",
"n	c #BEBEBE",
"o	c #ADADAD",
"p	c #8F8F8F",
"q	c #A3A3A3",
"r	c #FCFCFC",
"s	c #989898",
"t	c #9C9C9C",
"u	c #C5C5C5",
"v	c #7A797A",
"w	c #898989",
"x	c #A7A7A7",
"y	c #A6A6A6",
"z	c #878787",
"A	c #7A7A7A",
"B	c #D7D7D7",
"C	c #D9D9D9",
"D	c #F7F7F7",
"...+@...........",
"...#$%..........",
"....&*=-;.>.....",
"...,')!~..{]^...",
"../(>_:....<[}..",
".|[>.1......<2..",
".34..+.......56.",
".78..........90.",
".a............b.",
".c...........de.",
".fg..........hi.",
".je..........kl.",
"..mn........)o..",
"...pqd....rst...",
"....uvwxyzA%....",
"......#BCD......"};
