/* XPM */
static char * whileloop_xpm[] = {
"16 16 180 2",
"  	c None",
". 	c #F2F2F1",
"+ 	c #E3E2E2",
"@ 	c #E2E1E1",
"# 	c #E1E0E0",
"$ 	c #C3C1C0",
"% 	c #999695",
"& 	c #969393",
"* 	c #9E9C9B",
"= 	c #969493",
"- 	c #C4C3C2",
"; 	c #F6F6F6",
"> 	c #FDFDFD",
", 	c #FEFEFE",
"' 	c #B1AFAE",
") 	c #565250",
"! 	c #676462",
"~ 	c #494543",
"{ 	c #A7A5A4",
"] 	c #E7E7E8",
"^ 	c #FAFAFB",
"/ 	c #FCFCFD",
"( 	c #E8E8E9",
"_ 	c #B8B6B5",
": 	c #A4A2A1",
"< 	c #E8E7E7",
"[ 	c #FCFCFC",
"} 	c #E0E0DF",
"| 	c #6F6B6A",
"1 	c #787573",
"2 	c #6B6766",
"3 	c #D6D6D6",
"4 	c #F9F9FC",
"5 	c #E0E0F7",
"6 	c #C7C7F1",
"7 	c #C6C6F1",
"8 	c #DFDFF6",
"9 	c #F8F8FC",
"0 	c #FBFBFC",
"a 	c #DCDBDB",
"b 	c #9F9C9B",
"c 	c #F5F5F5",
"d 	c #949190",
"e 	c #5B5857",
"f 	c #BDBCD0",
"g 	c #8888E4",
"h 	c #5A5ADC",
"i 	c #5959DD",
"j 	c #8686E5",
"k 	c #FBFBFD",
"l 	c #DCDCDC",
"m 	c #C5C3C3",
"n 	c #B7B5B4",
"o 	c #DFDEDF",
"p 	c #9998AB",
"q 	c #5D5CD0",
"r 	c #6464DF",
"s 	c #8585E5",
"t 	c #9090E8",
"u 	c #8586E6",
"v 	c #6666DF",
"w 	c #6868DF",
"x 	c #B9B7B7",
"y 	c #9A9897",
"z 	c #8989E5",
"A 	c #6363DF",
"B 	c #A2A2EB",
"C 	c #ADADED",
"D 	c #A2A3EB",
"E 	c #9191E8",
"F 	c #8484E4",
"G 	c #E9E9E9",
"H 	c #9A9896",
"I 	c #989594",
"J 	c #E1E1F7",
"K 	c #5959DB",
"L 	c #8484E5",
"M 	c #B9BAF0",
"N 	c #C9C9F3",
"O 	c #C9CAF3",
"P 	c #BABAF0",
"Q 	c #A3A3EB",
"R 	c #8686E6",
"S 	c #5858DC",
"T 	c #DDDDF6",
"U 	c #989695",
"V 	c #A09D9D",
"W 	c #5757DC",
"X 	c #CACAF3",
"Y 	c #E1E1F8",
"Z 	c #E2E2F8",
"` 	c #CBCBF3",
" .	c #AEAEEE",
"..	c #C1C1F0",
"+.	c #A09E9E",
"@.	c #9F9D9D",
"#.	c #C4C4F1",
"$.	c #CBCCF3",
"%.	c #E5E5F8",
"&.	c #CCCDF4",
"*.	c #AFAFEE",
"=.	c #9292E8",
"-.	c #BEBEF0",
";.	c #979594",
">.	c #DCDCF6",
",.	c #8788E6",
"'.	c #A5A5EC",
").	c #BDBEF1",
"!.	c #CECFF4",
"~.	c #CFCFF4",
"{.	c #BEBEF1",
"].	c #A6A6EC",
"^.	c #8989E6",
"/.	c #5656DB",
"(.	c #D6D6F5",
"_.	c #989595",
":.	c #E8E8E8",
"<.	c #F7F7FC",
"[.	c #7B7BE2",
"}.	c #6C6CE0",
"|.	c #9495E9",
"1.	c #A7A7EC",
"2.	c #B2B3EE",
"3.	c #B3B3EF",
"4.	c #9595E9",
"5.	c #6E6EE1",
"6.	c #7474E0",
"7.	c #F4F4FB",
"8.	c #E9E8E9",
"9.	c #C6C5C4",
"0.	c #B7B6B5",
"a.	c #D4D4F4",
"b.	c #5E5EDD",
"c.	c #7070E1",
"d.	c #8D8DE7",
"e.	c #9797E9",
"f.	c #7171E1",
"g.	c #5555D6",
"h.	c #B2B1D4",
"i.	c #F5F5F6",
"j.	c #B7B5B5",
"k.	c #C5C4C3",
"l.	c #A5A3A2",
"m.	c #DBDADA",
"n.	c #CFCFF3",
"o.	c #6F6FE0",
"p.	c #6262DE",
"q.	c #6262DF",
"r.	c #6B6BDF",
"s.	c #A9A8CE",
"t.	c #524E4E",
"u.	c #8B8887",
"v.	c #A19F9E",
"w.	c #E9E8E8",
"x.	c #9F9D9B",
"y.	c #F0F0FA",
"z.	c #A6A6EA",
"A.	c #A5A5EA",
"B.	c #EFEFFA",
"C.	c #D6D5D6",
"D.	c #605D5B",
"E.	c #55514F",
"F.	c #969392",
"G.	c #F7F7F7",
"H.	c #A4A3A1",
"I.	c #B6B5B4",
"J.	c #FAFAFA",
"K.	c #E7E7E7",
"L.	c #A6A4A4",
"M.	c #5D5A58",
"N.	c #54504E",
"O.	c #D7D7D6",
"P.	c #C6C4C4",
"Q.	c #999796",
"R.	c #959392",
"S.	c #9D9B9A",
"T.	c #9D9B9B",
"U.	c #C3C2C1",
"V.	c #E0DFDF",
"W.	c #F8F8F7",
". + @ # $ % & * * = % - ; > > , ",
"' ) ! ~ { ] ^ / / ^ ( _ : < [ , ",
"} | 1 2 3 4 5 6 7 8 9 0 a b < > ",
"c d 2 e f g h i i h j 8 k l : ; ",
"m n o p q r s t t u v w 8 0 x m ",
"y ( 4 z A t B C C D E v F 9 G H ",
"I ^ J K L B M N O P Q R S T ^ U ",
"V > 6 W t C X Y Z `  .E S ..> +.",
"@.> #.W E  .$.%.%.&.*.=.S -.> +.",
";.^ >.S ,.'.).!.~.{.].^./.(.^ _.",
"y :.<.[.}.|.1.2.3.1.4.5.6.7.8.H ",
"9.0.0 a.b.c.d.e.e.d.f.g.h.i.j.k.",
"; l.m.k n.o.S p.q.S r.s.t.u.v.c ",
"> w.x.m.0 y.7 z.A.#.B.C.D.E.F.G.",
"> > w.H.I.] J.> > J.K.L.~ M.N.O.",
"> , > ; P.Q.R.S.T.R.% U.V.# + W."};
