/* XPM */
static char * xyplot_xpm[] = {
"16 16 82 1",
" 	c None",
".	c #FAFAFA",
"+	c #C5C5C5",
"@	c #FFFFFF",
"#	c #FDFDFD",
"$	c #FEFEFE",
"%	c #C8C8C8",
"&	c #F1F1F1",
"*	c #5A5A5A",
"=	c #B4B4B4",
"-	c #E1E1E1",
";	c #4E4E4E",
">	c #D8D8D8",
",	c #8D8D8D",
"'	c #8C8C8C",
")	c #424242",
"!	c #6B6B6B",
"~	c #929292",
"{	c #5B5B5B",
"]	c #C7C7C7",
"^	c #434343",
"/	c #F2F2F2",
"(	c #6D6D6D",
"_	c #CACACA",
":	c #F7F7F7",
"<	c #454545",
"[	c #494949",
"}	c #ECECEC",
"|	c #ACACAC",
"1	c #585858",
"2	c #B8B8B8",
"3	c #858585",
"4	c #737373",
"5	c #868686",
"6	c #B5B5B5",
"7	c #777777",
"8	c #909090",
"9	c #EFEFEF",
"0	c #4F4F4F",
"a	c #8A8A8A",
"b	c #B3B3B3",
"c	c #767676",
"d	c #3D3D3D",
"e	c #CBCBCB",
"f	c #F9F9F9",
"g	c #565656",
"h	c #E9E9E9",
"i	c #383838",
"j	c #696969",
"k	c #D6D6D6",
"l	c #FBFBFB",
"m	c #444444",
"n	c #515151",
"o	c #C2C2C2",
"p	c #7C7C7C",
"q	c #A0A0A0",
"r	c #535353",
"s	c #5E5E5E",
"t	c #949494",
"u	c #C3C3C3",
"v	c #D3D3D3",
"w	c #A5A5A5",
"x	c #999999",
"y	c #ADADAD",
"z	c #F4F4F4",
"A	c #4C4C4C",
"B	c #FCFCFC",
"C	c #6A6A6A",
"D	c #DDDDDD",
"E	c #616161",
"F	c #E5E5E5",
"G	c #4B4B4B",
"H	c #F6F6F6",
"I	c #414141",
"J	c #919191",
"K	c #A6A6A6",
"L	c #D9D9D9",
"M	c #5D5D5D",
"N	c #DADADA",
"O	c #7E7E7E",
"P	c #BEBEBE",
"Q	c #555555",
".+@@#@$$@#$@#@@#",
".%&*=@@@@@@-;>@@",
".%,').@@@@@!~{@@",
".]^/(_@@@@:<.[}@",
".|1@23@@@@_4@56@",
".78@90@@@@ab@]c@",
".de@@[f@@@gh@&;$",
".i&@@jk@@lm@@#n9",
"o~ooop7ooqrooost",
"$u@@@v!@@wx@@@y~",
"$u@@@zAB@Cv@@@DE",
"$u@@@@1FlGH@@@BI",
"$u@@@@JKLM@@@@@C",
"$u@@@@NnO|@@@@@P",
"$u@@@@@cQH@@@@@$",
"$o@@$@@#l@@@$@@$"};
