/* XPM */
static char * xyplot_xpm[] = {
"20 20 297 2",
"  	c None",
". 	c #95949A",
"+ 	c #C6C5D7",
"@ 	c #BCBEE5",
"# 	c #B3B4F5",
"$ 	c #6C6FCE",
"% 	c #8B90E4",
"& 	c #B7BBE1",
"* 	c #C2C6D2",
"= 	c #C6C3CE",
"- 	c #C3C0C7",
"; 	c #C3C4C9",
"> 	c #BCC0C1",
", 	c #C3C3C3",
"' 	c #C8C8C6",
") 	c #BBBDBC",
"! 	c #C7C9C6",
"~ 	c #C5C6C1",
"{ 	c #BDBEB9",
"] 	c #949295",
"^ 	c #FEFCFF",
"/ 	c #C2C1C6",
"( 	c #FCFDFF",
"_ 	c #EFF1FF",
": 	c #4C4F96",
"< 	c #8081D1",
"[ 	c #55589F",
"} 	c #9EA1D4",
"| 	c #F8F9FF",
"1 	c #FCFAFF",
"2 	c #FEFFFF",
"3 	c #F8F9FB",
"4 	c #FDFDFB",
"5 	c #FBFBFB",
"6 	c #FAFAF8",
"7 	c #FFFFFD",
"8 	c #F5F5F3",
"9 	c #BCBABF",
"0 	c #FFFEFF",
"a 	c #BABCB9",
"b 	c #F4F6FF",
"c 	c #8483CF",
"d 	c #898ADD",
"e 	c #EBEEFF",
"f 	c #403F8B",
"g 	c #D0CDFF",
"h 	c #FBF9FF",
"i 	c #ECEBE9",
"j 	c #F7F7F7",
"k 	c #F2F4F3",
"l 	c #F5F7F6",
"m 	c #F9F9F9",
"n 	c #F3F3F3",
"o 	c #F8F8F8",
"p 	c #F2F3F5",
"q 	c #BBBAC0",
"r 	c #FCFBFF",
"s 	c #C0C1D5",
"t 	c #EEEDFF",
"u 	c #403F8F",
"v 	c #EAE9FF",
"w 	c #FAFBFF",
"x 	c #FBFCFF",
"y 	c #C0BDFF",
"z 	c #6461B2",
"A 	c #F9F8FF",
"B 	c #FBFAFF",
"C 	c #FFFFFF",
"D 	c #FDFDFD",
"E 	c #F8F6F9",
"F 	c #FDFDFF",
"G 	c #F7F8FC",
"H 	c #BFBEC4",
"I 	c #B6B3F6",
"J 	c #807EBF",
"K 	c #A09EDD",
"L 	c #F1F2FF",
"M 	c #F6F9FF",
"N 	c #F3F5FF",
"O 	c #EDEBFF",
"P 	c #575499",
"Q 	c #D9D8FF",
"R 	c #EEEFFF",
"S 	c #F8FBFF",
"T 	c #F0F1F3",
"U 	c #FBF9FC",
"V 	c #F9F7FA",
"W 	c #F3F1F6",
"X 	c #F8F7FC",
"Y 	c #F8F7FD",
"Z 	c #F2F3F7",
"` 	c #B7B7B9",
" .	c #FEFEFC",
"..	c #B1ADFF",
"+.	c #3F3C89",
"@.	c #ECECFF",
"#.	c #F1F4F9",
"$.	c #F5F9FF",
"%.	c #EFECFF",
"&.	c #B0ADE6",
"*.	c #7878AE",
"=.	c #EAECFF",
"-.	c #F6F8FF",
";.	c #EFF0F2",
">.	c #F7F5F8",
",.	c #FDF8FC",
"'.	c #F2F0F3",
").	c #F5F6FA",
"!.	c #F3F4F6",
"~.	c #B7B7B5",
"{.	c #FFFFFB",
"].	c #7272D4",
"^.	c #7978C4",
"/.	c #FEFAFF",
"(.	c #FCFFFF",
"_.	c #FBFFFF",
":.	c #F6F3FF",
"<.	c #F9F6FF",
"[.	c #3F3D86",
"}.	c #EDEEFF",
"|.	c #FBFEFF",
"1.	c #F9FBF8",
"2.	c #FFFDFE",
"3.	c #FAF8F9",
"4.	c #F8FDF9",
"5.	c #BBBEB7",
"6.	c #FEFFFA",
"7.	c #1F2174",
"8.	c #D1D3FF",
"9.	c #F5F1FF",
"0.	c #F2F0F1",
"a.	c #F7F9F6",
"b.	c #F5F9F8",
"c.	c #F3F0F7",
"d.	c #F6F2FF",
"e.	c #7E7DCB",
"f.	c #ABADF8",
"g.	c #F3F3FF",
"h.	c #F6F6F6",
"i.	c #F4F3F1",
"j.	c #F8F7F5",
"k.	c #F6F8F5",
"l.	c #EEF2F1",
"m.	c #B6B7BB",
"n.	c #3E4476",
"o.	c #F7FBFF",
"p.	c #FEFDFF",
"q.	c #F8F6F7",
"r.	c #FCFCFF",
"s.	c #D2D5FF",
"t.	c #5C5FA6",
"u.	c #FBF8FF",
"v.	c #F8F8FA",
"w.	c #FEFFFD",
"x.	c #FDFFFC",
"y.	c #F4F9FD",
"z.	c #B9B9D1",
"A.	c #FDFBFF",
"B.	c #B0B6CE",
"C.	c #F9FEFF",
"D.	c #F4F4FC",
"E.	c #F4F2F5",
"F.	c #F3F1F2",
"G.	c #F6F7FF",
"H.	c #F0F2FF",
"I.	c #484989",
"J.	c #E9E7FF",
"K.	c #F4F1FF",
"L.	c #F0F4F7",
"M.	c #F7FCF8",
"N.	c #EEEDEB",
"O.	c #F5F8FF",
"P.	c #EEF0FF",
"Q.	c #2E2C54",
"R.	c #B9C1C3",
"S.	c #EEF3F6",
"T.	c #F8F9FD",
"U.	c #F5F3F6",
"V.	c #FAF6F5",
"W.	c #FDF9F8",
"X.	c #F3F3F5",
"Y.	c #F3F6FF",
"Z.	c #8D8FBF",
"`.	c #9592C7",
" +	c #ECEAFF",
".+	c #FAFCFF",
"++	c #F8F6FF",
"@+	c #F5F4FF",
"#+	c #B5B3E4",
"$+	c #312C62",
"%+	c #C0C5BE",
"&+	c #FCFFFB",
"*+	c #FFFEFD",
"=+	c #FDFCFA",
"-+	c #F5F6F8",
";+	c #E5E5FF",
">+	c #47468A",
",+	c #F1F0FF",
"'+	c #6A67AA",
")+	c #8C89BE",
"!+	c #BABDB6",
"~+	c #F7F8F2",
"{+	c #F6F7F2",
"]+	c #F4F3EF",
"^+	c #FAF9F7",
"/+	c #F8F8F6",
"(+	c #F3F7FA",
"_+	c #F6F5FF",
":+	c #6160B0",
"<+	c #BBBAFF",
"[+	c #F5F5FF",
"}+	c #DDD9FF",
"|+	c #3F3A8A",
"1+	c #B2B2D8",
"2+	c #FCFEFF",
"3+	c #BDBBBC",
"4+	c #FCFBF9",
"5+	c #FBFCF6",
"6+	c #F0F1EB",
"7+	c #F4F4F2",
"8+	c #F9FAFC",
"9+	c #EDECFF",
"0+	c #BFBFFF",
"a+	c #6463AF",
"b+	c #F4F2FF",
"c+	c #F1F0FE",
"d+	c #F6F4FF",
"e+	c #928DDD",
"f+	c #928FDC",
"g+	c #B6B7D3",
"h+	c #F9FFFF",
"i+	c #C6BECB",
"j+	c #FFFBFF",
"k+	c #F8FAF5",
"l+	c #F4F3F8",
"m+	c #F9F9FF",
"n+	c #4F4F8D",
"o+	c #D9DAFF",
"p+	c #FBFBFF",
"q+	c #F8F4FF",
"r+	c #F2EFFF",
"s+	c #3D3A7F",
"t+	c #EBEBFF",
"u+	c #B9BCCF",
"v+	c #C1B9C4",
"w+	c #FDF8FE",
"x+	c #F1F3F0",
"y+	c #F7F7F5",
"z+	c #F5F5F5",
"A+	c #F5F4F9",
"B+	c #F7F7F9",
"C+	c #F2F3F8",
"D+	c #F2F3FF",
"E+	c #BEBFEF",
"F+	c #57568F",
"G+	c #EFEEFF",
"H+	c #F1ECFF",
"I+	c #7974AE",
"J+	c #9F9CD3",
"K+	c #B4B8C3",
"L+	c #C3C2BD",
"M+	c #FFFEFC",
"N+	c #FEFEFE",
"O+	c #F9FBFF",
"P+	c #8480BD",
"Q+	c #6962B2",
"R+	c #7A71CA",
"S+	c #6761AB",
"T+	c #F4F3FF",
"U+	c #BFC0C4",
"V+	c #A0A297",
"W+	c #CBCCC6",
"X+	c #CCCBD0",
"Y+	c #CDCCD1",
"Z+	c #D1D0CE",
"`+	c #C9C9C9",
" @	c #CCCCCC",
".@	c #D0D0D0",
"+@	c #C6C6C8",
"@@	c #CECFD4",
"#@	c #C3C4D8",
"$@	c #CECAFC",
"%@	c #9691D4",
"&@	c #7F78C6",
"*@	c #C9C5FF",
"=@	c #CBC9DE",
"-@	c #999999",
";@	c #FAFBF3",
">@	c #FBFDFF",
",@	c #FDFCFF",
"'@	c #FCFCFA",
")@	c #FAFCF7",
"!@	c #FEFFFB",
"~@	c #FDFFFE",
"{@	c #FCFFFD",
"]@	c #FAFFFB",
"^@	c #FCFCFC",
". + @ # $ % & * = - ; > , ' ) ! ~ { ] ^ ",
"/ ( _ : < [ } | 1 1 2 3 2 4 5 6 7 8 9 0 ",
"a b c d _ e f g h i j k l m n m o p q r ",
"s t u v w x y z A B C o C D E C F G H 0 ",
"I J K L M N O P Q R S T U V W X Y Z `  .",
"..+.O @.#.$.%.&.*.=.-.;.>.,.'.X ).!.~.{.",
"].^./.r (._.:.<.[.}.|.1.0 2.3.C 2 4.5.6.",
"7.8.9.0.a.b.c.d.e.f.g.8 j h.i.j.k.l.m.2 ",
"n.o.p.q.C C E r.s.t.u.v.(.w.3.2.x.y.z.A.",
"B.C.D.E.>.>.F.G.H.I.J.K.L.M.N.U O.P.Q.1 ",
"R.S.T.U.V.W.X.b Y.Z.`. +.+a.i.++@+#+$+1 ",
"%+&+C q.*+=+-+|.|.;+>+,+x 7 8 p.u.'+)+B ",
"!+~+{+]+^+/+k (+_+O :+<+[+v.;.[+}+|+1+2+",
"3+4+5+6+7+5 k 8+r 9+0+a+b+@+c+d+e+f+g+h+",
"i+j+4 k+7 C l+2 D b m+n+o+p+q+r+s+t+u+_.",
"v+w+o x+y+z+A+B+a.C+D+E+F+G+H+I+J+9+K+(.",
"L+{.C v. .M+m C N+x O+g.P+Q+R+S+1 T+U+2 ",
"V+W+X+Y+Z+Z+`+ @.@+@@@#@$@%@&@*@=@ @-@N+",
";@{.0 0 4 7 C C C C w.(.>@O+.+( 2 5 C N+",
"7 C ,@C '@{.N+C C C )@!@~@_.{@]@2 C ^@N+"};
